<?xml version="1.0" encoding="UTF-8" standalone="no"?>
<!DOCTYPE svg PUBLIC "-//W3C//DTD SVG 1.1//EN" "http://www.w3.org/Graphics/SVG/1.1/DTD/svg11.dtd">
<svg xmlns="http://www.w3.org/2000/svg" version="1.1" viewBox="0.00 0.00 190.00 167.00">
<g stroke-width="2.00" fill="none" stroke-linecap="butt">
<path stroke="#b96df5" vector-effect="non-scaling-stroke" d="
  M 117.07 73.42
  C 111.17 95.51 83.32 100.73 69.58 82.23"
/>
<path stroke="#fccef8" vector-effect="non-scaling-stroke" d="
  M 69.58 82.23
  L 72.43 78.40
  A 0.42 0.41 -47.1 0 1 73.07 78.37
  Q 74.96 80.53 76.90 82.79
  Q 77.03 82.95 77.24 82.92
  Q 77.72 82.85 77.48 82.42
  Q 75.77 79.52 73.69 76.90
  Q 63.74 64.39 46.41 53.44
  Q 43.99 51.91 41.69 50.90
  A 0.95 0.94 41.3 0 0 40.84 50.95
  Q 39.20 51.92 37.76 52.99
  Q 36.44 53.96 38.06 54.17
  Q 38.25 54.20 38.39 54.32
  Q 38.75 54.63 38.38 54.93
  C 28.71 62.91 29.82 76.90 39.58 84.19
  Q 46.86 89.63 56.53 88.67"
/>
<path stroke="#b96df5" vector-effect="non-scaling-stroke" d="
  M 56.53 88.67
  Q 58.19 90.88 59.76 92.75
  Q 70.50 105.51 85.76 107.52
  C 108.01 110.44 127.63 95.78 131.73 73.74"
/>
<path stroke="#fccef8" vector-effect="non-scaling-stroke" d="
  M 131.73 73.74
  C 141.12 70.16 147.42 60.97 145.58 51.07
  Q 143.83 41.58 133.91 37.90
  Q 133.39 37.70 133.67 37.22
  Q 133.80 36.99 134.04 36.87
  Q 134.86 36.45 133.99 36.17
  Q 131.75 35.45 130.03 35.54
  A 1.38 1.38 0.0 0 0 128.99 36.09
  C 119.99 47.84 112.07 61.88 109.73 76.01
  A 0.33 0.31 11.5 0 0 109.98 76.37
  L 110.22 76.42
  Q 110.22 76.42 110.26 76.33
  L 112.12 71.31
  Q 112.34 70.73 112.88 71.04
  L 117.07 73.42"
/>
<path stroke="#bc9efd" vector-effect="non-scaling-stroke" d="
  M 131.73 73.74
  Q 124.22 76.37 117.07 73.42"
/>
<path stroke="#bc9efd" vector-effect="non-scaling-stroke" d="
  M 69.58 82.23
  Q 64.23 87.77 56.53 88.67"
/>
<path stroke="#fdbcd4" vector-effect="non-scaling-stroke" d="
  M 134.51 69.75
  C 146.31 61.66 147.13 45.54 132.59 40.06
  A 0.36 0.36 0.0 0 0 132.13 40.55
  C 136.39 49.83 139.39 60.08 134.18 69.44
  Q 133.70 70.31 134.51 69.75"
/>
<path stroke="#fdbcd4" vector-effect="non-scaling-stroke" d="
  M 130.33 46.19
  Q 129.81 44.57 129.36 42.94
  A 0.64 0.63 -32.0 0 0 128.27 42.69
  L 127.15 43.98
  Q 126.50 44.72 126.79 45.67
  C 128.81 52.20 130.66 59.09 130.92 66.06
  A 0.44 0.43 -13.4 0 0 131.54 66.44
  L 131.85 66.30
  A 1.42 1.41 80.4 0 0 132.65 65.16
  Q 133.50 55.97 130.33 46.19"
/>
<path stroke="#fccef8" vector-effect="non-scaling-stroke" d="
  M 127.29 71.99
  C 125.75 70.74 124.92 68.80 124.54 66.92
  Q 123.17 60.14 121.80 53.91
  Q 121.41 52.18 120.49 53.70
  Q 116.58 60.12 113.70 67.12
  Q 113.30 68.09 114.13 68.73
  Q 120.14 73.41 127.18 72.39
  A 0.23 0.23 0.0 0 0 127.29 71.99"
/>
<path stroke="#fccef8" vector-effect="non-scaling-stroke" d="
  M 40.33 81.45
  Q 44.51 85.21 50.50 85.94
  Q 51.00 86.00 50.62 85.68
  Q 46.48 82.16 44.14 77.27"
/>
<path stroke="#fdbcd4" vector-effect="non-scaling-stroke" d="
  M 44.14 77.27
  C 40.87 71.06 40.84 63.70 41.09 56.89
  A 0.43 0.43 0.0 0 0 40.39 56.55
  C 32.38 63.23 32.49 74.37 40.33 81.45"
/>
<path stroke="#fa8bcc" vector-effect="non-scaling-stroke" d="
  M 44.14 77.27
  Q 42.52 79.96 40.33 81.45"
/>
<path stroke="#fdbcd4" vector-effect="non-scaling-stroke" d="
  M 52.38 80.97
  Q 49.14 70.36 48.44 59.16
  Q 48.39 58.37 47.66 58.05
  L 45.48 57.10
  A 0.49 0.49 0.0 0 0 44.79 57.59
  C 45.32 65.40 46.24 74.58 50.74 81.08
  Q 51.14 81.66 51.85 81.69
  Q 52.17 81.70 52.35 81.35
  A 0.53 0.50 51.1 0 0 52.38 80.97"
/>
<path stroke="#fccef8" vector-effect="non-scaling-stroke" d="
  M 58.98 85.67
  Q 66.99 83.17 70.25 76.56
  A 1.09 1.08 -54.3 0 0 70.05 75.31
  Q 63.81 69.04 57.35 64.50
  Q 56.59 63.96 56.70 64.89
  Q 57.53 71.84 59.28 79.66
  Q 59.96 82.73 58.52 85.08
  Q 57.96 85.99 58.98 85.67"
/>
</g>
<path fill="#f99df0" d="
  M 87.41 47.92
  A 0.25 0.25 0.0 0 0 87.85 47.83
  C 94.30 24.14 120.93 13.71 142.05 24.73
  Q 154.71 31.34 160.18 44.64
  Q 163.39 52.45 163.42 63.76
  C 163.49 90.30 148.03 116.61 125.75 130.90
  C 110.63 140.61 94.66 142.65 77.18 137.67
  C 50.15 129.96 25.80 108.45 19.99 79.86
  C 14.71 53.90 36.42 30.53 62.71 33.72
  Q 77.39 35.51 87.41 47.92
  Z
  M 117.07 73.42
  C 111.17 95.51 83.32 100.73 69.58 82.23
  L 72.43 78.40
  A 0.42 0.41 -47.1 0 1 73.07 78.37
  Q 74.96 80.53 76.90 82.79
  Q 77.03 82.95 77.24 82.92
  Q 77.72 82.85 77.48 82.42
  Q 75.77 79.52 73.69 76.90
  Q 63.74 64.39 46.41 53.44
  Q 43.99 51.91 41.69 50.90
  A 0.95 0.94 41.3 0 0 40.84 50.95
  Q 39.20 51.92 37.76 52.99
  Q 36.44 53.96 38.06 54.17
  Q 38.25 54.20 38.39 54.32
  Q 38.75 54.63 38.38 54.93
  C 28.71 62.91 29.82 76.90 39.58 84.19
  Q 46.86 89.63 56.53 88.67
  Q 58.19 90.88 59.76 92.75
  Q 70.50 105.51 85.76 107.52
  C 108.01 110.44 127.63 95.78 131.73 73.74
  C 141.12 70.16 147.42 60.97 145.58 51.07
  Q 143.83 41.58 133.91 37.90
  Q 133.39 37.70 133.67 37.22
  Q 133.80 36.99 134.04 36.87
  Q 134.86 36.45 133.99 36.17
  Q 131.75 35.45 130.03 35.54
  A 1.38 1.38 0.0 0 0 128.99 36.09
  C 119.99 47.84 112.07 61.88 109.73 76.01
  A 0.33 0.31 11.5 0 0 109.98 76.37
  L 110.22 76.42
  Q 110.22 76.42 110.26 76.33
  L 112.12 71.31
  Q 112.34 70.73 112.88 71.04
  L 117.07 73.42
  Z"
/>
<path fill="#ffffff" d="
  M 131.73 73.74
  Q 124.22 76.37 117.07 73.42
  L 112.88 71.04
  Q 112.34 70.73 112.12 71.31
  L 110.26 76.33
  Q 110.22 76.42 110.22 76.42
  L 109.98 76.37
  A 0.33 0.31 11.5 0 1 109.73 76.01
  C 112.07 61.88 119.99 47.84 128.99 36.09
  A 1.38 1.38 0.0 0 1 130.03 35.54
  Q 131.75 35.45 133.99 36.17
  Q 134.86 36.45 134.04 36.87
  Q 133.80 36.99 133.67 37.22
  Q 133.39 37.70 133.91 37.90
  Q 143.83 41.58 145.58 51.07
  C 147.42 60.97 141.12 70.16 131.73 73.74
  Z
  M 134.51 69.75
  C 146.31 61.66 147.13 45.54 132.59 40.06
  A 0.36 0.36 0.0 0 0 132.13 40.55
  C 136.39 49.83 139.39 60.08 134.18 69.44
  Q 133.70 70.31 134.51 69.75
  Z
  M 130.33 46.19
  Q 129.81 44.57 129.36 42.94
  A 0.64 0.63 -32.0 0 0 128.27 42.69
  L 127.15 43.98
  Q 126.50 44.72 126.79 45.67
  C 128.81 52.20 130.66 59.09 130.92 66.06
  A 0.44 0.43 -13.4 0 0 131.54 66.44
  L 131.85 66.30
  A 1.42 1.41 80.4 0 0 132.65 65.16
  Q 133.50 55.97 130.33 46.19
  Z
  M 127.29 71.99
  C 125.75 70.74 124.92 68.80 124.54 66.92
  Q 123.17 60.14 121.80 53.91
  Q 121.41 52.18 120.49 53.70
  Q 116.58 60.12 113.70 67.12
  Q 113.30 68.09 114.13 68.73
  Q 120.14 73.41 127.18 72.39
  A 0.23 0.23 0.0 0 0 127.29 71.99
  Z"
/>
<path fill="#fa78a8" d="
  M 132.59 40.06
  C 147.13 45.54 146.31 61.66 134.51 69.75
  Q 133.70 70.31 134.18 69.44
  C 139.39 60.08 136.39 49.83 132.13 40.55
  A 0.36 0.36 0.0 0 1 132.59 40.06
  Z"
/>
<path fill="#fa78a8" d="
  M 130.33 46.19
  Q 133.50 55.97 132.65 65.16
  A 1.42 1.41 80.4 0 1 131.85 66.30
  L 131.54 66.44
  A 0.44 0.43 -13.4 0 1 130.92 66.06
  C 130.66 59.09 128.81 52.20 126.79 45.67
  Q 126.50 44.72 127.15 43.98
  L 128.27 42.69
  A 0.64 0.63 -32.0 0 1 129.36 42.94
  Q 129.81 44.57 130.33 46.19
  Z"
/>
<path fill="#ffffff" d="
  M 69.58 82.23
  Q 64.23 87.77 56.53 88.67
  Q 46.86 89.63 39.58 84.19
  C 29.82 76.90 28.71 62.91 38.38 54.93
  Q 38.75 54.63 38.39 54.32
  Q 38.25 54.20 38.06 54.17
  Q 36.44 53.96 37.76 52.99
  Q 39.20 51.92 40.84 50.95
  A 0.95 0.94 41.3 0 1 41.69 50.90
  Q 43.99 51.91 46.41 53.44
  Q 63.74 64.39 73.69 76.90
  Q 75.77 79.52 77.48 82.42
  Q 77.72 82.85 77.24 82.92
  Q 77.03 82.95 76.90 82.79
  Q 74.96 80.53 73.07 78.37
  A 0.42 0.41 -47.1 0 0 72.43 78.40
  L 69.58 82.23
  Z
  M 40.33 81.45
  Q 44.51 85.21 50.50 85.94
  Q 51.00 86.00 50.62 85.68
  Q 46.48 82.16 44.14 77.27
  C 40.87 71.06 40.84 63.70 41.09 56.89
  A 0.43 0.43 0.0 0 0 40.39 56.55
  C 32.38 63.23 32.49 74.37 40.33 81.45
  Z
  M 52.38 80.97
  Q 49.14 70.36 48.44 59.16
  Q 48.39 58.37 47.66 58.05
  L 45.48 57.10
  A 0.49 0.49 0.0 0 0 44.79 57.59
  C 45.32 65.40 46.24 74.58 50.74 81.08
  Q 51.14 81.66 51.85 81.69
  Q 52.17 81.70 52.35 81.35
  A 0.53 0.50 51.1 0 0 52.38 80.97
  Z
  M 58.98 85.67
  Q 66.99 83.17 70.25 76.56
  A 1.09 1.08 -54.3 0 0 70.05 75.31
  Q 63.81 69.04 57.35 64.50
  Q 56.59 63.96 56.70 64.89
  Q 57.53 71.84 59.28 79.66
  Q 59.96 82.73 58.52 85.08
  Q 57.96 85.99 58.98 85.67
  Z"
/>
<path fill="#f99df0" d="
  M 124.54 66.92
  C 124.92 68.80 125.75 70.74 127.29 71.99
  A 0.23 0.23 0.0 0 1 127.18 72.39
  Q 120.14 73.41 114.13 68.73
  Q 113.30 68.09 113.70 67.12
  Q 116.58 60.12 120.49 53.70
  Q 121.41 52.18 121.80 53.91
  Q 123.17 60.14 124.54 66.92
  Z"
/>
<path fill="#fa78a8" d="
  M 44.14 77.27
  Q 42.52 79.96 40.33 81.45
  C 32.49 74.37 32.38 63.23 40.39 56.55
  A 0.43 0.43 0.0 0 1 41.09 56.89
  C 40.84 63.70 40.87 71.06 44.14 77.27
  Z"
/>
<path fill="#fa78a8" d="
  M 52.38 80.97
  A 0.53 0.50 51.1 0 1 52.35 81.35
  Q 52.17 81.70 51.85 81.69
  Q 51.14 81.66 50.74 81.08
  C 46.24 74.58 45.32 65.40 44.79 57.59
  A 0.49 0.49 0.0 0 1 45.48 57.10
  L 47.66 58.05
  Q 48.39 58.37 48.44 59.16
  Q 49.14 70.36 52.38 80.97
  Z"
/>
<path fill="#f99df0" d="
  M 58.98 85.67
  Q 57.96 85.99 58.52 85.08
  Q 59.96 82.73 59.28 79.66
  Q 57.53 71.84 56.70 64.89
  Q 56.59 63.96 57.35 64.50
  Q 63.81 69.04 70.05 75.31
  A 1.09 1.08 -54.3 0 1 70.25 76.56
  Q 66.99 83.17 58.98 85.67
  Z"
/>
<path fill="#783cfa" d="
  M 117.07 73.42
  Q 124.22 76.37 131.73 73.74
  C 127.63 95.78 108.01 110.44 85.76 107.52
  Q 70.50 105.51 59.76 92.75
  Q 58.19 90.88 56.53 88.67
  Q 64.23 87.77 69.58 82.23
  C 83.32 100.73 111.17 95.51 117.07 73.42
  Z"
/>
<path fill="#f99df0" d="
  M 44.14 77.27
  Q 46.48 82.16 50.62 85.68
  Q 51.00 86.00 50.50 85.94
  Q 44.51 85.21 40.33 81.45
  Q 42.52 79.96 44.14 77.27
  Z"
/>
</svg>
