<?xml version="1.0" encoding="UTF-8" standalone="no"?>
<!DOCTYPE svg PUBLIC "-//W3C//DTD SVG 1.1//EN" "http://www.w3.org/Graphics/SVG/1.1/DTD/svg11.dtd">
<svg xmlns="http://www.w3.org/2000/svg" version="1.1" viewBox="0.00 0.00 502.00 410.00">
<g stroke-width="2.00" fill="none" stroke-linecap="butt">
<path stroke="#fe4270" vector-effect="non-scaling-stroke" d="
  M 185.81 177.09
  Q 184.98 177.58 184.49 177.27
  Q 183.72 176.78 183.67 175.95
  Q 183.64 175.51 183.39 175.16
  L 181.22 172.10
  Q 181.02 171.81 180.85 172.12
  Q 180.76 172.29 180.62 172.41
  A 0.36 0.36 0.0 0 1 180.09 172.32
  Q 179.64 171.60 178.69 171.57
  Q 178.40 171.56 178.52 171.30
  Q 178.60 171.13 178.73 171.15
  Q 179.48 171.25 179.06 170.59
  Q 178.28 169.39 177.01 168.87
  Q 176.55 168.67 176.34 168.22
  Q 175.86 167.15 175.11 166.23
  Q 174.58 165.59 173.47 165.09
  Q 168.68 162.94 166.94 160.17"
/>
<path stroke="#fe9abb" vector-effect="non-scaling-stroke" d="
  M 166.94 160.17
  C 171.99 149.59 169.01 137.66 158.07 132.70
  Q 157.63 132.50 157.79 132.04
  Q 157.85 131.90 157.98 131.82
  Q 159.38 131.10 157.94 130.46
  Q 156.04 129.61 153.96 129.31
  Q 153.46 129.23 153.06 129.55
  Q 150.66 131.43 148.74 133.76
  Q 145.65 137.51 142.56 140.99"
/>
<path stroke="#fe4270" vector-effect="non-scaling-stroke" d="
  M 142.56 140.99
  L 141.10 142.09
  Q 140.70 142.39 140.37 142.00
  Q 139.71 141.22 138.72 140.80
  A 2.65 2.57 -10.6 0 1 137.86 140.23
  Q 136.27 138.68 133.79 139.27
  Q 133.31 139.38 132.94 139.05
  Q 131.01 137.34 130.33 135.26
  Q 129.35 132.25 131.98 134.01
  L 133.76 135.20
  Q 133.88 135.28 133.81 135.16
  Q 132.64 133.14 130.46 132.73
  A 1.15 1.13 -13.9 0 1 129.83 132.36
  L 127.58 129.67
  Q 127.32 129.36 126.92 129.35
  Q 126.18 129.34 125.81 128.57
  Q 125.58 128.07 125.66 128.61
  Q 125.71 128.96 125.56 129.23
  Q 125.21 129.87 125.03 129.16
  Q 124.95 128.82 124.62 128.84
  Q 124.26 128.86 124.08 128.55
  Q 123.53 127.66 124.18 126.76
  Q 124.29 126.60 124.16 126.46
  Q 123.31 125.57 122.17 125.51
  Q 121.69 125.49 121.47 125.07
  Q 121.35 124.83 121.15 124.65
  Q 120.82 124.33 120.36 124.26
  Q 120.07 124.21 120.01 123.95
  Q 119.89 123.34 119.28 123.42
  L 116.81 123.72"
/>
<path stroke="#ffa7b4" vector-effect="non-scaling-stroke" d="
  M 142.56 140.99
  Q 132.79 153.02 127.12 166.37
  Q 126.06 168.86 125.31 172.57
  Q 125.31 172.62 125.35 172.63
  L 125.60 172.70
  Q 125.72 172.73 125.77 172.63
  L 128.64 166.95
  Q 128.95 166.33 129.46 166.80
  Q 136.02 172.81 143.49 173.02
  Q 159.25 173.45 166.94 160.17"
/>
<path stroke="#ff8372" vector-effect="non-scaling-stroke" d="
  M 167.70 212.20
  L 163.45 216.07"
/>
<path stroke="#fe5466" vector-effect="non-scaling-stroke" d="
  M 163.45 216.07
  Q 162.10 216.45 161.76 215.23
  Q 161.63 214.78 161.16 214.79
  Q 160.61 214.81 160.56 214.30
  Q 160.51 213.73 159.99 213.96
  L 159.29 214.26
  Q 158.81 214.47 158.34 214.27
  Q 157.30 213.85 156.12 213.88
  Q 155.63 213.90 155.33 213.53
  Q 154.04 211.96 152.68 210.50
  Q 151.24 208.95 149.37 208.01
  Q 145.79 206.21 142.72 203.68
  Q 142.00 203.08 141.10 203.04
  A 1.05 1.00 -32.3 0 1 140.70 202.96
  Q 139.65 202.56 139.88 201.84
  Q 140.01 201.41 139.70 201.09
  L 138.40 199.78
  Q 138.06 199.43 138.06 198.95
  Q 138.06 198.26 137.75 197.65
  Q 137.44 197.05 136.81 197.26
  Q 135.98 197.52 135.88 196.65
  A 0.52 0.52 0.0 0 0 135.30 196.18
  Q 134.73 196.24 134.28 196.53
  Q 134.02 196.71 134.07 196.40
  Q 134.20 195.56 133.77 194.69
  Q 133.54 194.22 133.03 194.14
  L 130.44 193.72
  Q 129.96 193.64 129.69 193.24
  L 129.07 192.34
  Q 128.75 191.87 128.18 191.80
  Q 125.64 191.48 125.44 189.39
  Q 125.39 188.77 124.80 188.98
  Q 124.10 189.23 123.82 188.58
  Q 123.68 188.26 123.40 188.09
  Q 123.30 188.03 123.26 188.14
  Q 123.04 188.63 122.58 188.21
  Q 121.91 187.59 121.05 187.12
  Q 120.43 186.77 119.75 186.65
  Q 119.26 186.55 119.17 185.99
  A 0.78 0.78 0.0 0 0 118.86 185.48
  Q 116.65 183.75 113.69 183.66
  Q 113.10 183.64 113.52 183.22
  L 113.75 182.99
  Q 114.24 182.50 113.62 182.18
  Q 113.24 181.98 113.15 181.56
  Q 113.03 180.97 112.52 180.65
  L 110.21 179.19
  Q 109.80 178.93 109.83 178.45
  Q 109.85 178.24 109.69 178.11
  Q 109.55 177.99 109.49 178.16
  Q 109.44 178.28 109.38 178.39
  Q 109.36 178.43 109.32 178.41
  Q 107.31 177.66 105.38 176.96
  Q 104.52 176.64 103.73 177.06
  Q 103.36 177.25 103.11 176.91
  Q 102.82 176.51 102.37 176.34
  Q 101.90 176.16 101.49 176.46
  Q 100.14 177.48 99.00 176.33"
/>
<path stroke="#ffa7b4" vector-effect="non-scaling-stroke" d="
  M 99.00 176.33
  Q 107.85 175.01 113.39 167.90
  A 0.47 0.46 46.0 0 1 114.14 167.92
  Q 116.11 170.70 118.06 173.54
  Q 118.12 173.63 118.19 173.56
  Q 118.29 173.47 118.38 173.38
  Q 118.43 173.32 118.40 173.25
  Q 116.41 168.16 113.00 163.17
  Q 102.34 147.57 85.05 134.60
  Q 84.23 133.98 83.28 134.40
  Q 81.51 135.18 79.62 136.16
  Q 79.46 136.24 79.36 136.38
  Q 79.19 136.60 79.42 136.92
  Q 79.70 137.29 80.16 137.24
  Q 80.34 137.22 80.47 137.38
  Q 80.82 137.83 80.34 138.14
  Q 74.08 142.21 71.76 149.36"
/>
<path stroke="#fe5466" vector-effect="non-scaling-stroke" d="
  M 71.76 149.36
  Q 70.90 149.22 70.64 148.43
  Q 70.49 147.95 70.06 147.67
  Q 69.13 147.06 68.85 145.99
  Q 68.70 145.42 68.22 145.09
  Q 66.10 143.67 64.01 142.19
  C 63.37 141.73 62.46 141.51 61.70 141.33
  Q 61.32 141.24 61.12 140.90
  Q 60.56 139.94 59.44 139.49
  Q 59.00 139.32 58.73 138.94
  Q 58.15 138.13 57.93 137.28"
/>
<path stroke="#ff896f" vector-effect="non-scaling-stroke" d="
  M 163.45 216.07
  Q 163.44 216.63 163.21 216.34"
/>
<path stroke="#ff8f7e" vector-effect="non-scaling-stroke" d="
  M 163.21 216.34
  Q 158.15 220.47 153.89 222.89
  Q 151.48 224.26 144.54 227.68"
/>
<path stroke="#fe5f61" vector-effect="non-scaling-stroke" d="
  M 138.77 229.32
  Q 139.86 227.87 138.29 227.67
  Q 137.79 227.61 137.70 227.11
  Q 137.65 226.81 137.38 226.63
  A 0.25 0.25 0.0 0 0 137.01 226.74
  Q 136.95 226.87 136.84 226.96
  Q 136.31 227.39 136.06 226.75
  Q 135.75 225.95 134.94 226.11
  Q 134.47 226.20 134.20 225.81
  Q 134.09 225.66 134.16 225.51
  Q 134.37 225.10 133.96 224.88
  L 126.23 220.75
  Q 126.08 220.66 125.90 220.65
  Q 125.49 220.62 125.58 220.18
  Q 125.73 219.42 124.99 219.18
  Q 123.75 218.78 122.70 217.99
  Q 121.40 217.00 120.58 216.67
  Q 118.23 215.73 115.69 214.82
  Q 114.48 214.39 114.11 213.00
  Q 113.98 212.52 113.65 212.16
  Q 112.31 210.68 110.97 209.32
  C 110.76 209.10 110.23 208.86 109.92 208.81
  Q 109.45 208.71 109.34 208.25
  Q 108.87 206.40 106.81 205.98
  Q 106.28 205.87 106.03 205.39
  Q 105.59 204.54 104.68 204.65
  Q 104.46 204.68 104.34 204.49
  Q 103.68 203.46 102.48 203.68
  Q 101.97 203.77 101.53 203.48
  Q 100.01 202.45 99.14 200.76
  Q 97.69 197.94 93.69 196.27
  C 92.24 195.67 90.99 196.30 89.83 195.12
  A 0.85 0.82 -25.8 0 0 89.12 194.89
  Q 88.96 194.92 88.80 194.89
  A 0.56 0.55 -77.8 0 1 88.34 194.17
  Q 88.58 193.42 87.92 193.00
  Q 86.36 192.01 85.29 190.46
  C 84.75 189.68 83.93 189.48 83.02 189.64
  Q 82.54 189.72 82.28 189.31
  Q 80.86 187.03 79.03 185.24
  Q 78.67 184.88 78.16 184.88
  L 75.93 184.88
  Q 75.45 184.88 75.12 184.53
  L 73.49 182.79
  Q 73.12 182.39 73.12 181.85
  L 73.12 181.47
  Q 73.12 181.00 72.75 180.70
  L 68.48 177.20
  Q 68.11 176.90 67.63 176.91
  C 66.69 176.93 65.59 176.81 64.85 176.18
  Q 64.35 175.74 63.66 175.86
  Q 63.13 175.95 62.64 175.66
  Q 62.39 175.51 62.41 175.22
  Q 62.44 174.68 62.05 174.31
  C 60.54 172.85 58.87 170.26 56.78 169.89
  Q 56.45 169.83 56.37 169.51
  Q 55.85 167.50 53.87 167.65
  Q 53.46 167.68 53.39 167.28
  L 53.02 165.45
  Q 52.90 164.84 52.40 164.48
  Q 51.52 163.84 51.81 162.77
  Q 51.94 162.29 51.44 162.22
  L 50.97 162.16"
/>
<path stroke="#ffbe8a" vector-effect="non-scaling-stroke" d="
  M 208.65 233.70
  Q 199.58 232.74 190.73 230.27
  Q 182.19 227.90 173.98 226.21
  Q 172.67 225.95 172.15 225.51
  Q 167.44 221.59 163.85 216.89
  Q 163.68 216.67 163.21 216.34"
/>
<path stroke="#ffadb1" vector-effect="non-scaling-stroke" d="
  M 99.00 176.33
  Q 86.21 177.93 77.60 169.40
  Q 69.30 161.16 71.76 149.36"
/>
<path stroke="#eb9073" vector-effect="non-scaling-stroke" d="
  M 274.16 247.66
  L 262.71 247.05
  Q 262.22 247.02 261.98 246.60
  Q 261.57 245.89 260.63 246.06
  Q 260.12 246.15 260.12 246.67
  Q 260.12 246.93 259.77 247.04
  Q 259.56 247.11 259.34 247.03
  Q 258.99 246.91 258.95 246.51
  A 0.34 0.34 0.0 0 0 258.65 246.21
  Q 257.63 246.10 256.84 246.90
  Q 256.52 247.23 256.18 246.93
  Q 256.05 246.81 255.99 246.66
  Q 255.82 246.15 255.28 246.12
  Q 251.07 245.95 246.98 246.17
  Q 245.57 246.24 244.74 245.48
  Q 244.34 245.11 243.80 245.11
  L 238.62 245.11
  Q 238.22 245.11 238.09 245.49
  L 238.00 245.74
  Q 237.88 246.09 237.51 246.05
  Q 237.18 246.02 237.01 245.78
  Q 236.80 245.50 236.89 245.16
  Q 237.03 244.66 236.73 244.26
  Q 236.40 243.81 236.20 244.33
  Q 236.15 244.45 236.08 244.56
  Q 235.92 244.84 235.61 244.86
  L 232.90 245.08
  Q 232.39 245.12 232.05 244.74
  Q 231.34 243.98 230.61 244.89
  A 0.31 0.31 0.0 0 1 230.11 244.86
  L 229.84 244.45
  Q 229.58 244.04 229.09 244.04
  Q 228.30 244.05 227.86 244.60
  Q 227.52 245.01 227.15 244.63
  L 226.91 244.39
  Q 226.63 244.11 226.23 244.11
  L 221.61 244.11
  A 0.68 0.68 0.0 0 1 220.97 243.66
  L 220.88 243.40
  Q 220.64 242.74 220.18 243.26
  Q 219.77 243.72 219.09 243.98
  Q 218.68 244.13 218.34 243.85
  Q 218.17 243.72 218.13 243.48
  Q 218.04 242.85 217.54 243.25
  L 217.22 243.51"
/>
<path stroke="#f7b48b" vector-effect="non-scaling-stroke" d="
  M 211.47 236.87
  L 208.65 233.70"
/>
<path stroke="#f7ae7d" vector-effect="non-scaling-stroke" d="
  M 208.65 233.70
  Q 205.38 229.44 201.93 225.25
  C 201.45 224.66 200.94 224.57 200.28 224.26"
/>
<path stroke="#80624c" vector-effect="non-scaling-stroke" d="
  M 215.17 186.95
  C 213.60 184.84 211.06 185.16 209.97 187.58"
/>
<path stroke="#f7b48b" vector-effect="non-scaling-stroke" d="
  M 194.23 193.41
  L 188.31 193.39
  Q 187.85 193.39 187.53 193.06
  Q 187.32 192.86 187.06 192.90
  Q 186.45 193.00 186.26 192.41
  L 185.98 191.55"
/>
<path stroke="#f7b48b" vector-effect="non-scaling-stroke" d="
  M 312.40 211.42
  Q 310.15 208.67 307.70 210.59
  Q 307.10 211.05 307.02 210.31
  Q 307.00 210.15 306.79 210.07
  Q 306.26 209.87 305.91 210.31
  Q 305.81 210.44 305.73 210.58
  Q 305.36 211.21 305.07 210.54
  Q 304.80 209.89 303.50 209.89
  Q 300.51 209.88 297.37 209.95
  Q 296.89 209.97 295.22 210.33
  Q 294.12 210.57 292.99 210.32
  A 1.69 1.60 38.5 0 0 292.05 210.40
  Q 290.18 211.14 289.74 209.46"
/>
<path stroke="#80624c" vector-effect="non-scaling-stroke" d="
  M 270.50 181.34
  Q 269.93 181.58 269.87 181.95
  Q 269.38 184.65 268.17 186.67
  Q 267.31 188.11 266.00 186.84
  A 1.63 1.61 -60.7 0 1 265.56 185.25
  L 266.78 180.75"
/>
<path stroke="#80624c" vector-effect="non-scaling-stroke" d="
  M 266.36 180.67
  L 264.02 188.22"
/>
<path stroke="#80624c" vector-effect="non-scaling-stroke" d="
  M 252.88 186.86
  L 254.82 179.58"
/>
<path stroke="#80624c" vector-effect="non-scaling-stroke" d="
  M 254.82 179.58
  Q 254.74 179.33 254.53 179.37
  Q 254.23 179.42 254.20 179.73
  Q 254.09 181.38 253.03 182.54
  A 1.37 1.37 0.0 0 1 250.73 182.05
  Q 250.27 180.71 251.01 179.01"
/>
<path stroke="#80624c" vector-effect="non-scaling-stroke" d="
  M 286.47 185.46
  L 288.80 194.50"
/>
<path stroke="#80624c" vector-effect="non-scaling-stroke" d="
  M 284.22 184.77
  C 281.58 185.84 280.60 187.17 277.42 186.62
  A 2.68 2.67 -77.3 0 0 274.38 188.54
  L 273.95 190.07"
/>
<path stroke="#80624c" vector-effect="non-scaling-stroke" d="
  M 282.58 184.29
  Q 277.19 188.35 274.89 182.19"
/>
<path stroke="#f7d2bf" vector-effect="non-scaling-stroke" d="
  M 371.95 251.78
  Q 361.63 249.08 353.49 241.51
  Q 350.00 238.26 346.80 234.71"
/>
<path stroke="#f7d2bf" vector-effect="non-scaling-stroke" d="
  M 335.82 220.02
  L 333.86 216.73"
/>
<path stroke="#f7b48b" vector-effect="non-scaling-stroke" d="
  M 363.28 254.80
  Q 363.76 253.36 362.76 252.88
  Q 361.12 252.08 359.89 251.12
  Q 359.12 250.52 358.33 250.06
  Q 357.56 249.60 356.84 249.06
  Q 350.79 244.53 345.69 239.03
  Q 345.36 238.68 344.90 238.51
  L 343.48 237.99"
/>
<path stroke="#f7ae7d" vector-effect="non-scaling-stroke" d="
  M 343.48 237.99
  Q 343.96 237.44 342.97 236.20"
/>
<path stroke="#ffbe8a" vector-effect="non-scaling-stroke" d="
  M 343.48 237.99
  Q 334.22 245.05 324.34 251.38
  Q 322.39 252.64 320.80 252.64
  Q 314.00 252.65 306.77 252.84
  Q 301.12 252.99 295.72 252.89
  Q 290.19 252.78 284.67 252.79"
/>
<path stroke="#90e0b2" vector-effect="non-scaling-stroke" d="
  M 418.41 122.58
  C 431.83 127.17 445.77 120.92 451.43 108.03
  A 0.70 0.70 0.0 0 0 451.20 107.18
  C 436.92 96.77 418.34 102.24 411.08 117.92
  A 0.59 0.58 32.0 0 0 411.25 118.62
  Q 414.40 121.21 418.41 122.58"
/>
<path stroke="#ffde8e" vector-effect="non-scaling-stroke" d="
  M 367.20 236.59
  Q 369.80 239.03 374.75 239.93
  Q 379.87 240.86 386.24 240.42
  C 419.99 238.08 450.84 217.54 458.64 183.18
  C 462.86 164.63 456.16 147.46 439.22 138.33
  Q 430.21 133.47 420.50 134.03
  Q 415.07 134.35 408.70 137.47"
/>
<path stroke="#ffcf8b" vector-effect="non-scaling-stroke" d="
  M 408.70 137.47
  C 407.76 132.12 402.61 127.29 398.28 124.52
  C 379.40 112.45 356.11 116.29 344.07 135.89
  C 325.35 166.36 333.94 202.38 356.96 227.80
  Q 361.52 232.84 367.20 236.59"
/>
<path stroke="#ffae1a" vector-effect="non-scaling-stroke" d="
  M 408.70 137.47
  Q 397.46 142.13 388.21 152.21
  Q 379.72 161.44 373.98 171.64"
/>
<path stroke="#ffcf8b" vector-effect="non-scaling-stroke" d="
  M 373.98 171.64
  Q 368.33 159.40 361.52 149.06
  Q 360.28 147.17 357.88 146.85
  Q 355.94 146.59 353.86 146.92
  Q 353.74 146.94 353.77 147.06
  Q 353.79 147.19 353.80 147.32
  A 0.54 0.54 0.0 0 0 354.22 147.82
  Q 354.49 147.87 354.62 148.09
  Q 355.02 148.70 354.29 148.75
  Q 346.64 149.25 342.27 153.90
  C 334.43 162.25 339.89 174.26 347.87 180.37
  Q 356.26 186.79 367.50 187.32"
/>
<path stroke="#ffae1a" vector-effect="non-scaling-stroke" d="
  M 367.50 187.32
  Q 360.55 211.52 367.20 236.59"
/>
<path stroke="#ffde8e" vector-effect="non-scaling-stroke" d="
  M 367.50 187.32
  L 376.20 185.27
  A 0.59 0.58 75.0 0 1 376.90 185.68
  L 378.44 190.99
  Q 378.61 191.56 378.96 191.08
  Q 379.34 190.57 379.24 189.96
  Q 377.61 180.43 373.98 171.64"
/>
<path stroke="#fdbad1" vector-effect="non-scaling-stroke" d="
  M 166.47 148.97
  C 165.90 142.59 161.84 137.42 156.01 134.73
  A 0.40 0.40 0.0 0 0 155.46 135.23
  Q 158.59 144.11 158.82 151.57
  Q 159.10 160.25 153.80 168.14
  Q 153.39 168.76 154.06 168.44
  C 161.62 164.74 167.24 157.51 166.47 148.97"
/>
<path stroke="#fdbad1" vector-effect="non-scaling-stroke" d="
  M 148.72 139.75
  C 150.11 147.55 151.24 155.83 150.65 163.70
  A 0.55 0.55 0.0 0 0 151.43 164.24
  Q 152.50 163.74 152.81 162.49
  C 154.91 154.02 153.76 145.91 151.96 137.23
  Q 151.79 136.41 151.15 136.95
  L 149.09 138.72
  Q 148.60 139.13 148.72 139.75"
/>
<path stroke="#fccef8" vector-effect="non-scaling-stroke" d="
  M 143.20 163.39
  Q 142.69 155.18 141.80 147.84
  Q 141.70 147.01 141.17 147.66
  Q 135.33 154.84 130.80 163.13
  A 0.86 0.86 0.0 0 0 130.93 164.12
  Q 136.96 170.41 145.47 170.35
  A 0.28 0.28 0.0 0 0 145.68 169.89
  Q 143.45 167.32 143.20 163.39"
/>
<path stroke="#ffae1a" vector-effect="non-scaling-stroke" d="
  M 437.24 162.93
  A 4.26 4.26 0.0 0 0 432.98 158.67
  A 4.26 4.26 0.0 0 0 428.72 162.93
  A 4.26 4.26 0.0 0 0 432.98 167.19
  A 4.26 4.26 0.0 0 0 437.24 162.93"
/>
<path stroke="#ffde8e" vector-effect="non-scaling-stroke" d="
  M 420.94 173.55
  Q 412.80 176.53 409.83 177.83
  Q 398.57 182.78 389.81 189.95
  Q 388.23 191.24 386.81 192.85
  Q 385.23 194.63 387.26 193.37
  Q 389.30 192.11 391.42 190.59
  A 0.47 0.47 0.0 0 1 392.12 190.75
  Q 394.60 195.47 398.68 198.43
  C 406.84 204.37 417.70 206.35 427.47 202.71
  Q 432.84 200.71 435.90 195.88
  Q 441.02 187.84 434.67 178.48"
/>
<path stroke="#ffae1a" vector-effect="non-scaling-stroke" d="
  M 434.67 178.48
  Q 435.90 178.17 437.06 177.84
  C 440.99 176.73 441.22 171.69 437.63 170.01
  Q 434.08 168.35 431.31 172.80"
/>
<path stroke="#ffde8e" vector-effect="non-scaling-stroke" d="
  M 431.31 172.80
  Q 429.65 171.42 428.03 171.37"
/>
<path stroke="#ffae1a" vector-effect="non-scaling-stroke" d="
  M 428.03 171.37
  Q 428.51 167.16 425.91 165.73
  Q 423.41 164.35 421.01 166.08
  Q 417.97 168.26 420.94 173.55"
/>
<path stroke="#ffcf8b" vector-effect="non-scaling-stroke" d="
  M 428.03 171.37
  L 420.94 173.55"
/>
<path stroke="#ffcf8b" vector-effect="non-scaling-stroke" d="
  M 434.67 178.48
  L 432.24 175.82
  Q 431.79 175.33 432.39 175.04
  L 432.99 174.76
  Q 433.61 174.47 433.06 174.07
  L 431.31 172.80"
/>
<path stroke="#fdbad1" vector-effect="non-scaling-stroke" d="
  M 90.08 173.11
  C 83.83 168.07 81.23 158.02 81.87 150.32
  Q 82.31 145.14 82.95 140.67
  A 0.45 0.45 0.0 0 0 82.27 140.23
  C 76.04 144.21 73.00 151.35 74.65 158.50
  C 76.35 165.84 82.51 171.59 90.06 173.17
  Q 90.19 173.20 90.08 173.11"
/>
<path stroke="#fdbad1" vector-effect="non-scaling-stroke" d="
  M 91.33 165.35
  Q 89.95 154.62 90.37 143.45
  Q 90.38 143.15 90.14 142.99
  Q 88.69 141.98 86.95 141.25
  A 0.05 0.05 0.0 0 0 86.88 141.29
  Q 86.54 148.36 86.83 154.90
  Q 87.17 162.43 90.28 168.03
  Q 90.91 169.17 91.51 168.01
  Q 91.90 167.26 91.63 166.55
  Q 91.41 165.98 91.33 165.35"
/>
<path stroke="#fccef8" vector-effect="non-scaling-stroke" d="
  M 97.99 173.78
  C 103.55 172.89 108.50 170.21 111.47 165.37
  A 0.92 0.92 0.0 0 0 111.42 164.32
  Q 105.53 156.71 99.04 150.84
  Q 98.34 150.21 98.38 151.15
  Q 98.88 160.63 99.36 168.31
  Q 99.54 171.25 97.71 173.26
  Q 97.11 173.92 97.99 173.78"
/>
<path stroke="#fdbad1" vector-effect="non-scaling-stroke" d="
  M 350.01 177.24
  C 346.48 167.29 350.41 159.87 356.01 151.77
  A 0.48 0.48 0.0 0 0 355.57 151.02
  C 345.70 152.01 338.83 159.22 342.50 169.40
  Q 344.45 174.81 350.93 179.66
  Q 351.72 180.26 351.25 179.38
  C 350.86 178.68 350.29 178.02 350.01 177.24"
/>
<path stroke="#fdbad1" vector-effect="non-scaling-stroke" d="
  M 355.27 175.43
  Q 357.78 165.81 362.26 156.88
  A 0.42 0.40 38.3 0 0 362.20 156.43
  L 359.90 153.82
  Q 359.77 153.67 359.67 153.85
  C 355.95 160.50 352.13 168.49 353.54 176.19
  A 0.82 0.82 0.0 0 0 354.77 176.75
  Q 355.14 176.53 355.16 176.09
  Q 355.19 175.76 355.27 175.43"
/>
<path stroke="#fccef8" vector-effect="non-scaling-stroke" d="
  M 367.36 166.31
  C 365.94 170.55 364.21 174.51 362.72 178.93
  C 362.17 180.55 360.81 182.46 359.17 183.21
  A 0.30 0.30 0.0 0 0 359.22 183.78
  Q 367.97 186.06 374.83 182.76
  Q 375.72 182.33 375.37 181.40
  Q 372.00 172.62 368.25 166.22
  A 0.49 0.49 0.0 0 0 367.36 166.31"
/>
<path stroke="#fdbad1" vector-effect="non-scaling-stroke" d="
  M 421.94 187.10
  Q 423.88 181.24 424.48 176.72
  Q 424.54 176.26 424.08 176.34
  L 421.04 176.92
  A 0.66 0.66 0.0 0 0 420.51 177.44
  C 419.20 183.86 417.60 191.15 414.10 196.64
  A 0.74 0.74 0.0 0 0 414.44 197.72
  Q 414.76 197.85 415.10 197.79
  Q 415.54 197.71 415.87 197.41
  Q 419.70 193.90 421.94 187.10"
/>
<path stroke="#fdbad1" vector-effect="non-scaling-stroke" d="
  M 427.43 187.05
  C 426.15 193.27 421.07 199.58 415.28 201.71
  Q 414.31 202.06 415.34 202.11
  C 421.72 202.39 428.96 200.61 432.71 195.45
  C 437.30 189.16 434.71 181.27 429.12 176.49
  A 0.25 0.25 0.0 0 0 428.71 176.67
  Q 428.54 181.67 427.43 187.05"
/>
<path stroke="#fccef8" vector-effect="non-scaling-stroke" d="
  M 406.54 199.24
  C 405.84 197.89 406.22 195.62 406.71 194.26
  Q 409.03 187.69 410.61 181.36
  Q 410.82 180.50 410.00 180.83
  Q 401.88 184.10 394.76 188.49
  A 0.70 0.70 0.0 0 0 394.51 189.41
  Q 398.49 197.01 405.85 200.00
  Q 407.22 200.55 406.54 199.24"
/>
<path stroke="#78523f" vector-effect="non-scaling-stroke" d="
  M 284.97 189.98
  C 285.30 190.72 285.34 191.47 285.54 192.24
  Q 285.91 193.67 285.86 192.19
  Q 285.82 190.72 285.12 189.09
  Q 284.91 188.61 284.84 189.13
  Q 284.78 189.56 284.97 189.98"
/>
</g>
<path fill="#fd3576" d="
  M 185.81 177.09
  Q 184.98 177.58 184.49 177.27
  Q 183.72 176.78 183.67 175.95
  Q 183.64 175.51 183.39 175.16
  L 181.22 172.10
  Q 181.02 171.81 180.85 172.12
  Q 180.76 172.29 180.62 172.41
  A 0.36 0.36 0.0 0 1 180.09 172.32
  Q 179.64 171.60 178.69 171.57
  Q 178.40 171.56 178.52 171.30
  Q 178.60 171.13 178.73 171.15
  Q 179.48 171.25 179.06 170.59
  Q 178.28 169.39 177.01 168.87
  Q 176.55 168.67 176.34 168.22
  Q 175.86 167.15 175.11 166.23
  Q 174.58 165.59 173.47 165.09
  Q 168.68 162.94 166.94 160.17
  C 171.99 149.59 169.01 137.66 158.07 132.70
  Q 157.63 132.50 157.79 132.04
  Q 157.85 131.90 157.98 131.82
  Q 159.38 131.10 157.94 130.46
  Q 156.04 129.61 153.96 129.31
  Q 153.46 129.23 153.06 129.55
  Q 150.66 131.43 148.74 133.76
  Q 145.65 137.51 142.56 140.99
  L 141.10 142.09
  Q 140.70 142.39 140.37 142.00
  Q 139.71 141.22 138.72 140.80
  A 2.65 2.57 -10.6 0 1 137.86 140.23
  Q 136.27 138.68 133.79 139.27
  Q 133.31 139.38 132.94 139.05
  Q 131.01 137.34 130.33 135.26
  Q 129.35 132.25 131.98 134.01
  L 133.76 135.20
  Q 133.88 135.28 133.81 135.16
  Q 132.64 133.14 130.46 132.73
  A 1.15 1.13 -13.9 0 1 129.83 132.36
  L 127.58 129.67
  Q 127.32 129.36 126.92 129.35
  Q 126.18 129.34 125.81 128.57
  Q 125.58 128.07 125.66 128.61
  Q 125.71 128.96 125.56 129.23
  Q 125.21 129.87 125.03 129.16
  Q 124.95 128.82 124.62 128.84
  Q 124.26 128.86 124.08 128.55
  Q 123.53 127.66 124.18 126.76
  Q 124.29 126.60 124.16 126.46
  Q 123.31 125.57 122.17 125.51
  Q 121.69 125.49 121.47 125.07
  Q 121.35 124.83 121.15 124.65
  Q 120.82 124.33 120.36 124.26
  Q 120.07 124.21 120.01 123.95
  Q 119.89 123.34 119.28 123.42
  L 116.81 123.72
  Q 126.88 113.17 129.96 99.04
  C 131.72 90.96 132.13 82.76 131.61 74.52
  A 0.69 0.69 0.0 0 1 132.66 73.89
  C 152.52 86.12 169.27 103.45 178.85 124.73
  Q 188.33 145.81 186.74 170.25
  Q 186.47 174.39 185.81 177.09
  Z"
/>
<path fill="#ffffff" d="
  M 371.95 251.78
  Q 361.63 249.08 353.49 241.51
  Q 350.00 238.26 346.80 234.71
  L 335.82 220.02
  L 333.86 216.73
  Q 330.62 210.55 328.00 204.04
  Q 315.73 173.45 327.05 142.89
  C 334.96 121.53 352.07 105.33 375.96 105.46
  Q 388.09 105.53 399.94 111.48
  Q 400.42 111.72 400.67 111.25
  Q 410.44 92.95 430.50 90.05
  Q 444.10 88.08 456.82 96.15
  C 472.01 105.78 458.82 122.38 449.29 129.43
  Q 448.87 129.74 449.30 130.04
  C 470.25 144.62 476.41 167.25 469.28 190.96
  C 457.69 229.52 421.61 251.62 382.74 252.68
  Q 378.71 252.79 371.95 251.78
  Z
  M 418.41 122.58
  C 431.83 127.17 445.77 120.92 451.43 108.03
  A 0.70 0.70 0.0 0 0 451.20 107.18
  C 436.92 96.77 418.34 102.24 411.08 117.92
  A 0.59 0.58 32.0 0 0 411.25 118.62
  Q 414.40 121.21 418.41 122.58
  Z
  M 367.20 236.59
  Q 369.80 239.03 374.75 239.93
  Q 379.87 240.86 386.24 240.42
  C 419.99 238.08 450.84 217.54 458.64 183.18
  C 462.86 164.63 456.16 147.46 439.22 138.33
  Q 430.21 133.47 420.50 134.03
  Q 415.07 134.35 408.70 137.47
  C 407.76 132.12 402.61 127.29 398.28 124.52
  C 379.40 112.45 356.11 116.29 344.07 135.89
  C 325.35 166.36 333.94 202.38 356.96 227.80
  Q 361.52 232.84 367.20 236.59
  Z"
/>
<path fill="#21c064" d="
  M 418.41 122.58
  Q 414.40 121.21 411.25 118.62
  A 0.59 0.58 32.0 0 1 411.08 117.92
  C 418.34 102.24 436.92 96.77 451.20 107.18
  A 0.70 0.70 0.0 0 1 451.43 108.03
  C 445.77 120.92 431.83 127.17 418.41 122.58
  Z"
/>
<path fill="#fe4e69" d="
  M 116.81 123.72
  L 119.28 123.42
  Q 119.89 123.34 120.01 123.95
  Q 120.07 124.21 120.36 124.26
  Q 120.82 124.33 121.15 124.65
  Q 121.35 124.83 121.47 125.07
  Q 121.69 125.49 122.17 125.51
  Q 123.31 125.57 124.16 126.46
  Q 124.29 126.60 124.18 126.76
  Q 123.53 127.66 124.08 128.55
  Q 124.26 128.86 124.62 128.84
  Q 124.95 128.82 125.03 129.16
  Q 125.21 129.87 125.56 129.23
  Q 125.71 128.96 125.66 128.61
  Q 125.58 128.07 125.81 128.57
  Q 126.18 129.34 126.92 129.35
  Q 127.32 129.36 127.58 129.67
  L 129.83 132.36
  A 1.15 1.13 -13.9 0 0 130.46 132.73
  Q 132.64 133.14 133.81 135.16
  Q 133.88 135.28 133.76 135.20
  L 131.98 134.01
  Q 129.35 132.25 130.33 135.26
  Q 131.01 137.34 132.94 139.05
  Q 133.31 139.38 133.79 139.27
  Q 136.27 138.68 137.86 140.23
  A 2.65 2.57 -10.6 0 0 138.72 140.80
  Q 139.71 141.22 140.37 142.00
  Q 140.70 142.39 141.10 142.09
  L 142.56 140.99
  Q 132.79 153.02 127.12 166.37
  Q 126.06 168.86 125.31 172.57
  Q 125.31 172.62 125.35 172.63
  L 125.60 172.70
  Q 125.72 172.73 125.77 172.63
  L 128.64 166.95
  Q 128.95 166.33 129.46 166.80
  Q 136.02 172.81 143.49 173.02
  Q 159.25 173.45 166.94 160.17
  Q 168.68 162.94 173.47 165.09
  Q 174.58 165.59 175.11 166.23
  Q 175.86 167.15 176.34 168.22
  Q 176.55 168.67 177.01 168.87
  Q 178.28 169.39 179.06 170.59
  Q 179.48 171.25 178.73 171.15
  Q 178.60 171.13 178.52 171.30
  Q 178.40 171.56 178.69 171.57
  Q 179.64 171.60 180.09 172.32
  A 0.36 0.36 0.0 0 0 180.62 172.41
  Q 180.76 172.29 180.85 172.12
  Q 181.02 171.81 181.22 172.10
  L 183.39 175.16
  Q 183.64 175.51 183.67 175.95
  Q 183.72 176.78 184.49 177.27
  Q 184.98 177.58 185.81 177.09
  Q 182.08 197.23 167.70 212.20
  L 163.45 216.07
  Q 162.10 216.45 161.76 215.23
  Q 161.63 214.78 161.16 214.79
  Q 160.61 214.81 160.56 214.30
  Q 160.51 213.73 159.99 213.96
  L 159.29 214.26
  Q 158.81 214.47 158.34 214.27
  Q 157.30 213.85 156.12 213.88
  Q 155.63 213.90 155.33 213.53
  Q 154.04 211.96 152.68 210.50
  Q 151.24 208.95 149.37 208.01
  Q 145.79 206.21 142.72 203.68
  Q 142.00 203.08 141.10 203.04
  A 1.05 1.00 -32.3 0 1 140.70 202.96
  Q 139.65 202.56 139.88 201.84
  Q 140.01 201.41 139.70 201.09
  L 138.40 199.78
  Q 138.06 199.43 138.06 198.95
  Q 138.06 198.26 137.75 197.65
  Q 137.44 197.05 136.81 197.26
  Q 135.98 197.52 135.88 196.65
  A 0.52 0.52 0.0 0 0 135.30 196.18
  Q 134.73 196.24 134.28 196.53
  Q 134.02 196.71 134.07 196.40
  Q 134.20 195.56 133.77 194.69
  Q 133.54 194.22 133.03 194.14
  L 130.44 193.72
  Q 129.96 193.64 129.69 193.24
  L 129.07 192.34
  Q 128.75 191.87 128.18 191.80
  Q 125.64 191.48 125.44 189.39
  Q 125.39 188.77 124.80 188.98
  Q 124.10 189.23 123.82 188.58
  Q 123.68 188.26 123.40 188.09
  Q 123.30 188.03 123.26 188.14
  Q 123.04 188.63 122.58 188.21
  Q 121.91 187.59 121.05 187.12
  Q 120.43 186.77 119.75 186.65
  Q 119.26 186.55 119.17 185.99
  A 0.78 0.78 0.0 0 0 118.86 185.48
  Q 116.65 183.75 113.69 183.66
  Q 113.10 183.64 113.52 183.22
  L 113.75 182.99
  Q 114.24 182.50 113.62 182.18
  Q 113.24 181.98 113.15 181.56
  Q 113.03 180.97 112.52 180.65
  L 110.21 179.19
  Q 109.80 178.93 109.83 178.45
  Q 109.85 178.24 109.69 178.11
  Q 109.55 177.99 109.49 178.16
  Q 109.44 178.28 109.38 178.39
  Q 109.36 178.43 109.32 178.41
  Q 107.31 177.66 105.38 176.96
  Q 104.52 176.64 103.73 177.06
  Q 103.36 177.25 103.11 176.91
  Q 102.82 176.51 102.37 176.34
  Q 101.90 176.16 101.49 176.46
  Q 100.14 177.48 99.00 176.33
  Q 107.85 175.01 113.39 167.90
  A 0.47 0.46 46.0 0 1 114.14 167.92
  Q 116.11 170.70 118.06 173.54
  Q 118.12 173.63 118.19 173.56
  Q 118.29 173.47 118.38 173.38
  Q 118.43 173.32 118.40 173.25
  Q 116.41 168.16 113.00 163.17
  Q 102.34 147.57 85.05 134.60
  Q 84.23 133.98 83.28 134.40
  Q 81.51 135.18 79.62 136.16
  Q 79.46 136.24 79.36 136.38
  Q 79.19 136.60 79.42 136.92
  Q 79.70 137.29 80.16 137.24
  Q 80.34 137.22 80.47 137.38
  Q 80.82 137.83 80.34 138.14
  Q 74.08 142.21 71.76 149.36
  Q 70.90 149.22 70.64 148.43
  Q 70.49 147.95 70.06 147.67
  Q 69.13 147.06 68.85 145.99
  Q 68.70 145.42 68.22 145.09
  Q 66.10 143.67 64.01 142.19
  C 63.37 141.73 62.46 141.51 61.70 141.33
  Q 61.32 141.24 61.12 140.90
  Q 60.56 139.94 59.44 139.49
  Q 59.00 139.32 58.73 138.94
  Q 58.15 138.13 57.93 137.28
  Q 67.95 118.51 86.75 108.70
  A 1.18 1.18 0.0 0 1 88.47 109.81
  C 88.02 118.21 89.50 127.22 93.55 134.58
  Q 93.84 135.12 94.45 135.00
  Q 107.11 132.37 116.81 123.72
  Z"
/>
<ellipse fill="#000000" cx="0.00" cy="0.00" transform="translate(224.83,124.69) rotate(-9.1)" rx="7.60" ry="7.43"/>
<path fill="#ff9f16" d="
  M 408.70 137.47
  Q 397.46 142.13 388.21 152.21
  Q 379.72 161.44 373.98 171.64
  Q 368.33 159.40 361.52 149.06
  Q 360.28 147.17 357.88 146.85
  Q 355.94 146.59 353.86 146.92
  Q 353.74 146.94 353.77 147.06
  Q 353.79 147.19 353.80 147.32
  A 0.54 0.54 0.0 0 0 354.22 147.82
  Q 354.49 147.87 354.62 148.09
  Q 355.02 148.70 354.29 148.75
  Q 346.64 149.25 342.27 153.90
  C 334.43 162.25 339.89 174.26 347.87 180.37
  Q 356.26 186.79 367.50 187.32
  Q 360.55 211.52 367.20 236.59
  Q 361.52 232.84 356.96 227.80
  C 333.94 202.38 325.35 166.36 344.07 135.89
  C 356.11 116.29 379.40 112.45 398.28 124.52
  C 402.61 127.29 407.76 132.12 408.70 137.47
  Z"
/>
<path fill="#ffffff" d="
  M 166.94 160.17
  Q 159.25 173.45 143.49 173.02
  Q 136.02 172.81 129.46 166.80
  Q 128.95 166.33 128.64 166.95
  L 125.77 172.63
  Q 125.72 172.73 125.60 172.70
  L 125.35 172.63
  Q 125.31 172.62 125.31 172.57
  Q 126.06 168.86 127.12 166.37
  Q 132.79 153.02 142.56 140.99
  Q 145.65 137.51 148.74 133.76
  Q 150.66 131.43 153.06 129.55
  Q 153.46 129.23 153.96 129.31
  Q 156.04 129.61 157.94 130.46
  Q 159.38 131.10 157.98 131.82
  Q 157.85 131.90 157.79 132.04
  Q 157.63 132.50 158.07 132.70
  C 169.01 137.66 171.99 149.59 166.94 160.17
  Z
  M 166.47 148.97
  C 165.90 142.59 161.84 137.42 156.01 134.73
  A 0.40 0.40 0.0 0 0 155.46 135.23
  Q 158.59 144.11 158.82 151.57
  Q 159.10 160.25 153.80 168.14
  Q 153.39 168.76 154.06 168.44
  C 161.62 164.74 167.24 157.51 166.47 148.97
  Z
  M 148.72 139.75
  C 150.11 147.55 151.24 155.83 150.65 163.70
  A 0.55 0.55 0.0 0 0 151.43 164.24
  Q 152.50 163.74 152.81 162.49
  C 154.91 154.02 153.76 145.91 151.96 137.23
  Q 151.79 136.41 151.15 136.95
  L 149.09 138.72
  Q 148.60 139.13 148.72 139.75
  Z
  M 143.20 163.39
  Q 142.69 155.18 141.80 147.84
  Q 141.70 147.01 141.17 147.66
  Q 135.33 154.84 130.80 163.13
  A 0.86 0.86 0.0 0 0 130.93 164.12
  Q 136.96 170.41 145.47 170.35
  A 0.28 0.28 0.0 0 0 145.68 169.89
  Q 143.45 167.32 143.20 163.39
  Z"
/>
<path fill="#000000" d="
  M 230.15 157.76
  Q 230.10 157.36 229.70 157.43
  L 229.29 157.50
  Q 229.07 157.54 229.10 157.76
  L 231.10 171.85
  Q 231.48 174.47 229.06 175.56
  Q 228.72 175.72 228.33 175.74
  Q 225.12 175.92 224.66 172.75
  L 220.07 141.09
  Q 220.05 140.94 219.90 140.91
  L 219.59 140.85
  A 0.31 0.31 0.0 0 0 219.22 141.20
  Q 219.99 146.70 220.74 151.94
  Q 221.02 153.87 219.44 155.06
  Q 219.18 155.25 218.86 155.18
  Q 216.75 154.73 216.42 152.41
  Q 215.49 145.93 214.42 138.72
  C 213.81 134.60 218.57 132.19 222.01 133.35
  Q 226.16 134.75 229.81 132.29
  C 233.10 130.06 238.12 130.83 238.77 135.41
  Q 239.85 142.95 240.76 149.44
  Q 241.00 151.18 239.49 152.12
  Q 239.26 152.26 238.99 152.23
  Q 236.93 151.97 236.63 150.05
  Q 235.84 144.86 234.97 138.74
  Q 234.94 138.51 234.72 138.58
  L 234.39 138.67
  Q 234.09 138.76 234.14 139.06
  L 238.74 170.68
  Q 239.20 173.86 236.09 174.64
  Q 235.63 174.76 235.18 174.67
  Q 232.54 174.16 232.16 171.50
  L 230.15 157.76
  Z"
/>
<path fill="#ffbc1d" d="
  M 367.20 236.59
  Q 360.55 211.52 367.50 187.32
  L 376.20 185.27
  A 0.59 0.58 75.0 0 1 376.90 185.68
  L 378.44 190.99
  Q 378.61 191.56 378.96 191.08
  Q 379.34 190.57 379.24 189.96
  Q 377.61 180.43 373.98 171.64
  Q 379.72 161.44 388.21 152.21
  Q 397.46 142.13 408.70 137.47
  Q 415.07 134.35 420.50 134.03
  Q 430.21 133.47 439.22 138.33
  C 456.16 147.46 462.86 164.63 458.64 183.18
  C 450.84 217.54 419.99 238.08 386.24 240.42
  Q 379.87 240.86 374.75 239.93
  Q 369.80 239.03 367.20 236.59
  Z
  M 437.24 162.93
  A 4.26 4.26 0.0 0 0 432.98 158.67
  A 4.26 4.26 0.0 0 0 428.72 162.93
  A 4.26 4.26 0.0 0 0 432.98 167.19
  A 4.26 4.26 0.0 0 0 437.24 162.93
  Z
  M 420.94 173.55
  Q 412.80 176.53 409.83 177.83
  Q 398.57 182.78 389.81 189.95
  Q 388.23 191.24 386.81 192.85
  Q 385.23 194.63 387.26 193.37
  Q 389.30 192.11 391.42 190.59
  A 0.47 0.47 0.0 0 1 392.12 190.75
  Q 394.60 195.47 398.68 198.43
  C 406.84 204.37 417.70 206.35 427.47 202.71
  Q 432.84 200.71 435.90 195.88
  Q 441.02 187.84 434.67 178.48
  Q 435.90 178.17 437.06 177.84
  C 440.99 176.73 441.22 171.69 437.63 170.01
  Q 434.08 168.35 431.31 172.80
  Q 429.65 171.42 428.03 171.37
  Q 428.51 167.16 425.91 165.73
  Q 423.41 164.35 421.01 166.08
  Q 417.97 168.26 420.94 173.55
  Z"
/>
<path fill="#ffffff" d="
  M 99.00 176.33
  Q 86.21 177.93 77.60 169.40
  Q 69.30 161.16 71.76 149.36
  Q 74.08 142.21 80.34 138.14
  Q 80.82 137.83 80.47 137.38
  Q 80.34 137.22 80.16 137.24
  Q 79.70 137.29 79.42 136.92
  Q 79.19 136.60 79.36 136.38
  Q 79.46 136.24 79.62 136.16
  Q 81.51 135.18 83.28 134.40
  Q 84.23 133.98 85.05 134.60
  Q 102.34 147.57 113.00 163.17
  Q 116.41 168.16 118.40 173.25
  Q 118.43 173.32 118.38 173.38
  Q 118.29 173.47 118.19 173.56
  Q 118.12 173.63 118.06 173.54
  Q 116.11 170.70 114.14 167.92
  A 0.47 0.46 46.0 0 0 113.39 167.90
  Q 107.85 175.01 99.00 176.33
  Z
  M 90.08 173.11
  C 83.83 168.07 81.23 158.02 81.87 150.32
  Q 82.31 145.14 82.95 140.67
  A 0.45 0.45 0.0 0 0 82.27 140.23
  C 76.04 144.21 73.00 151.35 74.65 158.50
  C 76.35 165.84 82.51 171.59 90.06 173.17
  Q 90.19 173.20 90.08 173.11
  Z
  M 91.33 165.35
  Q 89.95 154.62 90.37 143.45
  Q 90.38 143.15 90.14 142.99
  Q 88.69 141.98 86.95 141.25
  A 0.05 0.05 0.0 0 0 86.88 141.29
  Q 86.54 148.36 86.83 154.90
  Q 87.17 162.43 90.28 168.03
  Q 90.91 169.17 91.51 168.01
  Q 91.90 167.26 91.63 166.55
  Q 91.41 165.98 91.33 165.35
  Z
  M 97.99 173.78
  C 103.55 172.89 108.50 170.21 111.47 165.37
  A 0.92 0.92 0.0 0 0 111.42 164.32
  Q 105.53 156.71 99.04 150.84
  Q 98.34 150.21 98.38 151.15
  Q 98.88 160.63 99.36 168.31
  Q 99.54 171.25 97.71 173.26
  Q 97.11 173.92 97.99 173.78
  Z"
/>
<path fill="#fa75a3" d="
  M 156.01 134.73
  C 161.84 137.42 165.90 142.59 166.47 148.97
  C 167.24 157.51 161.62 164.74 154.06 168.44
  Q 153.39 168.76 153.80 168.14
  Q 159.10 160.25 158.82 151.57
  Q 158.59 144.11 155.46 135.23
  A 0.40 0.40 0.0 0 1 156.01 134.73
  Z"
/>
<path fill="#fa75a3" d="
  M 150.65 163.70
  C 151.24 155.83 150.11 147.55 148.72 139.75
  Q 148.60 139.13 149.09 138.72
  L 151.15 136.95
  Q 151.79 136.41 151.96 137.23
  C 153.76 145.91 154.91 154.02 152.81 162.49
  Q 152.50 163.74 151.43 164.24
  A 0.55 0.55 0.0 0 1 150.65 163.70
  Z"
/>
<path fill="#fe5a63" d="
  M 57.93 137.28
  Q 58.15 138.13 58.73 138.94
  Q 59.00 139.32 59.44 139.49
  Q 60.56 139.94 61.12 140.90
  Q 61.32 141.24 61.70 141.33
  C 62.46 141.51 63.37 141.73 64.01 142.19
  Q 66.10 143.67 68.22 145.09
  Q 68.70 145.42 68.85 145.99
  Q 69.13 147.06 70.06 147.67
  Q 70.49 147.95 70.64 148.43
  Q 70.90 149.22 71.76 149.36
  Q 69.30 161.16 77.60 169.40
  Q 86.21 177.93 99.00 176.33
  Q 100.14 177.48 101.49 176.46
  Q 101.90 176.16 102.37 176.34
  Q 102.82 176.51 103.11 176.91
  Q 103.36 177.25 103.73 177.06
  Q 104.52 176.64 105.38 176.96
  Q 107.31 177.66 109.32 178.41
  Q 109.36 178.43 109.38 178.39
  Q 109.44 178.28 109.49 178.16
  Q 109.55 177.99 109.69 178.11
  Q 109.85 178.24 109.83 178.45
  Q 109.80 178.93 110.21 179.19
  L 112.52 180.65
  Q 113.03 180.97 113.15 181.56
  Q 113.24 181.98 113.62 182.18
  Q 114.24 182.50 113.75 182.99
  L 113.52 183.22
  Q 113.10 183.64 113.69 183.66
  Q 116.65 183.75 118.86 185.48
  A 0.78 0.78 0.0 0 1 119.17 185.99
  Q 119.26 186.55 119.75 186.65
  Q 120.43 186.77 121.05 187.12
  Q 121.91 187.59 122.58 188.21
  Q 123.04 188.63 123.26 188.14
  Q 123.30 188.03 123.40 188.09
  Q 123.68 188.26 123.82 188.58
  Q 124.10 189.23 124.80 188.98
  Q 125.39 188.77 125.44 189.39
  Q 125.64 191.48 128.18 191.80
  Q 128.75 191.87 129.07 192.34
  L 129.69 193.24
  Q 129.96 193.64 130.44 193.72
  L 133.03 194.14
  Q 133.54 194.22 133.77 194.69
  Q 134.20 195.56 134.07 196.40
  Q 134.02 196.71 134.28 196.53
  Q 134.73 196.24 135.30 196.18
  A 0.52 0.52 0.0 0 1 135.88 196.65
  Q 135.98 197.52 136.81 197.26
  Q 137.44 197.05 137.75 197.65
  Q 138.06 198.26 138.06 198.95
  Q 138.06 199.43 138.40 199.78
  L 139.70 201.09
  Q 140.01 201.41 139.88 201.84
  Q 139.65 202.56 140.70 202.96
  A 1.05 1.00 -32.3 0 0 141.10 203.04
  Q 142.00 203.08 142.72 203.68
  Q 145.79 206.21 149.37 208.01
  Q 151.24 208.95 152.68 210.50
  Q 154.04 211.96 155.33 213.53
  Q 155.63 213.90 156.12 213.88
  Q 157.30 213.85 158.34 214.27
  Q 158.81 214.47 159.29 214.26
  L 159.99 213.96
  Q 160.51 213.73 160.56 214.30
  Q 160.61 214.81 161.16 214.79
  Q 161.63 214.78 161.76 215.23
  Q 162.10 216.45 163.45 216.07
  Q 163.44 216.63 163.21 216.34
  Q 158.15 220.47 153.89 222.89
  Q 151.48 224.26 144.54 227.68
  L 138.77 229.32
  Q 139.86 227.87 138.29 227.67
  Q 137.79 227.61 137.70 227.11
  Q 137.65 226.81 137.38 226.63
  A 0.25 0.25 0.0 0 0 137.01 226.74
  Q 136.95 226.87 136.84 226.96
  Q 136.31 227.39 136.06 226.75
  Q 135.75 225.95 134.94 226.11
  Q 134.47 226.20 134.20 225.81
  Q 134.09 225.66 134.16 225.51
  Q 134.37 225.10 133.96 224.88
  L 126.23 220.75
  Q 126.08 220.66 125.90 220.65
  Q 125.49 220.62 125.58 220.18
  Q 125.73 219.42 124.99 219.18
  Q 123.75 218.78 122.70 217.99
  Q 121.40 217.00 120.58 216.67
  Q 118.23 215.73 115.69 214.82
  Q 114.48 214.39 114.11 213.00
  Q 113.98 212.52 113.65 212.16
  Q 112.31 210.68 110.97 209.32
  C 110.76 209.10 110.23 208.86 109.92 208.81
  Q 109.45 208.71 109.34 208.25
  Q 108.87 206.40 106.81 205.98
  Q 106.28 205.87 106.03 205.39
  Q 105.59 204.54 104.68 204.65
  Q 104.46 204.68 104.34 204.49
  Q 103.68 203.46 102.48 203.68
  Q 101.97 203.77 101.53 203.48
  Q 100.01 202.45 99.14 200.76
  Q 97.69 197.94 93.69 196.27
  C 92.24 195.67 90.99 196.30 89.83 195.12
  A 0.85 0.82 -25.8 0 0 89.12 194.89
  Q 88.96 194.92 88.80 194.89
  A 0.56 0.55 -77.8 0 1 88.34 194.17
  Q 88.58 193.42 87.92 193.00
  Q 86.36 192.01 85.29 190.46
  C 84.75 189.68 83.93 189.48 83.02 189.64
  Q 82.54 189.72 82.28 189.31
  Q 80.86 187.03 79.03 185.24
  Q 78.67 184.88 78.16 184.88
  L 75.93 184.88
  Q 75.45 184.88 75.12 184.53
  L 73.49 182.79
  Q 73.12 182.39 73.12 181.85
  L 73.12 181.47
  Q 73.12 181.00 72.75 180.70
  L 68.48 177.20
  Q 68.11 176.90 67.63 176.91
  C 66.69 176.93 65.59 176.81 64.85 176.18
  Q 64.35 175.74 63.66 175.86
  Q 63.13 175.95 62.64 175.66
  Q 62.39 175.51 62.41 175.22
  Q 62.44 174.68 62.05 174.31
  C 60.54 172.85 58.87 170.26 56.78 169.89
  Q 56.45 169.83 56.37 169.51
  Q 55.85 167.50 53.87 167.65
  Q 53.46 167.68 53.39 167.28
  L 53.02 165.45
  Q 52.90 164.84 52.40 164.48
  Q 51.52 163.84 51.81 162.77
  Q 51.94 162.29 51.44 162.22
  L 50.97 162.16
  Q 51.48 148.98 57.93 137.28
  Z"
/>
<path fill="#fa75a3" d="
  M 90.08 173.11
  Q 90.19 173.20 90.06 173.17
  C 82.51 171.59 76.35 165.84 74.65 158.50
  C 73.00 151.35 76.04 144.21 82.27 140.23
  A 0.45 0.45 0.0 0 1 82.95 140.67
  Q 82.31 145.14 81.87 150.32
  C 81.23 158.02 83.83 168.07 90.08 173.11
  Z"
/>
<path fill="#fa75a3" d="
  M 91.63 166.55
  Q 91.90 167.26 91.51 168.01
  Q 90.91 169.17 90.28 168.03
  Q 87.17 162.43 86.83 154.90
  Q 86.54 148.36 86.88 141.29
  A 0.05 0.05 0.0 0 1 86.95 141.25
  Q 88.69 141.98 90.14 142.99
  Q 90.38 143.15 90.37 143.45
  Q 89.95 154.62 91.33 165.35
  Q 91.41 165.98 91.63 166.55
  Z"
/>
<path fill="#ffffff" d="
  M 373.98 171.64
  Q 377.61 180.43 379.24 189.96
  Q 379.34 190.57 378.96 191.08
  Q 378.61 191.56 378.44 190.99
  L 376.90 185.68
  A 0.59 0.58 75.0 0 0 376.20 185.27
  L 367.50 187.32
  Q 356.26 186.79 347.87 180.37
  C 339.89 174.26 334.43 162.25 342.27 153.90
  Q 346.64 149.25 354.29 148.75
  Q 355.02 148.70 354.62 148.09
  Q 354.49 147.87 354.22 147.82
  A 0.54 0.54 0.0 0 1 353.80 147.32
  Q 353.79 147.19 353.77 147.06
  Q 353.74 146.94 353.86 146.92
  Q 355.94 146.59 357.88 146.85
  Q 360.28 147.17 361.52 149.06
  Q 368.33 159.40 373.98 171.64
  Z
  M 350.01 177.24
  C 346.48 167.29 350.41 159.87 356.01 151.77
  A 0.48 0.48 0.0 0 0 355.57 151.02
  C 345.70 152.01 338.83 159.22 342.50 169.40
  Q 344.45 174.81 350.93 179.66
  Q 351.72 180.26 351.25 179.38
  C 350.86 178.68 350.29 178.02 350.01 177.24
  Z
  M 355.27 175.43
  Q 357.78 165.81 362.26 156.88
  A 0.42 0.40 38.3 0 0 362.20 156.43
  L 359.90 153.82
  Q 359.77 153.67 359.67 153.85
  C 355.95 160.50 352.13 168.49 353.54 176.19
  A 0.82 0.82 0.0 0 0 354.77 176.75
  Q 355.14 176.53 355.16 176.09
  Q 355.19 175.76 355.27 175.43
  Z
  M 367.36 166.31
  C 365.94 170.55 364.21 174.51 362.72 178.93
  C 362.17 180.55 360.81 182.46 359.17 183.21
  A 0.30 0.30 0.0 0 0 359.22 183.78
  Q 367.97 186.06 374.83 182.76
  Q 375.72 182.33 375.37 181.40
  Q 372.00 172.62 368.25 166.22
  A 0.49 0.49 0.0 0 0 367.36 166.31
  Z"
/>
<path fill="#f99df0" d="
  M 143.20 163.39
  Q 143.45 167.32 145.68 169.89
  A 0.28 0.28 0.0 0 1 145.47 170.35
  Q 136.96 170.41 130.93 164.12
  A 0.86 0.86 0.0 0 1 130.80 163.13
  Q 135.33 154.84 141.17 147.66
  Q 141.70 147.01 141.80 147.84
  Q 142.69 155.18 143.20 163.39
  Z"
/>
<path fill="#f99df0" d="
  M 111.47 165.37
  C 108.50 170.21 103.55 172.89 97.99 173.78
  Q 97.11 173.92 97.71 173.26
  Q 99.54 171.25 99.36 168.31
  Q 98.88 160.63 98.38 151.15
  Q 98.34 150.21 99.04 150.84
  Q 105.53 156.71 111.42 164.32
  A 0.92 0.92 0.0 0 1 111.47 165.37
  Z"
/>
<path fill="#fa75a3" d="
  M 350.01 177.24
  C 350.29 178.02 350.86 178.68 351.25 179.38
  Q 351.72 180.26 350.93 179.66
  Q 344.45 174.81 342.50 169.40
  C 338.83 159.22 345.70 152.01 355.57 151.02
  A 0.48 0.48 0.0 0 1 356.01 151.77
  C 350.41 159.87 346.48 167.29 350.01 177.24
  Z"
/>
<path fill="#fa75a3" d="
  M 355.16 176.09
  Q 355.14 176.53 354.77 176.75
  A 0.82 0.82 0.0 0 1 353.54 176.19
  C 352.13 168.49 355.95 160.50 359.67 153.85
  Q 359.77 153.67 359.90 153.82
  L 362.20 156.43
  A 0.42 0.40 38.3 0 1 362.26 156.88
  Q 357.78 165.81 355.27 175.43
  Q 355.19 175.76 355.16 176.09
  Z"
/>
<ellipse fill="#000000" cx="0.00" cy="0.00" transform="translate(265.44,163.62) rotate(21.0)" rx="5.90" ry="5.69"/>
<circle fill="#ff9f16" cx="432.98" cy="162.93" r="4.26"/>
<path fill="#fe645e" d="
  M 50.97 162.16
  L 51.44 162.22
  Q 51.94 162.29 51.81 162.77
  Q 51.52 163.84 52.40 164.48
  Q 52.90 164.84 53.02 165.45
  L 53.39 167.28
  Q 53.46 167.68 53.87 167.65
  Q 55.85 167.50 56.37 169.51
  Q 56.45 169.83 56.78 169.89
  C 58.87 170.26 60.54 172.85 62.05 174.31
  Q 62.44 174.68 62.41 175.22
  Q 62.39 175.51 62.64 175.66
  Q 63.13 175.95 63.66 175.86
  Q 64.35 175.74 64.85 176.18
  C 65.59 176.81 66.69 176.93 67.63 176.91
  Q 68.11 176.90 68.48 177.20
  L 72.75 180.70
  Q 73.12 181.00 73.12 181.47
  L 73.12 181.85
  Q 73.12 182.39 73.49 182.79
  L 75.12 184.53
  Q 75.45 184.88 75.93 184.88
  L 78.16 184.88
  Q 78.67 184.88 79.03 185.24
  Q 80.86 187.03 82.28 189.31
  Q 82.54 189.72 83.02 189.64
  C 83.93 189.48 84.75 189.68 85.29 190.46
  Q 86.36 192.01 87.92 193.00
  Q 88.58 193.42 88.34 194.17
  A 0.56 0.55 -77.8 0 0 88.80 194.89
  Q 88.96 194.92 89.12 194.89
  A 0.85 0.82 -25.8 0 1 89.83 195.12
  C 90.99 196.30 92.24 195.67 93.69 196.27
  Q 97.69 197.94 99.14 200.76
  Q 100.01 202.45 101.53 203.48
  Q 101.97 203.77 102.48 203.68
  Q 103.68 203.46 104.34 204.49
  Q 104.46 204.68 104.68 204.65
  Q 105.59 204.54 106.03 205.39
  Q 106.28 205.87 106.81 205.98
  Q 108.87 206.40 109.34 208.25
  Q 109.45 208.71 109.92 208.81
  C 110.23 208.86 110.76 209.10 110.97 209.32
  Q 112.31 210.68 113.65 212.16
  Q 113.98 212.52 114.11 213.00
  Q 114.48 214.39 115.69 214.82
  Q 118.23 215.73 120.58 216.67
  Q 121.40 217.00 122.70 217.99
  Q 123.75 218.78 124.99 219.18
  Q 125.73 219.42 125.58 220.18
  Q 125.49 220.62 125.90 220.65
  Q 126.08 220.66 126.23 220.75
  L 133.96 224.88
  Q 134.37 225.10 134.16 225.51
  Q 134.09 225.66 134.20 225.81
  Q 134.47 226.20 134.94 226.11
  Q 135.75 225.95 136.06 226.75
  Q 136.31 227.39 136.84 226.96
  Q 136.95 226.87 137.01 226.74
  A 0.25 0.25 0.0 0 1 137.38 226.63
  Q 137.65 226.81 137.70 227.11
  Q 137.79 227.61 138.29 227.67
  Q 139.86 227.87 138.77 229.32
  Q 116.96 235.28 94.35 227.88
  C 65.43 218.41 49.44 192.13 50.97 162.16
  Z"
/>
<path fill="#ff9f16" d="
  M 428.03 171.37
  L 420.94 173.55
  Q 417.97 168.26 421.01 166.08
  Q 423.41 164.35 425.91 165.73
  Q 428.51 167.16 428.03 171.37
  Z"
/>
<path fill="#f99df0" d="
  M 362.72 178.93
  C 364.21 174.51 365.94 170.55 367.36 166.31
  A 0.49 0.49 0.0 0 1 368.25 166.22
  Q 372.00 172.62 375.37 181.40
  Q 375.72 182.33 374.83 182.76
  Q 367.97 186.06 359.22 183.78
  A 0.30 0.30 0.0 0 1 359.17 183.21
  C 360.81 182.46 362.17 180.55 362.72 178.93
  Z"
/>
<path fill="#000000" d="
  M 270.50 181.34
  Q 269.93 181.58 269.87 181.95
  Q 269.38 184.65 268.17 186.67
  Q 267.31 188.11 266.00 186.84
  A 1.63 1.61 -60.7 0 1 265.56 185.25
  L 266.78 180.75
  Q 267.73 178.82 267.89 176.84
  Q 267.94 176.28 267.63 176.75
  Q 266.53 178.44 266.36 180.67
  L 264.02 188.22
  L 260.46 199.98
  Q 259.98 201.57 258.39 202.02
  Q 257.43 202.30 256.81 201.65
  Q 255.22 200.00 255.87 197.80
  L 258.58 188.51
  Q 258.67 188.21 258.38 188.11
  L 258.09 188.01
  Q 257.86 187.94 257.79 188.17
  L 254.80 198.31
  Q 254.15 200.53 251.84 200.32
  Q 251.20 200.27 250.74 199.78
  Q 249.57 198.53 250.03 196.89
  L 252.88 186.86
  L 254.82 179.58
  Q 256.35 176.64 256.60 173.62
  Q 256.64 173.08 256.36 173.55
  Q 254.76 176.22 254.82 179.58
  Q 254.74 179.33 254.53 179.37
  Q 254.23 179.42 254.20 179.73
  Q 254.09 181.38 253.03 182.54
  A 1.37 1.37 0.0 0 1 250.73 182.05
  Q 250.27 180.71 251.01 179.01
  Q 252.12 175.38 253.15 171.67
  Q 253.90 168.99 254.96 168.16
  C 256.47 166.97 259.20 167.33 260.57 168.65
  C 262.16 170.16 264.29 170.84 266.46 170.56
  Q 270.87 170.00 272.02 173.98
  A 1.71 1.71 0.0 0 1 272.02 174.94
  Q 271.12 177.93 270.22 180.99
  Q 270.13 181.30 270.50 181.34
  Z"
/>
<path fill="#ff9f16" d="
  M 434.67 178.48
  L 432.24 175.82
  Q 431.79 175.33 432.39 175.04
  L 432.99 174.76
  Q 433.61 174.47 433.06 174.07
  L 431.31 172.80
  Q 434.08 168.35 437.63 170.01
  C 441.22 171.69 440.99 176.73 437.06 177.84
  Q 435.90 178.17 434.67 178.48
  Z"
/>
<path fill="#ffffff" d="
  M 428.03 171.37
  Q 429.65 171.42 431.31 172.80
  L 433.06 174.07
  Q 433.61 174.47 432.99 174.76
  L 432.39 175.04
  Q 431.79 175.33 432.24 175.82
  L 434.67 178.48
  Q 441.02 187.84 435.90 195.88
  Q 432.84 200.71 427.47 202.71
  C 417.70 206.35 406.84 204.37 398.68 198.43
  Q 394.60 195.47 392.12 190.75
  A 0.47 0.47 0.0 0 0 391.42 190.59
  Q 389.30 192.11 387.26 193.37
  Q 385.23 194.63 386.81 192.85
  Q 388.23 191.24 389.81 189.95
  Q 398.57 182.78 409.83 177.83
  Q 412.80 176.53 420.94 173.55
  L 428.03 171.37
  Z
  M 421.94 187.10
  Q 423.88 181.24 424.48 176.72
  Q 424.54 176.26 424.08 176.34
  L 421.04 176.92
  A 0.66 0.66 0.0 0 0 420.51 177.44
  C 419.20 183.86 417.60 191.15 414.10 196.64
  A 0.74 0.74 0.0 0 0 414.44 197.72
  Q 414.76 197.85 415.10 197.79
  Q 415.54 197.71 415.87 197.41
  Q 419.70 193.90 421.94 187.10
  Z
  M 427.43 187.05
  C 426.15 193.27 421.07 199.58 415.28 201.71
  Q 414.31 202.06 415.34 202.11
  C 421.72 202.39 428.96 200.61 432.71 195.45
  C 437.30 189.16 434.71 181.27 429.12 176.49
  A 0.25 0.25 0.0 0 0 428.71 176.67
  Q 428.54 181.67 427.43 187.05
  Z
  M 406.54 199.24
  C 405.84 197.89 406.22 195.62 406.71 194.26
  Q 409.03 187.69 410.61 181.36
  Q 410.82 180.50 410.00 180.83
  Q 401.88 184.10 394.76 188.49
  A 0.70 0.70 0.0 0 0 394.51 189.41
  Q 398.49 197.01 405.85 200.00
  Q 407.22 200.55 406.54 199.24
  Z"
/>
<path fill="#fa75a3" d="
  M 421.94 187.10
  Q 419.70 193.90 415.87 197.41
  Q 415.54 197.71 415.10 197.79
  Q 414.76 197.85 414.44 197.72
  A 0.74 0.74 0.0 0 1 414.10 196.64
  C 417.60 191.15 419.20 183.86 420.51 177.44
  A 0.66 0.66 0.0 0 1 421.04 176.92
  L 424.08 176.34
  Q 424.54 176.26 424.48 176.72
  Q 423.88 181.24 421.94 187.10
  Z"
/>
<path fill="#fa75a3" d="
  M 427.43 187.05
  Q 428.54 181.67 428.71 176.67
  A 0.25 0.25 0.0 0 1 429.12 176.49
  C 434.71 181.27 437.30 189.16 432.71 195.45
  C 428.96 200.61 421.72 202.39 415.34 202.11
  Q 414.31 202.06 415.28 201.71
  C 421.07 199.58 426.15 193.27 427.43 187.05
  Z"
/>
<path fill="#ffc498" d="
  M 251.01 179.01
  Q 250.27 180.71 250.73 182.05
  A 1.37 1.37 0.0 0 0 253.03 182.54
  Q 254.09 181.38 254.20 179.73
  Q 254.23 179.42 254.53 179.37
  Q 254.74 179.33 254.82 179.58
  L 252.88 186.86
  Q 248.01 186.09 243.31 186.08
  C 240.85 186.08 238.49 185.60 236.12 185.75
  C 232.28 185.99 228.48 185.73 224.69 186.05
  Q 222.09 186.27 220.24 186.29
  C 218.48 186.31 216.96 186.84 215.17 186.95
  C 213.60 184.84 211.06 185.16 209.97 187.58
  Q 206.21 188.48 202.51 189.48
  Q 198.28 190.62 194.23 193.41
  L 188.31 193.39
  Q 187.85 193.39 187.53 193.06
  Q 187.32 192.86 187.06 192.90
  Q 186.45 193.00 186.26 192.41
  L 185.98 191.55
  Q 189.87 184.74 199.75 182.04
  Q 214.38 178.04 229.49 178.11
  Q 233.02 178.13 236.18 178.06
  C 241.25 177.96 246.04 178.51 251.01 179.01
  Z"
/>
<path fill="#000000" d="
  M 282.58 184.29
  Q 277.19 188.35 274.89 182.19
  Q 276.01 177.56 279.74 178.11
  C 282.90 178.59 284.00 181.57 282.58 184.29
  Z"
/>
<path fill="#ffc498" d="
  M 266.36 180.67
  Q 266.57 180.71 266.78 180.75
  L 265.56 185.25
  A 1.63 1.61 -60.7 0 0 266.00 186.84
  Q 267.31 188.11 268.17 186.67
  Q 269.38 184.65 269.87 181.95
  Q 269.93 181.58 270.50 181.34
  Q 272.44 182.19 274.89 182.19
  Q 277.19 188.35 282.58 184.29
  Q 283.34 184.27 284.22 184.77
  C 281.58 185.84 280.60 187.17 277.42 186.62
  A 2.68 2.67 -77.3 0 0 274.38 188.54
  L 273.95 190.07
  L 264.02 188.22
  L 266.36 180.67
  Z"
/>
<path fill="#f99df0" d="
  M 406.71 194.26
  C 406.22 195.62 405.84 197.89 406.54 199.24
  Q 407.22 200.55 405.85 200.00
  Q 398.49 197.01 394.51 189.41
  A 0.70 0.70 0.0 0 1 394.76 188.49
  Q 401.88 184.10 410.00 180.83
  Q 410.82 180.50 410.61 181.36
  Q 409.03 187.69 406.71 194.26
  Z"
/>
<path fill="#000000" d="
  M 284.22 184.77
  L 286.47 185.46
  L 288.80 194.50
  Q 288.95 195.18 288.34 195.64
  A 0.75 0.74 -48.6 0 1 287.51 195.70
  Q 286.56 195.17 286.51 193.95
  A 0.36 0.36 0.0 0 0 286.09 193.60
  L 285.83 193.63
  Q 285.77 193.64 285.78 193.71
  Q 287.36 199.42 288.60 205.88
  Q 288.81 206.98 287.86 207.58
  Q 287.54 207.79 287.17 207.80
  Q 285.41 207.86 285.06 206.14
  L 283.66 199.34
  A 0.29 0.28 82.8 0 0 283.37 199.11
  L 283.09 199.13
  Q 282.80 199.14 282.87 199.42
  L 284.66 206.54
  A 0.80 0.60 -55.6 0 1 284.67 206.75
  Q 284.42 208.51 283.25 208.66
  Q 281.69 208.86 281.30 207.33
  L 278.25 195.28
  Q 277.90 193.03 277.64 191.95
  Q 277.07 189.52 277.01 192.02
  Q 276.97 193.46 278.25 195.28
  Q 278.45 196.42 278.13 197.52
  Q 277.98 198.01 277.49 198.17
  Q 276.17 198.59 275.89 197.25
  Q 274.73 191.77 273.95 190.07
  L 274.38 188.54
  A 2.68 2.67 -77.3 0 1 277.42 186.62
  C 280.60 187.17 281.58 185.84 284.22 184.77
  Z
  M 284.97 189.98
  C 285.30 190.72 285.34 191.47 285.54 192.24
  Q 285.91 193.67 285.86 192.19
  Q 285.82 190.72 285.12 189.09
  Q 284.91 188.61 284.84 189.13
  Q 284.78 189.56 284.97 189.98
  Z"
/>
<path fill="#000000" d="
  M 215.17 186.95
  C 215.69 191.46 209.99 191.84 209.97 187.58
  C 211.06 185.16 213.60 184.84 215.17 186.95
  Z"
/>
<path fill="#ffc498" d="
  M 286.47 185.46
  Q 293.16 187.35 299.60 190.37
  Q 305.51 193.15 310.08 197.59
  C 312.14 199.58 313.16 201.66 312.97 204.69
  Q 312.76 208.10 312.40 211.42
  Q 310.15 208.67 307.70 210.59
  Q 307.10 211.05 307.02 210.31
  Q 307.00 210.15 306.79 210.07
  Q 306.26 209.87 305.91 210.31
  Q 305.81 210.44 305.73 210.58
  Q 305.36 211.21 305.07 210.54
  Q 304.80 209.89 303.50 209.89
  Q 300.51 209.88 297.37 209.95
  Q 296.89 209.97 295.22 210.33
  Q 294.12 210.57 292.99 210.32
  A 1.69 1.60 38.5 0 0 292.05 210.40
  Q 290.18 211.14 289.74 209.46
  C 294.94 208.21 300.33 207.09 304.71 203.98
  A 0.40 0.39 -39.7 0 0 304.77 203.38
  C 300.56 199.09 294.57 196.44 288.80 194.50
  L 286.47 185.46
  Z"
/>
<path fill="#efa47e" d="
  M 284.97 189.98
  Q 284.78 189.56 284.84 189.13
  Q 284.91 188.61 285.12 189.09
  Q 285.82 190.72 285.86 192.19
  Q 285.91 193.67 285.54 192.24
  C 285.34 191.47 285.30 190.72 284.97 189.98
  Z"
/>
<path fill="#000000" d="
  M 214.17 196.80
  Q 214.31 197.23 214.49 197.64
  Q 214.71 198.16 214.18 198.35
  L 213.87 198.46
  A 0.51 0.51 0.0 0 1 213.26 198.23
  L 210.99 194.17
  A 2.00 2.00 0.0 0 1 212.53 191.20
  Q 214.33 191.01 215.38 189.60
  A 1.69 1.69 0.0 0 1 218.23 189.82
  L 220.22 193.56
  Q 220.41 193.90 220.50 194.28
  Q 220.80 195.45 219.89 195.32
  Q 219.54 195.26 219.41 194.94
  Q 219.36 194.80 219.18 194.78
  Q 218.89 194.76 219.02 195.02
  Q 220.34 197.72 222.11 200.78
  Q 222.57 201.58 222.31 202.37
  A 0.94 0.94 0.0 0 1 220.61 202.54
  Q 220.46 202.26 220.20 202.07
  Q 219.56 201.59 219.86 202.33
  L 220.03 202.75
  A 0.88 0.88 0.0 0 1 219.91 203.62
  Q 219.35 204.32 218.51 204.07
  Q 218.06 203.94 217.86 203.50
  Q 216.26 199.95 214.36 196.72
  Q 213.90 195.95 214.17 196.80
  Z"
/>
<path fill="#efa47e" d="
  M 185.98 191.55
  L 186.26 192.41
  Q 186.45 193.00 187.06 192.90
  Q 187.32 192.86 187.53 193.06
  Q 187.85 193.39 188.31 193.39
  L 194.23 193.41
  Q 195.50 195.63 197.49 196.83
  C 201.81 199.44 206.90 201.62 211.74 203.33
  Q 222.89 207.26 240.99 209.87
  Q 246.70 210.70 250.66 210.91
  Q 255.48 211.17 260.35 211.34
  Q 275.16 211.88 289.74 209.46
  Q 290.18 211.14 292.05 210.40
  A 1.69 1.60 38.5 0 1 292.99 210.32
  Q 294.12 210.57 295.22 210.33
  Q 296.89 209.97 297.37 209.95
  Q 300.51 209.88 303.50 209.89
  Q 304.80 209.89 305.07 210.54
  Q 305.36 211.21 305.73 210.58
  Q 305.81 210.44 305.91 210.31
  Q 306.26 209.87 306.79 210.07
  Q 307.00 210.15 307.02 210.31
  Q 307.10 211.05 307.70 210.59
  Q 310.15 208.67 312.40 211.42
  L 311.89 215.99
  Q 311.83 216.49 311.45 216.81
  L 274.16 247.66
  L 262.71 247.05
  Q 262.22 247.02 261.98 246.60
  Q 261.57 245.89 260.63 246.06
  Q 260.12 246.15 260.12 246.67
  Q 260.12 246.93 259.77 247.04
  Q 259.56 247.11 259.34 247.03
  Q 258.99 246.91 258.95 246.51
  A 0.34 0.34 0.0 0 0 258.65 246.21
  Q 257.63 246.10 256.84 246.90
  Q 256.52 247.23 256.18 246.93
  Q 256.05 246.81 255.99 246.66
  Q 255.82 246.15 255.28 246.12
  Q 251.07 245.95 246.98 246.17
  Q 245.57 246.24 244.74 245.48
  Q 244.34 245.11 243.80 245.11
  L 238.62 245.11
  Q 238.22 245.11 238.09 245.49
  L 238.00 245.74
  Q 237.88 246.09 237.51 246.05
  Q 237.18 246.02 237.01 245.78
  Q 236.80 245.50 236.89 245.16
  Q 237.03 244.66 236.73 244.26
  Q 236.40 243.81 236.20 244.33
  Q 236.15 244.45 236.08 244.56
  Q 235.92 244.84 235.61 244.86
  L 232.90 245.08
  Q 232.39 245.12 232.05 244.74
  Q 231.34 243.98 230.61 244.89
  A 0.31 0.31 0.0 0 1 230.11 244.86
  L 229.84 244.45
  Q 229.58 244.04 229.09 244.04
  Q 228.30 244.05 227.86 244.60
  Q 227.52 245.01 227.15 244.63
  L 226.91 244.39
  Q 226.63 244.11 226.23 244.11
  L 221.61 244.11
  A 0.68 0.68 0.0 0 1 220.97 243.66
  L 220.88 243.40
  Q 220.64 242.74 220.18 243.26
  Q 219.77 243.72 219.09 243.98
  Q 218.68 244.13 218.34 243.85
  Q 218.17 243.72 218.13 243.48
  Q 218.04 242.85 217.54 243.25
  L 217.22 243.51
  L 211.47 236.87
  L 208.65 233.70
  Q 205.38 229.44 201.93 225.25
  C 201.45 224.66 200.94 224.57 200.28 224.26
  Q 200.52 224.32 200.66 224.25
  Q 200.98 224.07 200.75 223.80
  L 185.26 205.10
  Q 184.93 204.69 184.97 204.17
  L 185.98 191.55
  Z"
/>
<path fill="#ffb77b" d="
  M 167.70 212.20
  Q 169.88 213.35 171.75 214.32
  Q 173.79 215.39 175.87 215.45
  C 180.52 215.59 190.30 216.23 192.69 220.08
  Q 192.99 220.56 192.79 221.08
  L 192.34 222.29
  Q 192.11 222.91 192.77 223.01
  L 200.28 224.26
  C 200.94 224.57 201.45 224.66 201.93 225.25
  Q 205.38 229.44 208.65 233.70
  Q 199.58 232.74 190.73 230.27
  Q 182.19 227.90 173.98 226.21
  Q 172.67 225.95 172.15 225.51
  Q 167.44 221.59 163.85 216.89
  Q 163.68 216.67 163.21 216.34
  Q 163.44 216.63 163.45 216.07
  L 167.70 212.20
  Z"
/>
<path fill="#ffc498" d="
  M 163.21 216.34
  Q 163.68 216.67 163.85 216.89
  Q 167.44 221.59 172.15 225.51
  Q 172.67 225.95 173.98 226.21
  Q 182.19 227.90 190.73 230.27
  Q 199.58 232.74 208.65 233.70
  L 211.47 236.87
  Q 212.54 240.93 208.89 241.71
  C 202.02 243.17 194.73 241.88 188.41 241.44
  Q 176.82 240.64 165.24 239.77
  Q 161.70 239.50 155.78 235.43
  Q 150.40 231.73 144.54 227.68
  Q 151.48 224.26 153.89 222.89
  Q 158.15 220.47 163.21 216.34
  Z"
/>
<path fill="#efa47e" d="
  M 333.86 216.73
  L 335.82 220.02
  Q 333.56 219.28 333.86 216.73
  Z"
/>
<path fill="#efa47e" d="
  M 346.80 234.71
  Q 350.00 238.26 353.49 241.51
  Q 361.63 249.08 371.95 251.78
  L 363.28 254.80
  Q 363.76 253.36 362.76 252.88
  Q 361.12 252.08 359.89 251.12
  Q 359.12 250.52 358.33 250.06
  Q 357.56 249.60 356.84 249.06
  Q 350.79 244.53 345.69 239.03
  Q 345.36 238.68 344.90 238.51
  L 343.48 237.99
  Q 343.96 237.44 342.97 236.20
  L 346.80 234.71
  Z"
/>
<path fill="#ffb77b" d="
  M 342.97 236.20
  Q 343.96 237.44 343.48 237.99
  Q 334.22 245.05 324.34 251.38
  Q 322.39 252.64 320.80 252.64
  Q 314.00 252.65 306.77 252.84
  Q 301.12 252.99 295.72 252.89
  Q 290.19 252.78 284.67 252.79
  Q 282.02 251.02 282.44 248.71
  C 283.35 243.68 298.68 245.02 302.58 245.58
  A 0.67 0.66 -6.3 0 0 303.30 244.69
  C 301.01 238.54 318.91 241.37 321.15 241.78
  Q 323.09 242.14 325.44 241.51
  Q 333.46 239.36 338.24 237.60
  Q 341.21 236.51 342.97 236.20
  Z"
/>
<path fill="#ffc498" d="
  M 343.48 237.99
  L 344.90 238.51
  Q 345.36 238.68 345.69 239.03
  Q 350.79 244.53 356.84 249.06
  Q 357.56 249.60 358.33 250.06
  Q 359.12 250.52 359.89 251.12
  Q 361.12 252.08 362.76 252.88
  Q 363.76 253.36 363.28 254.80
  Q 352.86 258.74 335.50 265.96
  C 330.73 267.95 326.30 267.97 320.86 267.11
  Q 306.40 264.82 293.50 263.31
  C 290.64 262.97 280.12 261.16 280.92 256.91
  Q 281.51 253.76 284.67 252.79
  Q 290.19 252.78 295.72 252.89
  Q 301.12 252.99 306.77 252.84
  Q 314.00 252.65 320.80 252.64
  Q 322.39 252.64 324.34 251.38
  Q 334.22 245.05 343.48 237.99
  Z"
/>
<path fill="#e77c68" d="
  M 274.16 247.66
  L 261.00 258.63
  A 3.31 3.31 0.0 0 0 259.83 260.85
  Q 258.02 280.73 256.41 298.59
  C 255.82 305.18 246.22 306.35 241.08 305.80
  Q 240.69 305.76 240.43 306.06
  L 240.20 306.34
  Q 239.87 306.73 239.50 306.37
  L 239.02 305.91
  Q 238.72 305.61 238.30 305.58
  C 233.93 305.27 224.10 302.27 224.64 296.21
  Q 226.38 276.71 228.17 257.32
  Q 228.23 256.75 227.86 256.31
  L 217.22 243.51
  L 217.54 243.25
  Q 218.04 242.85 218.13 243.48
  Q 218.17 243.72 218.34 243.85
  Q 218.68 244.13 219.09 243.98
  Q 219.77 243.72 220.18 243.26
  Q 220.64 242.74 220.88 243.40
  L 220.97 243.66
  A 0.68 0.68 0.0 0 0 221.61 244.11
  L 226.23 244.11
  Q 226.63 244.11 226.91 244.39
  L 227.15 244.63
  Q 227.52 245.01 227.86 244.60
  Q 228.30 244.05 229.09 244.04
  Q 229.58 244.04 229.84 244.45
  L 230.11 244.86
  A 0.31 0.31 0.0 0 0 230.61 244.89
  Q 231.34 243.98 232.05 244.74
  Q 232.39 245.12 232.90 245.08
  L 235.61 244.86
  Q 235.92 244.84 236.08 244.56
  Q 236.15 244.45 236.20 244.33
  Q 236.40 243.81 236.73 244.26
  Q 237.03 244.66 236.89 245.16
  Q 236.80 245.50 237.01 245.78
  Q 237.18 246.02 237.51 246.05
  Q 237.88 246.09 238.00 245.74
  L 238.09 245.49
  Q 238.22 245.11 238.62 245.11
  L 243.80 245.11
  Q 244.34 245.11 244.74 245.48
  Q 245.57 246.24 246.98 246.17
  Q 251.07 245.95 255.28 246.12
  Q 255.82 246.15 255.99 246.66
  Q 256.05 246.81 256.18 246.93
  Q 256.52 247.23 256.84 246.90
  Q 257.63 246.10 258.65 246.21
  A 0.34 0.34 0.0 0 1 258.95 246.51
  Q 258.99 246.91 259.34 247.03
  Q 259.56 247.11 259.77 247.04
  Q 260.12 246.93 260.12 246.67
  Q 260.12 246.15 260.63 246.06
  Q 261.57 245.89 261.98 246.60
  Q 262.22 247.02 262.71 247.05
  L 274.16 247.66
  Z"
/>
</svg>
