<?xml version="1.0" encoding="UTF-8"?><svg id="Layer_1" xmlns="http://www.w3.org/2000/svg" viewBox="0 0 433.21 457.79"><defs><style>.cls-1{fill:#21c064;}.cls-1,.cls-2,.cls-3,.cls-4,.cls-5,.cls-6,.cls-7,.cls-8,.cls-9,.cls-10,.cls-11{stroke-width:0px;}.cls-2{fill:#e1e1e1;}.cls-4{fill:#f99cef;}.cls-5{fill:#ff9f16;}.cls-6{fill:#fff;}.cls-7{fill:#fa74a1;}.cls-8{fill:#fa85c2;}.cls-9{fill:#5adf64;}.cls-10{fill:#ffbc1d;}.cls-11{fill:#aaa;}</style></defs><path class="cls-9" d="M344.51,35.1l-4.02.83c-.37.07-.49.29-.35.64.4,1.02.23,1.85-.5,2.48-.27.23-.4.52-.39.87,0,.67,0,1.36.02,2.05,0,.29-.06.57-.21.82-.07.12-.17.19-.3.21-.41.05-.57.28-.48.68.13.61-.06,1.04-.59,1.31-.29.15-.43.38-.43.7v4.33c0,.29-.12.56-.32.76l-1.34,1.3c-.23.22-.34.49-.34.8v2.19c0,.25-.07.47-.2.67-.08.13-.19.22-.33.27-.37.13-.54.38-.52.77.05.76.08,1.51.07,2.26,0,.27-.09.52-.26.75-.07.08-.15.14-.25.17-.39.11-.56.36-.51.76.08.67-.15,1.18-.7,1.54-.25.17-.36.4-.31.7.11.67-.02,1.31-.38,1.92-.16.27-.39.45-.69.54-1.35.39-2.69.71-4.03.96-18.83,3.61-37.67,7.1-56.51,10.49-.53.1-.75.45-.66,1.06-.4-.19-.66-.46-.79-.8-.11-.29-.09-.57.06-.84l2.6-4.63c.17-.31.42-.55.75-.72.25-.13.39-.33.43-.61.03-.25.12-.49.25-.72.71-1.25,1.4-2.43,2.07-3.56.98-.05,1.64-.85,1.98-2.42.84-1.01,1.71-2.08,2.61-3.21.05-.05.1-.09.15-.13.1-.07.18-.05.25.05.02.02.05.03.07,0,0,0,0,0,0,0,15.9-18.68,39.71-27.31,64.09-25.24Z"/><path class="cls-1" d="M344.51,35.1c2.87.26,5.08.54,6.63.85,14.11,2.8,26.44,8.99,36.99,18.57.22.2.28.52.15.78-12.77,26.5-40.62,42.51-69.64,41.92-18.41-.37-34.63-6.8-48.66-19.29-.09-.61.13-.96.66-1.06,18.84-3.39,37.68-6.88,56.51-10.49,1.34-.25,2.68-.57,4.03-.96.3-.09.53-.27.69-.54.36-.61.49-1.25.38-1.92-.05-.3.06-.53.31-.7.55-.36.78-.87.7-1.54-.05-.4.12-.65.51-.76.1-.03.18-.09.25-.17.17-.23.25-.48.26-.75,0-.75-.02-1.5-.07-2.26-.02-.39.15-.64.52-.77.14-.05.25-.14.33-.27.13-.2.2-.42.2-.67v-2.19c0-.31.11-.58.34-.8l1.34-1.3c.2-.2.32-.47.32-.76v-4.33c0-.32.14-.55.43-.7.53-.27.72-.7.59-1.31-.09-.4.07-.63.48-.68.13-.02.23-.09.3-.21.15-.25.22-.53.21-.82-.01-.69-.02-1.38-.02-2.05,0-.35.12-.64.39-.87.73-.63.9-1.46.5-2.48-.14-.35-.02-.57.35-.64l4.02-.83Z"/><path class="cls-2" d="M277.33,63.63c-.34,1.57-1,2.37-1.98,2.42.23-1.31.89-2.11,1.98-2.42Z"/><path class="cls-5" d="M163.94,66.74c1.44.53,2.82.58,4.14.15,6.49.85,11.25,1.61,14.3,2.28,21.96,4.77,41,14.7,57.13,29.77,8.57,8.01,15.66,18.05,18.76,29.79.23.88.27,1.52.11,1.91-7.26,2.18-14.07,5.21-20.44,9.09-20.18-10.61-37.12-20.16-56.25-30.2-3.72-1.95-6.33-2.02-10.04-.77-.33.11-.57.32-.74.63l-16.59,30.98c-.13.26-.3.5-.5.72-.61.69-1.05,1.43-1.32,2.23-.28.83-.68,1.6-1.21,2.33-1.07,1.49-1.99,3.17-2.75,5.04-.67,1.63-1.49,3.21-2.46,4.76-.96,1.52-1.81,3.09-2.56,4.7-.06.13-.09.13-.08-.02,0-.11-.08-.14-.23-.1-.09.02-.16.07-.22.14-.41.56-.65,1.15-.7,1.78-.03.39-.16.74-.37,1.06-2.75,4.11-2.94,8.36,1.83,11.07,3.32,1.88,6.61,3.9,9.97,5.61,6.91,3.51,13.97,7.16,21.16,10.93-7.36,8.63-14.19,17.56-20.49,26.81-.95,1.4-1.83,2.9-2.64,4.49-.14.28-.33.31-.56.1l-1.68-1.59c-.25-.87-.45-1.78-.59-2.74-.15-1.07-.41-1.95-.77-2.65-.61-1.17-1.29-2.3-2.04-3.38l.14-.87c.06-.37-.03-.74-.24-1.04-1.03-1.44-1.71-2.93-2.06-4.47-.2-.89-.57-1.74-1.12-2.54-.49-.71-1-1.39-1.52-2.06l-.96-2.16c.07-1.53-.54-2.94-1.83-4.25-.23-.23-.37-.51-.41-.84-.27-2.29-1.24-4.3-2.91-6.03-.24-.82-.14-1.46-.5-2.26-1.44-3.14-3.07-6.14-4.89-9.01-.41-.32-.68-.77-.83-1.36-.3-2.28-1.41-4.3-3.34-6.06l-1.49-2.76c-.91-3.1-2.45-5.71-4.62-7.83-.45-1.02-1.24-2.02-2.38-3-.18-.87-.77-1.47-1.76-1.78l-8.26-1.5c-1.53-.59-2.87-.56-4.02.11l-3.76-.38c-1.2-.12-1.32.19-.36.92,1.35,1.04,2.61,2.29,3.76,3.76.12.16.1.38-.06.51-.08.06-.18.09-.28.07-3.33-.47-6.51-.27-9.54.6-.77-.45-1.82-.4-3.17.13-.86.37-1.7.59-2.53.67-1.15.11-1.98.25-2.51.43-2.54.87-5.13,1.38-7.61,2.52-4.25,1.97-8.29,4.58-12.1,7.81-2.6,2.21-4.71,5.22-6.75,7.91-4.73,6.22-5.94,13.36-6.27,20.68-.33,7.51,1.02,14.82,4.05,21.91l.79,2.43c.63,1.03,1.17,2.1,1.63,3.2.53,1.27,1.13,2.34,1.82,3.22.85,1.09,1.59,2.23,2.23,3.43.61,1.15,1.31,2.19,2.1,3.11.87,1.03,1.67,2.1,2.4,3.21.77,1.17,1.62,2.18,2.57,3.01,1.23,1.09,2.43,2.25,3.6,3.49.1.11.19.29.26.55.08.31.27.59.52.79l3.98,3.19c.8,1.39,1.89,2.22,3.26,2.5l7.46,5.12c.31.93,1.48,1.56,3.5,1.9,2.41,1.67,5.01,2.88,7.81,3.62.49.13.77.36.84.7.07.3.25.49.55.56.29.07.57.07.86,0l4.1,1.81c4.79,2.54,9.83,4.09,15.11,4.65.86.09,1.69.25,2.5.48.83.24,1.67.36,2.53.37.39,0,.71.32.71.71,0,.1-.02.2-.07.3-.39.81-.74,1.68-1.07,2.61-12.62,36.24-16.53,73.48-11.73,111.72.89,7.08,2.14,14.08,3.76,21.01.07.33-.06.61-.4.84-3.94-2.98-7.28-6.31-10.79-9.52-2.37-2.17-4.61-4.4-6.73-6.67-8.34-8.97-16.42-19.4-24.24-31.3-.29-.44-.52-.91-.68-1.42-.13-.39-.33-.73-.6-1.03-1.66-1.81-2.84-3.71-3.54-5.68-.67-1.9-2.38-3.2-3.27-5.06-.97-2.02-1.87-3.66-2.72-4.93.12-1.19-.45-2.42-1.72-3.71l-1.39-2.26c-.32-1.97-1.15-3.63-2.49-5l-1.28-2.56c.09-.99-.22-1.81-.94-2.47l-1.38-2.43c.55-1.76-.79-3.34-1.98-5l-.93-2.03c.03-1.28-.56-2.71-1.79-4.3,0-.07-.01-.15-.02-.22.1-1.91-.56-3.68-1.97-5.31l-1.21-3.16c.58-.41.34-1.34-.73-2.78l-1.16-2.93c.25-1.05-.15-2.46-1.2-4.24-.03-.08-.06-.16-.09-.24.08-1.96-.46-3.74-1.62-5.33.02-.45-.09-.89-.34-1.3.36-.87.23-1.77-.39-2.69l-1.38-4.08c.15-1.29-.03-2.41-.54-3.37-.43-1.08-.72-2.14-.86-3.19-.15-1.07-.35-2.13-.58-3.18-.34-1.45-.71-3.34-1.1-5.65-4.98-29.29-3.89-57.81,3.28-85.55,4.79-18.53,12.28-36.29,22.48-53.3.85-.82,1.49-1.79,1.92-2.92l1.61-2.96c.67.13,1.22-.57,1.65-2.08,1.12-1.5,1.95-3.03,3.29-4.39,1.18-1.19,1.83-2.8,2.91-4.14,5.05-6.31,10.58-12.13,16.57-17.46,1.03-.31,1.87-.95,2.52-1.92,1.03-.89,2.1-1.84,3.21-2.84.09-.07.18-.09.28-.05.03.01.05.04.06.08.01.08.05.1.12.05,2.23-1.45,4.25-3.02,6.08-4.71,1.48-.35,2.97-1.22,4.48-2.61.33-.06.51-.2.54-.43.83.03,1.8-.41,2.92-1.33l4.59-2.55c1.13.03,2.09-.35,2.87-1.13,1.19-.53,2.37-1.06,3.53-1.59.14-.06.26-.07.36-.03.07.03.15.07.22.12.06.05.13.06.2.03l5.24-2.22c.72.39,1.8.13,3.25-.8l2.58-.85c1.02.31,1.9.17,2.63-.42,8.8-1.88,17.67-2.63,26.61-2.24Z"/><path class="cls-2" d="M163.94,66.74c1.45-.25,2.83-.2,4.14.15-1.32.43-2.7.38-4.14-.15Z"/><path class="cls-2" d="M137.33,68.98c-.73.59-1.61.73-2.63.42.96-.53,1.84-.67,2.63-.42Z"/><path class="cls-2" d="M132.12,70.25c-1.45.93-2.53,1.19-3.25.8,1.09-.84,2.18-1.11,3.25-.8Z"/><path class="cls-2" d="M119.32,74.74c-.78.78-1.74,1.16-2.87,1.13.69-.78,1.64-1.16,2.87-1.13Z"/><path class="cls-2" d="M111.86,78.42c-1.12.92-2.09,1.36-2.92,1.33.61-.78,1.59-1.22,2.92-1.33Z"/><path class="cls-2" d="M108.4,80.18c-1.51,1.39-3,2.26-4.48,2.61.99-1.35,2.49-2.22,4.48-2.61Z"/><path class="cls-2" d="M94.17,90.26c-.65.97-1.49,1.61-2.52,1.92.87-1.6,1.71-2.24,2.52-1.92Z"/><path class="cls-2" d="M237.94,139.73c3.35,1.76,6.82,3.55,10.42,5.38,3.5,1.78,6.95,3.61,10.35,5.5,9.88,5.49,19.46,10.65,28.73,15.48,5.49,2.86,2.3,8.61.01,12.34-1.18,1.93-2.26,3.8-3.24,5.63-5.51,10.33-10.75,20.67-15.71,31.03-.79,1.67-1.57,3.33-2.34,5-.8,1.75-1.85,3.66-3.14,5.73-.17.27-.28.56-.33.87-.05.28-.18.52-.38.71-.62.6-1.15,1.37-1.59,2.31-1.3,2.76-3.55,3.83-6.76,3.22-1.84-.35-3.84-1.26-6-2.72-1.68-1.13-3.47-2.19-5.38-3.17-3.11-1.61-6.18-3.26-9.19-4.97-3.25-1.85-6.29-3.51-9.13-4.99-16.74-8.73-33.2-17.55-49.38-26.46-7.19-3.77-14.25-7.42-21.16-10.93-3.36-1.71-6.65-3.73-9.97-5.61-4.77-2.71-4.58-6.96-1.83-11.07.21-.32.34-.67.37-1.06.05-.63.29-1.22.7-1.78.06-.07.13-.12.22-.14.15-.04.23,0,.23.1,0,.15.02.15.08.02.75-1.61,1.6-3.18,2.56-4.7.97-1.55,1.79-3.13,2.46-4.76.76-1.87,1.68-3.55,2.75-5.04.53-.73.93-1.5,1.21-2.33.27-.8.71-1.54,1.32-2.23.2-.22.37-.46.5-.72l16.59-30.98c.17-.31.41-.52.74-.63,3.71-1.25,6.32-1.18,10.04.77,19.13,10.04,36.07,19.59,56.25,30.2ZM181.84,116.22c0-2.97-2.4-5.37-5.37-5.37s-5.37,2.4-5.37,5.37,2.4,5.37,5.37,5.37h0c2.97,0,5.37-2.4,5.37-5.37h0ZM175.09,141.71l-12.55,23.03c-.15.28-.08.49.19.64l5.85,3.17c.31.17.56.1.73-.21l15.72-29.02c.24-.43.15-.79-.26-1.07-2.98-2.03-5.57-3.18-9.65-3.13-1.57.01-3.29-.1-5.16-.35-.21-.03-.4.1-.45.3l-1.37,5.22c-.02.07.03.15.1.18,0,0,.02,0,.03,0l6.41.49c.52.04.66.29.41.75ZM193.21,174.02c-.87-.46-.81-.77.16-.92,8.72-1.35,21.53-5.31,19.55-16.71-.41-2.33-1.81-4.39-4.2-6.18-4.03-3.03-8.57-4.35-13.6-3.97-.25.02-.45.21-.48.46l-.6,5.48c-.02.14.09.27.23.29.03,0,.07,0,.1,0,3.01-.85,5.93-.28,8.77,1.69,1.14.79,1.78,1.8,1.91,3.03.5,4.59-4.02,7.21-7.96,8.39-4.77,1.44-9.26,2.62-13.47,3.54-2.06.45-3.39,1.89-3.98,4.34-.07.29.02.51.29.66l20.08,10.94c.43.23.96.07,1.19-.35,0,0,0,0,0,0l2.26-4.22c.26-.5.14-.88-.35-1.15l-9.9-5.3ZM227.63,168.64l10.35,5.63c.48.26.85.15,1.12-.32l2.38-4.16c.23-.4.09-.9-.3-1.13,0,0-.01,0-.02-.01l-15.53-8.45c-.2-.11-.45-.05-.59.13l-10.05,13.89c-.17.24-.12.57.12.74.04.03.09.06.15.08,3.7,1.24,13.47,6.51,9.23,11.77-4.27,5.3-11.36-.1-14.44-3.97-.08-.1-.16-.1-.25-.01l-3.78,4.3c-.13.15-.12.29.01.43,5.77,6.34,14.94,11.14,22.84,5.91,4.12-2.74,5.93-8.93,3.65-13.26-1.48-2.82-4.17-5.15-8.07-6.98-.51-.24-.61-.59-.29-1.06l2.23-3.23c.33-.47.74-.57,1.24-.3ZM154.27,168.35c0-3.06-2.48-5.54-5.54-5.54h0c-3.06,0-5.54,2.48-5.54,5.54s2.48,5.54,5.54,5.54h0c3.06,0,5.54-2.48,5.54-5.54h0ZM286.57,172.04c0-2.94-2.39-5.33-5.33-5.33-2.94,0-5.33,2.39-5.33,5.33h0c0,2.94,2.39,5.33,5.33,5.33h0c2.94,0,5.33-2.39,5.33-5.33ZM248.63,187.59c-.91.13-1.04-.12-.37-.76,4.13-3.94,10.62-3.05,15.22-.34.53.32.96.21,1.28-.33l2.12-3.58c.33-.55.21-.97-.35-1.28-10.18-5.65-18.84-4.49-25.98,3.46-4.12,4.6-6.99,12.61-3.66,18.4,5.67,9.87,19.85,9.6,23.71-1.69,2.68-7.83-4.2-15.05-11.97-13.88ZM259.04,224.08c0-2.99-2.43-5.42-5.42-5.42s-5.42,2.43-5.42,5.42,2.43,5.42,5.42,5.42h0c2.99,0,5.42-2.43,5.42-5.42Z"/><circle class="cls-11" cx="176.47" cy="116.22" r="5.37"/><path class="cls-2" d="M68.88,118.17c-.43,1.51-.98,2.21-1.65,2.08.16-1.24.71-1.93,1.65-2.08Z"/><path class="cls-2" d="M65.62,123.21c-.43,1.13-1.07,2.1-1.92,2.92.16-1.33.8-2.3,1.92-2.92Z"/><path class="cls-10" d="M388.12,187.19c-.19.94.17,1.84,1.06,2.7,6.16,14.51,9.11,29.71,8.86,45.59-.23,1.11-.21,2.18.06,3.2l-.49,5.54c-.55,2.19-.67,4.09-.37,5.69l-1.91,10.65c-1.04,2.39-1.56,4.76-1.57,7.11-12.1,42.59-35.18,77.47-69.23,104.64-35.42,28.25-81.06,44.41-126.23,48.85-14.99,1.47-29.75,1.5-44.28.09-2-.2-3.96-.48-5.88-.85-2.81-.54-4.85-.93-6.11-1.16-1.89-.34-4.04-.87-6.47-1.6-2.79-.84-5.52-1.94-8.21-3.29-1.02-1.16-2.16-1.79-3.43-1.89-.51-.53-1.09-.87-1.75-1.01-1.08-1.45-2.42-2.45-4.01-2.99l-.56-.44c.34-.23.47-.51.4-.84-1.62-6.93-2.87-13.93-3.76-21.01-4.8-38.24-.89-75.48,11.73-111.72.33-.93.68-1.8,1.07-2.61.17-.36.01-.78-.34-.94-.09-.04-.19-.07-.3-.07-.86,0-1.7-.13-2.53-.37-.81-.23-1.64-.39-2.5-.48-5.28-.56-10.32-2.11-15.11-4.65,3.29.65,6.42,1.58,9.39,2.81.99.4,2.56.62,4.73.67.33,0,.63.1.91.28.89.57,1.75.82,2.59.77,1.92-.13,3.28-.02,4.07.33,1.77.77,3.67.92,5.69.44.35-.08.82,0,1.43.22.31.11.63.14.95.07l4.82-.97c1.31.21,2.58.15,3.81-.18,1.49-.39,2.7-.64,3.63-.76,1.6-.2,3.21-.72,4.83-1.56.27-.14.55-.14.82,0,.61.29,1.06.11,1.33-.54.16-.39.62-.58,1.01-.41.14.06.26.16.34.28,1.23,1.85,1.19,3.58,1.66,5.65,1.02,4.52,2.01,8.81,2.98,12.88.41,1.76.72,1.74.93-.05.19-1.6.78-3.09.5-4.74-.37-2.13.17-4.13-.15-6.35-.52-3.67-.98-7.29-1.39-10.84-.08-.72-.24-1.37-.48-1.95-.33-.79-.49-1.49-.47-2.1.03-.79-.1-1.53-.37-2.22-.3-.79-.47-1.6-.52-2.41-.14-2.54-.8-4.92-1.99-7.15-.06-.12-.08-.25-.07-.38.01-.13.05-.25.1-.36.08-.18.1-.39.05-.58l-1.41-5.02c.13-.83-.04-1.64-.52-2.44l-.72-2.55c-.09-1.52-.59-3.08-1.52-4.69l-3.71-11.04,1.68,1.59c.23.21.42.18.56-.1.81-1.59,1.69-3.09,2.64-4.49,6.3-9.25,13.13-18.18,20.49-26.81,16.18,8.91,32.64,17.73,49.38,26.46,2.84,1.48,5.88,3.14,9.13,4.99,3.01,1.71,6.08,3.36,9.19,4.97,1.91.98,3.7,2.04,5.38,3.17,2.16,1.46,4.16,2.37,6,2.72,3.21.61,5.46-.46,6.76-3.22.44-.94.97-1.71,1.59-2.31.2-.19.33-.43.38-.71.05-.31.16-.6.33-.87,1.29-2.07,2.34-3.98,3.14-5.73.77-1.67,1.55-3.33,2.34-5,4.96-10.36,10.2-20.7,15.71-31.03.98-1.83,2.06-3.7,3.24-5.63,2.29-3.73,5.48-9.48-.01-12.34-9.27-4.83-18.85-9.99-28.73-15.48-3.4-1.89-6.85-3.72-10.35-5.5-3.6-1.83-7.07-3.62-10.42-5.38,6.37-3.88,13.18-6.91,20.44-9.09l.19,1.11c.05.3.34.51.65.45.06,0,.11-.03.16-.05,4.61-2.47,9.37-4.38,14.28-5.72.54.27,1.26.12,2.17-.45,5.81-1.25,11.08-1.86,15.81-1.82,5.81.05,11.77.67,17.9,1.84,5.73,1.1,11.47,2.76,17.2,4.99,27.39,10.66,47.85,29.39,61.38,56.2ZM334.82,209.98c0-6.78-5.49-12.27-12.27-12.27s-12.27,5.49-12.27,12.27,5.49,12.27,12.27,12.27h0c6.78,0,12.27-5.49,12.27-12.27h0ZM306.73,226.36c0-6.77-5.49-12.26-12.26-12.26s-12.26,5.49-12.26,12.26,5.49,12.26,12.26,12.26,12.26-5.49,12.26-12.26h0ZM320.81,247.45c-1.78-1.27-3.32-2.73-4.61-4.38-.46-.59-.97-1.03-1.53-1.31-1.66-.84-2.28-2.28-4.15-2.84-1.67-.5-3.53-.57-5.57-.22-4.85.85-9.29,1.84-13.31,2.96-14.37,3.99-28.63,8.28-42.77,12.87-1.93.16-3.74.91-5.42,2.25-.58.11-1.12.36-1.61.73-1.89-.13-3.38.51-4.49,1.94l-3.95,2.04c-.11.05-.24.01-.29-.09,0-.02-.02-.04-.02-.06-.04-.19,0-.29.13-.3.43-.06.43-.12,0-.18-.33-.04-.6.09-.82.39-.17.24-.39.45-.64.62-.84.57-1.62.94-2.35,1.1-1.52.11-3.02.85-4.5,2.23-2.21.68-4.31,1.63-6.31,2.84-.95.57-2.15,1.2-3.62,1.88-1.25.58-2.42,1.29-3.51,2.14-2.07.33-3.84,1.29-5.31,2.9l-2.91,1.99s-.04.01-.05,0c-.08-.07-.12-.14-.13-.21-.04-.25-.06-.25-.06,0,0,.13-.02.23-.07.3-.04.07-.1.12-.17.16-2.29,1.35-4.58,2.75-6.88,4.18-2.23,1.39-6.37,4.84-12.42,10.37-.45.41-.87.88-1.26,1.4-.21.28-.25.58-.1.91.08.17.2.31.37.41.28.16.53.12.76-.11.43-.46.92-.85,1.47-1.17,3.71-2.12,7.48-4.17,11.32-6.14,1.08-.55,1.92-1.41,3.04-1.79.37-.12.77,0,1.01.29.33.41.46.89.39,1.44-.04.37.06.75.28,1.06.68.91,1.2,1.92,1.55,3.03.27.82.68,1.58,1.25,2.27.99,1.19,1.83,2.47,2.5,3.82.53,1.05,1.17,1.96,1.92,2.73.91.93,1.75,1.92,2.52,2.99.83,1.15,1.7,2.16,2.59,3.02,1.65,1.57,3.28,3.18,4.91,4.83,1.6,1.62,3.73,2.13,5.03,4.07.2.3.46.53.77.7l3.66,1.92c.87,1.21,2.02,1.86,3.47,1.97.67.29,1.32.63,1.95,1.02.63.4,1.28.74,1.93,1.03,5.81,2.59,11.07,4.77,15.78,6.53.11.04.2.11.26.22.13.22.33.33.58.32,1.21-.02,2.35.21,3.44.69,1.89,1.45,4.15,1.91,6.78,1.4,14.16,2.34,30.39,1.34,43.59-4.59,3.09-1.38,5.46-2.6,7.12-3.65,9.49-6.04,15.84-14.36,19.07-24.96,2.97-9.75,2.21-19.41-2.3-28.98-.21-1.95-1.18-3.81-2.91-5.6-.13-.66-.49-1.21-1.06-1.66-.04-1.21-.69-2.2-1.94-2.97l-5.71-6.99c-.64-.79-.47-1.3.52-1.55.41-.11,1.11-.04,2.12.2-.19.1-.4.15-.61.15-.32,0-.51.16-.56.48-.07.47.11.82.55,1.04,1.47.76,3.72,1.61,6.73,2.56,1.21.38,2.84.34,4.88-.13,8.45-1.92,12.52-11.65,7.55-18.88-6.62-9.64-21.79-5.45-22.36,6.16-.01.32.09.63.28.87l4.21,5.34Z"/><path class="cls-2" d="M275.83,125.98c-.91.57-1.63.72-2.17.45.37-.42,1.1-.57,2.17-.45Z"/><path class="cls-3" d="M174.68,140.96l-6.41-.49c-.08,0-.14-.08-.13-.16,0,0,0-.02,0-.02l1.37-5.22c.05-.2.24-.33.45-.3,1.87.25,3.59.36,5.16.35,4.08-.05,6.67,1.1,9.65,3.13.41.28.5.64.26,1.07l-15.72,29.02c-.17.31-.42.38-.73.21l-5.85-3.17c-.27-.15-.34-.36-.19-.64l12.55-23.03c.25-.46.11-.71-.41-.75Z"/><path class="cls-3" d="M193.21,174.02l9.9,5.3c.49.27.61.65.35,1.15l-2.26,4.22c-.22.43-.75.59-1.18.36,0,0,0,0,0,0l-20.08-10.94c-.27-.15-.36-.37-.29-.66.59-2.45,1.92-3.89,3.98-4.34,4.21-.92,8.7-2.1,13.47-3.54,3.94-1.18,8.46-3.8,7.96-8.39-.13-1.23-.77-2.24-1.91-3.03-2.84-1.97-5.76-2.54-8.77-1.69-.14.04-.28-.04-.32-.18,0-.03-.01-.07,0-.1l.6-5.48c.03-.25.23-.44.48-.46,5.03-.38,9.57.94,13.6,3.97,2.39,1.79,3.79,3.85,4.2,6.18,1.98,11.4-10.83,15.36-19.55,16.71-.97.15-1.03.46-.16.92Z"/><path class="cls-6" d="M103.11,151.95c1.29.22,2.63.18,4.02-.11l8.26,1.5c.14.81.73,1.41,1.76,1.78,1.14.98,1.93,1.98,2.38,3,.97,2.87,2.51,5.48,4.62,7.83l1.49,2.76,3.34,6.06c.15.59.42,1.04.83,1.36.05,1.6.68,2.93,1.88,4,.26.23.38.52.35.87-.05.51.13.93.53,1.25.24.2.36.46.37.77.04,1.69.79,3.15,2.26,4.38-.36,1.65,1.04,3.83,1.98,5.23.36.55.7,1.31,1.01,2.28.42,1.31,1.14,2.52,2.16,3.61l.96,2.16c-.34.55-.41.97-.21,1.28,1.73,2.66,3.12,5.49,4.17,8.49.13.35.41.75.84,1.21.75,1.08,1.43,2.21,2.04,3.38.36.7.62,1.58.77,2.65.14.96.34,1.87.59,2.74l3.71,11.04c-.21,1.41.29,2.97,1.52,4.69l.72,2.55c-.37,1.06-.19,1.87.52,2.44l1.41,5.02c.05.19.03.4-.05.58-.05.11-.09.23-.1.36-.01.13,0,.26.07.38,1.19,2.23,1.85,4.61,1.99,7.15.05.81.22,1.62.52,2.41.27.69.4,1.43.37,2.22-.02.61.14,1.31.47,2.1.24.58.4,1.23.48,1.95.41,3.55.87,7.17,1.39,10.84.32,2.22-.22,4.22.15,6.35.28,1.65-.31,3.14-.5,4.74-.21,1.79-.52,1.81-.93.05-.97-4.07-1.96-8.36-2.98-12.88-.47-2.07-.43-3.8-1.66-5.65-.24-.35-.71-.45-1.07-.21-.13.08-.22.2-.28.34-.27.65-.72.83-1.33.54-.27-.13-.55-.13-.82,0-1.62.84-3.23,1.36-4.83,1.56-.93.12-2.14.37-3.63.76-1.23.33-2.5.39-3.81.18l-12.89.24c-.79-.35-2.15-.46-4.07-.33-.84.05-1.7-.2-2.59-.77-.28-.18-.58-.27-.91-.28-2.17-.05-3.74-.27-4.73-.67-2.97-1.23-6.1-2.16-9.39-2.81l-4.1-1.81c-.24-.73-.99-1.15-2.25-1.26-2.8-.74-5.4-1.95-7.81-3.62-1.03-1-2.2-1.63-3.5-1.9l-7.46-5.12c-.93-1.03-2.02-1.86-3.26-2.5l-3.98-3.19c-.25-.2-.44-.48-.52-.79-.07-.26-.16-.44-.26-.55-1.17-1.24-2.37-2.4-3.6-3.49-.95-.83-1.8-1.84-2.57-3.01-.73-1.11-1.53-2.18-2.4-3.21-.79-.92-1.49-1.96-2.1-3.11-.64-1.2-1.38-2.34-2.23-3.43-.69-.88-1.29-1.95-1.82-3.22-.46-1.1-1-2.17-1.63-3.2.47-1.07.2-1.88-.79-2.43-3.03-7.09-4.38-14.4-4.05-21.91.33-7.32,1.54-14.46,6.27-20.68,2.04-2.69,4.15-5.7,6.75-7.91,3.81-3.23,7.85-5.84,12.1-7.81,2.48-1.14,5.07-1.65,7.61-2.52.53-.18,1.36-.32,2.51-.43.83-.08,1.67-.3,2.53-.67,1.29.36,2.35.32,3.17-.13,3.03-.87,6.21-1.07,9.54-.6.2.03.38-.1.41-.3.02-.1-.01-.2-.07-.28-1.15-1.47-2.41-2.72-3.76-3.76-.96-.73-.84-1.04.36-.92l3.76.38ZM60.43,202.77c.17,6.55,1.28,11.92,3.31,16.09,2.46,5.06,4.13,8.21,5.02,9.45,3.45,4.85,7.26,9.39,11.43,13.63,1.31,1.34,2.95,2.15,3.93,3.82.26.45.78.68,1.29.57l.44-.09c.23-.05.37-.28.32-.5-.02-.07-.05-.14-.11-.2-.97-1.03-1.7-2.06-2.18-3.11-1.5-3.29-2.56-6.68-3.17-10.16-.48-2.76-.3-5.42-.77-8.12-.33-1.92.25-3.69.05-5.58-.15-1.39-.12-2.82.09-4.31.59-4.11.89-8.03,2.66-12.4,1.44-5.93,4.51-10.63,7.32-15.73,1.05-1.9,2.19-3.6,3.42-5.11,1.34-1.62,2.56-3.38,3.67-5.28,1.8-3.1,4.72-5.07,6.5-8.28.64-1.16,1.69-1.44,2.04-2.88.08-.34-.14-.69-.48-.76-.04,0-.09-.02-.14-.02-6.39,0-12.44.89-18.15,2.65-7.51,2.31-13.85,6.54-19.02,12.7-1.9,2.26-2.95,4.68-4.25,7.32-2.46,5.04-3.53,10.47-3.22,16.3ZM111.5,178.21c-4.59,7.33-8.74,14.91-12.47,22.75-5.04,10.6-8.01,21.49-7.24,32.77.17,2.39,1.29,3.91,3.37,4.56.33.11.62.04.87-.21.8-.79,1.33-1.74,1.58-2.84.79-3.45,1.9-6.96,3.32-10.54,5.25-13.28,11.48-26.36,18.7-39.25.53-.94,1.15-1.81,1.87-2.62.38-.42.45-1.03.17-1.52-1.8-3.14-3.9-5.98-6.3-8.53-.33-.35-.6-.32-.83.11-.93,1.8-1.95,3.57-3.04,5.32ZM118.16,245.41c-.77,1.11-1.38,2.31-1.83,3.59-.29.83-.84,1.54-1.65,2.11-.68.48-1.26,1.06-1.74,1.73-1.12,1.58-2.76,2.84-4.92,3.78-.29.13-.62.17-.93.11-.53-.11-.96.03-1.31.4-.33.36-.28.66.15.9,1.9,1.05,3.65,1.69,5.24,1.9,1.9.26,3.44.97,4.9,1.35,8.39,2.17,16.98,2.53,25.78,1.08,2.28-.37,4.32-.94,6.12-1.71,1.8-.77,3.79-1.58,5.98-2.43.42-.16.56-.46.43-.89-1.21-3.85-2.34-7.88-3.4-12.11-.28-1.11-1.02-2.03-1.34-3.05-3.64-11.64-8.09-22.46-13.36-32.45-.22-.43-.75-.59-1.17-.37-.18.09-.32.24-.4.42-2.89,6.54-6.5,13.96-10.83,22.25-1.11,2.14-2.4,5.38-3.87,9.73-.43,1.28-1.04,2.5-1.85,3.66Z"/><path class="cls-2" d="M107.13,151.84c-1.39.29-2.73.33-4.02.11,1.15-.67,2.49-.7,4.02-.11Z"/><path class="cls-2" d="M115.39,153.34c.99.31,1.58.91,1.76,1.78-1.03-.37-1.62-.97-1.76-1.78Z"/><path class="cls-2" d="M92.87,157.43c-.82.45-1.88.49-3.17.13,1.35-.53,2.4-.58,3.17-.13Z"/><path class="cls-2" d="M119.53,158.12c2.17,2.12,3.71,4.73,4.62,7.83-2.11-2.35-3.65-4.96-4.62-7.83Z"/><path class="cls-3" d="M227.63,168.64c-.5-.27-.91-.17-1.24.3l-2.23,3.23c-.32.47-.22.82.29,1.06,3.9,1.83,6.59,4.16,8.07,6.98,2.28,4.33.47,10.52-3.65,13.26-7.9,5.23-17.07.43-22.84-5.91-.13-.14-.14-.28-.01-.43l3.78-4.3c.09-.09.17-.09.25.01,3.08,3.87,10.17,9.27,14.44,3.97,4.24-5.26-5.53-10.53-9.23-11.77-.28-.1-.44-.4-.34-.68.02-.05.04-.1.07-.14l10.05-13.89c.14-.18.39-.24.59-.13l15.53,8.45c.4.21.55.71.33,1.12,0,0,0,.01-.01.02l-2.38,4.16c-.27.47-.64.58-1.12.32l-10.35-5.63Z"/><circle class="cls-11" cx="148.73" cy="168.35" r="5.54"/><path class="cls-7" d="M82.74,201.86c-.31-.73-.67-.37-1.1,1.08-.07.21-.11.21-.14-.01-.02-.17-.11-.3-.27-.37-.13-.06-.29,0-.35.13,0,.02-.01.03-.02.05l-.11.43c-.09.33-.16.3-.22-.1-.05-.33-.22-.55-.53-.68-.21-.09-.44-.1-.67-.03-1.27.37-2.57.53-3.9.46-.34-.02-.66.05-.97.2-1.31.65-2.69.84-4.12.58-.3-.05-.61-.02-.9.08-2.31.88-4.69,1.26-7.13,1.15-.2-.01-.38-.14-.45-.33-.1-.28-.24-.31-.41-.1-.33.38-.55.33-.67-.16l-.35-1.47c-.31-5.83.76-11.26,3.22-16.3,1.3-2.64,2.35-5.06,4.25-7.32,5.17-6.16,11.51-10.39,19.02-12.7,5.71-1.76,11.76-2.64,18.15-2.65.35,0,.64.29.64.64,0,.05,0,.09-.02.14-.35,1.44-1.4,1.72-2.04,2.88-1.78,3.21-4.7,5.18-6.5,8.28-1.11,1.9-2.33,3.66-3.67,5.28-1.23,1.51-2.37,3.21-3.42,5.11-2.81,5.1-5.88,9.8-7.32,15.73Z"/><circle class="cls-11" cx="281.24" cy="172.04" r="5.33"/><path class="cls-2" d="M125.64,168.71c1.93,1.76,3.04,3.78,3.34,6.06l-3.34-6.06Z"/><path class="cls-8" d="M111.5,178.21c1.09-1.75,2.11-3.52,3.04-5.32.23-.43.5-.46.83-.11,2.4,2.55,4.5,5.39,6.3,8.53.28.49.21,1.1-.17,1.52-.72.81-1.34,1.68-1.87,2.62-7.22,12.89-13.45,25.97-18.7,39.25-1.42,3.58-2.53,7.09-3.32,10.54-.25,1.1-.78,2.05-1.58,2.84-.25.25-.54.32-.87.21-2.08-.65-3.2-2.17-3.37-4.56-.77-11.28,2.2-22.17,7.24-32.77,3.73-7.84,7.88-15.42,12.47-22.75Z"/><path class="cls-2" d="M129.81,176.13c1.82,2.87,3.45,5.87,4.89,9.01.36.8.26,1.44.5,2.26-1.47-1.23-2.22-2.69-2.26-4.38,0-.31-.13-.57-.37-.77-.4-.32-.58-.74-.53-1.25.03-.35-.09-.64-.35-.87-1.2-1.07-1.83-2.4-1.88-4Z"/><path class="cls-3" d="M248.63,187.59c7.77-1.17,14.65,6.05,11.97,13.88-3.86,11.29-18.04,11.56-23.71,1.69-3.33-5.79-.46-13.8,3.66-18.4,7.14-7.95,15.8-9.11,25.98-3.46.56.31.68.73.35,1.28l-2.12,3.58c-.32.54-.75.65-1.28.33-4.6-2.71-11.09-3.6-15.22.34-.67.64-.54.89.37.76ZM245.76,203.71c2.75.95,5.89-.9,7-4.14,0,0,0,0,0,0,1.11-3.23-.22-6.62-2.97-7.57-2.75-.95-5.89.9-7,4.14,0,0,0,0,0,0-1.11,3.23.22,6.62,2.97,7.57Z"/><path class="cls-2" d="M388.12,187.19c.82.88,1.17,1.78,1.06,2.7-.89-.86-1.25-1.76-1.06-2.7Z"/><path class="cls-2" d="M135.2,187.4c1.67,1.73,2.64,3.74,2.91,6.03.04.33.18.61.41.84,1.29,1.31,1.9,2.72,1.83,4.25-1.02-1.09-1.74-2.3-2.16-3.61-.31-.97-.65-1.73-1.01-2.28-.94-1.4-2.34-3.58-1.98-5.23Z"/><ellipse class="cls-2" cx="247.78" cy="197.86" rx="6.19" ry="5.27" transform="translate(-19.97 367.72) rotate(-71)"/><circle class="cls-5" cx="322.55" cy="209.98" r="12.27"/><path class="cls-2" d="M141.31,200.68c.52.67,1.03,1.35,1.52,2.06.55.8.92,1.65,1.12,2.54.35,1.54,1.03,3.03,2.06,4.47.21.3.3.67.24,1.04l-.14.87c-.43-.46-.71-.86-.84-1.21-1.05-3-2.44-5.83-4.17-8.49-.2-.31-.13-.73.21-1.28Z"/><path class="cls-8" d="M82.74,201.86c-1.77,4.37-2.07,8.29-2.66,12.4-.21,1.49-.24,2.92-.09,4.31.2,1.89-.38,3.66-.05,5.58.47,2.7.29,5.36.77,8.12.61,3.48,1.67,6.87,3.17,10.16.48,1.05,1.21,2.08,2.18,3.11.16.17.15.43-.01.59-.05.05-.12.09-.2.11l-.44.09c-.51.11-1.03-.12-1.29-.57-.98-1.67-2.62-2.48-3.93-3.82-4.17-4.24-7.98-8.78-11.43-13.63-.89-1.24-2.56-4.39-5.02-9.45-2.03-4.17-3.14-9.54-3.31-16.09l.35,1.47c.12.49.34.54.67.16.17-.21.31-.18.41.1.07.19.25.32.45.33,2.44.11,4.82-.27,7.13-1.15.29-.1.6-.13.9-.08,1.43.26,2.81.07,4.12-.58.31-.15.63-.22.97-.2,1.33.07,2.63-.09,3.9-.46.23-.07.46-.06.67.03.31.13.48.35.53.68.06.4.13.43.22.1l.11-.43c.04-.14.18-.23.32-.2.02,0,.03.01.05.02.16.07.25.2.27.37.03.22.07.22.14.01.43-1.45.79-1.81,1.1-1.08Z"/><path class="cls-4" d="M120.01,241.75c1.47-4.35,2.76-7.59,3.87-9.73,4.33-8.29,7.94-15.71,10.83-22.25.19-.44.71-.64,1.15-.45.18.08.33.22.42.4,5.27,9.99,9.72,20.81,13.36,32.45.32,1.02,1.06,1.94,1.34,3.05,1.06,4.23,2.19,8.26,3.4,12.11.13.43-.01.73-.43.89-2.19.85-4.18,1.66-5.98,2.43-1.8.77-3.84,1.34-6.12,1.71-8.8,1.45-17.39,1.09-25.78-1.08-1.46-.38-3-1.09-4.9-1.35-1.59-.21-3.34-.85-5.24-1.9-.43-.24-.48-.54-.15-.9.35-.37.78-.51,1.31-.4.31.06.64.02.93-.11,2.16-.94,3.8-2.2,4.92-3.78.48-.67,1.06-1.25,1.74-1.73.81-.57,1.36-1.28,1.65-2.11.45-1.28,1.06-2.48,1.83-3.59.81-1.16,1.42-2.38,1.85-3.66Z"/><circle class="cls-5" cx="294.47" cy="226.36" r="12.26"/><circle class="cls-11" cx="253.62" cy="224.08" r="5.42"/><path class="cls-2" d="M55.98,219.49c.99.55,1.26,1.36.79,2.43l-.79-2.43Z"/><path class="cls-5" d="M320.14,249.86l2.61.14c.41.03.47-.11.18-.4l-2.12-2.15-4.21-5.34c-.19-.24-.29-.55-.28-.87.57-11.61,15.74-15.8,22.36-6.16,4.97,7.23.9,16.96-7.55,18.88-2.04.47-3.67.51-4.88.13-3.01-.95-5.26-1.8-6.73-2.56-.44-.22-.62-.57-.55-1.04.05-.32.24-.48.56-.48.21,0,.42-.05.61-.15Z"/><path class="cls-2" d="M153.22,231.47c.93,1.61,1.43,3.17,1.52,4.69-1.23-1.72-1.73-3.28-1.52-4.69Z"/><path class="cls-2" d="M398.04,235.48c.6,1.35.62,2.41.06,3.2-.27-1.02-.29-2.09-.06-3.2Z"/><path class="cls-6" d="M320.81,247.45l2.12,2.15c.29.29.23.43-.18.4l-2.61-.14c-1.01-.24-1.71-.31-2.12-.2-.99.25-1.16.76-.52,1.55l5.71,6.99c.17,1.27.82,2.26,1.94,2.97.57.45.93,1,1.06,1.66.47,2.26,1.44,4.13,2.91,5.6,4.51,9.57,5.27,19.23,2.3,28.98-3.23,10.6-9.58,18.92-19.07,24.96-1.66,1.05-4.03,2.27-7.12,3.65-13.2,5.93-29.43,6.93-43.59,4.59l-6.78-1.4c-1.09-.48-2.23-.71-3.44-.69-.25,0-.45-.1-.58-.32-.06-.11-.15-.18-.26-.22-4.71-1.76-9.97-3.94-15.78-6.53-.65-.29-1.3-.63-1.93-1.03-.63-.39-1.28-.73-1.95-1.02-.81-1.17-1.97-1.82-3.47-1.97l-3.66-1.92c-.31-.17-.57-.4-.77-.7-1.3-1.94-3.43-2.45-5.03-4.07-1.63-1.65-3.26-3.26-4.91-4.83-.89-.86-1.76-1.87-2.59-3.02-.77-1.07-1.61-2.06-2.52-2.99-.75-.77-1.39-1.68-1.92-2.73-.67-1.35-1.51-2.63-2.5-3.82-.57-.69-.98-1.45-1.25-2.27-.35-1.11-.87-2.12-1.55-3.03-.22-.31-.32-.69-.28-1.06.07-.55-.06-1.03-.39-1.44-.24-.3-.64-.41-1.01-.29-1.12.38-1.96,1.24-3.04,1.79-3.84,1.97-7.61,4.02-11.32,6.14-.55.32-1.04.71-1.47,1.17-.23.23-.48.27-.76.11-.17-.1-.29-.24-.37-.41-.15-.33-.11-.63.1-.91.39-.52.81-.99,1.26-1.4,6.05-5.53,10.19-8.98,12.42-10.37,2.3-1.43,4.59-2.83,6.88-4.18.07-.04.13-.09.17-.16.05-.07.07-.17.07-.3,0-.25.02-.25.06,0,0,.07.05.14.13.21.01.01.03.01.05,0l2.91-1.99c1.81-.43,3.58-1.4,5.31-2.9,1.09-.85,2.26-1.56,3.51-2.14,1.47-.68,2.67-1.31,3.62-1.88,2-1.21,4.1-2.16,6.31-2.84,1.6.17,3.1-.58,4.5-2.23.73-.16,1.51-.53,2.35-1.1.25-.17.47-.38.64-.62.22-.3.49-.43.82-.39.43.06.43.12,0,.18-.13.01-.17.11-.13.3.02.11.13.19.25.17.02,0,.04-.01.06-.02l3.95-2.04c1.63-.2,3.13-.85,4.49-1.94.49-.37,1.03-.62,1.61-.73,2.11-.05,3.92-.8,5.42-2.25,14.14-4.59,28.4-8.88,42.77-12.87,4.02-1.12,8.46-2.11,13.31-2.96,2.04-.35,3.9-.28,5.57.22,1.87.56,2.49,2,4.15,2.84.56.28,1.07.72,1.53,1.31,1.29,1.65,2.83,3.11,4.61,4.38ZM263.6,311.79c1.59-.15,3.1-.75,4.3-1.82,6.51-5.84,11.36-12.11,14.53-18.82,1.54-3.25,3.35-7.31,5.43-12.18,3.59-8.42,5.9-16.75,8.38-25.78.19-.69-.08-1.05-.8-1.06-3.59-.05-6.89.31-9.9,1.08-.33.08-.54.28-.65.6-2.31,6.94-4.59,13.89-6.84,20.85-.57,1.75-1.17,3.32-1.82,4.72-1.83,3.93-2.84,8.21-4.79,11.89-1.1,2.08-2.14,4.17-3.13,6.28-1.7,3.64-4.23,6.99-6.63,10.31-.48.66-.57,1.52-.25,2.27.51,1.19,1.24,1.75,2.17,1.66ZM313,257.35c-.77-.49-1.34-1.32-1.94-1.99-.17-.2-.29-.43-.34-.69-.19-.96-.79-1.48-1.81-1.57-.36-.03-.56.14-.59.5-.55,5.39-1.53,11.56-2.94,18.5-.55,2.66-1.54,5.01-2.09,7.61-3.15,14.84-11.73,26.12-23.82,35.4-5.03,3.86-10.48,6.51-16.35,7.94-.37.09-.48.3-.33.65.18.42.51.64.99.65,3.17.11,6.31.21,9.42.32,14,.48,32.29-4.22,41.91-15.38,5.58-6.47,8.6-13.85,9.07-22.13.57-9.98-4.12-20.94-10.28-29.1-.15-.19-.45-.42-.9-.71ZM253.26,262.21c-4.35,1.03-8.64,2.32-12.88,3.88-1.06.39-1.98.38-2.95.96-.67.4-1.4.75-2.17,1.04-3.17,1.19-6.08,2.41-8.74,3.65-2.79,1.31-5.68,2.57-8.65,3.8-3.53,1.45-6.94,3.24-10.25,5.36-.57.36-.75,1.12-.38,1.7.01.02.03.04.04.06.59.83,1.01,1.72,1.25,2.66.21.82.51,1.61.9,2.37,3.69,7.17,8.33,13.66,14.51,18.58,2.09,1.66,4.14,3.34,6.15,5.04.31.26.69.43,1.1.5,1.47.22,2.53.94,3.2,2.15.2.35.5.58.89.68,1.49.37,2.85,1.02,4.07,1.94.32.24.78.18,1.02-.14.11-.14.16-.31.15-.49-.03-.51-.25-.93-.64-1.26-.27-.22-.44-.5-.49-.85-.39-2.41-1.33-5.06-.41-7.45.81-2.1.93-4.29,1.85-6.39,2.48-5.62,5.07-11.59,7.77-17.92,1.62-3.79,3.22-8.53,4.8-14.23.43-1.55,1.41-2.94,1.48-4.57l.31-.56c.19-.34.11-.6-.23-.79-.59-.34-1.16-.25-1.7.28Z"/><path class="cls-2" d="M155.46,238.71c.48.8.65,1.61.52,2.44-.71-.57-.89-1.38-.52-2.44Z"/><path class="cls-2" d="M397.61,244.22l-.37,5.69c-.3-1.6-.18-3.5.37-5.69Z"/><path class="cls-2" d="M77.88,249.12c1.24.64,2.33,1.47,3.26,2.5-1.37-.28-2.46-1.11-3.26-2.5Z"/><path class="cls-7" d="M263.6,311.79c-.93.09-1.66-.47-2.17-1.66-.32-.75-.23-1.61.25-2.27,2.4-3.32,4.93-6.67,6.63-10.31.99-2.11,2.03-4.2,3.13-6.28,1.95-3.68,2.96-7.96,4.79-11.89.65-1.4,1.25-2.97,1.82-4.72,2.25-6.96,4.53-13.91,6.84-20.85.11-.32.32-.52.65-.6,3.01-.77,6.31-1.13,9.9-1.08.72.01.99.37.8,1.06-2.48,9.03-4.79,17.36-8.38,25.78-2.08,4.87-3.89,8.93-5.43,12.18-3.17,6.71-8.02,12.98-14.53,18.82-1.2,1.07-2.71,1.67-4.3,1.82Z"/><path class="cls-7" d="M313,257.35c.45.29.75.52.9.71,6.16,8.16,10.85,19.12,10.28,29.1-.47,8.28-3.49,15.66-9.07,22.13-9.62,11.16-27.91,15.86-41.91,15.38-3.11-.11-6.25-.21-9.42-.32-.48-.01-.81-.23-.99-.65-.15-.35-.04-.56.33-.65,5.87-1.43,11.32-4.08,16.35-7.94,12.09-9.28,20.67-20.56,23.82-35.4.55-2.6,1.54-4.95,2.09-7.61,1.41-6.94,2.39-13.11,2.94-18.5.03-.36.23-.53.59-.5,1.02.09,1.62.61,1.81,1.57.05.26.17.49.34.69.6.67,1.17,1.5,1.94,1.99Z"/><path class="cls-2" d="M248.87,254.53c-1.5,1.45-3.31,2.2-5.42,2.25,1.68-1.34,3.49-2.09,5.42-2.25Z"/><path class="cls-2" d="M88.6,256.74c1.3.27,2.47.9,3.5,1.9-2.02-.34-3.19-.97-3.5-1.9Z"/><path class="cls-2" d="M241.84,257.51c-1.36,1.09-2.86,1.74-4.49,1.94,1.11-1.43,2.6-2.07,4.49-1.94Z"/><path class="cls-2" d="M323.21,258.2c1.25.77,1.9,1.76,1.94,2.97-1.12-.71-1.77-1.7-1.94-2.97Z"/><path class="cls-2" d="M395.33,260.56c-.02,2.66-.54,5.03-1.57,7.11,0-2.35.53-4.72,1.57-7.11Z"/><path class="cls-7" d="M254.88,263.28c-.66-.24-1.2-.6-1.62-1.07.54-.53,1.11-.62,1.7-.28.34.19.42.45.23.79l-.31.56Z"/><path class="cls-2" d="M99.91,262.26c1.26.11,2.01.53,2.25,1.26-.29.07-.57.07-.86,0-.3-.07-.48-.26-.55-.56-.07-.34-.35-.57-.84-.7Z"/><path class="cls-4" d="M253.26,262.21c.42.47.96.83,1.62,1.07-.07,1.63-1.05,3.02-1.48,4.57-1.58,5.7-3.18,10.44-4.8,14.23-2.7,6.33-5.29,12.3-7.77,17.92-.92,2.1-1.04,4.29-1.85,6.39-.92,2.39.02,5.04.41,7.45.05.35.22.63.49.85.39.33.61.75.64,1.26.03.4-.28.75-.68.78-.18.01-.35-.04-.49-.15-1.22-.92-2.58-1.57-4.07-1.94-.39-.1-.69-.33-.89-.68-.67-1.21-1.73-1.93-3.2-2.15-.41-.07-.79-.24-1.1-.5-2.01-1.7-4.06-3.38-6.15-5.04-6.18-4.92-10.82-11.41-14.51-18.58-.39-.76-.69-1.55-.9-2.37-.24-.94-.66-1.83-1.25-2.66-.4-.55-.27-1.32.28-1.72.02-.01.04-.03.06-.04,3.31-2.12,6.72-3.91,10.25-5.36,2.97-1.23,5.86-2.49,8.65-3.8,2.66-1.24,5.57-2.46,8.74-3.65.77-.29,1.5-.64,2.17-1.04.97-.58,1.89-.57,2.95-.96,4.24-1.56,8.53-2.85,12.88-3.88Z"/><path class="cls-2" d="M229.41,262.97c-1.4,1.65-2.9,2.4-4.5,2.23,1.48-1.38,2.98-2.12,4.5-2.23Z"/><path class="cls-2" d="M326.21,262.83c1.73,1.79,2.7,3.65,2.91,5.6-1.47-1.47-2.44-3.34-2.91-5.6Z"/><path class="cls-2" d="M140.84,269.95l-4.82.97c-.32.07-.64.04-.95-.07-.61-.23-1.08-.3-1.43-.22-2.02.48-3.92.33-5.69-.44l12.89-.24Z"/><path class="cls-2" d="M211.47,272.06c-1.73,1.5-3.5,2.47-5.31,2.9,1.47-1.61,3.24-2.57,5.31-2.9Z"/><path class="cls-2" d="M40.48,277c.51.96.69,2.08.54,3.37-1.12-1.21-1.3-2.34-.54-3.37Z"/><path class="cls-2" d="M42.4,284.45c.62.92.75,1.82.39,2.69-.99-1.07-1.12-1.97-.39-2.69Z"/><path class="cls-2" d="M43.13,288.44c1.16,1.59,1.7,3.37,1.62,5.33-1.24-1.85-1.78-3.62-1.62-5.33Z"/><path class="cls-2" d="M44.84,294.01c1.05,1.78,1.45,3.19,1.2,4.24-1.08-.91-1.48-2.33-1.2-4.24Z"/><path class="cls-2" d="M47.2,301.18c1.07,1.44,1.31,2.37.73,2.78-.89-.56-1.14-1.49-.73-2.78Z"/><path class="cls-2" d="M49.14,307.12c1.41,1.63,2.07,3.4,1.97,5.31-1.35-1.67-2.01-3.44-1.97-5.31Z"/><path class="cls-2" d="M51.13,312.65c1.23,1.59,1.82,3.02,1.79,4.3-.92-1.11-1.52-2.55-1.79-4.3Z"/><path class="cls-2" d="M227.45,317.43c1.5.15,2.66.8,3.47,1.97-1.45-.11-2.6-.76-3.47-1.97Z"/><path class="cls-2" d="M53.85,318.98c1.19,1.66,2.53,3.24,1.98,5-1.35-1.63-2.01-3.29-1.98-5Z"/><path class="cls-2" d="M57.21,326.41c.72.66,1.03,1.48.94,2.47-.98-.85-1.29-1.68-.94-2.47Z"/><path class="cls-2" d="M254.86,329.21l6.78,1.4c-2.63.51-4.89.05-6.78-1.4Z"/><path class="cls-2" d="M59.43,331.44c1.34,1.37,2.17,3.03,2.49,5-.53-.28-.88-.86-1.03-1.75-.05-.32-.2-.59-.45-.81-.71-.63-1.04-1.45-1.01-2.44Z"/><path class="cls-2" d="M63.31,338.7c1.27,1.29,1.84,2.52,1.72,3.71-.89-.99-1.46-2.22-1.72-3.71Z"/><path class="cls-2" d="M118.16,408.46c1.59.54,2.93,1.54,4.01,2.99-1.65-.28-2.98-1.28-4.01-2.99Z"/><path class="cls-2" d="M123.92,412.46c1.27.1,2.41.73,3.43,1.89-1.59-.15-2.73-.78-3.43-1.89Z"/><path class="cls-6" d="M340.62,0c.89.27,1.62.3,2.21.09,1.17.41,2.49.51,3.95.3l18.51,3.1,5.31,1.65,3.34.97,2.4.99,14.28,6.55,10.35,6.53c10.16,7.45,18.08,14.16,21.64,26.11.15,1.36.35,2.7.6,4.03.26,1.42.39,2.77.4,4.05,0,5.91-.98,11.03-2.96,15.36-1.42,3.08-3.23,6.5-5.43,10.25-1.12,1.91-2.44,3.45-3.56,5.3-.71,1.17-1.54,2.36-2.51,3.58-1.04,1.31-2.08,2.59-3.11,3.84-7.27,8.83-15.72,16.31-25.37,22.44-1.56.99-3.23,1.72-4.7,2.75-.33.24-.34.49-.02.75l7.07,5.87c4.33,3.87,7.65,7.01,9.96,9.4,15.49,16.09,26.68,34.69,33.57,55.8,3.25,10.85,5.29,20.9,6.1,30.13.55,6.23.69,13.64.43,22.22-.21,6.84-.82,13.17-1.81,19-1.09,6.36-2.56,12.85-4.42,19.47-4.55,16.19-11.05,32.02-19.52,47.49-1.89,3.46-3.92,6.95-6.08,10.46-.27.43-.53.86-.79,1.29-8.5,13.8-18.48,26.68-29.94,38.64-12.94,13.49-27.29,25.31-43.05,35.46-26.21,16.88-55.73,29.09-88.56,36.63-18.81,4.32-38.31,6.73-58.5,7.22-10.55.25-21.06-.23-31.54-1.46-9.81-1.15-18.83-3.12-27.04-5.92-7.36-2.51-14.55-6.27-21.57-11.28-5.82-4.15-11.33-8.72-16.54-13.7-6.36-6.08-12.14-12.27-17.35-18.58-22.8-27.64-40.05-58.43-51.74-92.36C4.85,286.03-.03,257.49,0,228.8c0-11.97,1.1-24.82,3.28-38.55.59-3.71,1.32-7.31,2.21-10.82.89-3.53,1.83-7.12,2.8-10.78,5.21-19.51,12.8-38.02,22.79-55.52,1.26-.79,1.81-1.65,1.64-2.59l1.15-2.17,1.17-2.22,3.73-5.79c.83-.76,1.53-1.72,2.09-2.88l4.64-6.44,4.88-6.03,1.39-1.82c1.07-.8,2.02-1.85,2.85-3.16l2.36-2.58c1.08-.69,1.97-1.57,2.68-2.64.66-.54,1.15-1.1,1.47-1.69l8.73-7.97,8.94-7.07,14.48-9.1,5.73-3.14c.29,0,.45-.06.48-.21l6.06-2.81,7.7-2.98c1.08-.12,2.03-.42,2.86-.91l6.49-2.01,7.2-1.83,2.44-.5,3.88-.7,2.65-.31,1.91-.41,4.1-.34c6.77-.79,13.6-1.04,20.49-.76.77.24,1.34.22,1.71-.06,1.03.39,2.09.49,3.16.32l4.49.34,3.69.65.74.12,10.1,1.79c.93.25,1.69.33,2.3.24l6.92,1.6c.32.07.61.2.88.39.66.45,1.38.67,2.15.66.77.45,1.26.56,1.46.34,1.88,1.04,3.77,1.68,5.68,1.93l4.49,1.72,4.49,1.88,1.69.6,5.27,2.4c.7.51,1.5.86,2.39,1.05,1.01.82,2.1,1.43,3.28,1.82l7.72,4.23,1.39,1.04c.13.1.25.21.35.34.22.28.49.39.81.34.27-.05.52-.25.73-.62,9.69-16.31,22.65-29.42,38.9-39.35l3.53-2.19,8.13-3.93,16.51-5.88c1.12-.05,2.24-.32,3.37-.82l2.42-.58,4.43-.78c.67-.01,1.27-.15,1.8-.4,1.46.03,2.87-.17,4.22-.59l2,.05,9.11-.69.43.04,4.61-.07ZM277.48,64.04c-1.09.31-1.75,1.11-1.98,2.42-.67,1.13-1.36,2.31-2.07,3.56-.13.23-.22.47-.25.72-.04.28-.18.48-.43.61-.33.17-.58.41-.75.72l-2.6,4.63c-.15.27-.17.55-.06.84.13.34.39.61.79.8,14.03,12.49,30.25,18.92,48.66,19.29,29.02.59,56.87-15.42,69.64-41.92.13-.26.07-.58-.15-.78-10.55-9.58-22.88-15.77-36.99-18.57-1.55-.31-3.76-.59-6.63-.85-24.38-2.07-48.19,6.56-64.09,25.24-.02.02-.05.03-.07,0,0,0,0,0,0,0-.07-.1-.15-.12-.25-.05-.05.04-.1.08-.15.13-.9,1.13-1.77,2.2-2.61,3.21ZM137.48,69.39c-.79-.25-1.67-.11-2.63.42l-2.58.85c-1.07-.31-2.16-.04-3.25.8l-5.24,2.22c-.07.03-.14.02-.2-.03-.07-.05-.15-.09-.22-.12-.1-.04-.22-.03-.36.03-1.16.53-2.34,1.06-3.53,1.59-1.23-.03-2.18.35-2.87,1.13l-4.59,2.55c-1.33.11-2.31.55-2.92,1.33-.03.23-.21.37-.54.43-1.99.39-3.49,1.26-4.48,2.61-1.83,1.69-3.85,3.26-6.08,4.71-.07.05-.11.03-.12-.05,0-.04-.03-.07-.06-.08-.1-.04-.19-.02-.28.05-1.11,1-2.18,1.95-3.21,2.84-.81-.32-1.65.32-2.52,1.92-5.99,5.33-11.52,11.15-16.57,17.46-1.08,1.34-1.73,2.95-2.91,4.14-1.34,1.36-2.17,2.89-3.29,4.39-.94.15-1.49.84-1.65,2.08l-1.61,2.96c-1.12.62-1.76,1.59-1.92,2.92-10.2,17.01-17.69,34.77-22.48,53.3-7.17,27.74-8.26,56.26-3.28,85.55.39,2.31.76,4.2,1.1,5.65.23,1.05.43,2.11.58,3.18.14,1.05.43,2.11.86,3.19-.76,1.03-.58,2.16.54,3.37l1.38,4.08c-.73.72-.6,1.62.39,2.69.25.41.36.85.34,1.3-.16,1.71.38,3.48,1.62,5.33.03.08.06.16.09.24-.28,1.91.12,3.33,1.2,4.24l1.16,2.93c-.41,1.29-.16,2.22.73,2.78l1.21,3.16c-.04,1.87.62,3.64,1.97,5.31,0,.07.01.15.02.22.27,1.75.87,3.19,1.79,4.3l.93,2.03c-.03,1.71.63,3.37,1.98,5l1.38,2.43c-.35.79-.04,1.62.94,2.47l1.28,2.56c-.03.99.3,1.81,1.01,2.44.25.22.4.49.45.81.15.89.5,1.47,1.03,1.75l1.39,2.26c.26,1.49.83,2.72,1.72,3.71.85,1.27,1.75,2.91,2.72,4.93.89,1.86,2.6,3.16,3.27,5.06.7,1.97,1.88,3.87,3.54,5.68.27.3.47.64.6,1.03.16.51.39.98.68,1.42,7.82,11.9,15.9,22.33,24.24,31.3,2.12,2.27,4.36,4.5,6.73,6.67,3.51,3.21,6.85,6.54,10.79,9.52l.56.44c1.03,1.71,2.36,2.71,4.01,2.99.66.14,1.24.48,1.75,1.01.7,1.11,1.84,1.74,3.43,1.89,2.69,1.35,5.42,2.45,8.21,3.29,2.43.73,4.58,1.26,6.47,1.6,1.26.23,3.3.62,6.11,1.16,1.92.37,3.88.65,5.88.85,14.53,1.41,29.29,1.38,44.28-.09,45.17-4.44,90.81-20.6,126.23-48.85,34.05-27.17,57.13-62.05,69.23-104.64,1.03-2.08,1.55-4.45,1.57-7.11l1.91-10.65.37-5.69.49-5.54c.56-.79.54-1.85-.06-3.2.25-15.88-2.7-31.08-8.86-45.59.11-.92-.24-1.82-1.06-2.7-13.53-26.81-33.99-45.54-61.38-56.2-5.73-2.23-11.47-3.89-17.2-4.99-6.13-1.17-12.09-1.79-17.9-1.84-4.73-.04-10,.57-15.81,1.82-1.07-.12-1.8.03-2.17.45-4.91,1.34-9.67,3.25-14.28,5.72-.27.14-.61.04-.76-.24-.03-.05-.04-.11-.05-.16l-.19-1.11c.16-.39.12-1.03-.11-1.91-3.1-11.74-10.19-21.78-18.76-29.79-16.13-15.07-35.17-25-57.13-29.77-3.05-.67-7.81-1.43-14.3-2.28-1.31-.35-2.69-.4-4.14-.15-8.94-.39-17.81.36-26.61,2.24Z"/></svg>