<?xml version="1.0" encoding="UTF-8" standalone="no"?>
<!DOCTYPE svg PUBLIC "-//W3C//DTD SVG 1.1//EN" "http://www.w3.org/Graphics/SVG/1.1/DTD/svg11.dtd">
<svg xmlns="http://www.w3.org/2000/svg" version="1.1" viewBox="0.00 0.00 123.00 84.00">
<g stroke-width="2.00" fill="none" stroke-linecap="butt">
<path stroke="#ffe2cc" vector-effect="non-scaling-stroke" d="
  M 52.39 63.12
  Q 50.29 60.81 48.08 58.67
  Q 44.87 55.55 42.40 48.59"
/>
<path stroke="#f8ba8c" vector-effect="non-scaling-stroke" d="
  M 10.34 64.67
  Q 13.79 64.59 17.35 64.73
  Q 21.74 64.90 24.04 64.00
  Q 27.21 62.76 29.85 60.21"
/>
<path stroke="#f8b389" vector-effect="non-scaling-stroke" d="
  M 35.71 50.34
  Q 34.60 52.44 33.33 54.58
  Q 33.21 54.78 33.22 54.94
  Q 33.24 55.25 33.47 55.28"
/>
<path stroke="#f1a97d" vector-effect="non-scaling-stroke" d="
  M 28.06 55.36
  Q 31.11 54.76 31.77 51.47"
/>
<path stroke="#8ee0b1" vector-effect="non-scaling-stroke" d="
  M 79.6380 19.1172
  A 6.09 3.13 -20.4 0 0 72.8390 18.3063
  A 6.09 3.13 -20.4 0 0 68.2220 23.3628
  A 6.09 3.13 -20.4 0 0 75.0210 24.1737
  A 6.09 3.13 -20.4 0 0 79.6380 19.1172"
/>
<path stroke="#ffde8e" vector-effect="non-scaling-stroke" d="
  M 55.80 60.87
  Q 58.27 62.67 59.76 62.63
  C 69.46 62.40 79.19 57.26 82.93 48.03
  C 85.70 41.17 85.25 33.26 78.27 29.44
  Q 72.88 26.50 67.51 29.42"
/>
<path stroke="#ffcf8b" vector-effect="non-scaling-stroke" d="
  M 67.51 29.42
  Q 65.71 26.10 62.45 25.06
  C 48.47 20.58 42.73 35.53 45.71 46.26
  Q 48.14 54.99 55.80 60.87"
/>
<path stroke="#ffae1a" vector-effect="non-scaling-stroke" d="
  M 67.51 29.42
  Q 63.19 32.02 61.15 35.17
  Q 58.32 39.52 57.33 40.74"
/>
<path stroke="#ffcf8b" vector-effect="non-scaling-stroke" d="
  M 57.33 40.74
  L 52.83 34.32
  Q 52.23 33.47 51.33 34.01
  Q 50.32 34.62 49.19 35.05
  C 46.09 36.20 45.44 39.69 47.19 42.29
  Q 49.90 46.30 55.88 46.41"
/>
<path stroke="#ffae1a" vector-effect="non-scaling-stroke" d="
  M 55.88 46.41
  Q 54.91 52.93 56.55 58.96
  Q 56.72 59.58 56.56 60.02
  Q 56.32 60.72 55.80 60.87"
/>
<path stroke="#ffde8e" vector-effect="non-scaling-stroke" d="
  M 55.88 46.41
  L 58.04 45.85
  Q 58.52 45.72 58.95 45.96
  Q 59.14 46.07 59.27 46.26
  Q 59.81 47.06 59.59 46.12
  Q 58.88 43.10 57.33 40.74"
/>
<path stroke="#ffde8e" vector-effect="non-scaling-stroke" d="
  M 62.76 47.22
  Q 63.55 46.68 64.23 47.34
  Q 68.80 51.76 74.54 49.73
  C 77.48 48.69 79.62 45.07 77.38 42.27
  Q 76.57 41.25 75.82 40.21
  A 1.42 1.41 -28.7 0 0 74.17 39.73
  C 69.74 41.41 65.45 43.82 62.53 46.96
  Q 61.47 48.11 62.76 47.22"
/>
<path stroke="#fdbad1" vector-effect="non-scaling-stroke" d="
  M 50.04 43.26
  C 48.90 40.65 49.87 38.35 51.11 36.03
  Q 51.53 35.24 50.67 35.48
  C 46.20 36.70 46.33 41.12 49.67 43.56
  Q 50.40 44.09 50.04 43.26"
/>
<path stroke="#fdbad1" vector-effect="non-scaling-stroke" d="
  M 53.21 36.58
  L 52.41 36.40
  A 0.20 0.20 0.0 0 0 52.17 36.55
  L 52.12 36.78
  A 6.11 0.49 -77.3 0 0 51.25 42.84
  L 51.49 42.90
  A 6.11 0.49 -77.3 0 0 53.31 37.04
  L 53.36 36.82
  A 0.20 0.20 0.0 0 0 53.21 36.58"
/>
<path stroke="#fccef7" vector-effect="non-scaling-stroke" d="
  M 58.29 44.60
  C 57.97 43.24 56.93 41.22 55.90 40.16
  A 0.40 0.39 30.7 0 0 55.24 40.32
  L 54.08 44.37
  A 0.96 0.96 0.0 0 0 55.13 45.59
  L 57.85 45.24
  Q 58.43 45.16 58.29 44.60"
/>
<path stroke="#fdbad1" vector-effect="non-scaling-stroke" d="
  M 73.70 41.58
  L 72.81 41.34
  A 0.20 0.20 0.0 0 0 72.56 41.48
  L 72.50 41.70
  A 6.33 0.48 -74.7 0 0 71.29 47.93
  L 71.64 48.03
  A 6.33 0.48 -74.7 0 0 73.78 42.05
  L 73.84 41.83
  A 0.20 0.20 0.0 0 0 73.70 41.58"
/>
<path stroke="#fdbad1" vector-effect="non-scaling-stroke" d="
  M 72.63 49.40
  C 76.35 48.74 78.72 45.52 76.16 42.23
  Q 74.90 40.60 74.93 42.66
  Q 75.00 46.50 72.39 48.92
  Q 71.71 49.56 72.63 49.40"
/>
<path stroke="#fccef7" vector-effect="non-scaling-stroke" d="
  M 67.96 49.05
  Q 68.51 49.25 68.51 48.66
  Q 68.48 46.26 69.37 43.98
  A 0.57 0.57 0.0 0 0 68.54 43.29
  L 65.08 45.48
  A 0.80 0.80 0.0 0 0 64.83 46.58
  Q 65.95 48.34 67.96 49.05"
/>
</g>
<path fill="#ffffff" d="
  M 52.39 63.12
  Q 50.29 60.81 48.08 58.67
  Q 44.87 55.55 42.40 48.59
  C 39.65 39.70 41.34 27.42 49.91 22.47
  C 53.81 20.21 59.08 19.72 63.47 21.50
  Q 64.14 21.77 64.43 21.11
  C 67.48 14.23 75.78 11.62 82.13 15.72
  C 85.97 18.20 82.70 23.51 80.40 25.46
  Q 79.93 25.85 80.43 26.19
  Q 91.13 33.40 87.54 46.46
  C 84.36 58.02 74.06 65.43 62.36 66.63
  Q 56.68 67.21 52.39 63.12
  Z
  M 79.6380 19.1172
  A 6.09 3.13 -20.4 0 0 72.8390 18.3063
  A 6.09 3.13 -20.4 0 0 68.2220 23.3628
  A 6.09 3.13 -20.4 0 0 75.0210 24.1737
  A 6.09 3.13 -20.4 0 0 79.6380 19.1172
  Z
  M 55.80 60.87
  Q 58.27 62.67 59.76 62.63
  C 69.46 62.40 79.19 57.26 82.93 48.03
  C 85.70 41.17 85.25 33.26 78.27 29.44
  Q 72.88 26.50 67.51 29.42
  Q 65.71 26.10 62.45 25.06
  C 48.47 20.58 42.73 35.53 45.71 46.26
  Q 48.14 54.99 55.80 60.87
  Z"
/>
<ellipse fill="#1dc062" cx="0.00" cy="0.00" transform="translate(73.93,21.24) rotate(-20.4)" rx="6.09" ry="3.13"/>
<path fill="#ff9f16" d="
  M 67.51 29.42
  Q 63.19 32.02 61.15 35.17
  Q 58.32 39.52 57.33 40.74
  L 52.83 34.32
  Q 52.23 33.47 51.33 34.01
  Q 50.32 34.62 49.19 35.05
  C 46.09 36.20 45.44 39.69 47.19 42.29
  Q 49.90 46.30 55.88 46.41
  Q 54.91 52.93 56.55 58.96
  Q 56.72 59.58 56.56 60.02
  Q 56.32 60.72 55.80 60.87
  Q 48.14 54.99 45.71 46.26
  C 42.73 35.53 48.47 20.58 62.45 25.06
  Q 65.71 26.10 67.51 29.42
  Z"
/>
<path fill="#ffbc1d" d="
  M 55.80 60.87
  Q 56.32 60.72 56.56 60.02
  Q 56.72 59.58 56.55 58.96
  Q 54.91 52.93 55.88 46.41
  L 58.04 45.85
  Q 58.52 45.72 58.95 45.96
  Q 59.14 46.07 59.27 46.26
  Q 59.81 47.06 59.59 46.12
  Q 58.88 43.10 57.33 40.74
  Q 58.32 39.52 61.15 35.17
  Q 63.19 32.02 67.51 29.42
  Q 72.88 26.50 78.27 29.44
  C 85.25 33.26 85.70 41.17 82.93 48.03
  C 79.19 57.26 69.46 62.40 59.76 62.63
  Q 58.27 62.67 55.80 60.87
  Z
  M 62.76 47.22
  Q 63.55 46.68 64.23 47.34
  Q 68.80 51.76 74.54 49.73
  C 77.48 48.69 79.62 45.07 77.38 42.27
  Q 76.57 41.25 75.82 40.21
  A 1.42 1.41 -28.7 0 0 74.17 39.73
  C 69.74 41.41 65.45 43.82 62.53 46.96
  Q 61.47 48.11 62.76 47.22
  Z"
/>
<path fill="#f1b07f" d="
  M 33.75 37.22
  L 35.45 35.47
  A 0.40 0.40 0.0 0 1 36.14 35.75
  L 36.12 41.72
  Q 36.12 42.30 35.53 42.31
  L 29.63 42.37
  Q 28.39 42.39 29.33 41.58
  L 30.71 40.40
  Q 31.72 39.54 30.86 38.53
  C 23.40 29.72 10.62 34.34 9.39 45.46
  A 0.63 0.63 0.0 0 1 8.76 46.02
  L 7.52 46.04
  Q 7.00 46.04 6.97 45.52
  C 6.65 40.30 10.70 35.05 14.99 32.94
  C 21.27 29.85 28.74 31.49 32.92 37.17
  Q 33.30 37.68 33.75 37.22
  Z"
/>
<path fill="#ffffff" d="
  M 57.33 40.74
  Q 58.88 43.10 59.59 46.12
  Q 59.81 47.06 59.27 46.26
  Q 59.14 46.07 58.95 45.96
  Q 58.52 45.72 58.04 45.85
  L 55.88 46.41
  Q 49.90 46.30 47.19 42.29
  C 45.44 39.69 46.09 36.20 49.19 35.05
  Q 50.32 34.62 51.33 34.01
  Q 52.23 33.47 52.83 34.32
  L 57.33 40.74
  Z
  M 50.04 43.26
  C 48.90 40.65 49.87 38.35 51.11 36.03
  Q 51.53 35.24 50.67 35.48
  C 46.20 36.70 46.33 41.12 49.67 43.56
  Q 50.40 44.09 50.04 43.26
  Z
  M 53.21 36.58
  L 52.41 36.40
  A 0.20 0.20 0.0 0 0 52.17 36.55
  L 52.12 36.78
  A 6.11 0.49 -77.3 0 0 51.25 42.84
  L 51.49 42.90
  A 6.11 0.49 -77.3 0 0 53.31 37.04
  L 53.36 36.82
  A 0.20 0.20 0.0 0 0 53.21 36.58
  Z
  M 58.29 44.60
  C 57.97 43.24 56.93 41.22 55.90 40.16
  A 0.40 0.39 30.7 0 0 55.24 40.32
  L 54.08 44.37
  A 0.96 0.96 0.0 0 0 55.13 45.59
  L 57.85 45.24
  Q 58.43 45.16 58.29 44.60
  Z"
/>
<path fill="#f1b07f" d="
  M 24.41 47.11
  L 25.67 48.38
  Q 26.47 49.19 25.79 50.11
  Q 25.62 50.33 25.39 50.44
  Q 24.36 50.95 23.70 50.02
  Q 22.48 48.32 20.56 48.24
  Q 20.09 48.22 19.78 47.86
  Q 18.17 45.96 19.81 44.14
  Q 20.23 43.67 20.24 43.04
  L 20.27 35.75
  A 0.75 0.74 89.6 0 1 21.00 35.00
  L 21.45 34.99
  A 1.20 1.20 0.0 0 1 22.66 36.20
  L 22.61 42.82
  Q 22.61 43.37 22.93 43.82
  Q 23.73 44.94 23.95 46.21
  A 1.70 1.62 -73.4 0 0 24.41 47.11
  Z
  M 22.56 45.93
  A 1.11 1.11 0.0 0 0 21.45 44.82
  A 1.11 1.11 0.0 0 0 20.34 45.93
  A 1.11 1.11 0.0 0 0 21.45 47.04
  A 1.11 1.11 0.0 0 0 22.56 45.93
  Z"
/>
<path fill="#fa74a2" d="
  M 51.11 36.03
  C 49.87 38.35 48.90 40.65 50.04 43.26
  Q 50.40 44.09 49.67 43.56
  C 46.33 41.12 46.20 36.70 50.67 35.48
  Q 51.53 35.24 51.11 36.03
  Z"
/>
<path fill="#fa74a2" d="
  M 53.21 36.58
  A 0.20 0.20 0.0 0 1 53.36 36.82
  L 53.31 37.04
  A 6.11 0.49 -77.3 0 1 51.49 42.90
  L 51.25 42.84
  A 6.11 0.49 -77.3 0 1 52.12 36.78
  L 52.17 36.55
  A 0.20 0.20 0.0 0 1 52.41 36.40
  L 53.21 36.58
  Z"
/>
<circle fill="#f1b07f" cx="14.58" cy="39.08" r="1.28"/>
<circle fill="#f1b07f" cx="28.34" cy="39.05" r="1.28"/>
<path fill="#ffffff" d="
  M 62.53 46.96
  C 65.45 43.82 69.74 41.41 74.17 39.73
  A 1.42 1.41 -28.7 0 1 75.82 40.21
  Q 76.57 41.25 77.38 42.27
  C 79.62 45.07 77.48 48.69 74.54 49.73
  Q 68.80 51.76 64.23 47.34
  Q 63.55 46.68 62.76 47.22
  Q 61.47 48.11 62.53 46.96
  Z
  M 73.70 41.58
  L 72.81 41.34
  A 0.20 0.20 0.0 0 0 72.56 41.48
  L 72.50 41.70
  A 6.33 0.48 -74.7 0 0 71.29 47.93
  L 71.64 48.03
  A 6.33 0.48 -74.7 0 0 73.78 42.05
  L 73.84 41.83
  A 0.20 0.20 0.0 0 0 73.70 41.58
  Z
  M 72.63 49.40
  C 76.35 48.74 78.72 45.52 76.16 42.23
  Q 74.90 40.60 74.93 42.66
  Q 75.00 46.50 72.39 48.92
  Q 71.71 49.56 72.63 49.40
  Z
  M 67.96 49.05
  Q 68.51 49.25 68.51 48.66
  Q 68.48 46.26 69.37 43.98
  A 0.57 0.57 0.0 0 0 68.54 43.29
  L 65.08 45.48
  A 0.80 0.80 0.0 0 0 64.83 46.58
  Q 65.95 48.34 67.96 49.05
  Z"
/>
<path fill="#f99dee" d="
  M 55.90 40.16
  C 56.93 41.22 57.97 43.24 58.29 44.60
  Q 58.43 45.16 57.85 45.24
  L 55.13 45.59
  A 0.96 0.96 0.0 0 1 54.08 44.37
  L 55.24 40.32
  A 0.40 0.39 30.7 0 1 55.90 40.16
  Z"
/>
<path fill="#fa74a2" d="
  M 73.70 41.58
  A 0.20 0.20 0.0 0 1 73.84 41.83
  L 73.78 42.05
  A 6.33 0.48 -74.7 0 1 71.64 48.03
  L 71.29 47.93
  A 6.33 0.48 -74.7 0 1 72.50 41.70
  L 72.56 41.48
  A 0.20 0.20 0.0 0 1 72.81 41.34
  L 73.70 41.58
  Z"
/>
<path fill="#fa74a2" d="
  M 76.16 42.23
  C 78.72 45.52 76.35 48.74 72.63 49.40
  Q 71.71 49.56 72.39 48.92
  Q 75.00 46.50 74.93 42.66
  Q 74.90 40.60 76.16 42.23
  Z"
/>
<path fill="#f99dee" d="
  M 67.96 49.05
  Q 65.95 48.34 64.83 46.58
  A 0.80 0.80 0.0 0 1 65.08 45.48
  L 68.54 43.29
  A 0.57 0.57 0.0 0 1 69.37 43.98
  Q 68.48 46.26 68.51 48.66
  Q 68.51 49.25 67.96 49.05
  Z"
/>
<circle fill="#f1b07f" cx="11.81" cy="45.96" r="1.28"/>
<circle fill="#f1a27a" cx="31.07" cy="45.99" r="1.27"/>
<path fill="#f1a27a" d="
  M 35.71 50.34
  Q 34.60 52.44 33.33 54.58
  Q 33.21 54.78 33.22 54.94
  Q 33.24 55.25 33.47 55.28
  L 32.68 55.54
  Q 32.20 55.69 31.86 56.06
  Q 29.65 58.51 27.00 59.45
  Q 16.96 63.03 9.78 54.78
  Q 9.23 54.16 8.87 54.90
  Q 8.42 55.82 7.57 56.39
  Q 6.89 56.85 6.90 56.03
  L 6.95 50.02
  A 0.53 0.53 0.0 0 1 7.48 49.50
  L 13.48 49.50
  Q 14.59 49.50 13.76 50.24
  L 11.86 51.97
  A 0.87 0.87 0.0 0 0 11.79 53.20
  Q 18.90 61.11 28.09 56.02
  A 0.36 0.35 66.5 0 0 28.25 55.59
  Q 28.17 55.34 28.06 55.36
  Q 31.11 54.76 31.77 51.47
  Q 33.38 49.59 33.42 46.61
  Q 33.43 45.76 34.28 45.83
  L 35.08 45.89
  A 1.06 1.06 0.0 0 1 36.00 47.30
  Q 35.44 48.88 35.71 50.34
  Z"
/>
<path fill="#ffc498" d="
  M 42.40 48.59
  Q 44.87 55.55 48.08 58.67
  Q 50.29 60.81 52.39 63.12
  Q 44.40 63.53 41.76 64.34
  Q 33.93 66.75 26.53 69.39
  A 7.36 7.30 40.3 0 1 22.70 69.69
  Q 17.13 68.64 11.98 67.59
  Q 10.78 67.34 9.81 66.56
  Q 9.39 66.22 9.54 65.71
  Q 9.70 65.19 10.34 64.67
  Q 13.79 64.59 17.35 64.73
  Q 21.74 64.90 24.04 64.00
  Q 27.21 62.76 29.85 60.21
  L 37.70 56.02
  A 0.24 0.24 0.0 0 0 37.61 55.57
  L 33.47 55.28
  Q 33.24 55.25 33.22 54.94
  Q 33.21 54.78 33.33 54.58
  Q 34.60 52.44 35.71 50.34
  L 42.40 48.59
  Z"
/>
<ellipse fill="#f1a27a" cx="0.00" cy="0.00" transform="translate(14.58,52.78) rotate(107.1)" rx="1.28" ry="1.25"/>
<path fill="#f1b07f" d="
  M 31.77 51.47
  Q 31.11 54.76 28.06 55.36
  L 27.52 55.23
  A 0.96 0.96 0.0 0 1 26.80 54.14
  L 27.07 52.47
  Q 27.19 51.68 27.98 51.79
  Q 29.75 52.04 31.77 51.47
  Z"
/>
<circle fill="#f1a27a" cx="21.42" cy="55.68" r="1.25"/>
<path fill="#f1b07f" d="
  M 29.85 60.21
  Q 27.21 62.76 24.04 64.00
  Q 21.74 64.90 17.35 64.73
  Q 13.79 64.59 10.34 64.67
  L 10.16 63.56
  A 1.12 1.12 0.0 0 1 11.30 62.27
  L 16.21 62.39
  A 0.61 0.60 13.7 0 0 16.77 62.05
  Q 17.27 61.03 18.53 61.17
  C 20.77 61.43 22.73 61.93 24.96 61.35
  Q 27.36 60.71 29.85 60.21
  Z"
/>
</svg>
