<?xml version="1.0" encoding="UTF-8"?><svg id="Layer_1" xmlns="http://www.w3.org/2000/svg" viewBox="0 0 72.27 74.33"><defs><style>.cls-1{fill:#5fcb66;}.cls-1,.cls-2{stroke-width:0px;}.cls-3{fill:none;stroke:#478c5c;stroke-width:2px;}.cls-2{fill:#2f4c51;}</style></defs><path class="cls-3" d="M49.85,3.45c-.21-.28-.62-.34-.9-.12-.05.04-.09.08-.13.13-4.57,6.19-9.22,12.21-13.94,18.05-9.51,11.73-19.91,20.95-31,30.66-.51.45-.49.87.05,1.27,4.18,3.1,8.7,6.05,12.24,9.91,2.28,2.48,4.64,5.12,7.09,7.93.23.26.47.27.73.04,3.86-3.55,7.81-7.13,11.86-10.76,7.93-7.09,14.9-14.46,20.9-22.1,4.06-5.17,8.23-10.53,12.51-16.1.27-.34.2-.84-.15-1.11-.02-.01-.03-.02-.05-.04-7.61-5.02-14.02-10.94-19.21-17.76" vector-effect="non-scaling-stroke"/><path class="cls-3" d="M50.82,8.41c.22-.24.2-.6-.04-.82l-.96-.87c-.24-.22-.6-.2-.82.04l-5.11,5.62c-.22.24-.2.6.04.82l.96.87c.24.22.6.2.82-.04l5.11-5.62" vector-effect="non-scaling-stroke"/><path class="cls-3" d="M66.46,23.21c.34-.37.32-.94-.04-1.29l-.5-.46c-.37-.34-.94-.32-1.29.04,0,0,0,0,0,0l-4.95,5.29c-.34.37-.32.94.04,1.29l.5.46c.37.34.94.32,1.29-.04,0,0,0,0,0,0l4.95-5.29" vector-effect="non-scaling-stroke"/><path class="cls-3" d="M45.64,43.53c.93-3.07.01-5.27-2.75-6.58-2.68-1.28-4.42.04-6.34,1.65-.39.32-.89.45-1.38.34-3.19-.7-2.96-4.36-.15-5.21,1.08-.32,1.78.54,2.71.89.7.26,1.18.03,1.43-.68.15-.43.04-.9-.29-1.2-1.65-1.52-3.58-1.83-5.8-.94-.28.11-.6.08-.86-.09-.24-.17-.45-.37-.62-.6-.25-.34-.57-.46-.98-.36-.47.11-.8.43-.99.96-.17.49-.08.92.29,1.29l.56.56c.29.29.37.62.24,1.01-.78,2.23-.31,4.08,1.4,5.53,3.02,2.57,5.22.82,7.87-.87.94-.6,2.17-.4,2.86.47,2.27,2.83-1.33,5.82-4.01,3.49-.37-.33-.95-.29-1.28.09-.02.02-.04.04-.05.07l-.21.32c-.37.51-.32.98.15,1.4,1.82,1.64,3.72,1.93,5.71.87.25-.13.55-.1.76.08l1.08.9c.35.3.69.29,1.02-.03l.69-.67c.33-.33.34-.67.01-1l-.88-.91c-.22-.22-.28-.48-.19-.78" vector-effect="non-scaling-stroke"/><path class="cls-3" d="M14.05,48.26c.17-.18.16-.47-.03-.64l-1.18-1.09c-.18-.17-.47-.16-.64.03,0,0,0,0,0,0l-5.37,5.82c-.17.18-.16.47.03.64l1.18,1.09c.18.17.47.16.64-.03,0,0,0,0,0,0l5.37-5.82" vector-effect="non-scaling-stroke"/><path class="cls-3" d="M29.82,62.84c.2-.22.19-.56-.03-.76l-1.02-.95c-.22-.2-.56-.19-.76.03l-5.32,5.7c-.2.22-.19.56.03.76l1.02.95c.22.2.56.19.76-.03l5.32-5.7" vector-effect="non-scaling-stroke"/><path class="cls-2" d="M49,50.92c-6.91,7.35-15.17,15.04-24.78,23.05-.63.53-1.57.45-2.11-.18-.02-.02-.04-.04-.05-.07-6.06-8.15-13.2-14.71-21.42-19.68-.63-.37-.82-1.19-.45-1.82.08-.13.18-.25.3-.34,6.98-5.66,13.78-11.7,20.4-18.13C31.24,23.7,39.97,11.95,48.46.34c.28-.38.81-.46,1.19-.18.05.04.1.08.15.14,4.41,5.23,8.95,10.29,14.34,14.36,2.69,2.02,5.29,4.05,7.82,6.09.34.29.41.78.16,1.14-7.34,10.76-15.05,20.44-23.12,29.03ZM49.85,3.45c-.21-.28-.62-.34-.9-.12-.05.04-.09.08-.13.13-4.57,6.19-9.22,12.21-13.94,18.05-9.51,11.73-19.91,20.95-31,30.66-.51.45-.49.87.05,1.27,4.18,3.1,8.7,6.05,12.24,9.91,2.28,2.48,4.64,5.12,7.09,7.93.23.26.47.27.73.04,3.86-3.55,7.81-7.13,11.86-10.76,7.93-7.09,14.9-14.46,20.9-22.1,4.06-5.17,8.23-10.53,12.51-16.1.27-.34.2-.84-.15-1.11-.02-.01-.03-.02-.05-.04-7.61-5.02-14.02-10.94-19.21-17.76Z"/><path class="cls-1" d="M49.85,3.45c5.19,6.82,11.6,12.74,19.21,17.76.37.24.47.73.24,1.1-.01.02-.02.03-.04.05-4.28,5.57-8.45,10.93-12.51,16.1-6,7.64-12.97,15.01-20.9,22.1-4.05,3.63-8,7.21-11.86,10.76-.26.23-.5.22-.73-.04-2.45-2.81-4.81-5.45-7.09-7.93-3.54-3.86-8.06-6.81-12.24-9.91-.54-.4-.56-.82-.05-1.27,11.09-9.71,21.49-18.93,31-30.66,4.72-5.84,9.37-11.86,13.94-18.05.22-.29.62-.35.9-.14.05.04.09.08.13.13ZM50.82,8.41c.22-.24.2-.6-.04-.82l-.96-.87c-.24-.22-.6-.2-.82.04l-5.11,5.62c-.22.24-.2.6.04.82l.96.87c.24.22.6.2.82-.04l5.11-5.62ZM66.46,23.21c.34-.37.32-.94-.04-1.29l-.5-.46c-.37-.34-.94-.32-1.29.04,0,0,0,0,0,0l-4.95,5.29c-.34.37-.32.94.04,1.29l.5.46c.37.34.94.32,1.29-.04,0,0,0,0,0,0l4.95-5.29ZM45.64,43.53c.93-3.07.01-5.27-2.75-6.58-2.68-1.28-4.42.04-6.34,1.65-.39.32-.89.45-1.38.34-3.19-.7-2.96-4.36-.15-5.21,1.08-.32,1.78.54,2.71.89.7.26,1.18.03,1.43-.68.15-.43.04-.9-.29-1.2-1.65-1.52-3.58-1.83-5.8-.94-.28.11-.6.08-.86-.09-.24-.17-.45-.37-.62-.6-.25-.34-.57-.46-.98-.36-.47.11-.8.43-.99.96-.17.49-.08.92.29,1.29l.56.56c.29.29.37.62.24,1.01-.78,2.23-.31,4.08,1.4,5.53,3.02,2.57,5.22.82,7.87-.87.94-.6,2.17-.4,2.86.47,2.27,2.83-1.33,5.82-4.01,3.49-.37-.33-.95-.29-1.28.09-.02.02-.04.04-.05.07l-.21.32c-.37.51-.32.98.15,1.4,1.82,1.64,3.72,1.93,5.71.87.25-.13.55-.1.76.08l1.08.9c.35.3.69.29,1.02-.03l.69-.67c.33-.33.34-.67.01-1l-.88-.91c-.22-.22-.28-.48-.19-.78ZM14.05,48.26c.17-.18.16-.47-.03-.64l-1.18-1.09c-.18-.17-.47-.16-.64.03,0,0,0,0,0,0l-5.37,5.82c-.17.18-.16.47.03.64l1.18,1.09c.18.17.47.16.64-.03,0,0,0,0,0,0l5.37-5.82ZM29.82,62.84c.2-.22.19-.56-.03-.76l-1.02-.95c-.22-.2-.56-.19-.76.03l-5.32,5.7c-.2.22-.19.56.03.76l1.02.95c.22.2.56.19.76-.03l5.32-5.7Z"/><rect class="cls-2" x="42.97" y="9.16" width="8.76" height="2.46" rx=".58" ry=".58" transform="translate(7.79 38.42) rotate(-47.7)"/><rect class="cls-2" x="58.55" y="23.74" width="9.06" height="2.5" rx=".91" ry=".91" transform="translate(1.73 53.97) rotate(-46.9)"/><path class="cls-2" d="M45.83,44.31l.88.91c.33.33.32.67-.01,1l-.69.67c-.33.32-.67.33-1.02.03l-1.08-.9c-.21-.18-.51-.21-.76-.08-1.99,1.06-3.89.77-5.71-.87-.47-.42-.52-.89-.15-1.4l.21-.32c.29-.41.86-.5,1.26-.21.02.02.05.03.07.05,2.68,2.33,6.28-.66,4.01-3.49-.69-.87-1.92-1.07-2.86-.47-2.65,1.69-4.85,3.44-7.87.87-1.71-1.45-2.18-3.3-1.4-5.53.13-.39.05-.72-.24-1.01l-.56-.56c-.37-.37-.46-.8-.29-1.29.19-.53.52-.85.99-.96.41-.1.73.02.98.36.17.23.38.43.62.6.26.17.58.2.86.09,2.22-.89,4.15-.58,5.8.94.33.3.44.77.29,1.2-.25.71-.73.94-1.43.68-.93-.35-1.63-1.21-2.71-.89-2.81.85-3.04,4.51.15,5.21.49.11.99-.02,1.38-.34,1.92-1.61,3.66-2.93,6.34-1.65,2.76,1.31,3.68,3.51,2.75,6.58-.09.3-.03.56.19.78Z"/><rect class="cls-2" x="6.04" y="49.07" width="8.82" height="2.5" rx=".45" ry=".45" transform="translate(-33.62 23.87) rotate(-47.3)"/><rect class="cls-2" x="21.82" y="63.6" width="8.88" height="2.48" rx=".54" ry=".54" transform="translate(-39.07 39.82) rotate(-47)"/></svg>