<?xml version="1.0" encoding="UTF-8" standalone="no"?>
<!DOCTYPE svg PUBLIC "-//W3C//DTD SVG 1.1//EN" "http://www.w3.org/Graphics/SVG/1.1/DTD/svg11.dtd">
<svg xmlns="http://www.w3.org/2000/svg" version="1.1" viewBox="0.00 0.00 85.00 85.00">
<g stroke-width="2.00" fill="none" stroke-linecap="butt">
<path stroke="#11537f" vector-effect="non-scaling-stroke" d="
  M 18.18 58.27
  Q 15.74 63.63 15.37 66.51
  Q 14.37 74.09 13.40 81.88
  Q 13.32 82.50 13.95 82.50
  L 24.51 82.50
  Q 25.02 82.50 25.01 81.99
  L 25.00 74.77
  A 1.09 1.08 66.2 0 1 25.28 74.04
  Q 25.91 73.34 26.47 73.51
  Q 27.46 73.82 27.47 74.86
  L 27.47 81.98
  Q 27.47 82.50 27.99 82.50
  L 57.26 82.50
  A 0.27 0.26 -0.0 0 0 57.53 82.24
  L 57.54 74.38
  A 0.89 0.88 2.4 0 1 58.50 73.50
  L 58.93 73.54
  Q 59.98 73.63 59.98 74.68
  L 59.99 81.83
  Q 59.99 82.45 60.61 82.45
  L 69.11 82.46"
/>
<path stroke="#01417e" vector-effect="non-scaling-stroke" d="
  M 69.11 82.46
  L 71.12 82.46
  Q 71.71 82.46 71.63 81.88
  Q 70.63 74.26 69.59 66.13
  C 69.23 63.30 67.88 60.26 65.70 58.53
  Q 59.25 53.40 51.76 54.66"
/>
<path stroke="#11537f" vector-effect="non-scaling-stroke" d="
  M 51.76 54.66
  Q 49.29 56.58 45.82 58.59
  Q 43.11 60.15 40.58 59.02
  Q 36.69 57.28 32.10 54.12
  A 1.47 1.45 56.3 0 0 30.99 53.89
  Q 26.37 54.88 22.45 56.60
  C 21.74 56.91 20.97 56.72 20.36 56.32"
/>
<path stroke="#374055" vector-effect="non-scaling-stroke" d="
  M 31.01 9.31
  Q 31.32 10.47 30.80 11.03
  Q 25.76 16.32 25.31 23.91
  Q 25.27 24.56 25.91 24.41
  C 27.72 23.97 29.31 22.45 30.55 21.12
  C 33.47 18.01 37.99 20.70 41.33 21.16
  C 46.79 21.89 51.07 16.67 55.84 22.37"
/>
<path stroke="#25344e" vector-effect="non-scaling-stroke" d="
  M 55.84 22.37
  Q 57.15 23.96 59.16 24.36
  Q 59.95 24.51 59.79 23.72
  L 58.64 18.06
  Q 58.51 17.45 57.89 17.46
  L 55.12 17.54"
/>
<path stroke="#374055" vector-effect="non-scaling-stroke" d="
  M 55.12 17.54
  Q 48.48 15.68 50.05 8.79
  Q 50.16 8.31 49.71 8.09
  Q 42.56 4.55 35.46 7.91
  Q 34.21 8.50 33.20 7.73"
/>
<path stroke="#11537f" vector-effect="non-scaling-stroke" d="
  M 52.87 8.45
  C 51.48 11.65 52.50 15.09 56.27 15.10
  Q 58.19 15.11 59.42 13.72
  C 61.96 10.85 58.29 5.48 56.67 3.00
  A 0.45 0.44 46.1 0 0 55.94 2.98
  Q 54.20 5.40 52.87 8.45"
/>
<path stroke="#7f6952" vector-effect="non-scaling-stroke" d="
  M 45.71 48.36
  Q 51.46 46.81 55.40 41.90
  Q 60.64 35.36 59.70 27.60
  Q 59.64 27.10 59.16 26.94
  L 56.25 26.00"
/>
<path stroke="#807361" vector-effect="non-scaling-stroke" d="
  M 56.25 26.00
  L 52.61 22.83
  A 3.01 3.01 0.0 0 0 49.71 22.23
  Q 46.75 23.18 43.85 23.66
  C 40.88 24.16 37.81 22.85 34.91 22.18
  Q 33.22 21.79 32.16 23.02
  Q 29.48 26.16 25.77 26.96
  Q 25.15 27.10 25.19 27.73
  C 25.36 30.33 24.94 32.94 25.89 35.42
  Q 29.28 44.33 37.74 48.05
  Q 42.51 50.15 45.71 48.36"
/>
<path stroke="#ffdbb2" vector-effect="non-scaling-stroke" d="
  M 56.25 26.00
  C 56.22 29.32 56.63 32.91 55.55 35.92
  Q 53.01 43.02 45.71 48.36"
/>
<path stroke="#805f45" vector-effect="non-scaling-stroke" d="
  M 20.52 27.99
  C 20.38 29.70 20.70 31.44 22.20 32.49
  A 0.33 0.33 0.0 0 0 22.72 32.22
  L 22.75 27.78
  Q 22.76 27.05 22.03 27.15
  L 21.22 27.26
  Q 20.58 27.34 20.52 27.99"
/>
<path stroke="#805f45" vector-effect="non-scaling-stroke" d="
  M 63.59 31.69
  Q 64.70 30.09 64.51 27.89
  Q 64.45 27.27 63.82 27.25
  L 62.77 27.23
  Q 62.26 27.23 62.26 27.73
  L 62.25 31.28
  Q 62.25 33.66 63.59 31.69"
/>
<path stroke="#805f45" vector-effect="non-scaling-stroke" d="
  M 49.98 49.75
  Q 49.86 49.52 49.63 49.64
  Q 42.73 53.51 35.68 49.80
  A 0.54 0.53 -59.6 0 0 34.97 49.99
  L 33.83 51.81
  Q 33.58 52.22 33.99 52.47
  L 41.32 56.82
  A 2.26 2.24 -44.8 0 0 43.63 56.82
  L 51.13 52.39
  A 0.26 0.26 0.0 0 0 51.23 52.04
  L 49.98 49.75"
/>
<path stroke="#5b74a3" vector-effect="non-scaling-stroke" d="
  M 55.12 17.54
  L 55.84 22.37"
/>
<path stroke="#807361" vector-effect="non-scaling-stroke" d="
  M 34.81 30.67
  Q 33.71 29.85 32.98 31.10
  A 1.22 1.21 -59.1 0 0 33.39 32.75
  Q 36.18 34.49 38.38 32.47
  A 1.10 1.09 54.5 0 0 38.60 31.13
  Q 38.41 30.77 38.07 30.51
  Q 37.55 30.10 37.03 30.51
  Q 36.52 30.92 35.87 30.97
  A 1.50 1.49 -29.1 0 1 34.81 30.67"
/>
<path stroke="#807361" vector-effect="non-scaling-stroke" d="
  M 49.13 30.98
  Q 48.48 30.92 47.92 30.58
  Q 46.98 29.98 46.50 30.99
  L 46.38 31.24
  A 1.16 1.16 0.0 0 0 46.78 32.70
  Q 49.61 34.59 51.91 32.32
  Q 52.31 31.93 52.16 31.39
  C 51.93 30.50 50.82 30.04 50.08 30.68
  A 1.29 1.28 27.2 0 1 49.13 30.98"
/>
<path stroke="#807361" vector-effect="non-scaling-stroke" d="
  M 40.40 42.74
  C 41.63 41.78 43.06 41.52 44.34 42.58
  Q 44.83 42.98 45.46 43.04
  Q 46.39 43.14 46.55 41.87
  A 1.38 1.36 -70.8 0 0 45.91 40.53
  Q 41.87 38.06 38.82 40.89
  A 1.26 1.26 0.0 0 0 38.43 42.02
  Q 38.53 42.64 39.04 42.89
  Q 39.76 43.24 40.40 42.74"
/>
<path stroke="#1294fd" vector-effect="non-scaling-stroke" d="
  M 51.76 54.66
  Q 56.41 57.05 60.68 58.61
  Q 63.67 59.70 65.53 63.05
  Q 66.68 65.13 67.24 69.16
  Q 68.17 75.79 69.11 82.46"
/>
</g>
<path fill="#000000" d="
  M 55.55 0.00
  L 57.25 0.00
  C 60.68 3.58 65.46 11.36 60.83 15.87
  Q 60.47 16.22 60.65 16.69
  Q 62.02 20.16 62.20 24.09
  Q 62.23 24.83 62.97 24.74
  C 64.97 24.50 66.59 25.38 66.88 27.41
  Q 67.76 33.42 62.14 35.54
  Q 61.66 35.72 61.48 36.21
  Q 58.85 43.46 52.59 47.93
  A 0.75 0.75 0.0 0 0 52.31 48.75
  Q 52.97 50.87 54.53 51.32
  C 63.36 53.85 70.86 55.93 72.20 66.48
  Q 73.14 73.96 74.04 81.24
  Q 74.39 84.12 72.63 85.00
  L 12.26 85.00
  C 11.44 84.45 10.71 83.60 10.82 82.56
  Q 11.86 73.08 13.14 64.86
  Q 13.48 62.66 15.32 59.30
  Q 16.14 57.81 18.18 58.27
  Q 15.74 63.63 15.37 66.51
  Q 14.37 74.09 13.40 81.88
  Q 13.32 82.50 13.95 82.50
  L 24.51 82.50
  Q 25.02 82.50 25.01 81.99
  L 25.00 74.77
  A 1.09 1.08 66.2 0 1 25.28 74.04
  Q 25.91 73.34 26.47 73.51
  Q 27.46 73.82 27.47 74.86
  L 27.47 81.98
  Q 27.47 82.50 27.99 82.50
  L 57.26 82.50
  A 0.27 0.26 -0.0 0 0 57.53 82.24
  L 57.54 74.38
  A 0.89 0.88 2.4 0 1 58.50 73.50
  L 58.93 73.54
  Q 59.98 73.63 59.98 74.68
  L 59.99 81.83
  Q 59.99 82.45 60.61 82.45
  L 69.11 82.46
  L 71.12 82.46
  Q 71.71 82.46 71.63 81.88
  Q 70.63 74.26 69.59 66.13
  C 69.23 63.30 67.88 60.26 65.70 58.53
  Q 59.25 53.40 51.76 54.66
  Q 49.29 56.58 45.82 58.59
  Q 43.11 60.15 40.58 59.02
  Q 36.69 57.28 32.10 54.12
  A 1.47 1.45 56.3 0 0 30.99 53.89
  Q 26.37 54.88 22.45 56.60
  C 21.74 56.91 20.97 56.72 20.36 56.32
  Q 20.26 54.80 21.33 54.33
  Q 25.03 52.70 30.48 51.35
  Q 32.06 50.96 32.67 48.75
  Q 32.82 48.21 32.37 47.89
  Q 26.14 43.36 23.50 36.17
  Q 23.33 35.71 22.88 35.54
  Q 17.08 33.37 18.17 27.20
  A 2.99 2.98 -84.7 0 1 21.13 24.73
  L 22.15 24.74
  Q 22.73 24.75 22.77 24.17
  Q 23.32 15.37 28.76 9.52
  Q 29.50 8.73 31.01 9.31
  Q 31.32 10.47 30.80 11.03
  Q 25.76 16.32 25.31 23.91
  Q 25.27 24.56 25.91 24.41
  C 27.72 23.97 29.31 22.45 30.55 21.12
  C 33.47 18.01 37.99 20.70 41.33 21.16
  C 46.79 21.89 51.07 16.67 55.84 22.37
  Q 57.15 23.96 59.16 24.36
  Q 59.95 24.51 59.79 23.72
  L 58.64 18.06
  Q 58.51 17.45 57.89 17.46
  L 55.12 17.54
  Q 48.48 15.68 50.05 8.79
  Q 50.16 8.31 49.71 8.09
  Q 42.56 4.55 35.46 7.91
  Q 34.21 8.50 33.20 7.73
  Q 32.92 6.17 34.93 5.40
  Q 43.00 2.30 50.81 5.66
  Q 51.26 5.85 51.48 5.41
  Q 53.11 2.10 55.55 0.00
  Z
  M 52.87 8.45
  C 51.48 11.65 52.50 15.09 56.27 15.10
  Q 58.19 15.11 59.42 13.72
  C 61.96 10.85 58.29 5.48 56.67 3.00
  A 0.45 0.44 46.1 0 0 55.94 2.98
  Q 54.20 5.40 52.87 8.45
  Z
  M 45.71 48.36
  Q 51.46 46.81 55.40 41.90
  Q 60.64 35.36 59.70 27.60
  Q 59.64 27.10 59.16 26.94
  L 56.25 26.00
  L 52.61 22.83
  A 3.01 3.01 0.0 0 0 49.71 22.23
  Q 46.75 23.18 43.85 23.66
  C 40.88 24.16 37.81 22.85 34.91 22.18
  Q 33.22 21.79 32.16 23.02
  Q 29.48 26.16 25.77 26.96
  Q 25.15 27.10 25.19 27.73
  C 25.36 30.33 24.94 32.94 25.89 35.42
  Q 29.28 44.33 37.74 48.05
  Q 42.51 50.15 45.71 48.36
  Z
  M 20.52 27.99
  C 20.38 29.70 20.70 31.44 22.20 32.49
  A 0.33 0.33 0.0 0 0 22.72 32.22
  L 22.75 27.78
  Q 22.76 27.05 22.03 27.15
  L 21.22 27.26
  Q 20.58 27.34 20.52 27.99
  Z
  M 63.59 31.69
  Q 64.70 30.09 64.51 27.89
  Q 64.45 27.27 63.82 27.25
  L 62.77 27.23
  Q 62.26 27.23 62.26 27.73
  L 62.25 31.28
  Q 62.25 33.66 63.59 31.69
  Z
  M 49.98 49.75
  Q 49.86 49.52 49.63 49.64
  Q 42.73 53.51 35.68 49.80
  A 0.54 0.53 -59.6 0 0 34.97 49.99
  L 33.83 51.81
  Q 33.58 52.22 33.99 52.47
  L 41.32 56.82
  A 2.26 2.24 -44.8 0 0 43.63 56.82
  L 51.13 52.39
  A 0.26 0.26 0.0 0 0 51.23 52.04
  L 49.98 49.75
  Z"
/>
<path fill="#22a6fe" d="
  M 52.87 8.45
  Q 54.20 5.40 55.94 2.98
  A 0.45 0.44 46.1 0 1 56.67 3.00
  C 58.29 5.48 61.96 10.85 59.42 13.72
  Q 58.19 15.11 56.27 15.10
  C 52.50 15.09 51.48 11.65 52.87 8.45
  Z"
/>
<path fill="#6d80aa" d="
  M 55.12 17.54
  L 55.84 22.37
  C 51.07 16.67 46.79 21.89 41.33 21.16
  C 37.99 20.70 33.47 18.01 30.55 21.12
  C 29.31 22.45 27.72 23.97 25.91 24.41
  Q 25.27 24.56 25.31 23.91
  Q 25.76 16.32 30.80 11.03
  Q 31.32 10.47 31.01 9.31
  L 33.20 7.73
  Q 34.21 8.50 35.46 7.91
  Q 42.56 4.55 49.71 8.09
  Q 50.16 8.31 50.05 8.79
  Q 48.48 15.68 55.12 17.54
  Z"
/>
<path fill="#49679b" d="
  M 55.12 17.54
  L 57.89 17.46
  Q 58.51 17.45 58.64 18.06
  L 59.79 23.72
  Q 59.95 24.51 59.16 24.36
  Q 57.15 23.96 55.84 22.37
  L 55.12 17.54
  Z"
/>
<path fill="#ffe5c1" d="
  M 56.25 26.00
  C 56.22 29.32 56.63 32.91 55.55 35.92
  Q 53.01 43.02 45.71 48.36
  Q 42.51 50.15 37.74 48.05
  Q 29.28 44.33 25.89 35.42
  C 24.94 32.94 25.36 30.33 25.19 27.73
  Q 25.15 27.10 25.77 26.96
  Q 29.48 26.16 32.16 23.02
  Q 33.22 21.79 34.91 22.18
  C 37.81 22.85 40.88 24.16 43.85 23.66
  Q 46.75 23.18 49.71 22.23
  A 3.01 3.01 0.0 0 1 52.61 22.83
  L 56.25 26.00
  Z
  M 34.81 30.67
  Q 33.71 29.85 32.98 31.10
  A 1.22 1.21 -59.1 0 0 33.39 32.75
  Q 36.18 34.49 38.38 32.47
  A 1.10 1.09 54.5 0 0 38.60 31.13
  Q 38.41 30.77 38.07 30.51
  Q 37.55 30.10 37.03 30.51
  Q 36.52 30.92 35.87 30.97
  A 1.50 1.49 -29.1 0 1 34.81 30.67
  Z
  M 49.13 30.98
  Q 48.48 30.92 47.92 30.58
  Q 46.98 29.98 46.50 30.99
  L 46.38 31.24
  A 1.16 1.16 0.0 0 0 46.78 32.70
  Q 49.61 34.59 51.91 32.32
  Q 52.31 31.93 52.16 31.39
  C 51.93 30.50 50.82 30.04 50.08 30.68
  A 1.29 1.28 27.2 0 1 49.13 30.98
  Z
  M 40.40 42.74
  C 41.63 41.78 43.06 41.52 44.34 42.58
  Q 44.83 42.98 45.46 43.04
  Q 46.39 43.14 46.55 41.87
  A 1.38 1.36 -70.8 0 0 45.91 40.53
  Q 41.87 38.06 38.82 40.89
  A 1.26 1.26 0.0 0 0 38.43 42.02
  Q 38.53 42.64 39.04 42.89
  Q 39.76 43.24 40.40 42.74
  Z"
/>
<path fill="#fed1a3" d="
  M 56.25 26.00
  L 59.16 26.94
  Q 59.64 27.10 59.70 27.60
  Q 60.64 35.36 55.40 41.90
  Q 51.46 46.81 45.71 48.36
  Q 53.01 43.02 55.55 35.92
  C 56.63 32.91 56.22 29.32 56.25 26.00
  Z"
/>
<path fill="#ffbe89" d="
  M 22.20 32.49
  C 20.70 31.44 20.38 29.70 20.52 27.99
  Q 20.58 27.34 21.22 27.26
  L 22.03 27.15
  Q 22.76 27.05 22.75 27.78
  L 22.72 32.22
  A 0.33 0.33 0.0 0 1 22.20 32.49
  Z"
/>
<path fill="#ffbe89" d="
  M 63.59 31.69
  Q 62.25 33.66 62.25 31.28
  L 62.26 27.73
  Q 62.26 27.23 62.77 27.23
  L 63.82 27.25
  Q 64.45 27.27 64.51 27.89
  Q 64.70 30.09 63.59 31.69
  Z"
/>
<path fill="#000000" d="
  M 35.87 30.97
  Q 36.52 30.92 37.03 30.51
  Q 37.55 30.10 38.07 30.51
  Q 38.41 30.77 38.60 31.13
  A 1.10 1.09 54.5 0 1 38.38 32.47
  Q 36.18 34.49 33.39 32.75
  A 1.22 1.21 -59.1 0 1 32.98 31.10
  Q 33.71 29.85 34.81 30.67
  A 1.50 1.49 -29.1 0 0 35.87 30.97
  Z"
/>
<path fill="#000000" d="
  M 50.08 30.68
  C 50.82 30.04 51.93 30.50 52.16 31.39
  Q 52.31 31.93 51.91 32.32
  Q 49.61 34.59 46.78 32.70
  A 1.16 1.16 0.0 0 1 46.38 31.24
  L 46.50 30.99
  Q 46.98 29.98 47.92 30.58
  Q 48.48 30.92 49.13 30.98
  A 1.29 1.28 27.2 0 0 50.08 30.68
  Z"
/>
<path fill="#000000" d="
  M 44.34 42.58
  C 43.06 41.52 41.63 41.78 40.40 42.74
  Q 39.76 43.24 39.04 42.89
  Q 38.53 42.64 38.43 42.02
  A 1.26 1.26 0.0 0 1 38.82 40.89
  Q 41.87 38.06 45.91 40.53
  A 1.38 1.36 -70.8 0 1 46.55 41.87
  Q 46.39 43.14 45.46 43.04
  Q 44.83 42.98 44.34 42.58
  Z"
/>
<path fill="#ffbe89" d="
  M 49.98 49.75
  L 51.23 52.04
  A 0.26 0.26 0.0 0 1 51.13 52.39
  L 43.63 56.82
  A 2.26 2.24 -44.8 0 1 41.32 56.82
  L 33.99 52.47
  Q 33.58 52.22 33.83 51.81
  L 34.97 49.99
  A 0.54 0.53 -59.6 0 1 35.68 49.80
  Q 42.73 53.51 49.63 49.64
  Q 49.86 49.52 49.98 49.75
  Z"
/>
<path fill="#22a6fe" d="
  M 51.76 54.66
  Q 56.41 57.05 60.68 58.61
  Q 63.67 59.70 65.53 63.05
  Q 66.68 65.13 67.24 69.16
  Q 68.17 75.79 69.11 82.46
  L 60.61 82.45
  Q 59.99 82.45 59.99 81.83
  L 59.98 74.68
  Q 59.98 73.63 58.93 73.54
  L 58.50 73.50
  A 0.89 0.88 2.4 0 0 57.54 74.38
  L 57.53 82.24
  A 0.27 0.26 0.0 0 1 57.26 82.50
  L 27.99 82.50
  Q 27.47 82.50 27.47 81.98
  L 27.47 74.86
  Q 27.46 73.82 26.47 73.51
  Q 25.91 73.34 25.28 74.04
  A 1.09 1.08 66.2 0 0 25.00 74.77
  L 25.01 81.99
  Q 25.02 82.50 24.51 82.50
  L 13.95 82.50
  Q 13.32 82.50 13.40 81.88
  Q 14.37 74.09 15.37 66.51
  Q 15.74 63.63 18.18 58.27
  Q 18.35 57.50 20.36 56.32
  C 20.97 56.72 21.74 56.91 22.45 56.60
  Q 26.37 54.88 30.99 53.89
  A 1.47 1.45 56.3 0 1 32.10 54.12
  Q 36.69 57.28 40.58 59.02
  Q 43.11 60.15 45.82 58.59
  Q 49.29 56.58 51.76 54.66
  Z"
/>
<path fill="#0182fc" d="
  M 69.11 82.46
  Q 68.17 75.79 67.24 69.16
  Q 66.68 65.13 65.53 63.05
  Q 63.67 59.70 60.68 58.61
  Q 56.41 57.05 51.76 54.66
  Q 59.25 53.40 65.70 58.53
  C 67.88 60.26 69.23 63.30 69.59 66.13
  Q 70.63 74.26 71.63 81.88
  Q 71.71 82.46 71.12 82.46
  L 69.11 82.46
  Z"
/>
</svg>
