<svg width="192" height="63" viewBox="0 0 192 63" fill="none" xmlns="http://www.w3.org/2000/svg">
<g clip-path="url(#clip0_272_310)">
<path d="M110.943 57.2113C110.378 56.7929 109.873 56.3408 109.428 55.8506C108.677 55.0266 107.866 54.2829 107.001 53.6194C105.282 52.3009 103.364 50.5979 103.221 48.3759C103.157 47.4085 102.992 46.4242 102.997 45.4568C103.01 43.6995 102.883 41.9379 102.621 40.1721C102.523 39.5257 102.85 38.4529 103.594 36.9619L107.891 32.1687C107.971 32.0758 107.963 31.9364 107.869 31.8519C107.84 31.8265 107.806 31.8096 107.768 31.8012C107.708 31.7885 107.627 31.7842 107.521 31.7969C108.23 31.8267 108.748 31.5396 109.075 30.9356C109.101 30.8891 109.109 30.8469 109.096 30.8089C109.084 30.7624 109.05 30.7244 108.999 30.6948L114.302 25.1542C114.612 25.0487 115.002 24.7405 115.465 24.221C115.571 24.2675 115.673 24.3436 115.762 24.4408L116.853 25.286L106.242 36.8487C106.106 36.9965 106.115 37.1359 106.267 37.2669C107.74 38.5474 109.161 39.832 110.532 41.1124C112.021 42.5027 112.106 43.9221 110.785 45.3621C109.367 46.9035 107.847 48.521 106.229 50.2144C106.144 50.3031 106.144 50.4425 106.234 50.527C109.59 53.5696 112.934 56.6248 116.256 59.6885C117.134 60.4956 117.975 60.4494 118.781 59.5414C121.605 56.3699 124.505 53.1941 127.481 50.0057C127.855 50.3987 128.381 50.6819 129.056 50.8553C125.956 54.3436 122.844 57.722 119.723 60.9864C118.568 62.1984 117.002 62.3965 115.61 61.3738C114.384 60.4736 113.357 59.565 112.53 58.6396M105.322 48.2582L109.555 43.6002C109.708 43.4271 109.695 43.1609 109.525 43.0088L105.032 38.914C104.938 38.8295 104.794 38.8337 104.709 38.9266C104.68 38.9604 104.658 39.0026 104.65 39.0491C104.556 39.6827 104.522 40.3079 104.552 40.9288C104.657 43.4254 104.8 45.8122 104.974 48.0849C104.982 48.1821 105.025 48.2497 105.105 48.292C105.177 48.33 105.267 48.3174 105.322 48.2582Z" fill="#576872"/>
<path d="M116.853 25.2859C116.853 25.2859 116.819 25.307 116.798 25.3197L119.92 28.4509C119.988 28.5227 120.01 28.603 119.988 28.6959L119.942 28.8733L115.857 33.3666C115.513 33.7425 115.543 34.3212 115.916 34.6635C115.916 34.6635 115.92 34.6635 115.924 34.6678L117.893 36.4299C118.364 36.8525 118.814 36.8273 119.243 36.3585L123.413 31.7976C123.735 31.8104 123.981 32.047 124.147 32.5033C124.147 32.5751 124.117 32.6681 124.045 32.7736L118.406 38.8168C118.071 39.1758 118.087 39.7418 118.448 40.0841L120.366 41.9012C120.782 42.2942 121.436 42.2775 121.83 41.8636C121.839 41.8552 121.843 41.8467 121.852 41.8425L127.218 35.9091C127.876 35.922 128.059 36.2642 127.77 36.9273L125.787 39.0895C125.388 39.5245 125.417 40.1962 125.85 40.5934L127.7 42.2921C128.078 42.6387 128.668 42.6135 129.016 42.2377C129.016 42.2377 129.02 42.2334 129.025 42.2292L131.071 39.9656C131.126 39.9276 131.194 39.9065 131.275 39.9108C131.33 39.9108 131.385 39.9362 131.449 39.9827C132.336 40.6208 133.057 41.411 133.613 42.349C133.842 42.387 133.948 42.6152 133.927 43.0292L132.003 45.1196C132.003 45.2759 131.859 45.3392 131.583 45.3053C130.637 45.191 129.919 45.1612 129.431 45.2159C128.115 45.3633 127.304 46.1277 126.998 47.5132C126.901 47.9567 126.99 48.4383 127.265 48.9664C127.482 49.3762 127.554 49.7269 127.486 50.0099C124.509 53.1983 121.609 56.374 118.786 59.5456C117.979 60.4535 117.139 60.4997 116.26 59.6926C112.938 56.6289 109.594 53.5737 106.238 50.5311C106.149 50.4508 106.144 50.3072 106.225 50.2185C107.843 48.5251 109.363 46.9077 110.781 45.3663C112.101 43.9262 112.017 42.5068 110.528 41.1165C109.157 39.8361 107.736 38.5515 106.263 37.2711C106.11 37.1401 106.102 37.0007 106.238 36.8528L116.848 25.2901L116.853 25.2859ZM113.618 53.2708C113.618 54.3015 114.454 55.134 115.489 55.1343C116.525 55.1347 117.361 54.3027 117.362 53.272C117.362 52.2413 116.526 51.4088 115.49 51.4085C114.455 51.4082 113.618 52.2401 113.618 53.2708ZM121.063 51.5412L116.532 47.5478C116.413 47.4422 116.226 47.4506 116.12 47.5688L116.052 47.6491C115.237 48.5655 115.3 49.9426 116.195 50.7328L117.931 52.2584C118.822 53.0444 120.205 52.9392 121.021 52.027L121.093 51.9468C121.199 51.8285 121.186 51.6427 121.068 51.537L121.063 51.5412Z" fill="white"/>
<path d="M62.4656 47.6996C62.3559 45.6804 61.2739 44.6577 59.2154 44.6275C58.1585 44.6145 57.1017 44.593 56.0448 44.5631L56.1849 44.504C56.2613 44.4703 56.2995 44.3816 56.2656 44.3055C56.2486 44.2633 56.2104 44.2337 56.168 44.221L54.1224 43.6627L54.4492 43.6628C54.585 43.6713 54.6954 43.5658 54.6954 43.4306C54.6955 43.3461 54.653 43.2658 54.5851 43.2193C50.558 40.6243 47.6304 37.3749 45.9595 32.7234C45.4719 31.3546 45.8584 30.3367 46.8647 29.3316C50.6307 25.5774 54.4052 21.8401 58.1967 18.1113C58.2476 18.0564 58.2774 18.0057 58.2816 17.955C58.2901 17.9001 58.2817 17.8367 58.2647 17.7691L58.3453 17.9592C58.4132 18.1198 58.498 18.1325 58.6042 17.9931C59.5129 16.7937 61.1094 14.9904 62.8494 15.6246C63.8637 15.9925 64.5171 16.7446 64.8181 17.8768C65.8403 20.0442 67.164 21.8357 68.7892 23.2429C68.9462 23.3782 69.1202 23.4669 69.3112 23.5092L69.1711 23.5514C69.031 23.5979 69.0182 23.6655 69.1243 23.7626C69.5996 24.1937 70.2234 24.4009 71.0002 24.3884C70.8431 24.3504 70.7498 24.3419 70.7243 24.363C70.5842 24.4855 70.5756 24.6967 70.6987 24.8361C70.7199 24.8615 70.7454 24.8826 70.7751 24.8995C73.7965 26.6958 76.7162 28.4287 79.5297 30.0897C79.6825 30.1827 80.0178 30.204 80.5399 30.1534C80.2385 30.1533 80.0432 30.1955 79.9456 30.2673C79.814 30.3644 79.7884 30.5503 79.8818 30.6813C79.9157 30.7277 79.9624 30.7615 80.0176 30.7785L81.2865 31.2478C83.37 32.7734 85.0503 34.4087 86.3273 36.1538C86.951 37.1594 87.7272 38.6761 88.6476 40.6999C89.3474 42.2377 89.1773 43.5134 88.1413 44.5269C84.0271 48.5514 79.7728 52.7954 75.3742 57.2549C74.9029 57.7363 74.334 58.1078 73.6676 58.3738C71.8974 59.0786 70.6925 57.4181 70.1921 55.9437C69.8402 54.9044 69.3354 53.8524 68.6014 53.0115C67.5916 51.8537 66.726 50.9452 66.0089 50.2902C65.2027 49.5592 64.023 48.6928 62.4656 47.6996ZM70.8674 28.2452C67.0948 25.9713 63.4668 22.7597 62.2119 18.3956C62.1822 18.2942 62.0761 18.2308 61.97 18.2603C61.936 18.2688 61.9063 18.2856 61.885 18.311L48.791 31.3641C48.6339 31.5204 48.5829 31.7569 48.6592 31.9639C50.2199 36.176 53.3895 39.2946 57.2681 41.5854C59.6658 43.0013 62.0253 44.4256 64.3423 45.8542C68.0766 48.1492 71.3821 51.2171 72.8153 55.501C72.8577 55.6277 72.9978 55.6996 73.1251 55.6574C73.1633 55.6447 73.1931 55.6236 73.2228 55.5983L86.2064 42.6C86.4145 42.3889 86.4655 42.1439 86.3595 41.865C84.6758 37.5726 81.574 34.6822 77.7251 32.3703C75.3826 30.9628 73.0953 29.5892 70.8674 28.2452Z" fill="#576872"/>
<path d="M62.2122 18.3956C63.4672 22.7597 67.0951 25.9714 70.8677 28.2452C73.0956 29.5893 75.3829 30.9629 77.7254 32.3704C81.5744 34.6823 84.6761 37.5727 86.3598 41.8651C86.4658 42.1439 86.4148 42.3889 86.2068 42.6001L73.2231 55.5983C73.1255 55.6954 72.9727 55.6912 72.8751 55.5982C72.8496 55.5729 72.8284 55.5391 72.8157 55.501C71.3824 51.2171 68.077 48.1492 64.3426 45.8543C62.0256 44.4257 59.6661 43.0014 57.2685 41.5855C53.3898 39.2946 50.2202 36.1761 48.6596 31.964C48.5833 31.757 48.6343 31.5204 48.7914 31.3642L61.8854 18.3111C61.9618 18.235 62.0849 18.2351 62.1613 18.3111C62.1867 18.3365 62.2037 18.3661 62.2122 18.3956ZM69.5586 47.2246C70.8401 48.2093 72.1724 49.7304 73.5512 51.7797C73.7845 52.1261 74.0773 52.1938 74.4382 51.9827L74.5358 51.9236C74.8797 51.7252 74.9944 51.2859 74.795 50.9436C74.7866 50.931 74.7781 50.9183 74.7696 50.9056C73.1744 48.5606 71.3372 46.6126 69.2579 45.0532C68.8718 44.7658 68.5322 44.8122 68.235 45.1881L68.1543 45.2936C67.9377 45.5682 67.9546 45.8258 68.205 46.0667C68.6123 46.4597 69.0621 46.8442 69.5586 47.2246ZM71.2951 32.2162C71.2144 32.3514 71.0362 32.3978 70.9004 32.3175C70.8919 32.3175 70.8876 32.309 70.8791 32.3048C69.5976 31.4088 67.9001 30.7028 66.4524 31.6106C64.4826 32.8392 64.626 35.5555 65.8606 37.309C66.0006 37.5076 65.9793 37.7821 65.8052 37.9511L64.0645 39.7036C63.8904 39.8767 63.6145 39.8766 63.4405 39.7034C63.3684 39.6316 63.326 39.5428 63.3133 39.4457C63.2371 38.7993 63.284 38.1741 63.4497 37.5617C63.5729 37.1097 63.3057 36.645 62.8558 36.5223C62.8388 36.5223 62.8261 36.5138 62.8091 36.5096C62.338 36.4123 61.956 36.56 61.6715 36.957C60.7967 38.1607 61.2419 39.7998 62.205 40.8731C62.3535 41.0421 62.4129 41.2407 62.3788 41.4646L62.2938 41.9926C62.2555 42.2207 62.4125 42.4362 62.6459 42.4701C62.7223 42.4827 62.803 42.4701 62.8751 42.4448L63.41 42.2253C63.5416 42.1704 63.6689 42.1747 63.792 42.2465C64.1697 42.4579 64.5559 42.6481 64.959 42.813C67.934 44.0432 70.1801 41.5642 69.0138 38.6871C68.8272 38.2308 68.6066 37.7957 68.3478 37.3816C68.2248 37.183 68.2418 37.0056 68.4074 36.8409L70.6322 34.6323C70.7341 34.531 70.8954 34.531 70.9972 34.6324C71.0057 34.6409 71.01 34.6451 71.0142 34.6536C72.0749 36.0226 70.1476 36.9259 70.7627 38.0371C70.996 38.4512 71.327 38.6667 71.7599 38.688C71.9467 38.6965 72.1292 38.629 72.2693 38.5023C73.3095 37.5437 73.6028 36.2976 73.1449 34.7725C72.9795 34.2106 72.5552 33.7585 72.1904 33.3106C72.1097 33.2134 72.097 33.074 72.1608 32.9642C72.2839 32.7488 72.4156 32.5292 72.5599 32.3096C72.6491 32.1744 72.6746 32.0308 72.645 31.8829C72.5645 31.4732 72.0764 31.3547 71.7749 31.6334C71.5839 31.8066 71.4268 32.0008 71.2951 32.2162ZM62.915 23.9635C62.4483 23.3466 61.9858 22.7297 61.5276 22.117C61.3028 21.817 61.0227 21.7409 60.6788 21.8971C60.6109 21.9266 60.5515 21.9689 60.5005 22.0238C60.2076 22.3405 60.182 22.6827 60.4238 23.0418C61.9426 25.2938 63.7459 27.1911 65.8379 28.7294C66.2325 29.021 66.5594 28.9578 66.8184 28.5481L66.8906 28.4383C67.0902 28.1258 67.0436 27.8554 66.755 27.6272C64.9516 26.1861 63.6744 24.9649 62.915 23.9635Z" fill="white"/>
<path d="M115.491 51.4086C114.457 51.4083 113.619 52.242 113.618 53.2709C113.618 54.2998 114.456 55.1341 115.49 55.1344C116.523 55.1347 117.362 54.301 117.362 53.2721C117.362 52.2432 116.524 51.4089 115.491 51.4086Z" fill="#576872"/>
<path d="M121.063 51.5412C121.182 51.6468 121.195 51.8327 121.089 51.951L121.016 52.0312C120.201 52.9434 118.818 53.0486 117.926 52.2626L116.191 50.737C115.296 49.951 115.232 48.5697 116.048 47.6532L116.116 47.573C116.222 47.4505 116.409 47.4379 116.527 47.5436L121.059 51.537L121.063 51.5412Z" fill="#576872"/>
<path d="M69.5585 47.2245C69.062 46.8442 68.6122 46.4596 68.2049 46.0666C67.9545 45.8258 67.9376 45.5681 68.1542 45.2936L68.2349 45.188C68.5321 44.8121 68.8717 44.7658 69.2578 45.0531C71.3371 46.6126 73.1743 48.5605 74.7695 50.9055C74.9901 51.2351 74.9051 51.6786 74.5739 51.8982C74.5612 51.9066 74.5484 51.9151 74.5357 51.9235L74.4381 51.9826C74.0772 52.1937 73.7844 52.126 73.551 51.7796C72.1723 49.7304 70.84 48.2092 69.5585 47.2245Z" fill="#576872"/>
<path d="M141.569 50.8382L129.06 50.8596C128.385 50.6862 127.859 50.403 127.486 50.01C127.554 49.727 127.482 49.3763 127.265 48.9665C126.99 48.4384 126.901 47.9568 126.998 47.5133C127.305 46.1278 128.115 45.3635 129.431 45.216C129.919 45.1613 130.637 45.1911 131.583 45.3054C131.859 45.3393 131.999 45.276 132.003 45.1197L134.58 45.2937L136.948 45.5859C137.08 45.5987 137.186 45.6621 137.266 45.7677C137.865 46.5536 138.688 47.0439 139.379 47.7707C140.181 48.6158 141.026 49.4187 141.913 50.1751C142.121 50.1794 142.214 50.3526 142.197 50.6948C142.103 50.7666 141.895 50.8172 141.569 50.8382Z" fill="#F9F6F1"/>
<path d="M142.197 50.6948C142.214 50.3526 142.12 50.1794 141.912 50.1751C141.026 49.4186 140.181 48.6158 139.379 47.7706C138.688 47.0438 137.864 46.5536 137.266 45.7677C137.186 45.662 137.079 45.5986 136.948 45.5859L134.58 45.2937L138.094 45.0582C138.243 45.0456 138.332 44.9696 138.362 44.826C138.4 44.6528 138.362 44.4627 138.243 44.2641L136.24 44.0607C136.083 44.0438 135.968 43.9085 135.985 43.7523C135.989 43.6889 136.015 43.634 136.057 43.5875C137.641 41.8434 139.225 40.1288 140.808 38.4439C142.006 37.1727 142.715 36.2014 142.308 34.3932C142.177 33.7976 141.591 33.0243 140.556 32.0693C135.668 27.552 130.69 22.9839 125.62 18.3694C130.815 18.3203 135.874 18.3051 140.802 18.3235C142.988 18.3327 144.698 18.5318 145.942 18.9208C151.514 20.663 156.003 26.2532 156.744 31.9562C157.464 37.4776 156.036 42.1154 152.465 45.8654C149.778 48.6864 146.352 50.2948 142.197 50.6948Z" fill="#F9F6F1"/>
<path d="M33.7289 40.3992C33.7034 40.2006 33.5974 39.9725 33.4065 39.7147L32.4485 35.7605L32.4745 34.0412C32.5696 28.6764 34.6678 24.3134 38.7647 20.9564C40.2209 19.7698 41.8129 18.9001 43.5406 18.3515C44.7461 17.9675 46.5161 17.7737 48.8548 17.7702C51.9872 17.7586 55.1238 17.7596 58.2647 17.769C58.2859 17.8366 58.2901 17.9 58.2816 17.9549C58.2774 18.0056 58.2476 18.0563 58.1967 18.1112C54.4052 21.84 50.6307 25.5773 46.8647 29.3315C45.8584 30.3366 45.4719 31.3545 45.9595 32.7233C47.6304 37.3748 50.558 40.6242 54.5851 43.2192C54.6997 43.2953 54.7294 43.4432 54.6572 43.5572C54.6105 43.629 54.5341 43.6712 54.4492 43.667L54.1224 43.6669L51.5248 43.5604C51.2489 43.5519 51.0791 43.6828 51.0196 43.9531L50.9728 44.1685C50.9346 44.3628 51.0576 44.553 51.2528 44.5911C51.2783 44.5953 51.3038 44.5995 51.3292 44.5995L56.0448 44.563C57.1017 44.5929 58.1585 44.6144 59.2154 44.6274C61.2739 44.6576 62.3559 45.6803 62.4656 47.6995C62.308 49.6975 61.2806 50.2421 59.5362 50.2162C54.7357 50.1556 50.9412 50.1375 48.1526 50.1619C41.8114 50.2148 36.3459 45.9719 33.7289 40.3992Z" fill="#F9F6F1"/>
<path d="M169.234 49.2799L169.331 24.1876L169.367 18.8228C169.367 18.5482 169.592 18.3244 169.868 18.3245C169.868 18.3245 169.868 18.3245 169.872 18.3245L191.014 18.3397L191.004 49.2784L169.234 49.2799Z" fill="#576872"/>
<path d="M169.331 24.1875L169.234 49.2798L160.215 49.2642C160.058 49.2642 159.981 49.1881 159.981 49.0318L159.998 24.383C159.998 24.2394 160.117 24.1212 160.261 24.1212C160.261 24.1212 160.261 24.1212 160.265 24.1212L169.331 24.1875ZM162.029 28.7558C162.029 30.1963 163.2 31.3626 164.647 31.363C166.095 31.3635 167.267 30.198 167.267 28.7575C167.267 27.317 166.096 26.1507 164.649 26.1503C163.202 26.1498 162.03 27.3153 162.029 28.7558Z" fill="#74C5F4"/>
<path d="M20.2543 48.5393L20.4065 24.1061C20.4065 24.03 20.415 23.954 20.4278 23.878L20.4873 23.5907L29.5237 23.5936C29.6298 23.5936 29.7189 23.6866 29.7189 23.7922L29.7411 33.8545L29.7409 34.5768L29.73 42.0834L29.7126 43.2831L29.7279 48.517C29.7279 48.7198 29.626 48.8211 29.4222 48.8253C26.396 48.8539 23.4546 48.8403 20.5896 48.7929C20.4453 48.7929 20.3349 48.7041 20.2543 48.5393ZM22.2133 28.1746C22.2128 29.6109 23.3797 30.7729 24.8228 30.7734C26.2659 30.7739 27.4335 29.6126 27.434 28.1763C27.4344 26.74 26.2676 25.578 24.8245 25.5775C23.3813 25.5771 22.2138 26.7384 22.2133 28.1746Z" fill="#74C5F4"/>
<path d="M0.00417598 48.6259L0.0140741 17.6576L19.8993 17.6429C20.1412 17.6429 20.3407 17.8415 20.3406 18.0823C20.3406 18.0823 20.3406 18.0823 20.3406 18.0865L20.2922 23.5274C20.2921 23.5823 20.3176 23.6161 20.3685 23.6331C20.5001 23.6753 20.5425 23.6627 20.4874 23.5909L20.4279 23.8781C20.4151 23.9541 20.4066 24.0302 20.4066 24.1062L20.2544 48.5395C20.0507 48.6535 19.7748 48.7125 19.4225 48.7082C14.5541 48.639 8.08136 48.6116 0.00417598 48.6259Z" fill="#576872"/>
<path d="M109.555 43.6001L105.322 48.2581C105.267 48.3173 105.177 48.3299 105.105 48.2919C105.025 48.2496 104.982 48.182 104.974 48.0848C104.801 45.8121 104.657 43.4253 104.552 40.9287C104.522 40.3078 104.556 39.6826 104.65 39.049C104.667 38.9222 104.786 38.8378 104.909 38.8547C104.956 38.8632 104.998 38.8801 105.032 38.9139L109.526 43.0087C109.695 43.1608 109.708 43.427 109.555 43.6001Z" fill="white"/>
<path d="M134.58 45.2937L132.003 45.1197L133.927 43.0293L134.143 42.8393C134.326 42.8351 134.436 42.8647 134.483 42.9323C134.928 43.6168 135.531 44.0985 136.29 44.3818C136.422 44.4283 136.558 44.4453 136.698 44.4326L138.243 44.2642C138.357 44.4627 138.4 44.6528 138.361 44.826C138.332 44.9696 138.243 45.0456 138.094 45.0583L134.58 45.2937Z" fill="#576872"/>
<path d="M56.045 44.5632L51.3294 44.5997C51.1299 44.5997 50.9687 44.4433 50.9645 44.2448C50.9645 44.2194 50.9645 44.1941 50.973 44.1687L51.0198 43.9533C51.0793 43.683 51.2491 43.5521 51.525 43.5606L54.1225 43.6628L56.1682 44.2211C56.2488 44.2422 56.2955 44.3225 56.2742 44.4028C56.2615 44.4492 56.2275 44.483 56.1851 44.5041L56.045 44.5632Z" fill="#393D40"/>
<path d="M134.143 42.8392L140.109 36.3483C140.703 35.698 140.657 34.6926 140.003 34.0968L124.023 19.6488C123.421 19.1079 122.491 19.1498 121.944 19.7453L116.797 25.3197C116.797 25.3197 116.836 25.2986 116.853 25.2859L115.762 24.4407C115.677 24.107 115.711 23.8958 115.86 23.8029C115.966 23.7396 116.03 23.6466 116.051 23.5326L116.153 23.0468L120.34 18.4099C120.845 18.0468 121.558 17.7471 122.471 17.515C123.014 17.3758 123.464 17.3802 124.003 17.6211C124.673 17.9213 125.212 18.1707 125.62 18.3693C130.69 22.9839 135.668 27.5519 140.556 32.0693C141.591 33.0243 142.177 33.7975 142.308 34.3932C142.715 36.2013 142.006 37.1727 140.808 38.4438C139.225 40.1288 137.641 41.8434 136.057 43.5875C135.951 43.7015 135.959 43.8832 136.074 43.9888C136.121 44.0311 136.176 44.0564 136.24 44.0607L138.243 44.2641L136.698 44.4326C136.558 44.4452 136.422 44.4325 136.29 44.3817C135.531 44.0985 134.928 43.6167 134.483 42.9322C134.436 42.8646 134.326 42.835 134.143 42.8392Z" fill="#98A5AA"/>
<path d="M71.2951 32.2162C71.4267 32.0008 71.5838 31.8065 71.7749 31.6334C72.0763 31.3546 72.5644 31.4731 72.6449 31.8829C72.6746 32.0307 72.6448 32.1743 72.5599 32.3095C72.4155 32.5291 72.2838 32.7487 72.1607 32.9641C72.097 33.0739 72.1097 33.2133 72.1903 33.3105C72.5552 33.7584 72.9795 34.2106 73.1448 34.7724C73.6027 36.2976 73.3095 37.5436 72.2693 38.5022C72.1292 38.6289 71.9466 38.6964 71.7599 38.6879C71.327 38.6667 70.996 38.4511 70.7627 38.0371C70.1476 36.9259 72.0748 36.0225 71.0142 34.6535C70.9293 34.5436 70.7638 34.5267 70.6534 34.6153C70.6449 34.6196 70.6407 34.628 70.6322 34.6322L68.4074 36.8408C68.2418 37.0055 68.2248 37.1829 68.3478 37.3815C68.6066 37.7956 68.8271 38.2308 69.0137 38.687C70.18 41.5642 67.9339 44.0431 64.959 42.8129C64.5558 42.648 64.1696 42.4578 63.7919 42.2465C63.6689 42.1746 63.5415 42.1703 63.4099 42.2252L62.8751 42.4447C62.6586 42.5333 62.4082 42.4319 62.3191 42.2206C62.2894 42.1488 62.281 42.0686 62.2937 41.9925L62.3788 41.4645C62.4128 41.2406 62.3535 41.0421 62.2049 40.8731C61.2418 39.7998 60.7967 38.1606 61.6714 36.957C61.9559 36.56 62.3379 36.4122 62.809 36.5096C63.2674 36.6069 63.5601 37.0589 63.4624 37.5151C63.4624 37.532 63.4539 37.5447 63.4496 37.5616C63.2839 38.1741 63.237 38.7993 63.3132 39.4456C63.3428 39.6864 63.5635 39.8597 63.8054 39.8302C63.9031 39.8175 63.9965 39.7753 64.0644 39.7035L65.8052 37.951C65.9792 37.7821 66.0006 37.5075 65.8605 37.3089C64.626 35.5554 64.4825 32.8392 66.4524 31.6105C67.9 30.7028 69.5975 31.4088 70.8791 32.3047C71.0106 32.3977 71.1889 32.3682 71.2823 32.2373C71.2866 32.2288 71.2908 32.2246 71.2951 32.2162ZM66.2421 38.8298L64.7517 40.5275C64.6456 40.6499 64.6582 40.8358 64.7813 40.9457L64.811 40.971C65.3796 41.4655 66.2455 41.4066 66.7465 40.8365L66.8187 40.752C67.3155 40.1819 67.2606 39.3201 66.692 38.8257L66.6623 38.8004C66.5392 38.6947 66.3525 38.7073 66.2421 38.8298ZM68.0257 35.8565L69.792 33.9941C69.8981 33.8843 69.8897 33.7111 69.7794 33.6055L69.7157 33.5463C69.1089 32.9758 68.1539 33.0009 67.5807 33.6048L67.5128 33.6808C66.9396 34.2847 66.969 35.2351 67.5758 35.8056L67.6394 35.869C67.7498 35.9746 67.9238 35.9663 68.0299 35.8565L68.0257 35.8565Z" fill="#74C5F4"/>
<path d="M133.927 43.0291C133.948 42.6152 133.842 42.387 133.613 42.3489C133.057 41.411 132.336 40.6208 131.449 39.9826C131.385 39.9361 131.33 39.915 131.275 39.9108C131.194 39.9107 131.127 39.9276 131.071 39.9656L131.182 39.7756L135.109 35.4469C135.534 34.9781 135.513 34.5346 135.042 34.1162C134.456 33.5922 133.544 32.4894 132.865 32.2399C132.11 31.9609 131.74 32.6831 131.307 33.097C130.105 34.2372 129.052 35.3858 128.148 36.543C128.029 36.7246 127.902 36.8555 127.77 36.9273C128.059 36.2642 127.877 35.9219 127.219 35.9091C127.253 35.871 127.287 35.8288 127.321 35.7908L131.274 31.4537C131.511 31.1919 131.494 30.7948 131.24 30.5539L129.212 28.6439C128.783 28.2425 128.112 28.2591 127.709 28.6814C127.709 28.6814 127.705 28.6857 127.701 28.6899L124.147 32.5033C123.981 32.047 123.735 31.8104 123.413 31.7976C123.434 31.7892 123.459 31.7807 123.481 31.7765L127.06 27.7477C127.344 27.4267 127.319 26.9409 127.005 26.6493L124.96 24.7562C124.595 24.4181 124.026 24.4391 123.687 24.8023C123.687 24.8023 123.678 24.8107 123.678 24.8149L120.252 28.6241L119.942 28.8733L119.988 28.6959C120.01 28.6029 119.989 28.5227 119.921 28.4508L116.798 25.3196L121.944 19.7452C122.491 19.1498 123.421 19.1078 124.024 19.6487L140.004 34.0967C140.657 34.6883 140.703 35.6937 140.109 36.3483L134.143 42.8391L133.927 43.0291Z" fill="#F9F6F1"/>
<path d="M127.77 36.9273C127.902 36.8555 128.029 36.7246 128.148 36.543L131.008 39.4629C131.059 39.5178 131.092 39.5812 131.114 39.653C131.126 39.691 131.148 39.7333 131.182 39.7755L131.071 39.9656L129.025 42.2292C128.681 42.6092 128.091 42.6428 127.709 42.3006C127.709 42.3006 127.705 42.2963 127.7 42.2921L125.85 40.5933C125.417 40.1961 125.388 39.5244 125.787 39.0895L127.77 36.9273Z" fill="#74C5F4"/>
<path d="M124.045 32.7737C124.227 32.7484 124.346 32.7738 124.41 32.8371C125.347 33.8513 126.319 34.8358 127.32 35.7909C127.286 35.8289 127.252 35.8711 127.219 35.9091L121.852 41.8425C121.469 42.2648 120.816 42.3026 120.387 41.9223C120.379 41.9139 120.37 41.9096 120.366 41.9012L118.448 40.0841C118.087 39.7418 118.071 39.1758 118.406 38.8168L124.045 32.7737Z" fill="#74C5F4"/>
<path d="M66.242 38.8297C66.3482 38.7072 66.5349 38.6904 66.6622 38.8003L66.6919 38.8256C67.2605 39.32 67.3154 40.1818 66.8186 40.7519L66.7464 40.8364C66.2454 41.4065 65.3795 41.4654 64.8109 40.971L64.7812 40.9456C64.6582 40.84 64.6455 40.6541 64.7517 40.5274L66.242 38.8297Z" fill="white"/>
<path d="M131.182 39.7757C131.148 39.7335 131.127 39.6912 131.114 39.6532C131.093 39.5814 131.059 39.518 131.008 39.4631L128.148 36.5432C129.053 35.386 130.105 34.2374 131.307 33.0972C131.74 32.6833 132.11 31.9611 132.865 32.2401C133.544 32.4896 134.456 33.5924 135.042 34.1164C135.513 34.5348 135.534 34.9783 135.109 35.4471L131.182 39.7757Z" fill="#A7D3EB"/>
<path d="M107.521 31.7969C107.628 31.7843 107.708 31.7885 107.768 31.8012C107.891 31.8266 107.967 31.9449 107.942 32.0674C107.933 32.1054 107.916 32.1392 107.891 32.1688L103.594 36.962C102.643 36.7209 102.1 36.066 101.964 34.9929C101.829 33.8904 102.181 33.0245 103.018 32.3953C103.502 32.0322 104.219 31.8466 105.166 31.8342C105.951 31.826 106.736 31.8136 107.521 31.7969Z" fill="#F9F6F1"/>
<path d="M119.942 28.8735L120.252 28.6243C121.155 29.8285 122.229 30.8807 123.481 31.7767C123.459 31.7809 123.434 31.7894 123.413 31.7978L119.243 36.3587C118.814 36.8275 118.364 36.8527 117.893 36.4301L115.925 34.6679C115.547 34.3299 115.513 33.7511 115.853 33.3753C115.853 33.3753 115.853 33.371 115.857 33.3668L119.942 28.8735Z" fill="#74C5F4"/>
<path d="M86.3275 36.1537C85.0505 34.4087 83.3702 32.7733 81.2867 31.2477C82.9887 31.168 84.1602 31.1514 84.7926 31.1897C85.4335 31.2279 86.0107 31.4984 86.5241 32.0013C87.5848 33.0535 87.7288 34.2743 86.9558 35.6681C86.7902 35.9637 86.5822 36.1242 86.3275 36.1537Z" fill="#F9F6F1"/>
<path d="M68.0254 35.8564C67.9193 35.9662 67.7452 35.9746 67.6349 35.869L67.5713 35.8056C66.9645 35.2351 66.9351 34.2846 67.5083 33.6808L67.5762 33.609C68.1494 33.0051 69.1044 32.9758 69.7112 33.5421L69.7748 33.6054C69.8851 33.7111 69.8936 33.8843 69.7874 33.9941L68.0212 35.8564L68.0254 35.8564Z" fill="white"/>
<path d="M127.321 35.7909C126.319 34.8359 125.348 33.8513 124.41 32.8372C124.346 32.7696 124.227 32.7484 124.045 32.7737C124.117 32.6681 124.151 32.5752 124.147 32.5034L127.701 28.69C128.1 28.2635 128.77 28.2383 129.203 28.6356C129.203 28.6356 129.208 28.6398 129.212 28.644L131.24 30.554C131.495 30.7949 131.511 31.192 131.274 31.4538L127.321 35.7909Z" fill="#A7D3EB"/>
<path d="M123.48 31.7766C122.229 30.8807 121.155 29.8285 120.251 28.6243L123.678 24.815C124.009 24.4476 124.578 24.414 124.947 24.7479C124.947 24.7479 124.955 24.7563 124.96 24.7563L127.005 26.6495C127.319 26.941 127.344 27.4268 127.06 27.7478L123.48 31.7766Z" fill="#A7D3EB"/>
<path d="M164.649 26.1504C163.203 26.1499 162.03 27.3165 162.03 28.7559C162.029 30.1954 163.201 31.3627 164.648 31.3632C166.094 31.3636 167.267 30.1971 167.267 28.7576C167.268 27.3182 166.096 26.1509 164.649 26.1504Z" fill="#576872"/>
<path d="M24.8244 25.5777C23.3828 25.5772 22.2137 26.74 22.2133 28.1748C22.2128 29.6096 23.3811 30.7731 24.8228 30.7736C26.2644 30.774 27.4335 29.6113 27.4339 28.1765C27.4344 26.7417 26.2661 25.5782 24.8244 25.5777Z" fill="#576872"/>
<path d="M108.999 30.6947C108.269 30.6945 107.556 30.7196 106.911 30.3645C104.971 29.3036 104.807 26.5028 106.747 25.4347C107.184 25.1941 107.851 25.0676 108.742 25.0552C110.554 25.0304 112.405 25.0648 114.302 25.1541L108.999 30.6947Z" fill="#F9F6F1"/>
<path d="M80.5402 30.1534C80.0181 30.2039 79.6828 30.1827 79.53 30.0897C76.7165 28.4287 73.7968 26.6958 70.7754 24.8995C70.6141 24.8023 70.5632 24.5953 70.6609 24.439C70.6779 24.4094 70.6991 24.3883 70.7246 24.363C70.7501 24.3419 70.8434 24.3504 71.0005 24.3884C74.3833 24.4233 77.7788 24.4328 81.1871 24.4128C84.0012 24.3968 85.1079 27.9287 83.0658 29.5839C82.5139 30.0315 81.6734 30.2214 80.5402 30.1534Z" fill="#F9F6F1"/>
<path d="M62.9147 23.9634C63.6742 24.9648 64.9514 26.1861 66.7548 27.6271C67.0433 27.8553 67.0899 28.1257 66.8903 28.4382L66.8181 28.548C66.5591 28.9577 66.2323 29.021 65.8376 28.7294C63.7456 27.1911 61.9423 25.2938 60.4235 23.0417C60.1817 22.6826 60.2073 22.3404 60.5003 22.0237C60.5512 21.9688 60.6106 21.9266 60.6786 21.897C61.0224 21.7408 61.3025 21.817 61.5274 22.117C61.9856 22.7296 62.448 23.3465 62.9147 23.9634Z" fill="#576872"/>
<path d="M69.3113 23.5092C69.1203 23.4669 68.9463 23.3782 68.7893 23.2429C67.1642 21.8357 65.8405 20.0442 64.8182 17.8768C66.1298 17.7885 67.9422 17.7553 70.2597 17.7772C72.3776 17.799 74.6056 18.9614 73.9045 21.3521C73.2459 23.6034 71.3656 23.4803 69.3113 23.5092Z" fill="#F9F6F1"/>
<path d="M116.153 23.0468C115.114 21.644 115.169 20.3851 116.316 19.2745C117.246 18.3708 118.587 18.084 120.34 18.4098L116.153 23.0468Z" fill="#F9F6F1"/>
</g>
<defs>
<clipPath id="clip0_272_310">
<rect width="191" height="62" fill="white" transform="translate(191 62.061) rotate(-179.982)"/>
</clipPath>
</defs>
</svg>
