<?xml version="1.0" encoding="UTF-8" standalone="no"?>
<!DOCTYPE svg PUBLIC "-//W3C//DTD SVG 1.1//EN" "http://www.w3.org/Graphics/SVG/1.1/DTD/svg11.dtd">
<svg xmlns="http://www.w3.org/2000/svg" version="1.1" viewBox="0.00 0.00 412.00 444.00">
<g stroke-width="2.00" fill="none" stroke-linecap="butt">
<path stroke="#ffa4b6" vector-effect="non-scaling-stroke" d="
  M 186.53 191.06
  Q 178.09 197.25 168.47 200.92
  C 167.15 201.42 165.71 201.59 164.62 202.40
  A 0.92 0.91 -36.3 0 1 163.34 202.21
  Q 158.85 196.21 156.44 189.14
  Q 152.41 177.25 152.13 166.04
  A 1.72 1.72 0.0 0 0 149.49 164.62
  Q 126.28 179.23 113.66 204.30"
/>
<path stroke="#ffacb1" vector-effect="non-scaling-stroke" d="
  M 113.66 204.30
  Q 104.90 221.58 103.39 241.24
  Q 103.25 243.01 103.56 247.80"
/>
<path stroke="#ffb2af" vector-effect="non-scaling-stroke" d="
  M 103.56 247.80
  C 103.68 249.65 103.53 251.66 104.22 253.42
  C 104.77 254.82 104.46 256.58 104.68 258.11
  Q 106.20 268.61 109.24 277.73
  Q 121.88 315.60 157.73 332.74
  Q 173.08 340.07 195.16 341.91
  Q 197.77 342.13 200.39 342.39
  Q 202.64 342.62 205.25 342.42
  Q 211.79 341.92 218.47 341.10
  Q 231.32 339.51 243.28 334.71"
/>
<path stroke="#ffacb1" vector-effect="non-scaling-stroke" d="
  M 243.28 334.71
  Q 265.47 325.72 281.09 307.58"
/>
<path stroke="#ffa4b6" vector-effect="non-scaling-stroke" d="
  M 281.09 307.58
  Q 297.37 288.40 302.62 263.75"
/>
<path stroke="#ff9eb9" vector-effect="non-scaling-stroke" d="
  M 302.62 263.75
  Q 305.09 251.57 304.75 240.74
  Q 303.20 190.81 270.83 152.61
  Q 249.78 127.78 220.52 111.64
  Q 216.26 109.29 212.24 107.12
  A 1.05 1.05 0.0 0 0 210.71 108.23
  Q 215.07 132.30 209.50 155.73
  Q 204.48 176.85 186.53 191.06"
/>
<path stroke="#fe426f" vector-effect="non-scaling-stroke" d="
  M 302.62 263.75
  L 300.55 260.87
  Q 300.19 260.38 299.59 260.43
  Q 297.72 260.58 296.86 258.68
  Q 296.67 258.28 296.23 258.35
  Q 295.21 258.51 294.51 257.66
  C 292.87 255.65 290.14 255.37 288.27 253.67
  Q 286.66 252.21 284.93 250.81
  A 0.08 0.08 0.0 0 0 284.80 250.86
  Q 284.79 251.11 284.65 251.04
  Q 284.58 251.01 284.54 250.95
  Q 284.15 250.44 283.58 250.68
  Q 283.12 250.89 282.81 250.48
  Q 281.83 249.18 280.15 248.70
  Q 279.20 248.42 279.85 247.70
  Q 280.03 247.50 279.79 247.39
  Q 278.86 246.94 279.74 246.42
  Q 281.04 245.66 280.49 244.94"
/>
<path stroke="#85264f" vector-effect="non-scaling-stroke" d="
  M 280.49 244.94
  Q 288.09 236.28 288.48 224.88
  Q 288.53 223.37 288.16 222.83
  Q 283.10 215.39 273.84 210.63"
/>
<path stroke="#e16169" vector-effect="non-scaling-stroke" d="
  M 273.84 210.63
  Q 284.79 209.69 288.43 201.20
  Q 289.32 199.14 289.40 196.50
  Q 289.48 193.65 289.01 191.67
  Q 288.31 188.78 285.95 186.32
  Q 265.65 165.19 240.82 139.60
  C 236.70 135.36 231.75 133.32 225.94 134.99
  Q 219.39 136.88 216.73 142.78
  Q 214.35 148.04 216.30 154.01
  Q 217.10 156.48 222.43 162.03
  Q 244.48 185.00 267.08 208.26"
/>
<path stroke="#85264f" vector-effect="non-scaling-stroke" d="
  M 267.08 208.26
  Q 247.17 204.89 230.84 213.87"
/>
<path stroke="#fe426f" vector-effect="non-scaling-stroke" d="
  M 230.84 213.87
  Q 230.19 213.39 229.40 213.67
  Q 229.35 213.68 229.31 213.64
  Q 229.17 213.50 229.27 213.41
  Q 229.66 213.08 229.15 213.09
  Q 228.73 213.10 228.30 213.10
  Q 228.01 213.11 227.87 212.86
  Q 227.25 211.79 226.12 211.57
  Q 225.82 211.51 225.54 211.37
  Q 225.12 211.16 225.28 210.97
  Q 225.68 210.50 225.14 210.20
  Q 224.50 209.83 223.89 210.01
  Q 223.42 210.14 223.08 209.79
  C 222.47 209.15 222.05 208.62 221.23 208.24
  Q 219.97 207.65 219.15 206.58
  A 2.23 2.21 -10.6 0 0 217.94 205.76
  Q 215.78 205.17 214.88 203.49
  Q 214.57 202.91 213.94 202.72
  Q 212.89 202.40 212.02 201.66
  Q 211.53 201.24 210.89 201.28
  Q 210.36 201.31 209.87 201.57
  Q 209.17 201.95 209.38 201.18
  Q 209.45 200.94 209.37 200.68
  Q 209.26 200.26 208.91 200.01
  L 203.49 196.15
  A 1.72 1.68 7.4 0 1 202.93 195.44
  Q 202.44 194.27 201.18 194.18
  Q 200.44 194.13 200.06 193.50
  Q 199.22 192.11 197.59 191.46
  Q 196.94 191.21 196.56 190.62
  Q 196.28 190.19 195.76 190.23
  Q 193.51 190.39 190.97 190.34
  Q 190.02 190.31 189.17 190.70
  Q 188.23 191.12 187.33 191.70
  Q 187.03 191.90 186.69 191.84
  Q 186.34 191.77 186.43 191.43
  L 186.53 191.06"
/>
<path stroke="#852c4c" vector-effect="non-scaling-stroke" d="
  M 230.84 213.87
  Q 217.87 221.35 211.89 235.02
  Q 210.81 237.47 211.95 240.06
  C 215.15 247.31 220.58 252.57 227.58 256.27
  C 232.31 258.77 235.61 262.83 237.74 267.92
  Q 239.31 271.69 242.66 270.56
  C 245.20 269.71 245.56 267.28 246.54 265.14
  Q 247.89 262.18 251.22 260.14
  Q 256.16 257.12 260.45 256.10
  Q 272.21 253.31 280.49 244.94"
/>
<path stroke="#fe5168" vector-effect="non-scaling-stroke" d="
  M 281.09 307.58
  Q 280.21 307.08 279.66 306.74
  Q 279.53 306.66 279.41 306.70
  Q 279.13 306.80 279.32 307.03
  A 0.04 0.03 -2.7 0 1 279.27 307.08
  Q 277.27 306.18 274.98 305.19
  Q 273.18 304.42 271.40 303.18
  Q 269.02 301.52 265.97 299.79
  Q 263.46 298.36 260.24 295.21
  Q 258.41 293.42 255.61 292.77
  Q 254.67 292.56 253.94 292.00
  Q 253.22 291.44 252.40 290.98
  Q 251.25 290.32 250.01 290.07
  Q 248.69 289.81 247.43 289.30
  C 245.70 288.61 243.83 288.98 241.98 288.71
  Q 241.43 288.63 241.83 288.28
  Q 241.98 288.15 241.82 287.83
  A 0.34 0.34 0.0 0 0 241.43 287.65
  Q 241.03 287.77 241.07 288.11
  Q 241.13 288.68 240.65 288.35
  Q 240.06 287.94 239.50 288.30
  Q 239.28 288.43 239.36 288.18
  Q 239.40 288.05 239.35 287.92
  Q 239.33 287.86 239.00 287.83
  L 236.76 287.63
  Q 236.42 287.60 236.20 287.34
  Q 235.79 286.85 235.21 287.05
  Q 234.74 287.21 234.37 286.89
  Q 233.15 285.85 232.19 284.76
  Q 231.99 284.53 231.71 284.65
  Q 231.43 284.77 231.41 284.46
  Q 231.33 283.10 229.87 282.71
  Q 229.41 282.58 229.36 282.11
  Q 229.18 280.58 227.73 281.03
  Q 227.40 281.13 227.35 280.80
  Q 227.25 280.11 226.66 279.82
  Q 226.21 279.61 225.84 279.27
  Q 224.72 278.26 223.86 277.20
  Q 223.57 276.84 223.10 276.86
  Q 221.79 276.92 221.38 275.64
  Q 221.24 275.20 220.89 274.88
  Q 217.76 272.02 214.24 269.64
  Q 213.48 269.13 212.53 267.60
  Q 212.39 267.37 212.18 267.21
  Q 211.99 267.07 211.76 267.13
  Q 211.21 267.28 210.87 266.82
  Q 210.16 265.83 209.05 265.38
  Q 208.80 265.28 208.81 265.01
  Q 208.89 263.84 207.66 263.92
  Q 207.15 263.95 206.81 263.57
  L 204.08 260.54
  Q 203.71 260.13 203.15 260.13
  L 202.66 260.13
  Q 202.20 260.13 201.90 259.79
  Q 200.36 258.07 198.53 259.48
  Q 198.36 259.61 198.16 259.64
  Q 198.02 259.67 197.90 259.62
  Q 197.46 259.44 197.84 259.16
  Q 198.08 258.99 198.35 258.90
  Q 199.05 258.67 198.57 258.12
  Q 196.44 255.61 193.26 255.03
  Q 192.53 254.90 191.92 254.62
  Q 191.09 254.22 190.19 254.17
  A 0.11 0.11 0.0 0 1 190.10 254.02
  Q 190.20 253.77 190.03 253.57
  Q 189.77 253.29 189.40 253.34
  Q 188.27 253.51 187.20 253.28
  Q 186.46 253.11 186.92 252.51
  Q 188.00 251.10 187.48 249.28"
/>
<path stroke="#852c4c" vector-effect="non-scaling-stroke" d="
  M 187.48 249.28
  L 196.91 237.43
  Q 197.22 237.05 197.05 236.58
  C 191.70 222.31 179.37 212.37 164.71 208.92
  C 150.45 205.56 136.70 207.13 125.31 216.67"
/>
<path stroke="#fe5168" vector-effect="non-scaling-stroke" d="
  M 125.31 216.67
  Q 125.61 215.95 126.55 215.02
  Q 126.89 214.69 127.35 214.64
  Q 127.90 214.58 127.89 214.01
  A 0.39 0.39 0.0 0 1 128.14 213.63
  Q 128.28 213.59 128.42 213.63
  Q 128.83 213.76 129.01 213.36
  Q 129.17 213.00 129.18 212.58
  Q 129.19 211.80 128.74 212.45
  Q 128.24 213.18 127.25 213.31
  Q 126.62 213.40 126.82 212.79
  Q 127.30 211.36 125.92 210.92
  Q 125.51 210.78 125.16 210.52
  Q 123.58 209.33 121.75 208.94
  Q 121.62 208.91 121.61 208.78
  Q 121.61 208.73 121.61 208.68
  Q 121.68 207.94 121.09 208.33
  Q 120.71 208.58 120.47 208.04
  A 0.84 0.84 0.0 0 0 119.53 207.55
  Q 118.64 207.73 118.59 207.04
  A 0.48 0.47 -81.3 0 0 118.30 206.63
  Q 118.06 206.52 117.92 206.67
  Q 117.45 207.16 117.40 206.48
  Q 117.34 205.46 116.92 204.55
  Q 116.54 203.76 116.41 204.63
  Q 116.39 204.78 116.32 204.91
  Q 116.19 205.18 115.92 205.05
  Q 115.45 204.81 115.20 204.38
  Q 114.74 203.58 114.10 204.24
  Q 113.70 204.65 113.85 205.17
  Q 113.88 205.27 113.90 205.17
  Q 113.99 204.65 113.66 204.30"
/>
<path stroke="#684b45" vector-effect="non-scaling-stroke" d="
  M 273.84 210.63
  L 267.08 208.26"
/>
<path stroke="#853547" vector-effect="non-scaling-stroke" d="
  M 125.31 216.67
  Q 122.65 219.27 120.59 222.21
  C 119.22 224.16 119.51 226.05 119.88 228.21
  Q 122.47 243.44 135.91 251.28
  Q 139.60 253.43 142.78 255.58
  Q 150.15 260.54 158.24 262.07
  C 167.12 263.75 159.65 272.14 164.94 275.08
  Q 165.47 275.38 166.04 275.14
  Q 167.80 274.40 168.17 272.69
  Q 168.90 269.27 169.98 265.55
  Q 171.06 261.80 172.73 260.93
  Q 181.07 256.54 187.48 249.28"
/>
<path stroke="#fe5f61" vector-effect="non-scaling-stroke" d="
  M 243.28 334.71
  Q 242.43 334.43 241.32 334.77
  Q 240.77 334.94 240.65 334.37
  Q 240.26 332.49 238.40 332.12
  Q 237.80 331.99 237.37 331.55
  Q 236.44 330.60 235.20 330.51
  Q 234.66 330.47 234.23 330.15
  Q 232.35 328.77 230.08 328.02
  Q 225.41 326.48 221.06 322.51
  Q 219.47 321.05 217.13 320.18
  Q 215.33 319.51 213.54 318.60
  Q 210.73 317.18 207.65 316.36
  Q 207.16 316.23 206.86 315.82
  C 206.21 314.95 206.15 313.73 204.81 313.44
  Q 204.36 313.34 204.36 312.88
  Q 204.36 312.73 204.27 312.62
  Q 204.09 312.40 203.85 312.27
  Q 199.40 309.98 195.62 306.99
  Q 194.41 306.03 193.08 305.30
  Q 191.74 304.56 190.50 303.78
  Q 190.37 303.70 190.21 303.69
  Q 189.90 303.68 189.95 303.86
  Q 190.12 304.53 189.56 304.12
  Q 187.40 302.57 185.08 301.29
  Q 183.01 300.14 181.11 298.41
  Q 178.98 296.46 176.14 294.81
  Q 173.73 293.41 171.31 293.12
  Q 168.27 292.76 165.25 291.36
  Q 165.19 291.33 165.24 291.28
  Q 165.32 291.18 165.25 291.01
  Q 165.20 290.88 165.06 290.88
  L 161.46 290.76
  Q 161.25 290.76 161.11 290.90
  L 160.88 291.13
  Q 160.51 291.50 160.18 291.09
  Q 159.36 290.07 158.10 289.84
  A 0.28 0.27 5.0 0 1 157.87 289.57
  L 157.87 289.29
  A 0.30 0.28 13.1 0 0 157.69 289.03
  L 155.05 287.87
  Q 154.54 287.65 154.31 287.15
  L 153.62 285.65
  Q 153.37 285.12 152.78 285.14
  Q 151.93 285.17 151.13 285.11
  Q 150.24 285.04 150.86 284.41
  Q 151.12 284.15 150.87 283.83
  A 0.42 0.41 50.0 0 0 150.26 283.77
  Q 150.03 283.97 149.89 283.68
  Q 149.81 283.53 149.98 283.57
  Q 150.17 283.61 150.25 283.48
  Q 150.42 283.20 150.16 283.01
  Q 146.68 280.37 143.93 276.90
  A 1.94 1.93 70.5 0 0 142.39 276.16
  Q 141.66 276.18 141.19 275.69
  Q 140.83 275.31 140.80 274.79
  Q 140.65 271.95 137.81 271.66
  Q 137.43 271.63 137.30 271.27
  L 136.74 269.71
  Q 136.53 269.13 135.91 269.10
  Q 134.74 269.05 133.67 268.66
  Q 133.25 268.51 133.10 268.09
  L 132.64 266.83
  Q 132.44 266.26 131.84 266.12
  L 129.69 265.65
  Q 129.19 265.54 129.08 265.04
  Q 128.87 264.04 127.78 264.12
  Q 125.73 264.28 123.80 263.90
  Q 123.28 263.80 122.96 263.39
  Q 122.09 262.30 120.79 261.98
  Q 120.13 261.83 119.83 261.21
  Q 119.39 260.34 118.41 260.30
  Q 117.72 260.27 117.16 259.87
  Q 114.95 258.29 112.87 256.67
  Q 112.09 256.06 110.99 255.87
  Q 109.66 255.64 108.66 256.23
  Q 108.38 256.39 108.38 256.05
  Q 108.38 255.66 108.01 255.78
  Q 107.87 255.83 107.79 255.94
  Q 107.51 256.38 107.35 255.89
  Q 106.89 254.45 107.14 252.84
  Q 107.21 252.37 106.83 252.09
  Q 106.70 251.98 106.54 251.93
  Q 105.88 251.70 105.76 252.40
  L 105.63 253.19
  A 0.37 0.35 -1.4 0 1 105.34 253.48
  L 104.78 253.59
  A 0.28 0.28 0.0 0 1 104.45 253.24
  Q 105.08 250.80 104.94 248.33
  Q 104.92 247.92 104.58 247.67
  Q 104.13 247.34 103.56 247.80"
/>
<path stroke="#d49875" vector-effect="non-scaling-stroke" d="
  M 238.2952 140.4925
  A 11.74 11.74 0.0 0 0 221.6948 140.2028
  L 221.3639 140.5223
  A 11.74 11.74 0.0 0 0 221.0742 157.1226
  L 266.5048 204.1675
  A 11.74 11.74 0.0 0 0 283.1052 204.4572
  L 283.4361 204.1377
  A 11.74 11.74 0.0 0 0 283.7258 187.5374
  L 238.2952 140.4925"
/>
<path stroke="#d49875" vector-effect="non-scaling-stroke" d="
  M 230.86 144.65
  A 2.16 2.16 0.0 0 0 228.70 142.49
  A 2.16 2.16 0.0 0 0 226.54 144.65
  A 2.16 2.16 0.0 0 0 228.70 146.81
  A 2.16 2.16 0.0 0 0 230.86 144.65"
/>
<path stroke="#d49875" vector-effect="non-scaling-stroke" d="
  M 237.48 144.77
  A 2.16 2.16 0.0 0 0 235.32 142.61
  A 2.16 2.16 0.0 0 0 233.16 144.77
  A 2.16 2.16 0.0 0 0 235.32 146.93
  A 2.16 2.16 0.0 0 0 237.48 144.77"
/>
<path stroke="#d49875" vector-effect="non-scaling-stroke" d="
  M 226.12 150.99
  A 2.22 2.22 0.0 0 0 223.90 148.77
  A 2.22 2.22 0.0 0 0 221.68 150.99
  A 2.22 2.22 0.0 0 0 223.90 153.21
  A 2.22 2.22 0.0 0 0 226.12 150.99"
/>
<path stroke="#d49875" vector-effect="non-scaling-stroke" d="
  M 234.13 151.13
  A 2.21 2.21 0.0 0 0 231.92 148.92
  A 2.21 2.21 0.0 0 0 229.71 151.13
  A 2.21 2.21 0.0 0 0 231.92 153.34
  A 2.21 2.21 0.0 0 0 234.13 151.13"
/>
<path stroke="#d49875" vector-effect="non-scaling-stroke" d="
  M 242.13 151.24
  A 2.21 2.21 0.0 0 0 239.92 149.03
  A 2.21 2.21 0.0 0 0 237.71 151.24
  A 2.21 2.21 0.0 0 0 239.92 153.45
  A 2.21 2.21 0.0 0 0 242.13 151.24"
/>
<path stroke="#d49875" vector-effect="non-scaling-stroke" d="
  M 230.67 157.47
  A 2.18 2.18 0.0 0 0 228.49 155.29
  A 2.18 2.18 0.0 0 0 226.31 157.47
  A 2.18 2.18 0.0 0 0 228.49 159.65
  A 2.18 2.18 0.0 0 0 230.67 157.47"
/>
<path stroke="#d49875" vector-effect="non-scaling-stroke" d="
  M 237.32 157.54
  A 2.21 2.21 0.0 0 0 235.11 155.33
  A 2.21 2.21 0.0 0 0 232.90 157.54
  A 2.21 2.21 0.0 0 0 235.11 159.75
  A 2.21 2.21 0.0 0 0 237.32 157.54"
/>
<path stroke="#f2d5c5" vector-effect="non-scaling-stroke" d="
  M 248.94 164.52
  L 241.49 166.48
  Q 240.35 166.78 241.10 167.69
  L 241.29 167.92
  Q 242.06 168.86 243.22 168.53
  L 251.94 166.03
  Q 253.50 165.58 252.43 164.36
  L 248.72 160.13
  Q 248.18 159.51 247.41 159.80
  Q 246.89 160.00 246.75 160.58
  A 1.04 1.03 28.7 0 0 247.03 161.53
  L 249.17 163.67
  Q 249.80 164.30 248.94 164.52"
/>
<path stroke="#f2d5c5" vector-effect="non-scaling-stroke" d="
  M 253.87 169.71
  A 0.41 0.41 0.0 0 1 254.41 169.80
  L 256.26 172.08
  Q 256.85 172.82 257.63 172.29
  L 257.86 172.13
  A 0.91 0.91 0.0 0 0 258.03 170.77
  L 255.10 167.41
  Q 254.63 166.87 254.03 167.29
  L 250.63 169.69
  Q 249.97 170.16 250.56 170.71
  C 251.28 171.37 252.35 172.48 252.20 173.53
  Q 252.09 174.28 251.33 174.60
  A 1.38 1.35 -39.5 0 1 250.06 174.49
  Q 248.96 173.78 248.39 172.47
  Q 247.98 171.55 247.14 172.11
  L 246.84 172.31
  Q 246.03 172.86 246.55 173.69
  Q 248.15 176.25 250.70 177.21
  Q 251.23 177.42 251.77 177.21
  C 254.68 176.10 255.83 173.56 253.44 171.07
  A 0.76 0.76 0.0 0 1 253.57 169.90
  L 253.87 169.71"
/>
<path stroke="#f2d5c5" vector-effect="non-scaling-stroke" d="
  M 259.71 176.92
  Q 261.16 177.21 262.26 178.51
  Q 262.66 178.97 263.21 178.71
  Q 263.61 178.53 263.87 178.17
  A 0.83 0.83 0.0 0 0 263.77 177.07
  Q 259.17 172.72 254.74 176.90
  C 250.27 181.11 256.90 187.41 260.58 182.13
  Q 262.13 179.91 259.32 177.80
  Q 257.60 176.51 259.71 176.92"
/>
<path stroke="#d49875" vector-effect="non-scaling-stroke" d="
  M 271.93 187.16
  A 2.19 2.19 0.0 0 0 269.74 184.97
  A 2.19 2.19 0.0 0 0 267.55 187.16
  A 2.19 2.19 0.0 0 0 269.74 189.35
  A 2.19 2.19 0.0 0 0 271.93 187.16"
/>
<path stroke="#d49875" vector-effect="non-scaling-stroke" d="
  M 278.54 187.28
  A 2.19 2.19 0.0 0 0 276.35 185.09
  A 2.19 2.19 0.0 0 0 274.16 187.28
  A 2.19 2.19 0.0 0 0 276.35 189.47
  A 2.19 2.19 0.0 0 0 278.54 187.28"
/>
<path stroke="#d49875" vector-effect="non-scaling-stroke" d="
  M 267.13 193.46
  A 2.19 2.19 0.0 0 0 264.94 191.27
  A 2.19 2.19 0.0 0 0 262.75 193.46
  A 2.19 2.19 0.0 0 0 264.94 195.65
  A 2.19 2.19 0.0 0 0 267.13 193.46"
/>
<path stroke="#d49875" vector-effect="non-scaling-stroke" d="
  M 275.16 193.59
  A 2.19 2.19 0.0 0 0 272.97 191.40
  A 2.19 2.19 0.0 0 0 270.78 193.59
  A 2.19 2.19 0.0 0 0 272.97 195.78
  A 2.19 2.19 0.0 0 0 275.16 193.59"
/>
<path stroke="#d49875" vector-effect="non-scaling-stroke" d="
  M 283.18 193.71
  A 2.22 2.22 0.0 0 0 280.96 191.49
  A 2.22 2.22 0.0 0 0 278.74 193.71
  A 2.22 2.22 0.0 0 0 280.96 195.93
  A 2.22 2.22 0.0 0 0 283.18 193.71"
/>
<path stroke="#d49875" vector-effect="non-scaling-stroke" d="
  M 271.75 199.95
  A 2.20 2.20 0.0 0 0 269.55 197.75
  A 2.20 2.20 0.0 0 0 267.35 199.95
  A 2.20 2.20 0.0 0 0 269.55 202.15
  A 2.20 2.20 0.0 0 0 271.75 199.95"
/>
<path stroke="#d49875" vector-effect="non-scaling-stroke" d="
  M 278.38 200.05
  A 2.22 2.22 0.0 0 0 276.16 197.83
  A 2.22 2.22 0.0 0 0 273.94 200.05
  A 2.22 2.22 0.0 0 0 276.16 202.27
  A 2.22 2.22 0.0 0 0 278.38 200.05"
/>
<path stroke="#852c4c" vector-effect="non-scaling-stroke" d="
  M 230.3240 269.1618
  A 4.15 3.48 68.9 0 0 232.0767 264.0372
  A 4.15 3.48 68.9 0 0 227.3360 261.4182
  A 4.15 3.48 68.9 0 0 225.5833 266.5428
  A 4.15 3.48 68.9 0 0 230.3240 269.1618"
/>
<path stroke="#852c4c" vector-effect="non-scaling-stroke" d="
  M 239.11 286.58
  Q 241.13 287.05 242.97 285.98
  C 248.94 282.52 245.28 275.85 241.38 272.70
  A 0.78 0.77 -42.1 0 0 240.46 272.66
  C 235.61 275.92 233.58 281.17 237.96 285.92
  A 2.22 2.20 -14.9 0 0 239.11 286.58"
/>
<path stroke="#f2d5c5" vector-effect="non-scaling-stroke" d="
  M 255.9382 181.5119
  A 1.68 1.45 129.2 0 0 258.1237 181.1264
  A 1.68 1.45 129.2 0 0 258.0618 178.9081
  A 1.68 1.45 129.2 0 0 255.8763 179.2936
  A 1.68 1.45 129.2 0 0 255.9382 181.5119"
/>
<path stroke="#853547" vector-effect="non-scaling-stroke" d="
  M 160.01 270.76
  A 3.20 3.20 0.0 0 0 156.81 267.56
  A 3.20 3.20 0.0 0 0 153.61 270.76
  A 3.20 3.20 0.0 0 0 156.81 273.96
  A 3.20 3.20 0.0 0 0 160.01 270.76"
/>
<path stroke="#853547" vector-effect="non-scaling-stroke" d="
  M 171.28 284.54
  C 173.03 278.97 163.13 272.96 161.50 281.49
  C 160.72 285.56 162.13 289.43 167.22 288.16
  Q 170.39 287.37 171.28 284.54"
/>
<path stroke="#785d5b" vector-effect="non-scaling-stroke" d="
  M 146.36 209.68
  C 138.74 216.01 135.97 226.22 140.17 235.34
  C 144.29 244.29 153.61 249.20 163.25 247.58
  C 177.05 245.25 185.02 230.66 179.02 217.45
  Q 178.51 216.32 177.39 215.68
  Q 164.11 208.05 147.52 209.22
  Q 146.87 209.26 146.36 209.68"
/>
<path stroke="#868895" vector-effect="non-scaling-stroke" d="
  M 157.43 252.03
  C 163.38 255.41 169.94 257.49 174.60 250.68
  C 178.83 244.51 186.90 235.43 194.48 235.68
  A 0.35 0.34 -11.4 0 0 194.81 235.19
  Q 190.46 225.70 181.97 218.95
  Q 181.40 218.50 181.62 219.18
  Q 184.54 228.37 180.34 236.80
  C 175.16 247.20 163.45 251.91 152.35 248.39
  C 146.32 246.47 140.92 241.55 138.55 235.81
  Q 132.84 222.01 142.82 210.56
  Q 143.46 209.82 142.51 210.03
  Q 129.60 212.83 121.69 223.52
  A 2.11 2.06 62.4 0 0 121.28 224.88
  Q 122.42 243.08 139.64 251.49
  Q 140.16 251.75 140.67 251.49
  C 146.22 248.71 152.13 249.01 157.43 252.03"
/>
<path stroke="#814f4e" vector-effect="non-scaling-stroke" d="
  M 156.87 253.64
  Q 150.29 249.69 142.21 252.58
  Q 141.42 252.86 142.10 253.33
  Q 150.21 259.00 158.51 260.55
  C 161.47 261.11 164.41 263.08 164.50 266.25
  Q 164.58 269.25 164.67 272.24
  Q 164.72 274.15 166.27 273.13
  A 0.95 0.91 -12.8 0 0 166.66 272.54
  C 167.63 267.11 168.42 261.11 173.95 258.34
  C 176.05 257.30 178.08 256.06 179.83 254.50
  Q 187.99 247.27 194.70 237.95
  A 0.36 0.36 0.0 0 0 194.39 237.38
  C 187.16 237.61 179.96 245.93 176.04 251.63
  C 170.88 259.13 163.86 257.83 156.87 253.64"
/>
<path stroke="#785d5b" vector-effect="non-scaling-stroke" d="
  M 259.60 208.99
  C 249.62 208.52 239.54 210.75 231.25 215.35
  Q 229.37 216.40 228.67 218.56
  Q 224.82 230.44 231.34 239.32
  C 240.31 251.51 259.09 250.61 267.00 237.72
  Q 270.30 232.36 270.05 225.47
  Q 269.75 217.02 262.91 210.45
  Q 261.48 209.08 259.60 208.99"
/>
<path stroke="#868895" vector-effect="non-scaling-stroke" d="
  M 269.37 236.58
  Q 263.12 248.97 249.12 249.50
  Q 244.05 249.69 239.47 247.72
  C 228.15 242.85 223.31 230.81 226.62 219.18
  Q 226.80 218.54 226.28 218.96
  Q 218.10 225.47 213.79 234.56
  A 0.22 0.22 0.0 0 0 214.00 234.87
  C 219.59 234.54 223.95 240.20 226.55 244.65
  C 229.51 249.70 233.93 252.04 239.83 251.50
  C 246.29 250.91 251.94 249.06 256.69 255.06
  Q 257.03 255.49 257.56 255.36
  C 273.02 251.74 287.01 241.60 286.91 224.54
  A 1.89 1.83 -63.7 0 0 286.58 223.51
  Q 279.34 213.09 265.58 209.89
  Q 264.71 209.69 265.30 210.36
  C 272.01 217.89 273.85 227.73 269.37 236.58"
/>
<path stroke="#814f4e" vector-effect="non-scaling-stroke" d="
  M 254.95 256.50
  Q 255.48 256.28 255.11 255.84
  C 251.22 251.20 246.77 252.27 241.64 253.09
  Q 230.75 254.85 225.26 245.69
  C 222.83 241.65 219.00 236.04 213.64 236.76
  A 0.79 0.79 0.0 0 0 212.99 237.77
  C 215.36 245.99 221.90 251.59 229.28 255.52
  C 234.24 258.15 237.17 262.84 239.51 267.96
  C 240.92 271.04 243.75 268.35 244.30 266.48
  Q 246.14 260.14 254.95 256.50"
/>
<path stroke="#f2d5c5" vector-effect="non-scaling-stroke" d="
  M 243.25 215.95
  C 239.25 215.26 231.36 217.23 231.74 222.76
  Q 232.12 228.34 237.40 229.32"
/>
<path stroke="#785d5b" vector-effect="non-scaling-stroke" d="
  M 237.40 229.32
  Q 238.78 237.22 247.00 238.50
  Q 252.67 239.39 257.42 234.70"
/>
<path stroke="#f2d5c5" vector-effect="non-scaling-stroke" d="
  M 257.42 234.70
  Q 261.35 238.28 263.46 234.25
  Q 265.51 230.34 260.36 229.27"
/>
<path stroke="#785d5b" vector-effect="non-scaling-stroke" d="
  M 260.36 229.27
  C 261.90 221.27 256.20 214.17 247.99 214.35
  Q 245.31 214.41 243.25 215.95"
/>
<path stroke="#868895" vector-effect="non-scaling-stroke" d="
  M 260.36 229.27
  C 257.58 228.88 255.26 232.19 257.42 234.70"
/>
<path stroke="#868895" vector-effect="non-scaling-stroke" d="
  M 237.40 229.32
  Q 244.78 228.20 247.13 223.38
  Q 249.75 218.00 243.25 215.95"
/>
<path stroke="#f2d5c5" vector-effect="non-scaling-stroke" d="
  M 153.74 215.91
  Q 148.96 215.14 145.42 217.59
  Q 142.30 219.75 142.34 223.36
  Q 142.40 228.27 148.43 229.24"
/>
<path stroke="#785d5b" vector-effect="non-scaling-stroke" d="
  M 148.43 229.24
  Q 147.95 230.10 148.16 230.51
  Q 155.19 243.83 168.25 235.39"
/>
<path stroke="#f2d5c5" vector-effect="non-scaling-stroke" d="
  M 168.25 235.39
  Q 171.81 237.28 173.60 234.55
  Q 175.80 231.19 171.45 229.21"
/>
<path stroke="#785d5b" vector-effect="non-scaling-stroke" d="
  M 171.45 229.21
  Q 172.78 223.02 169.02 218.74
  Q 162.69 211.53 153.74 215.91"
/>
<path stroke="#868895" vector-effect="non-scaling-stroke" d="
  M 171.45 229.21
  Q 164.46 229.96 168.25 235.39"
/>
<path stroke="#868895" vector-effect="non-scaling-stroke" d="
  M 148.43 229.24
  Q 154.79 228.11 157.42 223.44
  Q 160.24 218.45 153.74 215.91"
/>
<path stroke="#fac7b8" vector-effect="non-scaling-stroke" d="
  M 249.8498 256.0157
  A 2.78 1.45 10.9 0 0 247.3942 254.0662
  A 2.78 1.45 10.9 0 0 244.3902 254.9643
  A 2.78 1.45 10.9 0 0 246.8458 256.9138
  A 2.78 1.45 10.9 0 0 249.8498 256.0157"
/>
<path stroke="#fac7b8" vector-effect="non-scaling-stroke" d="
  M 153.5358 256.7233
  A 2.55 1.44 31.0 0 0 152.0917 254.1757
  A 2.55 1.44 31.0 0 0 149.1642 254.0967
  A 2.55 1.44 31.0 0 0 150.6083 256.6443
  A 2.55 1.44 31.0 0 0 153.5358 256.7233"
/>
<path stroke="#814f4e" vector-effect="non-scaling-stroke" d="
  M 229.7802 267.6614
  A 2.59 1.93 68.0 0 0 230.5995 264.5370
  A 2.59 1.93 68.0 0 0 227.8398 262.8586
  A 2.59 1.93 68.0 0 0 227.0205 265.9830
  A 2.59 1.93 68.0 0 0 229.7802 267.6614"
/>
<path stroke="#814f4e" vector-effect="non-scaling-stroke" d="
  M 157.9081 272.1906
  A 1.80 1.55 51.6 0 0 158.0047 269.8172
  A 1.80 1.55 51.6 0 0 155.6719 269.3694
  A 1.80 1.55 51.6 0 0 155.5753 271.7428
  A 1.80 1.55 51.6 0 0 157.9081 272.1906"
/>
<path stroke="#814f4e" vector-effect="non-scaling-stroke" d="
  M 240.43 274.46
  C 237.19 277.04 235.92 281.05 238.68 284.50
  A 1.55 1.53 73.6 0 0 239.71 285.07
  C 242.93 285.42 245.48 282.60 244.31 279.41
  Q 243.28 276.58 241.21 274.51
  Q 240.84 274.14 240.43 274.46"
/>
<path stroke="#814f4e" vector-effect="non-scaling-stroke" d="
  M 166.42 278.85
  A 2.21 2.19 -66.7 0 0 163.75 279.92
  Q 162.51 282.31 163.13 285.43
  A 1.59 1.58 -89.2 0 0 164.33 286.67
  C 170.48 288.08 171.91 280.75 166.42 278.85"
/>
</g>
<path fill="#ffffff" d="
  M 170.51 184.97
  C 207.63 183.57 206.73 110.57 205.64 87.18
  Q 205.60 86.50 206.16 86.89
  Q 215.18 93.34 225.00 98.76
  C 232.25 102.76 239.65 106.55 246.22 111.92
  C 251.45 116.20 257.07 120.08 261.86 124.90
  Q 315.89 179.23 311.63 258.31
  Q 311.02 269.66 307.50 282.03
  C 297.22 318.22 267.59 339.33 232.01 347.37
  C 205.62 353.34 178.39 352.56 153.84 341.39
  C 131.98 331.44 115.56 314.32 105.42 292.07
  C 98.36 276.56 94.15 259.87 94.89 243.04
  C 96.65 202.61 125.85 169.59 158.69 149.13
  Q 160.99 147.70 163.37 146.40
  Q 164.05 146.02 164.05 146.80
  Q 164.09 164.20 167.13 177.44
  Q 167.92 180.90 169.61 184.43
  Q 169.88 185.00 170.51 184.97
  Z
  M 186.53 191.06
  Q 178.09 197.25 168.47 200.92
  C 167.15 201.42 165.71 201.59 164.62 202.40
  A 0.92 0.91 -36.3 0 1 163.34 202.21
  Q 158.85 196.21 156.44 189.14
  Q 152.41 177.25 152.13 166.04
  A 1.72 1.72 0.0 0 0 149.49 164.62
  Q 126.28 179.23 113.66 204.30
  Q 104.90 221.58 103.39 241.24
  Q 103.25 243.01 103.56 247.80
  C 103.68 249.65 103.53 251.66 104.22 253.42
  C 104.77 254.82 104.46 256.58 104.68 258.11
  Q 106.20 268.61 109.24 277.73
  Q 121.88 315.60 157.73 332.74
  Q 173.08 340.07 195.16 341.91
  Q 197.77 342.13 200.39 342.39
  Q 202.64 342.62 205.25 342.42
  Q 211.79 341.92 218.47 341.10
  Q 231.32 339.51 243.28 334.71
  Q 265.47 325.72 281.09 307.58
  Q 297.37 288.40 302.62 263.75
  Q 305.09 251.57 304.75 240.74
  Q 303.20 190.81 270.83 152.61
  Q 249.78 127.78 220.52 111.64
  Q 216.26 109.29 212.24 107.12
  A 1.05 1.05 0.0 0 0 210.71 108.23
  Q 215.07 132.30 209.50 155.73
  Q 204.48 176.85 186.53 191.06
  Z"
/>
<path fill="#fe3c72" d="
  M 302.62 263.75
  L 300.55 260.87
  Q 300.19 260.38 299.59 260.43
  Q 297.72 260.58 296.86 258.68
  Q 296.67 258.28 296.23 258.35
  Q 295.21 258.51 294.51 257.66
  C 292.87 255.65 290.14 255.37 288.27 253.67
  Q 286.66 252.21 284.93 250.81
  A 0.08 0.08 0.0 0 0 284.80 250.86
  Q 284.79 251.11 284.65 251.04
  Q 284.58 251.01 284.54 250.95
  Q 284.15 250.44 283.58 250.68
  Q 283.12 250.89 282.81 250.48
  Q 281.83 249.18 280.15 248.70
  Q 279.20 248.42 279.85 247.70
  Q 280.03 247.50 279.79 247.39
  Q 278.86 246.94 279.74 246.42
  Q 281.04 245.66 280.49 244.94
  Q 288.09 236.28 288.48 224.88
  Q 288.53 223.37 288.16 222.83
  Q 283.10 215.39 273.84 210.63
  Q 284.79 209.69 288.43 201.20
  Q 289.32 199.14 289.40 196.50
  Q 289.48 193.65 289.01 191.67
  Q 288.31 188.78 285.95 186.32
  Q 265.65 165.19 240.82 139.60
  C 236.70 135.36 231.75 133.32 225.94 134.99
  Q 219.39 136.88 216.73 142.78
  Q 214.35 148.04 216.30 154.01
  Q 217.10 156.48 222.43 162.03
  Q 244.48 185.00 267.08 208.26
  Q 247.17 204.89 230.84 213.87
  Q 230.19 213.39 229.40 213.67
  Q 229.35 213.68 229.31 213.64
  Q 229.17 213.50 229.27 213.41
  Q 229.66 213.08 229.15 213.09
  Q 228.73 213.10 228.30 213.10
  Q 228.01 213.11 227.87 212.86
  Q 227.25 211.79 226.12 211.57
  Q 225.82 211.51 225.54 211.37
  Q 225.12 211.16 225.28 210.97
  Q 225.68 210.50 225.14 210.20
  Q 224.50 209.83 223.89 210.01
  Q 223.42 210.14 223.08 209.79
  C 222.47 209.15 222.05 208.62 221.23 208.24
  Q 219.97 207.65 219.15 206.58
  A 2.23 2.21 -10.6 0 0 217.94 205.76
  Q 215.78 205.17 214.88 203.49
  Q 214.57 202.91 213.94 202.72
  Q 212.89 202.40 212.02 201.66
  Q 211.53 201.24 210.89 201.28
  Q 210.36 201.31 209.87 201.57
  Q 209.17 201.95 209.38 201.18
  Q 209.45 200.94 209.37 200.68
  Q 209.26 200.26 208.91 200.01
  L 203.49 196.15
  A 1.72 1.68 7.4 0 1 202.93 195.44
  Q 202.44 194.27 201.18 194.18
  Q 200.44 194.13 200.06 193.50
  Q 199.22 192.11 197.59 191.46
  Q 196.94 191.21 196.56 190.62
  Q 196.28 190.19 195.76 190.23
  Q 193.51 190.39 190.97 190.34
  Q 190.02 190.31 189.17 190.70
  Q 188.23 191.12 187.33 191.70
  Q 187.03 191.90 186.69 191.84
  Q 186.34 191.77 186.43 191.43
  L 186.53 191.06
  Q 204.48 176.85 209.50 155.73
  Q 215.07 132.30 210.71 108.23
  A 1.05 1.05 0.0 0 1 212.24 107.12
  Q 216.26 109.29 220.52 111.64
  Q 249.78 127.78 270.83 152.61
  Q 303.20 190.81 304.75 240.74
  Q 305.09 251.57 302.62 263.75
  Z"
/>
<path fill="#c4865f" d="
  M 273.84 210.63
  L 267.08 208.26
  Q 244.48 185.00 222.43 162.03
  Q 217.10 156.48 216.30 154.01
  Q 214.35 148.04 216.73 142.78
  Q 219.39 136.88 225.94 134.99
  C 231.75 133.32 236.70 135.36 240.82 139.60
  Q 265.65 165.19 285.95 186.32
  Q 288.31 188.78 289.01 191.67
  Q 289.48 193.65 289.40 196.50
  Q 289.32 199.14 288.43 201.20
  Q 284.79 209.69 273.84 210.63
  Z
  M 238.2952 140.4925
  A 11.74 11.74 0.0 0 0 221.6948 140.2028
  L 221.3639 140.5223
  A 11.74 11.74 0.0 0 0 221.0742 157.1226
  L 266.5048 204.1675
  A 11.74 11.74 0.0 0 0 283.1052 204.4572
  L 283.4361 204.1377
  A 11.74 11.74 0.0 0 0 283.7258 187.5374
  L 238.2952 140.4925
  Z"
/>
<path fill="#e4aa8a" d="
  M 283.7258 187.5374
  A 11.74 11.74 0.0 0 1 283.4361 204.1377
  L 283.1052 204.4572
  A 11.74 11.74 0.0 0 1 266.5048 204.1675
  L 221.0742 157.1226
  A 11.74 11.74 0.0 0 1 221.3639 140.5223
  L 221.6948 140.2028
  A 11.74 11.74 0.0 0 1 238.2952 140.4925
  L 283.7258 187.5374
  Z
  M 230.86 144.65
  A 2.16 2.16 0.0 0 0 228.70 142.49
  A 2.16 2.16 0.0 0 0 226.54 144.65
  A 2.16 2.16 0.0 0 0 228.70 146.81
  A 2.16 2.16 0.0 0 0 230.86 144.65
  Z
  M 237.48 144.77
  A 2.16 2.16 0.0 0 0 235.32 142.61
  A 2.16 2.16 0.0 0 0 233.16 144.77
  A 2.16 2.16 0.0 0 0 235.32 146.93
  A 2.16 2.16 0.0 0 0 237.48 144.77
  Z
  M 226.12 150.99
  A 2.22 2.22 0.0 0 0 223.90 148.77
  A 2.22 2.22 0.0 0 0 221.68 150.99
  A 2.22 2.22 0.0 0 0 223.90 153.21
  A 2.22 2.22 0.0 0 0 226.12 150.99
  Z
  M 234.13 151.13
  A 2.21 2.21 0.0 0 0 231.92 148.92
  A 2.21 2.21 0.0 0 0 229.71 151.13
  A 2.21 2.21 0.0 0 0 231.92 153.34
  A 2.21 2.21 0.0 0 0 234.13 151.13
  Z
  M 242.13 151.24
  A 2.21 2.21 0.0 0 0 239.92 149.03
  A 2.21 2.21 0.0 0 0 237.71 151.24
  A 2.21 2.21 0.0 0 0 239.92 153.45
  A 2.21 2.21 0.0 0 0 242.13 151.24
  Z
  M 230.67 157.47
  A 2.18 2.18 0.0 0 0 228.49 155.29
  A 2.18 2.18 0.0 0 0 226.31 157.47
  A 2.18 2.18 0.0 0 0 228.49 159.65
  A 2.18 2.18 0.0 0 0 230.67 157.47
  Z
  M 237.32 157.54
  A 2.21 2.21 0.0 0 0 235.11 155.33
  A 2.21 2.21 0.0 0 0 232.90 157.54
  A 2.21 2.21 0.0 0 0 235.11 159.75
  A 2.21 2.21 0.0 0 0 237.32 157.54
  Z
  M 248.94 164.52
  L 241.49 166.48
  Q 240.35 166.78 241.10 167.69
  L 241.29 167.92
  Q 242.06 168.86 243.22 168.53
  L 251.94 166.03
  Q 253.50 165.58 252.43 164.36
  L 248.72 160.13
  Q 248.18 159.51 247.41 159.80
  Q 246.89 160.00 246.75 160.58
  A 1.04 1.03 28.7 0 0 247.03 161.53
  L 249.17 163.67
  Q 249.80 164.30 248.94 164.52
  Z
  M 253.87 169.71
  A 0.41 0.41 0.0 0 1 254.41 169.80
  L 256.26 172.08
  Q 256.85 172.82 257.63 172.29
  L 257.86 172.13
  A 0.91 0.91 0.0 0 0 258.03 170.77
  L 255.10 167.41
  Q 254.63 166.87 254.03 167.29
  L 250.63 169.69
  Q 249.97 170.16 250.56 170.71
  C 251.28 171.37 252.35 172.48 252.20 173.53
  Q 252.09 174.28 251.33 174.60
  A 1.38 1.35 -39.5 0 1 250.06 174.49
  Q 248.96 173.78 248.39 172.47
  Q 247.98 171.55 247.14 172.11
  L 246.84 172.31
  Q 246.03 172.86 246.55 173.69
  Q 248.15 176.25 250.70 177.21
  Q 251.23 177.42 251.77 177.21
  C 254.68 176.10 255.83 173.56 253.44 171.07
  A 0.76 0.76 0.0 0 1 253.57 169.90
  L 253.87 169.71
  Z
  M 259.71 176.92
  Q 261.16 177.21 262.26 178.51
  Q 262.66 178.97 263.21 178.71
  Q 263.61 178.53 263.87 178.17
  A 0.83 0.83 0.0 0 0 263.77 177.07
  Q 259.17 172.72 254.74 176.90
  C 250.27 181.11 256.90 187.41 260.58 182.13
  Q 262.13 179.91 259.32 177.80
  Q 257.60 176.51 259.71 176.92
  Z
  M 271.93 187.16
  A 2.19 2.19 0.0 0 0 269.74 184.97
  A 2.19 2.19 0.0 0 0 267.55 187.16
  A 2.19 2.19 0.0 0 0 269.74 189.35
  A 2.19 2.19 0.0 0 0 271.93 187.16
  Z
  M 278.54 187.28
  A 2.19 2.19 0.0 0 0 276.35 185.09
  A 2.19 2.19 0.0 0 0 274.16 187.28
  A 2.19 2.19 0.0 0 0 276.35 189.47
  A 2.19 2.19 0.0 0 0 278.54 187.28
  Z
  M 267.13 193.46
  A 2.19 2.19 0.0 0 0 264.94 191.27
  A 2.19 2.19 0.0 0 0 262.75 193.46
  A 2.19 2.19 0.0 0 0 264.94 195.65
  A 2.19 2.19 0.0 0 0 267.13 193.46
  Z
  M 275.16 193.59
  A 2.19 2.19 0.0 0 0 272.97 191.40
  A 2.19 2.19 0.0 0 0 270.78 193.59
  A 2.19 2.19 0.0 0 0 272.97 195.78
  A 2.19 2.19 0.0 0 0 275.16 193.59
  Z
  M 283.18 193.71
  A 2.22 2.22 0.0 0 0 280.96 191.49
  A 2.22 2.22 0.0 0 0 278.74 193.71
  A 2.22 2.22 0.0 0 0 280.96 195.93
  A 2.22 2.22 0.0 0 0 283.18 193.71
  Z
  M 271.75 199.95
  A 2.20 2.20 0.0 0 0 269.55 197.75
  A 2.20 2.20 0.0 0 0 267.35 199.95
  A 2.20 2.20 0.0 0 0 269.55 202.15
  A 2.20 2.20 0.0 0 0 271.75 199.95
  Z
  M 278.38 200.05
  A 2.22 2.22 0.0 0 0 276.16 197.83
  A 2.22 2.22 0.0 0 0 273.94 200.05
  A 2.22 2.22 0.0 0 0 276.16 202.27
  A 2.22 2.22 0.0 0 0 278.38 200.05
  Z"
/>
<circle fill="#c4865f" cx="228.70" cy="144.65" r="2.16"/>
<circle fill="#c4865f" cx="235.32" cy="144.77" r="2.16"/>
<circle fill="#c4865f" cx="223.90" cy="150.99" r="2.22"/>
<circle fill="#c4865f" cx="231.92" cy="151.13" r="2.21"/>
<circle fill="#c4865f" cx="239.92" cy="151.24" r="2.21"/>
<circle fill="#c4865f" cx="228.49" cy="157.47" r="2.18"/>
<circle fill="#c4865f" cx="235.11" cy="157.54" r="2.21"/>
<path fill="#ffffff" d="
  M 249.17 163.67
  L 247.03 161.53
  A 1.04 1.03 28.7 0 1 246.75 160.58
  Q 246.89 160.00 247.41 159.80
  Q 248.18 159.51 248.72 160.13
  L 252.43 164.36
  Q 253.50 165.58 251.94 166.03
  L 243.22 168.53
  Q 242.06 168.86 241.29 167.92
  L 241.10 167.69
  Q 240.35 166.78 241.49 166.48
  L 248.94 164.52
  Q 249.80 164.30 249.17 163.67
  Z"
/>
<path fill="#fe486c" d="
  M 186.53 191.06
  L 186.43 191.43
  Q 186.34 191.77 186.69 191.84
  Q 187.03 191.90 187.33 191.70
  Q 188.23 191.12 189.17 190.70
  Q 190.02 190.31 190.97 190.34
  Q 193.51 190.39 195.76 190.23
  Q 196.28 190.19 196.56 190.62
  Q 196.94 191.21 197.59 191.46
  Q 199.22 192.11 200.06 193.50
  Q 200.44 194.13 201.18 194.18
  Q 202.44 194.27 202.93 195.44
  A 1.72 1.68 7.4 0 0 203.49 196.15
  L 208.91 200.01
  Q 209.26 200.26 209.37 200.68
  Q 209.45 200.94 209.38 201.18
  Q 209.17 201.95 209.87 201.57
  Q 210.36 201.31 210.89 201.28
  Q 211.53 201.24 212.02 201.66
  Q 212.89 202.40 213.94 202.72
  Q 214.57 202.91 214.88 203.49
  Q 215.78 205.17 217.94 205.76
  A 2.23 2.21 -10.6 0 1 219.15 206.58
  Q 219.97 207.65 221.23 208.24
  C 222.05 208.62 222.47 209.15 223.08 209.79
  Q 223.42 210.14 223.89 210.01
  Q 224.50 209.83 225.14 210.20
  Q 225.68 210.50 225.28 210.97
  Q 225.12 211.16 225.54 211.37
  Q 225.82 211.51 226.12 211.57
  Q 227.25 211.79 227.87 212.86
  Q 228.01 213.11 228.30 213.10
  Q 228.73 213.10 229.15 213.09
  Q 229.66 213.08 229.27 213.41
  Q 229.17 213.50 229.31 213.64
  Q 229.35 213.68 229.40 213.67
  Q 230.19 213.39 230.84 213.87
  Q 217.87 221.35 211.89 235.02
  Q 210.81 237.47 211.95 240.06
  C 215.15 247.31 220.58 252.57 227.58 256.27
  C 232.31 258.77 235.61 262.83 237.74 267.92
  Q 239.31 271.69 242.66 270.56
  C 245.20 269.71 245.56 267.28 246.54 265.14
  Q 247.89 262.18 251.22 260.14
  Q 256.16 257.12 260.45 256.10
  Q 272.21 253.31 280.49 244.94
  Q 281.04 245.66 279.74 246.42
  Q 278.86 246.94 279.79 247.39
  Q 280.03 247.50 279.85 247.70
  Q 279.20 248.42 280.15 248.70
  Q 281.83 249.18 282.81 250.48
  Q 283.12 250.89 283.58 250.68
  Q 284.15 250.44 284.54 250.95
  Q 284.58 251.01 284.65 251.04
  Q 284.79 251.11 284.80 250.86
  A 0.08 0.08 0.0 0 1 284.93 250.81
  Q 286.66 252.21 288.27 253.67
  C 290.14 255.37 292.87 255.65 294.51 257.66
  Q 295.21 258.51 296.23 258.35
  Q 296.67 258.28 296.86 258.68
  Q 297.72 260.58 299.59 260.43
  Q 300.19 260.38 300.55 260.87
  L 302.62 263.75
  Q 297.37 288.40 281.09 307.58
  Q 280.21 307.08 279.66 306.74
  Q 279.53 306.66 279.41 306.70
  Q 279.13 306.80 279.32 307.03
  A 0.04 0.03 -2.7 0 1 279.27 307.08
  Q 277.27 306.18 274.98 305.19
  Q 273.18 304.42 271.40 303.18
  Q 269.02 301.52 265.97 299.79
  Q 263.46 298.36 260.24 295.21
  Q 258.41 293.42 255.61 292.77
  Q 254.67 292.56 253.94 292.00
  Q 253.22 291.44 252.40 290.98
  Q 251.25 290.32 250.01 290.07
  Q 248.69 289.81 247.43 289.30
  C 245.70 288.61 243.83 288.98 241.98 288.71
  Q 241.43 288.63 241.83 288.28
  Q 241.98 288.15 241.82 287.83
  A 0.34 0.34 0.0 0 0 241.43 287.65
  Q 241.03 287.77 241.07 288.11
  Q 241.13 288.68 240.65 288.35
  Q 240.06 287.94 239.50 288.30
  Q 239.28 288.43 239.36 288.18
  Q 239.40 288.05 239.35 287.92
  Q 239.33 287.86 239.00 287.83
  L 236.76 287.63
  Q 236.42 287.60 236.20 287.34
  Q 235.79 286.85 235.21 287.05
  Q 234.74 287.21 234.37 286.89
  Q 233.15 285.85 232.19 284.76
  Q 231.99 284.53 231.71 284.65
  Q 231.43 284.77 231.41 284.46
  Q 231.33 283.10 229.87 282.71
  Q 229.41 282.58 229.36 282.11
  Q 229.18 280.58 227.73 281.03
  Q 227.40 281.13 227.35 280.80
  Q 227.25 280.11 226.66 279.82
  Q 226.21 279.61 225.84 279.27
  Q 224.72 278.26 223.86 277.20
  Q 223.57 276.84 223.10 276.86
  Q 221.79 276.92 221.38 275.64
  Q 221.24 275.20 220.89 274.88
  Q 217.76 272.02 214.24 269.64
  Q 213.48 269.13 212.53 267.60
  Q 212.39 267.37 212.18 267.21
  Q 211.99 267.07 211.76 267.13
  Q 211.21 267.28 210.87 266.82
  Q 210.16 265.83 209.05 265.38
  Q 208.80 265.28 208.81 265.01
  Q 208.89 263.84 207.66 263.92
  Q 207.15 263.95 206.81 263.57
  L 204.08 260.54
  Q 203.71 260.13 203.15 260.13
  L 202.66 260.13
  Q 202.20 260.13 201.90 259.79
  Q 200.36 258.07 198.53 259.48
  Q 198.36 259.61 198.16 259.64
  Q 198.02 259.67 197.90 259.62
  Q 197.46 259.44 197.84 259.16
  Q 198.08 258.99 198.35 258.90
  Q 199.05 258.67 198.57 258.12
  Q 196.44 255.61 193.26 255.03
  Q 192.53 254.90 191.92 254.62
  Q 191.09 254.22 190.19 254.17
  A 0.11 0.11 0.0 0 1 190.10 254.02
  Q 190.20 253.77 190.03 253.57
  Q 189.77 253.29 189.40 253.34
  Q 188.27 253.51 187.20 253.28
  Q 186.46 253.11 186.92 252.51
  Q 188.00 251.10 187.48 249.28
  L 196.91 237.43
  Q 197.22 237.05 197.05 236.58
  C 191.70 222.31 179.37 212.37 164.71 208.92
  C 150.45 205.56 136.70 207.13 125.31 216.67
  Q 125.61 215.95 126.55 215.02
  Q 126.89 214.69 127.35 214.64
  Q 127.90 214.58 127.89 214.01
  A 0.39 0.39 0.0 0 1 128.14 213.63
  Q 128.28 213.59 128.42 213.63
  Q 128.83 213.76 129.01 213.36
  Q 129.17 213.00 129.18 212.58
  Q 129.19 211.80 128.74 212.45
  Q 128.24 213.18 127.25 213.31
  Q 126.62 213.40 126.82 212.79
  Q 127.30 211.36 125.92 210.92
  Q 125.51 210.78 125.16 210.52
  Q 123.58 209.33 121.75 208.94
  Q 121.62 208.91 121.61 208.78
  Q 121.61 208.73 121.61 208.68
  Q 121.68 207.94 121.09 208.33
  Q 120.71 208.58 120.47 208.04
  A 0.84 0.84 0.0 0 0 119.53 207.55
  Q 118.64 207.73 118.59 207.04
  A 0.48 0.47 -81.3 0 0 118.30 206.63
  Q 118.06 206.52 117.92 206.67
  Q 117.45 207.16 117.40 206.48
  Q 117.34 205.46 116.92 204.55
  Q 116.54 203.76 116.41 204.63
  Q 116.39 204.78 116.32 204.91
  Q 116.19 205.18 115.92 205.05
  Q 115.45 204.81 115.20 204.38
  Q 114.74 203.58 114.10 204.24
  Q 113.70 204.65 113.85 205.17
  Q 113.88 205.27 113.90 205.17
  Q 113.99 204.65 113.66 204.30
  Q 126.28 179.23 149.49 164.62
  A 1.72 1.72 0.0 0 1 152.13 166.04
  Q 152.41 177.25 156.44 189.14
  Q 158.85 196.21 163.34 202.21
  A 0.92 0.91 -36.3 0 0 164.62 202.40
  C 165.71 201.59 167.15 201.42 168.47 200.92
  Q 178.09 197.25 186.53 191.06
  Z
  M 230.3240 269.1618
  A 4.15 3.48 68.9 0 0 232.0767 264.0372
  A 4.15 3.48 68.9 0 0 227.3360 261.4182
  A 4.15 3.48 68.9 0 0 225.5833 266.5428
  A 4.15 3.48 68.9 0 0 230.3240 269.1618
  Z
  M 239.11 286.58
  Q 241.13 287.05 242.97 285.98
  C 248.94 282.52 245.28 275.85 241.38 272.70
  A 0.78 0.77 -42.1 0 0 240.46 272.66
  C 235.61 275.92 233.58 281.17 237.96 285.92
  A 2.22 2.20 -14.9 0 0 239.11 286.58
  Z"
/>
<path fill="#ffffff" d="
  M 253.87 169.71
  L 253.57 169.90
  A 0.76 0.76 0.0 0 0 253.44 171.07
  C 255.83 173.56 254.68 176.10 251.77 177.21
  Q 251.23 177.42 250.70 177.21
  Q 248.15 176.25 246.55 173.69
  Q 246.03 172.86 246.84 172.31
  L 247.14 172.11
  Q 247.98 171.55 248.39 172.47
  Q 248.96 173.78 250.06 174.49
  A 1.38 1.35 -39.5 0 0 251.33 174.60
  Q 252.09 174.28 252.20 173.53
  C 252.35 172.48 251.28 171.37 250.56 170.71
  Q 249.97 170.16 250.63 169.69
  L 254.03 167.29
  Q 254.63 166.87 255.10 167.41
  L 258.03 170.77
  A 0.91 0.91 0.0 0 1 257.86 172.13
  L 257.63 172.29
  Q 256.85 172.82 256.26 172.08
  L 254.41 169.80
  A 0.41 0.41 0.0 0 0 253.87 169.71
  Z"
/>
<path fill="#ffffff" d="
  M 259.71 176.92
  Q 257.60 176.51 259.32 177.80
  Q 262.13 179.91 260.58 182.13
  C 256.90 187.41 250.27 181.11 254.74 176.90
  Q 259.17 172.72 263.77 177.07
  A 0.83 0.83 0.0 0 1 263.87 178.17
  Q 263.61 178.53 263.21 178.71
  Q 262.66 178.97 262.26 178.51
  Q 261.16 177.21 259.71 176.92
  Z
  M 255.9382 181.5119
  A 1.68 1.45 129.2 0 0 258.1237 181.1264
  A 1.68 1.45 129.2 0 0 258.0618 178.9081
  A 1.68 1.45 129.2 0 0 255.8763 179.2936
  A 1.68 1.45 129.2 0 0 255.9382 181.5119
  Z"
/>
<ellipse fill="#e4aa8a" cx="0.00" cy="0.00" transform="translate(257.00,180.21) rotate(129.2)" rx="1.68" ry="1.45"/>
<circle fill="#c4865f" cx="269.74" cy="187.16" r="2.19"/>
<circle fill="#c4865f" cx="276.35" cy="187.28" r="2.19"/>
<circle fill="#c4865f" cx="264.94" cy="193.46" r="2.19"/>
<circle fill="#c4865f" cx="272.97" cy="193.59" r="2.19"/>
<circle fill="#c4865f" cx="280.96" cy="193.71" r="2.22"/>
<circle fill="#c4865f" cx="269.55" cy="199.95" r="2.20"/>
<circle fill="#c4865f" cx="276.16" cy="200.05" r="2.22"/>
<path fill="#fe5963" d="
  M 125.31 216.67
  Q 122.65 219.27 120.59 222.21
  C 119.22 224.16 119.51 226.05 119.88 228.21
  Q 122.47 243.44 135.91 251.28
  Q 139.60 253.43 142.78 255.58
  Q 150.15 260.54 158.24 262.07
  C 167.12 263.75 159.65 272.14 164.94 275.08
  Q 165.47 275.38 166.04 275.14
  Q 167.80 274.40 168.17 272.69
  Q 168.90 269.27 169.98 265.55
  Q 171.06 261.80 172.73 260.93
  Q 181.07 256.54 187.48 249.28
  Q 188.00 251.10 186.92 252.51
  Q 186.46 253.11 187.20 253.28
  Q 188.27 253.51 189.40 253.34
  Q 189.77 253.29 190.03 253.57
  Q 190.20 253.77 190.10 254.02
  A 0.11 0.11 0.0 0 0 190.19 254.17
  Q 191.09 254.22 191.92 254.62
  Q 192.53 254.90 193.26 255.03
  Q 196.44 255.61 198.57 258.12
  Q 199.05 258.67 198.35 258.90
  Q 198.08 258.99 197.84 259.16
  Q 197.46 259.44 197.90 259.62
  Q 198.02 259.67 198.16 259.64
  Q 198.36 259.61 198.53 259.48
  Q 200.36 258.07 201.90 259.79
  Q 202.20 260.13 202.66 260.13
  L 203.15 260.13
  Q 203.71 260.13 204.08 260.54
  L 206.81 263.57
  Q 207.15 263.95 207.66 263.92
  Q 208.89 263.84 208.81 265.01
  Q 208.80 265.28 209.05 265.38
  Q 210.16 265.83 210.87 266.82
  Q 211.21 267.28 211.76 267.13
  Q 211.99 267.07 212.18 267.21
  Q 212.39 267.37 212.53 267.60
  Q 213.48 269.13 214.24 269.64
  Q 217.76 272.02 220.89 274.88
  Q 221.24 275.20 221.38 275.64
  Q 221.79 276.92 223.10 276.86
  Q 223.57 276.84 223.86 277.20
  Q 224.72 278.26 225.84 279.27
  Q 226.21 279.61 226.66 279.82
  Q 227.25 280.11 227.35 280.80
  Q 227.40 281.13 227.73 281.03
  Q 229.18 280.58 229.36 282.11
  Q 229.41 282.58 229.87 282.71
  Q 231.33 283.10 231.41 284.46
  Q 231.43 284.77 231.71 284.65
  Q 231.99 284.53 232.19 284.76
  Q 233.15 285.85 234.37 286.89
  Q 234.74 287.21 235.21 287.05
  Q 235.79 286.85 236.20 287.34
  Q 236.42 287.60 236.76 287.63
  L 239.00 287.83
  Q 239.33 287.86 239.35 287.92
  Q 239.40 288.05 239.36 288.18
  Q 239.28 288.43 239.50 288.30
  Q 240.06 287.94 240.65 288.35
  Q 241.13 288.68 241.07 288.11
  Q 241.03 287.77 241.43 287.65
  A 0.34 0.34 0.0 0 1 241.82 287.83
  Q 241.98 288.15 241.83 288.28
  Q 241.43 288.63 241.98 288.71
  C 243.83 288.98 245.70 288.61 247.43 289.30
  Q 248.69 289.81 250.01 290.07
  Q 251.25 290.32 252.40 290.98
  Q 253.22 291.44 253.94 292.00
  Q 254.67 292.56 255.61 292.77
  Q 258.41 293.42 260.24 295.21
  Q 263.46 298.36 265.97 299.79
  Q 269.02 301.52 271.40 303.18
  Q 273.18 304.42 274.98 305.19
  Q 277.27 306.18 279.27 307.08
  A 0.04 0.03 -2.7 0 0 279.32 307.03
  Q 279.13 306.80 279.41 306.70
  Q 279.53 306.66 279.66 306.74
  Q 280.21 307.08 281.09 307.58
  Q 265.47 325.72 243.28 334.71
  Q 242.43 334.43 241.32 334.77
  Q 240.77 334.94 240.65 334.37
  Q 240.26 332.49 238.40 332.12
  Q 237.80 331.99 237.37 331.55
  Q 236.44 330.60 235.20 330.51
  Q 234.66 330.47 234.23 330.15
  Q 232.35 328.77 230.08 328.02
  Q 225.41 326.48 221.06 322.51
  Q 219.47 321.05 217.13 320.18
  Q 215.33 319.51 213.54 318.60
  Q 210.73 317.18 207.65 316.36
  Q 207.16 316.23 206.86 315.82
  C 206.21 314.95 206.15 313.73 204.81 313.44
  Q 204.36 313.34 204.36 312.88
  Q 204.36 312.73 204.27 312.62
  Q 204.09 312.40 203.85 312.27
  Q 199.40 309.98 195.62 306.99
  Q 194.41 306.03 193.08 305.30
  Q 191.74 304.56 190.50 303.78
  Q 190.37 303.70 190.21 303.69
  Q 189.90 303.68 189.95 303.86
  Q 190.12 304.53 189.56 304.12
  Q 187.40 302.57 185.08 301.29
  Q 183.01 300.14 181.11 298.41
  Q 178.98 296.46 176.14 294.81
  Q 173.73 293.41 171.31 293.12
  Q 168.27 292.76 165.25 291.36
  Q 165.19 291.33 165.24 291.28
  Q 165.32 291.18 165.25 291.01
  Q 165.20 290.88 165.06 290.88
  L 161.46 290.76
  Q 161.25 290.76 161.11 290.90
  L 160.88 291.13
  Q 160.51 291.50 160.18 291.09
  Q 159.36 290.07 158.10 289.84
  A 0.28 0.27 5.0 0 1 157.87 289.57
  L 157.87 289.29
  A 0.30 0.28 13.1 0 0 157.69 289.03
  L 155.05 287.87
  Q 154.54 287.65 154.31 287.15
  L 153.62 285.65
  Q 153.37 285.12 152.78 285.14
  Q 151.93 285.17 151.13 285.11
  Q 150.24 285.04 150.86 284.41
  Q 151.12 284.15 150.87 283.83
  A 0.42 0.41 50.0 0 0 150.26 283.77
  Q 150.03 283.97 149.89 283.68
  Q 149.81 283.53 149.98 283.57
  Q 150.17 283.61 150.25 283.48
  Q 150.42 283.20 150.16 283.01
  Q 146.68 280.37 143.93 276.90
  A 1.94 1.93 70.5 0 0 142.39 276.16
  Q 141.66 276.18 141.19 275.69
  Q 140.83 275.31 140.80 274.79
  Q 140.65 271.95 137.81 271.66
  Q 137.43 271.63 137.30 271.27
  L 136.74 269.71
  Q 136.53 269.13 135.91 269.10
  Q 134.74 269.05 133.67 268.66
  Q 133.25 268.51 133.10 268.09
  L 132.64 266.83
  Q 132.44 266.26 131.84 266.12
  L 129.69 265.65
  Q 129.19 265.54 129.08 265.04
  Q 128.87 264.04 127.78 264.12
  Q 125.73 264.28 123.80 263.90
  Q 123.28 263.80 122.96 263.39
  Q 122.09 262.30 120.79 261.98
  Q 120.13 261.83 119.83 261.21
  Q 119.39 260.34 118.41 260.30
  Q 117.72 260.27 117.16 259.87
  Q 114.95 258.29 112.87 256.67
  Q 112.09 256.06 110.99 255.87
  Q 109.66 255.64 108.66 256.23
  Q 108.38 256.39 108.38 256.05
  Q 108.38 255.66 108.01 255.78
  Q 107.87 255.83 107.79 255.94
  Q 107.51 256.38 107.35 255.89
  Q 106.89 254.45 107.14 252.84
  Q 107.21 252.37 106.83 252.09
  Q 106.70 251.98 106.54 251.93
  Q 105.88 251.70 105.76 252.40
  L 105.63 253.19
  A 0.37 0.35 -1.4 0 1 105.34 253.48
  L 104.78 253.59
  A 0.28 0.28 0.0 0 1 104.45 253.24
  Q 105.08 250.80 104.94 248.33
  Q 104.92 247.92 104.58 247.67
  Q 104.13 247.34 103.56 247.80
  Q 103.25 243.01 103.39 241.24
  Q 104.90 221.58 113.66 204.30
  Q 113.99 204.65 113.90 205.17
  Q 113.88 205.27 113.85 205.17
  Q 113.70 204.65 114.10 204.24
  Q 114.74 203.58 115.20 204.38
  Q 115.45 204.81 115.92 205.05
  Q 116.19 205.18 116.32 204.91
  Q 116.39 204.78 116.41 204.63
  Q 116.54 203.76 116.92 204.55
  Q 117.34 205.46 117.40 206.48
  Q 117.45 207.16 117.92 206.67
  Q 118.06 206.52 118.30 206.63
  A 0.48 0.47 -81.3 0 1 118.59 207.04
  Q 118.64 207.73 119.53 207.55
  A 0.84 0.84 0.0 0 1 120.47 208.04
  Q 120.71 208.58 121.09 208.33
  Q 121.68 207.94 121.61 208.68
  Q 121.61 208.73 121.61 208.78
  Q 121.62 208.91 121.75 208.94
  Q 123.58 209.33 125.16 210.52
  Q 125.51 210.78 125.92 210.92
  Q 127.30 211.36 126.82 212.79
  Q 126.62 213.40 127.25 213.31
  Q 128.24 213.18 128.74 212.45
  Q 129.19 211.80 129.18 212.58
  Q 129.17 213.00 129.01 213.36
  Q 128.83 213.76 128.42 213.63
  Q 128.28 213.59 128.14 213.63
  A 0.39 0.39 0.0 0 0 127.89 214.01
  Q 127.90 214.58 127.35 214.64
  Q 126.89 214.69 126.55 215.02
  Q 125.61 215.95 125.31 216.67
  Z
  M 160.01 270.76
  A 3.20 3.20 0.0 0 0 156.81 267.56
  A 3.20 3.20 0.0 0 0 153.61 270.76
  A 3.20 3.20 0.0 0 0 156.81 273.96
  A 3.20 3.20 0.0 0 0 160.01 270.76
  Z
  M 171.28 284.54
  C 173.03 278.97 163.13 272.96 161.50 281.49
  C 160.72 285.56 162.13 289.43 167.22 288.16
  Q 170.39 287.37 171.28 284.54
  Z"
/>
<path fill="#0c102b" d="
  M 187.48 249.28
  Q 181.07 256.54 172.73 260.93
  Q 171.06 261.80 169.98 265.55
  Q 168.90 269.27 168.17 272.69
  Q 167.80 274.40 166.04 275.14
  Q 165.47 275.38 164.94 275.08
  C 159.65 272.14 167.12 263.75 158.24 262.07
  Q 150.15 260.54 142.78 255.58
  Q 139.60 253.43 135.91 251.28
  Q 122.47 243.44 119.88 228.21
  C 119.51 226.05 119.22 224.16 120.59 222.21
  Q 122.65 219.27 125.31 216.67
  C 136.70 207.13 150.45 205.56 164.71 208.92
  C 179.37 212.37 191.70 222.31 197.05 236.58
  Q 197.22 237.05 196.91 237.43
  L 187.48 249.28
  Z
  M 146.36 209.68
  C 138.74 216.01 135.97 226.22 140.17 235.34
  C 144.29 244.29 153.61 249.20 163.25 247.58
  C 177.05 245.25 185.02 230.66 179.02 217.45
  Q 178.51 216.32 177.39 215.68
  Q 164.11 208.05 147.52 209.22
  Q 146.87 209.26 146.36 209.68
  Z
  M 157.43 252.03
  C 163.38 255.41 169.94 257.49 174.60 250.68
  C 178.83 244.51 186.90 235.43 194.48 235.68
  A 0.35 0.34 -11.4 0 0 194.81 235.19
  Q 190.46 225.70 181.97 218.95
  Q 181.40 218.50 181.62 219.18
  Q 184.54 228.37 180.34 236.80
  C 175.16 247.20 163.45 251.91 152.35 248.39
  C 146.32 246.47 140.92 241.55 138.55 235.81
  Q 132.84 222.01 142.82 210.56
  Q 143.46 209.82 142.51 210.03
  Q 129.60 212.83 121.69 223.52
  A 2.11 2.06 62.4 0 0 121.28 224.88
  Q 122.42 243.08 139.64 251.49
  Q 140.16 251.75 140.67 251.49
  C 146.22 248.71 152.13 249.01 157.43 252.03
  Z
  M 156.87 253.64
  Q 150.29 249.69 142.21 252.58
  Q 141.42 252.86 142.10 253.33
  Q 150.21 259.00 158.51 260.55
  C 161.47 261.11 164.41 263.08 164.50 266.25
  Q 164.58 269.25 164.67 272.24
  Q 164.72 274.15 166.27 273.13
  A 0.95 0.91 -12.8 0 0 166.66 272.54
  C 167.63 267.11 168.42 261.11 173.95 258.34
  C 176.05 257.30 178.08 256.06 179.83 254.50
  Q 187.99 247.27 194.70 237.95
  A 0.36 0.36 0.0 0 0 194.39 237.38
  C 187.16 237.61 179.96 245.93 176.04 251.63
  C 170.88 259.13 163.86 257.83 156.87 253.64
  Z"
/>
<path fill="#0c102b" d="
  M 267.08 208.26
  L 273.84 210.63
  Q 283.10 215.39 288.16 222.83
  Q 288.53 223.37 288.48 224.88
  Q 288.09 236.28 280.49 244.94
  Q 272.21 253.31 260.45 256.10
  Q 256.16 257.12 251.22 260.14
  Q 247.89 262.18 246.54 265.14
  C 245.56 267.28 245.20 269.71 242.66 270.56
  Q 239.31 271.69 237.74 267.92
  C 235.61 262.83 232.31 258.77 227.58 256.27
  C 220.58 252.57 215.15 247.31 211.95 240.06
  Q 210.81 237.47 211.89 235.02
  Q 217.87 221.35 230.84 213.87
  Q 247.17 204.89 267.08 208.26
  Z
  M 259.60 208.99
  C 249.62 208.52 239.54 210.75 231.25 215.35
  Q 229.37 216.40 228.67 218.56
  Q 224.82 230.44 231.34 239.32
  C 240.31 251.51 259.09 250.61 267.00 237.72
  Q 270.30 232.36 270.05 225.47
  Q 269.75 217.02 262.91 210.45
  Q 261.48 209.08 259.60 208.99
  Z
  M 269.37 236.58
  Q 263.12 248.97 249.12 249.50
  Q 244.05 249.69 239.47 247.72
  C 228.15 242.85 223.31 230.81 226.62 219.18
  Q 226.80 218.54 226.28 218.96
  Q 218.10 225.47 213.79 234.56
  A 0.22 0.22 0.0 0 0 214.00 234.87
  C 219.59 234.54 223.95 240.20 226.55 244.65
  C 229.51 249.70 233.93 252.04 239.83 251.50
  C 246.29 250.91 251.94 249.06 256.69 255.06
  Q 257.03 255.49 257.56 255.36
  C 273.02 251.74 287.01 241.60 286.91 224.54
  A 1.89 1.83 -63.7 0 0 286.58 223.51
  Q 279.34 213.09 265.58 209.89
  Q 264.71 209.69 265.30 210.36
  C 272.01 217.89 273.85 227.73 269.37 236.58
  Z
  M 254.95 256.50
  Q 255.48 256.28 255.11 255.84
  C 251.22 251.20 246.77 252.27 241.64 253.09
  Q 230.75 254.85 225.26 245.69
  C 222.83 241.65 219.00 236.04 213.64 236.76
  A 0.79 0.79 0.0 0 0 212.99 237.77
  C 215.36 245.99 221.90 251.59 229.28 255.52
  C 234.24 258.15 237.17 262.84 239.51 267.96
  C 240.92 271.04 243.75 268.35 244.30 266.48
  Q 246.14 260.14 254.95 256.50
  Z"
/>
<path fill="#e4aa8a" d="
  M 231.25 215.35
  C 239.54 210.75 249.62 208.52 259.60 208.99
  Q 261.48 209.08 262.91 210.45
  Q 269.75 217.02 270.05 225.47
  Q 270.30 232.36 267.00 237.72
  C 259.09 250.61 240.31 251.51 231.34 239.32
  Q 224.82 230.44 228.67 218.56
  Q 229.37 216.40 231.25 215.35
  Z
  M 243.25 215.95
  C 239.25 215.26 231.36 217.23 231.74 222.76
  Q 232.12 228.34 237.40 229.32
  Q 238.78 237.22 247.00 238.50
  Q 252.67 239.39 257.42 234.70
  Q 261.35 238.28 263.46 234.25
  Q 265.51 230.34 260.36 229.27
  C 261.90 221.27 256.20 214.17 247.99 214.35
  Q 245.31 214.41 243.25 215.95
  Z"
/>
<path fill="#e4aa8a" d="
  M 140.17 235.34
  C 135.97 226.22 138.74 216.01 146.36 209.68
  Q 146.87 209.26 147.52 209.22
  Q 164.11 208.05 177.39 215.68
  Q 178.51 216.32 179.02 217.45
  C 185.02 230.66 177.05 245.25 163.25 247.58
  C 153.61 249.20 144.29 244.29 140.17 235.34
  Z
  M 153.74 215.91
  Q 148.96 215.14 145.42 217.59
  Q 142.30 219.75 142.34 223.36
  Q 142.40 228.27 148.43 229.24
  Q 147.95 230.10 148.16 230.51
  Q 155.19 243.83 168.25 235.39
  Q 171.81 237.28 173.60 234.55
  Q 175.80 231.19 171.45 229.21
  Q 172.78 223.02 169.02 218.74
  Q 162.69 211.53 153.74 215.91
  Z"
/>
<path fill="#ffffff" d="
  M 269.37 236.58
  C 273.85 227.73 272.01 217.89 265.30 210.36
  Q 264.71 209.69 265.58 209.89
  Q 279.34 213.09 286.58 223.51
  A 1.89 1.83 -63.7 0 1 286.91 224.54
  C 287.01 241.60 273.02 251.74 257.56 255.36
  Q 257.03 255.49 256.69 255.06
  C 251.94 249.06 246.29 250.91 239.83 251.50
  C 233.93 252.04 229.51 249.70 226.55 244.65
  C 223.95 240.20 219.59 234.54 214.00 234.87
  A 0.22 0.22 0.0 0 1 213.79 234.56
  Q 218.10 225.47 226.28 218.96
  Q 226.80 218.54 226.62 219.18
  C 223.31 230.81 228.15 242.85 239.47 247.72
  Q 244.05 249.69 249.12 249.50
  Q 263.12 248.97 269.37 236.58
  Z"
/>
<path fill="#ffffff" d="
  M 157.43 252.03
  C 152.13 249.01 146.22 248.71 140.67 251.49
  Q 140.16 251.75 139.64 251.49
  Q 122.42 243.08 121.28 224.88
  A 2.11 2.06 62.4 0 1 121.69 223.52
  Q 129.60 212.83 142.51 210.03
  Q 143.46 209.82 142.82 210.56
  Q 132.84 222.01 138.55 235.81
  C 140.92 241.55 146.32 246.47 152.35 248.39
  C 163.45 251.91 175.16 247.20 180.34 236.80
  Q 184.54 228.37 181.62 219.18
  Q 181.40 218.50 181.97 218.95
  Q 190.46 225.70 194.81 235.19
  A 0.35 0.34 -11.4 0 1 194.48 235.68
  C 186.90 235.43 178.83 244.51 174.60 250.68
  C 169.94 257.49 163.38 255.41 157.43 252.03
  Z"
/>
<path fill="#0c102b" d="
  M 171.45 229.21
  Q 164.46 229.96 168.25 235.39
  Q 155.19 243.83 148.16 230.51
  Q 147.95 230.10 148.43 229.24
  Q 154.79 228.11 157.42 223.44
  Q 160.24 218.45 153.74 215.91
  Q 162.69 211.53 169.02 218.74
  Q 172.78 223.02 171.45 229.21
  Z"
/>
<path fill="#0c102b" d="
  M 260.36 229.27
  C 257.58 228.88 255.26 232.19 257.42 234.70
  Q 252.67 239.39 247.00 238.50
  Q 238.78 237.22 237.40 229.32
  Q 244.78 228.20 247.13 223.38
  Q 249.75 218.00 243.25 215.95
  Q 245.31 214.41 247.99 214.35
  C 256.20 214.17 261.90 221.27 260.36 229.27
  Z"
/>
<path fill="#ffffff" d="
  M 153.74 215.91
  Q 160.24 218.45 157.42 223.44
  Q 154.79 228.11 148.43 229.24
  Q 142.40 228.27 142.34 223.36
  Q 142.30 219.75 145.42 217.59
  Q 148.96 215.14 153.74 215.91
  Z"
/>
<path fill="#ffffff" d="
  M 243.25 215.95
  Q 249.75 218.00 247.13 223.38
  Q 244.78 228.20 237.40 229.32
  Q 232.12 228.34 231.74 222.76
  C 231.36 217.23 239.25 215.26 243.25 215.95
  Z"
/>
<path fill="#ffffff" d="
  M 171.45 229.21
  Q 175.80 231.19 173.60 234.55
  Q 171.81 237.28 168.25 235.39
  Q 164.46 229.96 171.45 229.21
  Z"
/>
<path fill="#ffffff" d="
  M 260.36 229.27
  Q 265.51 230.34 263.46 234.25
  Q 261.35 238.28 257.42 234.70
  C 255.26 232.19 257.58 228.88 260.36 229.27
  Z"
/>
<path fill="#f58e70" d="
  M 254.95 256.50
  Q 246.14 260.14 244.30 266.48
  C 243.75 268.35 240.92 271.04 239.51 267.96
  C 237.17 262.84 234.24 258.15 229.28 255.52
  C 221.90 251.59 215.36 245.99 212.99 237.77
  A 0.79 0.79 0.0 0 1 213.64 236.76
  C 219.00 236.04 222.83 241.65 225.26 245.69
  Q 230.75 254.85 241.64 253.09
  C 246.77 252.27 251.22 251.20 255.11 255.84
  Q 255.48 256.28 254.95 256.50
  Z
  M 249.8498 256.0157
  A 2.78 1.45 10.9 0 0 247.3942 254.0662
  A 2.78 1.45 10.9 0 0 244.3902 254.9643
  A 2.78 1.45 10.9 0 0 246.8458 256.9138
  A 2.78 1.45 10.9 0 0 249.8498 256.0157
  Z"
/>
<path fill="#f58e70" d="
  M 156.87 253.64
  C 163.86 257.83 170.88 259.13 176.04 251.63
  C 179.96 245.93 187.16 237.61 194.39 237.38
  A 0.36 0.36 0.0 0 1 194.70 237.95
  Q 187.99 247.27 179.83 254.50
  C 178.08 256.06 176.05 257.30 173.95 258.34
  C 168.42 261.11 167.63 267.11 166.66 272.54
  A 0.95 0.91 -12.8 0 1 166.27 273.13
  Q 164.72 274.15 164.67 272.24
  Q 164.58 269.25 164.50 266.25
  C 164.41 263.08 161.47 261.11 158.51 260.55
  Q 150.21 259.00 142.10 253.33
  Q 141.42 252.86 142.21 252.58
  Q 150.29 249.69 156.87 253.64
  Z
  M 153.5358 256.7233
  A 2.55 1.44 31.0 0 0 152.0917 254.1757
  A 2.55 1.44 31.0 0 0 149.1642 254.0967
  A 2.55 1.44 31.0 0 0 150.6083 256.6443
  A 2.55 1.44 31.0 0 0 153.5358 256.7233
  Z"
/>
<path fill="#fe645e" d="
  M 243.28 334.71
  Q 231.32 339.51 218.47 341.10
  Q 211.79 341.92 205.25 342.42
  Q 202.64 342.62 200.39 342.39
  Q 197.77 342.13 195.16 341.91
  Q 173.08 340.07 157.73 332.74
  Q 121.88 315.60 109.24 277.73
  Q 106.20 268.61 104.68 258.11
  C 104.46 256.58 104.77 254.82 104.22 253.42
  C 103.53 251.66 103.68 249.65 103.56 247.80
  Q 104.13 247.34 104.58 247.67
  Q 104.92 247.92 104.94 248.33
  Q 105.08 250.80 104.45 253.24
  A 0.28 0.28 0.0 0 0 104.78 253.59
  L 105.34 253.48
  A 0.37 0.35 -1.4 0 0 105.63 253.19
  L 105.76 252.40
  Q 105.88 251.70 106.54 251.93
  Q 106.70 251.98 106.83 252.09
  Q 107.21 252.37 107.14 252.84
  Q 106.89 254.45 107.35 255.89
  Q 107.51 256.38 107.79 255.94
  Q 107.87 255.83 108.01 255.78
  Q 108.38 255.66 108.38 256.05
  Q 108.38 256.39 108.66 256.23
  Q 109.66 255.64 110.99 255.87
  Q 112.09 256.06 112.87 256.67
  Q 114.95 258.29 117.16 259.87
  Q 117.72 260.27 118.41 260.30
  Q 119.39 260.34 119.83 261.21
  Q 120.13 261.83 120.79 261.98
  Q 122.09 262.30 122.96 263.39
  Q 123.28 263.80 123.80 263.90
  Q 125.73 264.28 127.78 264.12
  Q 128.87 264.04 129.08 265.04
  Q 129.19 265.54 129.69 265.65
  L 131.84 266.12
  Q 132.44 266.26 132.64 266.83
  L 133.10 268.09
  Q 133.25 268.51 133.67 268.66
  Q 134.74 269.05 135.91 269.10
  Q 136.53 269.13 136.74 269.71
  L 137.30 271.27
  Q 137.43 271.63 137.81 271.66
  Q 140.65 271.95 140.80 274.79
  Q 140.83 275.31 141.19 275.69
  Q 141.66 276.18 142.39 276.16
  A 1.94 1.93 70.5 0 1 143.93 276.90
  Q 146.68 280.37 150.16 283.01
  Q 150.42 283.20 150.25 283.48
  Q 150.17 283.61 149.98 283.57
  Q 149.81 283.53 149.89 283.68
  Q 150.03 283.97 150.26 283.77
  A 0.42 0.41 50.0 0 1 150.87 283.83
  Q 151.12 284.15 150.86 284.41
  Q 150.24 285.04 151.13 285.11
  Q 151.93 285.17 152.78 285.14
  Q 153.37 285.12 153.62 285.65
  L 154.31 287.15
  Q 154.54 287.65 155.05 287.87
  L 157.69 289.03
  A 0.30 0.28 13.1 0 1 157.87 289.29
  L 157.87 289.57
  A 0.28 0.27 5.0 0 0 158.10 289.84
  Q 159.36 290.07 160.18 291.09
  Q 160.51 291.50 160.88 291.13
  L 161.11 290.90
  Q 161.25 290.76 161.46 290.76
  L 165.06 290.88
  Q 165.20 290.88 165.25 291.01
  Q 165.32 291.18 165.24 291.28
  Q 165.19 291.33 165.25 291.36
  Q 168.27 292.76 171.31 293.12
  Q 173.73 293.41 176.14 294.81
  Q 178.98 296.46 181.11 298.41
  Q 183.01 300.14 185.08 301.29
  Q 187.40 302.57 189.56 304.12
  Q 190.12 304.53 189.95 303.86
  Q 189.90 303.68 190.21 303.69
  Q 190.37 303.70 190.50 303.78
  Q 191.74 304.56 193.08 305.30
  Q 194.41 306.03 195.62 306.99
  Q 199.40 309.98 203.85 312.27
  Q 204.09 312.40 204.27 312.62
  Q 204.36 312.73 204.36 312.88
  Q 204.36 313.34 204.81 313.44
  C 206.15 313.73 206.21 314.95 206.86 315.82
  Q 207.16 316.23 207.65 316.36
  Q 210.73 317.18 213.54 318.60
  Q 215.33 319.51 217.13 320.18
  Q 219.47 321.05 221.06 322.51
  Q 225.41 326.48 230.08 328.02
  Q 232.35 328.77 234.23 330.15
  Q 234.66 330.47 235.20 330.51
  Q 236.44 330.60 237.37 331.55
  Q 237.80 331.99 238.40 332.12
  Q 240.26 332.49 240.65 334.37
  Q 240.77 334.94 241.32 334.77
  Q 242.43 334.43 243.28 334.71
  Z"
/>
<ellipse fill="#ffffff" cx="0.00" cy="0.00" transform="translate(151.35,255.41) rotate(31.0)" rx="2.55" ry="1.44"/>
<ellipse fill="#ffffff" cx="0.00" cy="0.00" transform="translate(247.12,255.49) rotate(10.9)" rx="2.78" ry="1.45"/>
<path fill="#0c102b" d="
  M 230.3240 269.1618
  A 4.15 3.48 68.9 0 1 225.5833 266.5428
  A 4.15 3.48 68.9 0 1 227.3360 261.4182
  A 4.15 3.48 68.9 0 1 232.0767 264.0372
  A 4.15 3.48 68.9 0 1 230.3240 269.1618
  Z
  M 229.7802 267.6614
  A 2.59 1.93 68.0 0 0 230.5995 264.5370
  A 2.59 1.93 68.0 0 0 227.8398 262.8586
  A 2.59 1.93 68.0 0 0 227.0205 265.9830
  A 2.59 1.93 68.0 0 0 229.7802 267.6614
  Z"
/>
<ellipse fill="#f58e70" cx="0.00" cy="0.00" transform="translate(228.81,265.26) rotate(68.0)" rx="2.59" ry="1.93"/>
<path fill="#0c102b" d="
  M 160.01 270.76
  A 3.20 3.20 0.0 0 1 156.81 273.96
  A 3.20 3.20 0.0 0 1 153.61 270.76
  A 3.20 3.20 0.0 0 1 156.81 267.56
  A 3.20 3.20 0.0 0 1 160.01 270.76
  Z
  M 157.9081 272.1906
  A 1.80 1.55 51.6 0 0 158.0047 269.8172
  A 1.80 1.55 51.6 0 0 155.6719 269.3694
  A 1.80 1.55 51.6 0 0 155.5753 271.7428
  A 1.80 1.55 51.6 0 0 157.9081 272.1906
  Z"
/>
<ellipse fill="#f58e70" cx="0.00" cy="0.00" transform="translate(156.79,270.78) rotate(51.6)" rx="1.80" ry="1.55"/>
<path fill="#0c102b" d="
  M 239.11 286.58
  A 2.22 2.20 -14.9 0 1 237.96 285.92
  C 233.58 281.17 235.61 275.92 240.46 272.66
  A 0.78 0.77 -42.1 0 1 241.38 272.70
  C 245.28 275.85 248.94 282.52 242.97 285.98
  Q 241.13 287.05 239.11 286.58
  Z
  M 240.43 274.46
  C 237.19 277.04 235.92 281.05 238.68 284.50
  A 1.55 1.53 73.6 0 0 239.71 285.07
  C 242.93 285.42 245.48 282.60 244.31 279.41
  Q 243.28 276.58 241.21 274.51
  Q 240.84 274.14 240.43 274.46
  Z"
/>
<path fill="#f58e70" d="
  M 238.68 284.50
  C 235.92 281.05 237.19 277.04 240.43 274.46
  Q 240.84 274.14 241.21 274.51
  Q 243.28 276.58 244.31 279.41
  C 245.48 282.60 242.93 285.42 239.71 285.07
  A 1.55 1.53 73.6 0 1 238.68 284.50
  Z"
/>
<path fill="#0c102b" d="
  M 171.28 284.54
  Q 170.39 287.37 167.22 288.16
  C 162.13 289.43 160.72 285.56 161.50 281.49
  C 163.13 272.96 173.03 278.97 171.28 284.54
  Z
  M 166.42 278.85
  A 2.21 2.19 -66.7 0 0 163.75 279.92
  Q 162.51 282.31 163.13 285.43
  A 1.59 1.58 -89.2 0 0 164.33 286.67
  C 170.48 288.08 171.91 280.75 166.42 278.85
  Z"
/>
<path fill="#f58e70" d="
  M 166.42 278.85
  C 171.91 280.75 170.48 288.08 164.33 286.67
  A 1.59 1.58 -89.2 0 1 163.13 285.43
  Q 162.51 282.31 163.75 279.92
  A 2.21 2.19 -66.7 0 1 166.42 278.85
  Z"
/>
</svg>
