<svg width="42" height="47" viewBox="0 0 42 47" fill="none" xmlns="http://www.w3.org/2000/svg">
<path d="M25.6895 0.462402H38.3018C39.282 0.462402 40.2221 0.951306 40.9156 1.82168C41.6091 2.69206 41.9991 3.8727 42 5.10417V15.3281C41.9991 16.5595 41.6091 17.7402 40.9156 18.6106C40.2221 19.4809 39.282 19.9698 38.3018 19.9698H32.0161L26.4893 25.9427C26.3902 26.0497 26.2682 26.1175 26.1385 26.1376C26.0089 26.1578 25.8774 26.1294 25.7606 26.056C25.6438 25.9826 25.5468 25.8675 25.4818 25.7251C25.4169 25.5827 25.3869 25.4194 25.3955 25.2557L25.686 19.9698C24.707 19.9676 23.7686 19.4777 23.0766 18.6075C22.3846 17.7374 21.9955 16.5581 21.9946 15.3281V5.10417C21.9955 3.87344 22.3851 2.69345 23.0778 1.8232C23.7705 0.952946 24.7098 0.463539 25.6895 0.462402ZM9.44043 41.1433V25.041H15.21C17.6538 25.5906 20.0977 27.2567 22.5586 29.189H27.0225C29.0493 29.3435 30.0986 31.9242 28.1401 33.6203C26.5713 35.0717 24.4966 34.9858 22.3706 34.7453C20.9077 34.6552 20.8462 37.1285 22.3706 37.1371C22.9038 37.1886 23.478 37.034 23.9839 37.034C26.6328 37.034 28.8169 36.3899 30.1362 33.762L30.8198 31.7911L37.4814 27.6431C40.8174 26.2648 43.1895 30.6489 40.7285 33.6933C36.0843 37.9589 31.114 41.634 25.8911 44.6644C22.2168 47.4769 18.5391 47.3781 14.8647 44.6644L9.43701 41.1433H9.44043ZM0 23.4909H7.7041V42.7621H0V23.4909ZM27.4907 14.422C27.2541 14.422 27.0272 14.304 26.8599 14.0938C26.6926 13.8836 26.5986 13.5986 26.5986 13.3013C26.5986 13.0041 26.6926 12.719 26.8599 12.5089C27.0272 12.2987 27.2541 12.1806 27.4907 12.1806H33.9268C34.1634 12.1806 34.3903 12.2987 34.5576 12.5089C34.7249 12.719 34.8188 13.0041 34.8188 13.3013C34.8188 13.5986 34.7249 13.8836 34.5576 14.0938C34.3903 14.304 34.1634 14.422 33.9268 14.422H27.4907ZM27.4907 8.68532C27.3687 8.69481 27.2464 8.6728 27.1314 8.62066C27.0164 8.56852 26.9111 8.48735 26.8221 8.38216C26.733 8.27696 26.662 8.14996 26.6135 8.00899C26.565 7.86801 26.5399 7.71605 26.5399 7.56246C26.5399 7.40887 26.565 7.2569 26.6135 7.11593C26.662 6.97495 26.733 6.84795 26.8221 6.74276C26.9111 6.63756 27.0164 6.55639 27.1314 6.50425C27.2464 6.45211 27.3687 6.4301 27.4907 6.43959H36.6133C36.7353 6.4301 36.8576 6.45211 36.9726 6.50425C37.0876 6.55639 37.1929 6.63756 37.2819 6.74276C37.371 6.84795 37.442 6.97495 37.4905 7.11593C37.5391 7.2569 37.5641 7.40887 37.5641 7.56246C37.5641 7.71605 37.5391 7.86801 37.4905 8.00899C37.442 8.14996 37.371 8.27696 37.2819 8.38216C37.1929 8.48735 37.0876 8.56852 36.9726 8.62066C36.8576 8.6728 36.7353 8.69481 36.6133 8.68532H27.4907ZM38.3018 2.12846H25.6895C25.0632 2.13629 24.4643 2.45231 24.0215 3.00868C23.5786 3.56504 23.327 4.31739 23.3208 5.10417V15.3281C23.327 16.1149 23.5786 16.8672 24.0215 17.4236C24.4643 17.9799 25.0632 18.296 25.6895 18.3038H26.4414C26.6168 18.3181 26.7805 18.4193 26.8965 18.5852C27.0125 18.7511 27.0713 18.968 27.0601 19.1883L26.8276 23.3749L31.3086 18.5399C31.3718 18.4625 31.4467 18.4018 31.5289 18.3612C31.6111 18.3207 31.6989 18.3011 31.7871 18.3038H38.3188C38.9427 18.2915 39.5381 17.9735 39.9781 17.4176C40.418 16.8617 40.6677 16.1119 40.6738 15.3281V5.10417C40.6676 4.31665 40.4156 3.56367 39.972 3.00718C39.5284 2.4507 38.9286 2.13517 38.3018 2.12846Z" fill="#E0861B"/>
</svg>
