<svg width="38" height="38" viewBox="0 0 38 38" fill="none" xmlns="http://www.w3.org/2000/svg">
<path d="M6.32386 1.79282L19.0876 14.5566L31.7852 1.85896C32.0657 1.56042 32.4035 1.32161 32.7786 1.15683C33.1536 0.992048 33.558 0.904701 33.9676 0.900024C34.8446 0.900024 35.6856 1.2484 36.3058 1.86852C36.9259 2.48864 37.2743 3.32971 37.2743 4.20669C37.282 4.61209 37.2068 5.0148 37.0532 5.39009C36.8997 5.76537 36.6711 6.10533 36.3815 6.38909L23.5185 19.0867L36.3815 31.9496C36.9264 32.4828 37.246 33.2048 37.2743 33.9667C37.2743 34.8437 36.9259 35.6847 36.3058 36.3049C35.6856 36.925 34.8446 37.2734 33.9676 37.2734C33.5462 37.2908 33.1257 37.2205 32.7329 37.0668C32.3402 36.9131 31.9836 36.6794 31.686 36.3806L19.0876 23.6168L6.35693 36.3475C6.07753 36.6361 5.74376 36.8665 5.37486 37.0254C5.00596 37.1843 4.60924 37.2686 4.2076 37.2734C3.33061 37.2734 2.48955 36.925 1.86943 36.3049C1.24931 35.6847 0.900929 34.8437 0.900929 33.9667C0.893219 33.5613 0.968436 33.1586 1.12196 32.7833C1.27549 32.408 1.50409 32.0681 1.79373 31.7843L14.6567 19.0867L1.79373 6.22376C1.24874 5.69059 0.929166 4.96859 0.900929 4.20669C0.900929 3.32971 1.24931 2.48864 1.86943 1.86852C2.48955 1.2484 3.33061 0.900024 4.2076 0.900024C5.0012 0.909944 5.76173 1.23069 6.32386 1.79282Z" fill="#FC4747"/>
</svg>
