<svg width="74" height="64" viewBox="0 0 74 64" fill="none" xmlns="http://www.w3.org/2000/svg">
<path d="M12.3333 48H61.6667C63.3625 48 64.75 46.8 64.75 45.3333C64.75 43.8667 63.3625 42.6667 61.6667 42.6667H12.3333C10.6375 42.6667 9.25 43.8667 9.25 45.3333C9.25 46.8 10.6375 48 12.3333 48ZM12.3333 34.6667H61.6667C63.3625 34.6667 64.75 33.4667 64.75 32C64.75 30.5333 63.3625 29.3333 61.6667 29.3333H12.3333C10.6375 29.3333 9.25 30.5333 9.25 32C9.25 33.4667 10.6375 34.6667 12.3333 34.6667ZM9.25 18.6667C9.25 20.1333 10.6375 21.3333 12.3333 21.3333H61.6667C63.3625 21.3333 64.75 20.1333 64.75 18.6667C64.75 17.2 63.3625 16 61.6667 16H12.3333C10.6375 16 9.25 17.2 9.25 18.6667Z" fill="black"/>
</svg>
