<?xml version="1.0" encoding="UTF-8"?>
<svg id="Layer_1" data-name="Layer 1" xmlns="http://www.w3.org/2000/svg" viewBox="0 0 746.85 692.98">
  <defs>
    <style>
      .cls-1 {
        fill: #1b3557;
      }

      .cls-1, .cls-2, .cls-3 {
        stroke-width: 0px;
      }

      .cls-2 {
        fill: #ff3874;
      }

      .cls-3 {
        fill: #e20f63;
      }
    </style>
  </defs>
  <path class="cls-1" d="M374.18,67.03c7.41-8.27,15.85-16.43,25.33-24.49,5.39-4.59,11.03-8.67,16.91-12.23,14.83-8.98,29.68-15.71,44.54-20.2,7.87-2.38,15.75-4.46,23.65-6.25,11.91-2.7,22.95-3.26,35.06-3.72,17.63-.68,34.68,1.2,51.14,5.63,24.52,6.6,47.79,16.76,68.11,30.99,16.93,11.86,33.21,25.19,45.96,40.57,11.01,13.29,20.49,27.27,28.44,41.94,3.66,6.75,7.71,14.79,12.16,24.12,1.29,2.71,3.48,8.5,6.59,17.37,2.18,6.24,4,11.95,5.45,17.14,7.9,28.15,10.78,56.57,8.64,85.26-.85,11.37-2.52,23.59-4.99,36.68-2.41,12.69-6.55,27.08-12.42,43.17-11.16,30.57-26.66,58.61-46.49,84.14-12.71,16.37-24.23,30.17-34.57,41.41-10.29,11.19-20.78,22.61-31.59,33.06-20.78,20.08-42.17,39.53-64.17,58.36-4.97,4.25-9.95,8.62-14.95,13.11-27.27,24.46-55.53,47.3-83.71,71.09-14.85,12.54-30.73,25.24-45.31,36.5-5.18,3.99-11.61,8.25-17.77,10.09-12.49,3.73-24.08,2.74-34.77-2.96-3.9-2.07-8.55-5.22-13.95-9.43-17.51-13.68-38.61-31.08-63.3-52.2-9.35-7.99-23.6-19.29-35.14-29.23-32.29-27.8-64.14-56.5-95.76-84.9-13.51-12.13-27.09-24.93-40.72-38.38-4.96-4.89-9.58-9.69-13.87-14.4-12.77-14.02-24.73-28.42-35.89-43.19-4.02-5.32-7.77-10.81-11.24-16.47-9-14.65-16.69-29.45-23.06-44.4-11.42-26.81-18.56-54.49-21.41-83.05-1.42-14.21-1.44-30.85-.07-49.92,1.45-20.28,6.13-41.61,14.04-63.99,6.59-18.65,15.52-36.83,26.79-54.54,3.77-5.92,7.6-11.35,11.5-16.28,14.39-18.21,30.84-34.09,49.34-47.63,16.11-11.79,33.02-20.77,50.72-26.96,6.52-2.27,13.82-4.48,21.91-6.61,6.66-1.75,13.16-3.08,19.49-3.99,17.23-2.45,34.42-2.83,51.58-1.12,6.75.67,13.25,1.78,19.48,3.31,26.09,6.42,51.36,16.46,73.35,32.13,11.37,8.11,21.19,16.96,29.44,26.57,1.4,1.63,2.95,2.97,4.64,4.03.33.21.63.16.89-.13ZM497.57,62.32c-3.96-1.14-8.06-.89-12.3.75-7.77,3.01-12.08,8.62-12.92,16.84-.39,3.85.31,7.65,2.1,11.4,3.24,6.79,10.61,10.61,17.73,11.07,7.66.51,15.48-5.02,18.76-11.6.97-1.96,1.77-4.04,2.4-6.24.23-.82.67-1.57,1.27-2.17,9.33-9.33,18.53-18.49,27.61-27.47,4.56-4.51,6.28-11.29,2.72-16.87-2.71-4.22-6.56-6.18-11.56-5.89-6.84.4-10.84,6.72-15.37,10.95-6.79,6.33-13.23,12.65-19.34,18.94-.31.31-.67.41-1.1.29ZM33.08,246.32c-.23,14.14.98,28.13,3.64,41.97,2.35,12.25,5.1,22.73,8.27,31.43,4.87,13.37,8.59,22.83,11.18,28.36,10.01,21.43,23.02,41.7,39.05,60.83,14.5,17.31,29.04,32.49,44.35,47.36,15.8,15.33,31.63,30.37,47.5,45.11,4.43,4.12,9.41,8.56,14.94,13.31,12.95,11.12,22.92,20.53,37.67,33,18.81,15.89,38.11,32.21,57.9,48.98,14.96,12.68,30.2,25.12,45.02,37.87,2.88,2.48,5.71,4.81,8.5,7,2.83,2.22,5.75,4.48,8.76,6.79.24,1.61,1.04,2.77,2.4,3.5,5.24,2.82,11.48,3.41,18.73,1.77,1.78-.4,3.97-2.22,3.99-4.11.19-19.23.53-38.39.51-57.57-.08-72.4-.12-141.69-.13-207.88v-132.75c0-44.46.02-87.63.04-129.5,0-5.18-2.52-7.92-7.59-8.23-4.49-.27-8.21-.16-11.14.34-1.21.21-3.25,1.02-6.1,2.44-2.21-6.13-5.19-11.93-8.92-17.39-15.35-22.46-35.61-39.46-60.78-50.99-10.16-4.65-19.66-8.05-28.5-10.18-14.64-3.53-30.44-5.1-47.39-4.71-31.32.73-62.79,11.27-88.08,28.74-19.99,13.81-36.99,30.49-50.99,50.06-7.63,10.66-13.55,20.08-17.76,28.26-16.9,32.8-25.26,68.2-25.07,106.19ZM490.34,157.83c3.96,0,7.97,0,12.03,0,5.93,0,11.22,1.73,15.87,5.2,1.28.96,3.7,3.32,7.25,7.07,6.87,7.25,15.46,11.84,25.78,13.78,2.36.44,5.4.7,9.12.77,4.68.09,7.73.06,9.16-.1,12.87-1.39,23.82-6.67,32.85-15.84,4.08-4.13,7.14-9.79,9.64-15.22,3.32-7.22,9.73-11.24,17.87-11.38,11.85-.2,23.33-.25,34.43-.16,11.03.09,20.04-12.16,10.37-20.82-2.45-2.2-6.35-3.72-9.67-3.78-10-.18-21.34-.18-34.03,0-15.64.22-28.28,6.48-37.93,18.79-1.59,2.03-3.11,4.64-4.56,7.81-3.38,7.42-8.55,12.35-16.21,15.04-4.2,1.48-9.04.82-13.38,1.01-7.68.32-15.19-6.03-19.59-11.6-7.5-9.49-21.79-14.82-32.85-15.02-13.91-.26-34.29-.35-61.14-.27-1.7,0-3.4-.02-5.1-.09-.33-.01-.5-.18-.49-.51.41-26.97.39-53.56-.04-79.77,0-.29-.25-.53-.53-.52-.12,0-.24.04-.33.12l-23.44,19.62c-.26.22-.41.55-.41.89.09,25.79.07,51.96-.05,78.49-.02,3.62,1.72,6.34,5.73,6.39,10.74.12,21.46.14,32.15.05,1.33-.01,2.37.47,3.12,1.44,4.9,6.34,9.39,12.4,13.48,18.19.62.88,1.01,2.09.95,3.16-.41,6.47,1.92,12.42,7.84,15.14,8.45,3.87,18.52-1.53,18.84-10.89.08-2.37-.75-5.79-2.48-10.26-2.01-5.19-3.64-10.51-4.87-15.96-.11-.51.09-.77.62-.77ZM613.97,83.92c0-11.09-8.99-20.08-20.08-20.08-11.09,0-20.08,8.99-20.08,20.08h0c0,11.09,8.99,20.08,20.08,20.08h0c11.09,0,20.08-8.99,20.08-20.08ZM541.67,116.99c7.44,1.06,14.34-4.22,15.42-11.8,1.08-7.57-4.08-14.57-11.51-15.63h0c-7.44-1.06-14.34,4.22-15.42,11.8-1.08,7.57,4.08,14.57,11.51,15.63h0ZM639.14,335.11c4.67,2.14,10.61,3.4,17.8,3.78,13.54.73,25.11-3.64,34.7-13.11,8.4-8.29,14.36-18.79,17.88-31.48,2.93-10.57,4.45-21.13,4.55-31.7.1-9.64.1-19.8-.01-30.47-.24-23.54-12.01-46.82-34.5-56.24-3.08-1.29-6.76-2.23-11.05-2.82-4.5-.62-8.64-.65-12.41-.1-11.43,1.67-21.1,6.74-29,15.23-8.97,9.65-12.93,21.2-14.69,34.29-1.19,8.82-6.45,19.28-15.95,21.86-3.17.85-6.45,1.68-9.84,2.48-7.34,1.72-13.7,5.39-19.07,11.02-4.51,4.72-7.81,10.31-12.18,15.22-1.75,1.97-3.58,3.86-5.51,5.68-.65.62-1.51.96-2.41.97-8.88.1-17.63.08-26.24-.07-7.57-.12-13.18.42-16.81,1.62-7.17,2.37-12.87,6.73-17.12,13.09-3.99,5.97-3.62,12.48-11.22,15.66-1.43.6-3.06.89-4.91.88-17.37-.15-34.52-.1-51.44.15-2.62.04-4.72,2.19-4.7,4.81.04,4.08.01,8.41-.08,12.98-.1,4.48,2.67,7.25,6.99,7.24,14.64-.01,30.25-.02,46.83-.02,16.36-.01,30.1-7.46,37.01-22.86,1.91-4.25,5.58-8.97,10.68-8.97,26.61.02,55.03-.06,85.26-.25,6.02-.04,11.8,3.41,14.8,8.82,5.49,9.88,12.45,17.64,22.64,22.31ZM428.49,221.17c7.53-.43,13.28-7.02,12.83-14.7h0c-.44-7.69-6.91-13.56-14.44-13.13-7.53.43-13.28,7.02-12.83,14.7s6.91,13.56,14.44,13.13ZM505.38,222.82c-4.55.03-8.99.14-13.31.32-11.28.47-20.44,5.03-27.49,13.69-4.53,5.57-10.42,15.41-18.53,15.42-7.69,0-15.69.04-24,.11-4.89.04-7.18,2.66-7.07,7.3.07,3.49.09,6.73.04,9.73-.08,4.62,3.47,6.82,7.72,6.8,7.86-.03,15.72-.04,23.59-.02,12.35.03,22.72-5.03,31.12-15.2,4.84-5.86,7.92-12.74,16.93-12.78,4.58-.03,9.24.01,13.98.12.76.01,2.11.34,2.76.7,3.44,1.91,6.51,3.14,9.2,3.71,8.72,1.85,15.76-.42,21.11-6.81,3.85-4.59,5.42-9.76,4.72-15.53-.99-8.11-5.3-13.81-12.93-17.12-8.03-3.48-16.88-.97-23.19,4.88-1.33,1.24-2.31,2.77-3.48,4.13-.3.34-.72.54-1.17.55ZM560.61,340.11c0-11.18-9.07-20.25-20.25-20.25s-20.25,9.07-20.25,20.25,9.07,20.25,20.25,20.25,20.25-9.07,20.25-20.25ZM665.61,394.67c2-1.7,1.39-1.18,1.49-1.34,4.61-7.25,9.05-13.87,13.34-19.85.14-.2.1-.47-.09-.62-.08-.06-.18-.09-.28-.08-9.29.22-19.08.28-29.35.17-3.94-.04-7.73,1.86-10.28,4.74-2.26,2.53-3.76,5.63-6.51,7.67-6.83,5.09-17.64,5.97-23.49-1.1-4.5-5.41-4.61-12.1-4.21-18.77.34-5.65-2.05-11.09-7.05-13.49-10.48-5.04-18.77,4.34-18.39,14.35.19,4.97-.32,9.85.79,14.77,2.85,12.64,10.01,22.09,21.48,28.34,9.44,5.14,22.1,5.41,32.49,2.52,9.62-2.67,23.58-9.89,30.06-17.31M453.24,388.82c-6.32-2.45-10.28-6.53-12.25-12.69-2.25-7.03-3.66-12.63-11.17-15.63-2.15-.86-4.61-1.01-7.38-.44-5.2,1.06-7.39,6.38-7.39,11.47-.01,11.77-.01,22.67,0,32.7,0,2.69,2.19,4.87,4.88,4.86.01,0,.03,0,.04,0,7.65-.09,14.34-.1,20.07-.04,1.1.01,2.16.28,3.17.79,6.76,3.43,14.2,4.86,22.33,4.27,3.88-.28,7.55-.9,11.01-1.86,5.52-1.54,8.72-5.09,12.36-9.2,1.3-1.47,2.83-2.57,4.6-3.3,7.81-3.22,14.98-2.76,21.52,1.37,6.92,4.37,10.77,11.01,12.43,19.17,3.51,17.2,19.48,35.71,36.17,40.5,4.19,1.2,8.68,1.88,13.14,2.07,4.31.19,8.2.16,11.67-.09,6.23-.44,12.16-1.99,17.8-4.64,4.69-2.21,8.01-5.46,9.96-9.77,4.81-10.61-6.6-21.99-17.09-16.9-2.86,1.39-4.97,3.61-7.28,5.73-.76.7-1.66,1.05-2.69,1.06-4.69.01-9.47.04-14.34.09-2.15.02-4.12-.41-5.93-1.29-10.21-5-15.98-15.31-18.5-26.09-3.03-12.95-10.66-23.15-22.89-30.62-5.53-3.39-11.5-5.45-17.9-6.19-9.58-1.12-19.95-.04-28.25,4.66-4.26,2.42-7.76,5.4-11.48,8.57-4.24,3.62-12.08,3.19-16.61,1.44ZM440.51,467.77c5.08.01,10.52-.01,16.31-.07,4.73-.05,8.57.41,11.52,1.38,7.67,2.52,11.36,8.31,15.41,15.38,4.89,8.52,13.46,13.32,23.16,14.89,9.43,1.53,13.67,9.71,19.22,14.37,4.87,4.11,10.48,6.52,16.82,7.23.57.06,1.13-.09,1.59-.43,7.31-5.48,14.68-11.66,22.11-18.55.66-.61.54-.91-.36-.9-7.54.07-15.42-.05-21.94-4.12-4.18-2.61-7.19-6.98-10.54-10.56-5.33-5.71-11.72-9.25-19.17-10.61-6.38-1.17-10.23-4.79-13.85-9.94-7.56-10.78-16.63-18.36-29.78-21.45-3.89-.92-10.41-1.27-19.54-1.06-9.72.23-20,.24-30.83.02-3.69-.07-5.6,2.86-5.59,6.47.03,22.83.03,44.6-.01,65.29-.01,4.79,2.08,9.17,6.22,11.39,6.11,3.27,15.08.88,17.6-6.01.71-1.94,1.06-4.47,1.06-7.59.01-14.91.04-29.79.09-44.63,0-.33.17-.5.5-.5ZM500.51,539.78c0-11.15-9.03-20.18-20.18-20.18s-20.18,9.03-20.18,20.18h0c0,11.15,9.03,20.18,20.18,20.18h0c11.15,0,20.18-9.03,20.18-20.18ZM439.8,581.57c.04-6.94-3.7-13.98-9.82-17.25-7.04-3.76-14.84-.22-14.85,8.29,0,19.61,0,39.27.01,58.96,0,.52.21.62.62.31,8.61-6.55,16.12-14.5,23.77-22.31.24-.25.38-.59.37-.94-.11-9.06-.15-18.08-.1-27.06Z"/>
  <path class="cls-2" d="M360.57,116.34c-.51,8.57-.77,20.06-.77,34.45-.02,115.71,0,231.6.04,347.68-13.93-3.14-26.41-7.65-37.44-13.53-11.33-6.04-24.04-13.71-38.13-23.01-12.02-7.93-24.79-17.34-35.41-25.99-13.11-10.68-24.47-21.73-37.64-35.45-13.81-14.37-27.55-28.05-44.41-38.44-3.5-2.16-6.99-4.48-10.47-6.95-3.47-2.47-6.99-4.94-10.57-7.42-12.75-8.85-25.26-20.65-34.09-32.56-5.9-7.97-10.16-14.93-12.79-20.88-3.2-7.26-6.68-14.75-8.66-22.42-3.03-11.75-4.62-23.84-4.77-36.28-.05-4.35-.04-8.93.03-13.73.15-9.78-7.28-18.5-17.64-17.22-7.84.96-12.15,9.49-12.24,16.78-.1,7.88-.24,15.64-.41,23.28,0,.31-.26.56-.57.56-4.85-.02-9.82-.01-14.89.03-1.14,0-2.26.13-3.35.36-1.08.23-2.18.47-3.31.72-.19-37.99,8.17-73.39,25.07-106.19,4.21-8.18,10.13-17.6,17.76-28.26,14-19.57,31-36.25,50.99-50.06,25.29-17.47,56.76-28.01,88.08-28.74,16.95-.39,32.75,1.18,47.39,4.71,8.84,2.13,18.34,5.53,28.5,10.18,25.17,11.53,45.43,28.53,60.78,50.99,3.73,5.46,6.71,11.26,8.92,17.39ZM189.26,84.58c0-7.98-6.46-14.44-14.44-14.44h0c-7.98,0-14.44,6.46-14.44,14.44h0c0,7.98,6.46,14.44,14.44,14.44h0c7.98,0,14.44-6.46,14.44-14.44h0ZM124.49,105.08c-3.01,1.55-5.59,3.77-7.74,6.67-8.28,11.19-16.17,22.32-23.67,33.4-4.37,6.45-6.91,9.53-7.01,16.25-.15,10.67,8.49,17.97,18.81,16.68,8.89-1.1,12.62-5.35,15.15-13.25.37-1.17.48-2.52.32-4.03-.17-1.61.41-3.36,1.73-5.24,2.81-3.99,6.26-9.21,10.36-15.64,1.75-2.74,3.46-5.22,5.14-7.44,4.14-5.46,9.52-10.79,7.08-18.31-2.83-8.68-11.82-13.36-20.17-9.09Z"/>
  <path class="cls-1" d="M688.32,274.05c-.18,7.84-3.45,16.92-6.73,24.54-1.1,2.55-2.61,5-4.52,7.34-5.42,6.63-12.33,9.51-20.72,8.65-12.21-1.25-15.59-9.44-21.15-18.54-6.23-10.22-18.48-15.29-30.2-15.85-6.62-.31-13.99-.49-22.11-.53-.33,0-.4-.15-.21-.42,3.34-4.67,8.2-8.78,13.88-9.42,24.14-2.7,38.87-24.57,41.15-47.33.56-5.62,2.62-13.24,6.35-17.32,6.23-6.81,13.64-9.44,22.21-7.89,11.96,2.18,20.43,13.85,21.62,25.55.34,3.45.65,6.87.67,10.33.05,13.25,0,25.12-.14,35.63-.02,1.69-.05,3.44-.1,5.26Z"/>
  <path class="cls-3" d="M359.84,498.47c.07,21.01-.02,42.2-.28,63.57-.15,12.13-.05,40.89.3,86.29-3.01-2.31-5.93-4.57-8.76-6.79-2.79-2.19-5.62-4.52-8.5-7-14.82-12.75-30.06-25.19-45.02-37.87-19.79-16.77-39.09-33.09-57.9-48.98-14.75-12.47-24.72-21.88-37.67-33-5.53-4.75-10.51-9.19-14.94-13.31-15.87-14.74-31.7-29.78-47.5-45.11-15.31-14.87-29.85-30.05-44.35-47.36-16.03-19.13-29.04-39.4-39.05-60.83-2.59-5.53-6.31-14.99-11.18-28.36-3.17-8.7-5.92-19.18-8.27-31.43-2.66-13.84-3.87-27.83-3.64-41.97,1.13-.25,2.23-.49,3.31-.72,1.09-.23,2.21-.35,3.35-.36,5.07-.04,10.04-.05,14.89-.03.31,0,.56-.25.57-.56.17-7.64.31-15.4.41-23.28.09-7.29,4.4-15.82,12.24-16.78,10.36-1.28,17.79,7.44,17.64,17.22-.07,4.8-.08,9.38-.03,13.73.15,12.44,1.74,24.53,4.77,36.28,1.98,7.67,5.46,15.16,8.66,22.42,2.63,5.95,6.89,12.91,12.79,20.88,8.83,11.91,21.34,23.71,34.09,32.56,3.58,2.48,7.1,4.95,10.57,7.42,3.48,2.47,6.97,4.79,10.47,6.95,16.86,10.39,30.6,24.07,44.41,38.44,13.17,13.72,24.53,24.77,37.64,35.45,10.62,8.65,23.39,18.06,35.41,25.99,14.09,9.3,26.8,16.97,38.13,23.01,11.03,5.88,23.51,10.39,37.44,13.53Z"/>
</svg>