<svg width="1512" height="5542" viewBox="0 0 1512 5542" fill="none" xmlns="http://www.w3.org/2000/svg">
<g opacity="0.9">
<mask id="mask0_209_62" style="mask-type:alpha" maskUnits="userSpaceOnUse" x="-2969" y="-1" width="7187" height="5750">
<rect x="4217" y="5748.8" width="7186" height="5748.8" transform="rotate(180 4217 5748.8)" fill="white"/>
</mask>
<g mask="url(#mask0_209_62)">
<rect x="4217" y="5748.8" width="7186" height="5748.8" transform="rotate(180 4217 5748.8)" fill="white"/>
<ellipse cx="-687.863" cy="3267.12" rx="1077.9" ry="1562.54" transform="rotate(180 -687.863 3267.12)" fill="#C4C4C4"/>
<ellipse cx="-771.421" cy="5857.42" rx="1077.9" ry="1562.54" transform="rotate(180 -771.421 5857.42)" fill="#E6514C"/>
<ellipse cx="2554.19" cy="3116.72" rx="1077.9" ry="1562.54" transform="rotate(180 2554.19 3116.72)" fill="#E6514C"/>
<ellipse cx="615.644" cy="1930.19" rx="1077.9" ry="1562.54" transform="rotate(180 615.644 1930.19)" fill="#F2A341"/>
<ellipse cx="1192.2" cy="4645.83" rx="1654.45" ry="2423.19" transform="rotate(180 1192.2 4645.83)" fill="#D4373E"/>
<ellipse cx="3172.52" cy="1111.32" rx="1796.5" ry="1428.84" transform="rotate(180 3172.52 1111.32)" fill="#F2A341"/>
<ellipse cx="-687.863" cy="3267.12" rx="1077.9" ry="1562.54" transform="rotate(180 -687.863 3267.12)" fill="#E6514C"/>
<ellipse cx="1910.8" cy="1111.32" rx="768.735" ry="1111.32" transform="rotate(180 1910.8 1111.32)" fill="#E6514C"/>
<g filter="url(#filter0_bd_209_62)">
<rect x="4217" y="5748.8" width="7186" height="5748.8" transform="rotate(180 4217 5748.8)" fill="white" fill-opacity="0.02" shape-rendering="crispEdges"/>
</g>
</g>
</g>
<defs>
<filter id="filter0_bd_209_62" x="-4186.63" y="-1217.63" width="9621.26" height="8184.06" filterUnits="userSpaceOnUse" color-interpolation-filters="sRGB">
<feFlood flood-opacity="0" result="BackgroundImageFix"/>
<feGaussianBlur in="BackgroundImageFix" stdDeviation="608.814"/>
<feComposite in2="SourceAlpha" operator="in" result="effect1_backgroundBlur_209_62"/>
<feColorMatrix in="SourceAlpha" type="matrix" values="0 0 0 0 0 0 0 0 0 0 0 0 0 0 0 0 0 0 127 0" result="hardAlpha"/>
<feOffset dy="51.814"/>
<feGaussianBlur stdDeviation="25.907"/>
<feComposite in2="hardAlpha" operator="out"/>
<feColorMatrix type="matrix" values="0 0 0 0 0 0 0 0 0 0 0 0 0 0 0 0 0 0 0.25 0"/>
<feBlend mode="normal" in2="effect1_backgroundBlur_209_62" result="effect2_dropShadow_209_62"/>
<feBlend mode="normal" in="SourceGraphic" in2="effect2_dropShadow_209_62" result="shape"/>
</filter>
</defs>
</svg>
