<svg width="328" height="280" viewBox="0 0 328 280" fill="none" xmlns="http://www.w3.org/2000/svg">
<path d="M188.143 196.516C191.971 230.59 225.617 235.232 235.558 235.232C245.501 235.232 279.147 230.59 282.97 196.516C276.856 201.938 256.973 211.235 235.558 211.235C214.146 211.235 194.262 201.937 188.143 196.516Z" fill="white"/>
<path d="M200.311 156.782C208.197 157.645 215.475 160.245 221.83 164.157C222.083 152.679 213.615 142.725 202.133 141.474C190.712 140.229 180.399 148.043 178.159 159.211C185.072 156.86 192.586 155.945 200.311 156.782Z" fill="white"/>
<path d="M249.285 164.157C255.64 160.245 262.921 157.645 270.802 156.782C278.533 155.945 286.04 156.86 292.954 159.211C290.713 148.043 280.401 140.229 268.982 141.474C257.498 142.725 249.03 152.679 249.285 164.157Z" fill="white"/>
<path d="M327.823 91.8179C327.823 91.8179 327.81 91.6777 327.8 91.6057L327.787 91.5383L327.774 91.4449C327.167 86.995 323.946 83.4085 319.414 82.9434C315.721 82.5607 311.992 84.4678 308.447 85.326C301.141 87.0728 293.732 88.4007 286.323 89.5177C267.05 92.4224 247.527 93.7658 228.049 93.3007C212.928 92.9439 197.797 91.6006 182.852 89.2284C177.279 65.8108 168.114 27.4368 165.518 16.5625C164.993 14.3557 164.602 10.9035 160.207 14.1027C157.03 16.4334 125.187 32.8324 84.4539 42.8018C43.7204 52.7712 7.99149 52.8957 4.1125 52.3016C-1.23415 51.4745 -0.0297788 54.7302 0.498737 56.937C3.28802 68.6221 13.6412 112.004 19.0263 134.538C32.1565 189.591 90.7724 217.644 124.225 209.452C131.427 207.69 138.907 203.891 146.087 198.464C153.314 228.373 173.721 254.835 200.356 269.678C208.949 274.464 218.343 278.097 228.103 279.425C237.67 280.738 247.284 279.317 256.38 276.169C274.278 269.968 290.118 257.868 302.264 243.315C314.103 229.118 322.592 212.031 326.077 193.751C327.683 185.342 327.902 176.928 327.902 168.406V101.586C327.902 98.3759 328.168 95.0113 327.823 91.8179ZM39.1778 100.531C46.454 101.161 53.9647 100.273 61.271 97.6163C68.7381 94.9075 75.2212 90.6541 80.4833 85.3357C83.3879 96.4266 77.4692 108.123 66.5952 112.061C55.7892 115.989 43.9504 110.852 39.1778 100.531ZM143.22 146.756C134.375 144.906 121.734 144.167 109.37 147.2C91.0504 151.681 75.9419 163.79 71.8131 169.703C68.1334 139.763 95.9608 128.75 104.472 126.661C111.008 125.059 130.098 122.878 143.22 134.853V146.756ZM148.519 83.858C147.281 86.406 145.584 88.701 143.494 90.6081C140.286 93.544 136.188 95.5594 131.578 96.1743C120.127 97.6838 109.589 90.0191 107.165 78.7939C114.257 81.0992 121.929 81.8841 129.797 80.8508C137.497 79.8324 144.584 77.1501 150.768 73.2224C150.908 77.0048 150.091 80.6335 148.519 83.858ZM312.992 165.129C312.992 173.372 313.095 181.565 311.661 189.72C310.422 196.769 308.299 203.633 305.434 210.166C305.398 210.233 305.362 210.315 305.329 210.398C305.319 210.429 305.293 210.465 305.283 210.511C305.227 210.63 305.178 210.754 305.122 210.873C305.02 211.115 304.905 211.359 304.79 211.612C304.821 211.519 304.869 211.442 304.905 211.343C297.632 227.329 285.898 241.288 271.662 251.34C263.781 256.911 254.936 261.455 245.516 263.625C236.719 265.672 228.037 264.809 219.526 261.873C201.7 255.707 186.193 242.534 175.316 227.152C166.805 215.11 161.045 201.156 158.983 186.561C158.419 182.602 158.133 178.581 158.133 174.55V99.7511C167.278 102.03 176.603 103.709 185.961 104.986C191.928 105.813 197.925 106.475 203.889 107.023C223.872 108.842 243.959 108.945 263.953 107.302C280.391 105.953 296.954 103.736 312.993 99.7407V165.129H312.992Z" fill="white"/>
</svg>
