<?xml version="1.0" encoding="UTF-8" standalone="no"?>
<!DOCTYPE svg PUBLIC "-//W3C//DTD SVG 1.1//EN" "http://www.w3.org/Graphics/SVG/1.1/DTD/svg11.dtd">
<svg xmlns="http://www.w3.org/2000/svg" version="1.1" viewBox="0.00 0.00 412.00 444.00">
<g stroke-width="2.00" fill="none" stroke-linecap="butt">
<path stroke="#ffa6b5" vector-effect="non-scaling-stroke" d="
  M 213.93 137.28
  Q 213.38 139.69 213.44 142.29
  C 213.50 144.82 212.61 146.58 212.51 148.95
  C 212.45 150.42 211.57 151.32 211.62 152.73
  Q 211.66 154.18 211.15 155.60
  C 209.47 160.32 207.88 165.41 205.84 169.53
  Q 196.16 189.15 176.21 198.97
  Q 175.71 199.22 175.11 199.31
  Q 174.56 199.40 174.25 199.89
  Q 173.96 200.34 173.45 200.54
  L 167.79 202.77
  Q 167.50 202.89 167.23 202.73
  Q 167.02 202.61 166.79 202.58
  Q 166.34 202.54 166.15 202.95
  Q 165.85 203.58 165.16 203.72
  Q 164.67 203.82 164.32 203.45
  Q 161.64 200.57 159.25 195.41
  Q 156.42 189.31 155.44 184.64
  Q 155.06 182.81 154.77 181.88
  C 154.26 180.25 153.56 178.46 153.64 176.74
  Q 153.70 175.49 153.26 174.36
  C 152.33 171.98 152.69 169.16 152.72 166.67
  A 1.60 1.60 0.0 0 0 150.59 165.14
  Q 147.26 166.31 144.93 168.34
  Q 143.80 169.32 142.63 170.21
  Q 138.39 173.41 134.39 176.64
  Q 134.16 176.83 134.12 177.11
  Q 134.09 177.30 133.95 177.45
  Q 131.99 179.47 129.96 181.45
  Q 128.15 183.22 126.46 185.75
  Q 124.97 187.97 123.25 189.85
  Q 121.53 191.74 120.42 193.81
  Q 118.70 196.98 116.76 199.85
  Q 114.82 202.73 113.44 205.77
  Q 110.57 212.12 108.73 217.26
  Q 103.48 231.95 103.64 248.20"
/>
<path stroke="#ffadb1" vector-effect="non-scaling-stroke" d="
  M 103.64 248.20
  Q 103.66 248.85 103.86 249.31"
/>
<path stroke="#ffa6b5" vector-effect="non-scaling-stroke" d="
  M 103.86 249.31
  Q 104.14 258.09 105.78 266.76
  Q 111.04 294.68 130.18 315.75
  C 131.14 316.81 132.41 317.32 133.21 318.42
  C 134.61 320.34 136.85 322.10 138.68 323.56
  Q 147.27 330.38 158.60 335.97
  Q 159.26 336.30 159.98 336.48
  Q 160.78 336.69 161.54 337.05
  Q 169.38 340.71 179.44 342.78
  Q 184.47 343.81 190.01 344.76
  C 192.15 345.12 194.24 344.78 196.32 345.09
  Q 203.37 346.14 209.90 345.55
  Q 213.73 345.20 217.85 344.90
  Q 219.22 344.80 220.61 344.44
  Q 221.97 344.09 223.40 343.97
  Q 225.35 343.81 227.53 343.28
  Q 234.30 341.64 239.92 339.94
  Q 243.58 338.84 246.80 337.31
  Q 250.04 335.76 253.36 334.39
  Q 254.66 333.85 255.67 333.04
  C 257.43 331.62 259.68 330.83 261.62 329.51
  C 265.27 327.03 269.20 324.62 272.33 321.54
  Q 274.54 319.38 276.90 317.62
  C 279.49 315.70 280.87 313.15 283.16 310.93
  Q 285.75 308.41 287.56 305.74
  C 290.02 302.11 292.82 298.72 294.80 294.76
  Q 296.19 292.01 297.65 289.19
  C 301.03 282.69 303.98 274.61 305.42 266.92
  Q 306.07 263.50 306.89 259.88
  Q 307.38 257.73 307.36 254.13
  C 307.35 250.07 308.86 246.61 308.06 242.47
  Q 307.32 238.70 307.40 234.95
  Q 307.47 231.56 306.87 228.08
  Q 306.17 223.94 305.46 219.58
  Q 304.75 215.18 303.79 211.41
  Q 294.12 173.39 266.21 145.14"
/>
<path stroke="#ff9eb9" vector-effect="non-scaling-stroke" d="
  M 266.21 145.14
  L 258.69 137.93"
/>
<path stroke="#ffa6b5" vector-effect="non-scaling-stroke" d="
  M 258.69 137.93
  Q 241.78 121.61 220.95 110.87"
/>
<path stroke="#ff9eb9" vector-effect="non-scaling-stroke" d="
  M 220.95 110.87
  L 213.14 106.46
  A 0.36 0.35 13.4 0 0 212.61 106.78
  C 212.68 108.76 212.58 110.69 213.01 112.64
  C 213.65 115.49 213.46 118.43 213.85 121.41
  Q 214.87 129.28 213.93 137.28"
/>
<path stroke="#fe456e" vector-effect="non-scaling-stroke" d="
  M 220.95 110.87
  Q 240.95 122.75 258.69 137.93"
/>
<path stroke="#fe456e" vector-effect="non-scaling-stroke" d="
  M 266.21 145.14
  Q 268.86 149.26 272.18 152.92
  Q 273.24 154.09 276.46 157.91
  Q 279.00 160.93 282.72 166.59
  Q 283.30 167.47 284.09 168.90
  C 285.18 170.87 286.89 173.01 287.77 174.52
  Q 294.86 186.63 299.18 199.92
  C 300.03 202.55 301.64 206.73 302.47 210.27
  Q 304.68 219.66 305.74 228.46
  C 305.88 229.56 306.62 230.52 306.61 231.51
  Q 306.53 236.07 306.75 240.35
  Q 307.04 246.07 306.81 249.30
  Q 305.38 269.41 297.47 287.07
  Q 297.43 287.16 297.33 287.16
  Q 297.19 287.16 297.08 287.09
  Q 296.78 286.91 296.99 286.62
  Q 297.81 285.50 297.22 284.38
  Q 296.99 283.93 297.10 283.43
  L 297.46 281.88
  Q 297.58 281.40 297.12 281.21
  L 292.07 279.16
  A 1.19 1.15 -4.6 0 1 291.52 278.71
  Q 290.48 277.20 288.84 276.51
  Q 288.38 276.31 288.02 275.96
  L 286.76 274.73
  A 0.53 0.53 0.0 0 0 286.20 274.61
  Q 285.82 274.74 285.77 274.39
  Q 285.71 273.97 285.37 273.73
  Q 282.38 271.55 278.59 270.76
  Q 277.71 270.58 277.04 270.14
  Q 276.02 269.46 274.65 269.15
  A 0.11 0.11 0.0 0 1 274.59 268.98
  Q 274.69 268.83 274.61 268.66
  Q 274.41 268.28 274.22 268.67
  Q 274.14 268.84 273.98 268.94
  Q 273.75 269.09 273.49 268.99
  Q 272.01 268.44 271.10 267.30
  Q 270.83 266.95 270.40 267.03
  Q 269.89 267.11 269.85 266.61
  Q 269.79 265.89 269.12 265.65
  Q 267.96 265.24 267.09 264.27
  Q 266.56 263.67 265.78 263.86
  Q 264.32 264.22 263.22 263.32
  Q 262.96 263.11 262.92 263.43
  Q 262.89 263.61 262.69 263.64
  Q 262.23 263.71 262.37 263.26
  Q 262.53 262.71 261.81 262.31
  A 1.06 0.94 -21.9 0 0 261.53 262.21
  Q 260.66 262.04 260.32 261.35
  Q 260.10 260.89 259.61 261.00
  Q 257.29 261.51 255.89 260.89"
/>
<path stroke="#912f54" vector-effect="non-scaling-stroke" d="
  M 255.89 260.89
  Q 262.38 259.15 266.73 257.46
  C 278.52 252.87 287.26 242.43 287.82 229.52
  Q 287.91 227.35 286.49 225.56
  Q 278.20 215.11 265.01 212.59
  Q 258.70 211.38 254.35 211.80
  C 239.20 213.26 226.27 218.89 217.37 231.50"
/>
<path stroke="#fe456e" vector-effect="non-scaling-stroke" d="
  M 217.37 231.50
  Q 217.44 231.08 217.07 230.85
  Q 216.85 230.72 217.09 230.65
  Q 217.24 230.60 217.27 230.38
  Q 217.29 230.17 217.15 230.01
  Q 215.23 227.76 212.16 228.29
  Q 211.73 228.37 211.83 227.95
  Q 212.06 227.02 211.38 226.33
  Q 210.22 225.14 208.77 224.66
  Q 208.54 224.58 208.42 224.37
  Q 207.03 221.95 204.36 221.77
  Q 203.26 221.69 203.36 220.63
  Q 203.40 220.16 203.08 219.82
  Q 199.72 216.24 195.80 214.40
  Q 194.30 213.70 193.10 212.60
  Q 192.73 212.25 192.23 212.10
  Q 190.23 211.48 188.55 210.97
  C 187.51 210.66 186.62 209.76 185.80 209.02
  Q 185.44 208.69 184.98 208.53
  L 181.64 207.39
  Q 181.15 207.22 180.64 207.20
  Q 178.88 207.11 177.77 205.31
  Q 177.08 204.21 175.98 203.40
  Q 175.47 203.03 175.03 203.47
  Q 174.71 203.78 174.30 203.55
  Q 173.83 203.30 173.33 203.46
  Q 172.03 203.88 170.60 203.43
  Q 169.86 203.20 170.56 202.88
  Q 173.87 201.36 177.34 199.87
  Q 180.50 198.51 183.72 196.25
  Q 188.44 192.93 192.22 189.54
  C 194.62 187.38 196.69 185.18 198.59 182.76
  Q 199.85 181.17 201.10 179.62
  Q 203.53 176.61 205.93 172.14
  Q 207.95 168.38 209.41 164.00
  Q 212.93 153.51 214.21 144.51
  Q 214.66 141.29 213.93 137.28"
/>
<path stroke="#913750" vector-effect="non-scaling-stroke" d="
  M 217.37 231.50
  L 212.95 240.14
  A 1.90 1.87 -40.6 0 0 212.83 241.56
  Q 215.61 250.61 223.99 256.57
  C 227.25 258.89 230.82 260.40 233.71 263.30
  Q 236.68 266.27 238.45 270.64
  C 239.72 273.81 243.15 274.93 245.30 271.86
  Q 246.24 270.50 246.79 268.88
  Q 247.93 265.48 251.43 263.41
  Q 253.75 262.03 255.89 260.89"
/>
<path stroke="#fe5467" vector-effect="non-scaling-stroke" d="
  M 103.86 249.31
  Q 103.98 249.71 104.35 250.15
  Q 104.66 250.52 104.64 251.01
  Q 104.42 255.90 104.86 257.50
  Q 106.26 262.62 106.60 267.72"
/>
<path stroke="#ff5964" vector-effect="non-scaling-stroke" d="
  M 106.60 267.72
  Q 107.93 272.43 109.04 276.99
  Q 110.12 281.42 115.46 292.81
  Q 116.23 294.45 117.13 295.77
  Q 118.09 297.16 118.73 298.51
  Q 119.33 299.75 120.08 300.92
  L 123.53 306.29
  Q 123.84 306.77 124.32 307.10
  Q 125.83 308.12 125.64 309.83
  Q 125.59 310.34 126.10 310.38
  Q 127.06 310.44 127.40 311.33
  Q 128.13 313.22 129.95 314.24
  A 1.32 1.30 -88.0 0 1 130.51 314.85
  Q 130.81 315.49 131.39 315.84
  Q 132.99 316.81 134.16 318.12
  Q 135.37 319.48 136.57 320.65
  Q 138.10 322.13 139.69 323.60
  A 1.94 1.91 74.6 0 0 140.45 324.04
  Q 141.36 324.32 142.02 324.95
  Q 143.08 325.96 144.27 326.66
  Q 148.49 329.15 152.65 331.75
  Q 155.68 333.65 158.78 334.96
  Q 162.33 336.47 165.59 337.87
  Q 167.45 338.67 169.43 339.20
  Q 171.46 339.74 173.27 340.82
  Q 173.73 341.09 174.23 340.90
  Q 174.47 340.80 174.75 340.86
  Q 177.52 341.43 180.13 341.90
  Q 182.08 342.24 183.88 342.88
  Q 185.74 343.54 187.56 343.37
  Q 187.91 343.33 188.19 343.54
  Q 188.37 343.68 188.48 343.88
  Q 188.72 344.32 189.22 344.33
  Q 192.74 344.40 196.31 344.36
  C 197.59 344.34 198.64 344.99 199.99 344.97
  Q 204.34 344.90 208.93 344.89
  C 211.78 344.89 214.37 344.11 217.17 344.16
  C 219.09 344.19 220.47 343.25 222.32 343.23
  Q 224.27 343.21 226.15 342.71
  Q 228.49 342.09 230.74 341.34
  Q 232.87 340.64 235.27 340.42"
/>
<path stroke="#fe5467" vector-effect="non-scaling-stroke" d="
  M 235.27 340.42
  Q 240.63 338.76 245.91 336.64
  Q 246.57 336.38 247.15 336.01
  Q 247.69 335.67 248.27 335.43
  Q 252.55 333.67 257.89 330.49
  Q 265.00 326.25 270.11 321.96
  Q 274.15 318.56 278.41 314.68
  Q 279.55 313.65 280.43 312.28
  Q 281.39 310.78 282.88 309.60
  Q 283.57 309.05 282.70 308.92
  Q 282.20 308.85 281.76 309.01
  Q 281.21 309.20 280.76 308.84
  Q 279.80 308.07 278.58 307.73
  C 276.04 307.01 273.65 305.58 271.21 304.50
  Q 269.33 303.67 267.81 302.45
  C 265.93 300.93 264.07 298.91 261.74 298.11
  Q 260.35 297.63 258.96 297.00
  Q 258.79 296.93 258.70 296.78
  Q 258.66 296.73 258.71 296.68
  Q 259.10 296.32 258.56 296.32
  Q 255.77 296.29 253.78 294.69
  Q 253.38 294.37 252.87 294.29
  L 251.25 294.06
  A 0.16 0.16 0.0 0 0 251.07 294.26
  Q 251.14 294.49 251.06 294.71
  Q 250.86 295.23 250.55 294.76
  Q 250.22 294.26 250.18 293.68
  Q 250.13 293.08 249.54 293.06
  C 248.94 293.04 248.32 292.64 248.01 292.14
  Q 247.01 290.52 244.99 289.99
  Q 244.22 289.78 244.76 289.29
  Q 244.94 289.12 244.68 288.94
  Q 244.37 288.72 244.01 288.81
  Q 243.49 288.92 243.18 288.56"
/>
<path stroke="#913750" vector-effect="non-scaling-stroke" d="
  M 243.18 288.56
  C 249.18 285.35 246.32 279.14 242.61 275.77
  A 1.47 1.46 -42.1 0 0 240.75 275.68
  Q 235.32 279.68 236.79 285.20"
/>
<path stroke="#fe5467" vector-effect="non-scaling-stroke" d="
  M 236.79 285.20
  Q 233.86 286.03 233.40 284.14
  Q 233.23 283.44 232.64 283.60
  Q 232.50 283.64 232.37 283.58
  Q 232.21 283.52 232.23 283.35
  Q 232.24 283.20 232.39 283.23
  A 0.05 0.04 -12.2 0 0 232.44 283.16
  Q 230.06 280.05 226.45 278.97
  A 1.52 1.47 79.1 0 1 225.68 278.43
  Q 223.90 276.10 222.20 273.78
  Q 221.71 273.12 220.95 272.96
  Q 220.44 272.85 220.09 272.46
  Q 218.60 270.86 216.34 269.89
  Q 215.97 269.73 215.72 269.43
  Q 215.60 269.28 215.62 269.08
  Q 215.66 268.55 215.16 268.74
  Q 214.19 269.10 213.70 268.16
  Q 213.54 267.86 213.22 267.91
  Q 212.96 267.95 212.75 267.83
  Q 212.32 267.59 212.14 267.12
  Q 211.65 265.79 210.32 265.84
  Q 209.78 265.85 210.09 265.41
  Q 210.22 265.23 210.03 265.11
  Q 208.57 264.22 207.96 262.70
  Q 207.75 262.17 207.22 261.96
  L 200.70 259.39
  Q 200.29 259.23 200.15 258.80
  Q 200.06 258.53 199.85 258.31
  Q 199.42 257.86 198.84 257.68
  Q 196.24 256.90 193.75 256.03
  Q 192.94 255.75 192.28 255.32
  Q 191.73 254.97 191.37 254.46
  Q 191.03 253.97 190.60 253.57
  Q 190.25 253.26 190.58 252.93
  Q 191.56 251.95 191.51 250.67"
/>
<path stroke="#913750" vector-effect="non-scaling-stroke" d="
  M 191.51 250.67
  L 198.82 241.37
  A 1.32 1.31 53.0 0 0 199.00 240.06
  Q 190.78 219.96 169.42 213.98
  Q 162.55 212.05 155.62 211.74
  Q 152.62 211.60 149.40 212.19
  C 139.53 213.97 130.68 217.70 124.85 226.50
  C 123.23 228.95 124.40 232.45 124.71 235.24"
/>
<path stroke="#fe5467" vector-effect="non-scaling-stroke" d="
  M 124.71 235.24
  Q 124.25 233.63 123.98 231.97
  Q 123.76 230.68 123.28 230.18
  Q 122.48 229.33 121.16 229.58
  Q 120.92 229.63 120.87 229.40
  Q 120.83 229.26 120.86 229.11
  Q 121.00 228.53 120.44 228.30
  Q 117.74 227.20 116.50 224.54
  Q 116.29 224.09 115.84 224.30
  Q 114.44 224.99 112.98 225.19
  Q 112.51 225.26 112.55 224.78
  L 112.85 221.31
  Q 112.90 220.82 112.67 220.38
  L 112.37 219.80
  A 0.71 0.70 -32.5 0 1 112.57 218.92
  Q 113.17 218.47 112.63 217.95
  Q 112.35 217.67 112.51 217.31
  Q 113.17 215.76 112.75 213.94
  A 0.06 0.06 0.0 0 0 112.64 213.92
  Q 112.52 214.12 112.37 214.06
  Q 111.90 213.84 111.85 214.36
  Q 111.82 214.70 111.86 215.00
  A 0.05 0.00 75.1 0 0 111.88 215.06
  L 111.87 214.74
  Q 111.87 214.39 111.54 214.51
  C 110.93 214.72 110.44 214.99 110.20 215.62
  Q 107.64 222.40 106.52 227.38
  Q 105.93 230.01 105.33 232.40
  Q 104.63 235.22 104.63 237.26
  Q 104.63 239.74 104.40 242.40
  Q 104.37 242.79 104.06 243.05
  Q 103.88 243.21 103.79 243.43
  Q 103.64 243.77 103.65 244.17
  Q 103.69 246.19 103.64 248.20"
/>
<path stroke="#913e4d" vector-effect="non-scaling-stroke" d="
  M 236.79 285.20
  Q 238.69 290.49 243.18 288.56"
/>
<path stroke="#ff6061" vector-effect="non-scaling-stroke" d="
  M 235.27 340.42
  Q 234.16 340.09 232.97 340.37
  Q 232.68 340.43 232.54 340.17
  Q 232.46 340.02 232.31 339.96
  Q 231.48 339.63 232.29 339.24
  Q 232.51 339.14 232.68 338.97
  Q 233.08 338.56 232.67 338.17
  Q 231.11 336.72 228.97 337.11
  Q 228.47 337.20 228.10 336.85
  Q 227.69 336.47 227.11 336.66
  Q 226.72 336.79 226.61 336.39
  Q 226.38 335.51 225.35 335.50
  A 0.87 0.77 55.0 0 1 224.98 335.41
  L 219.76 332.63
  Q 219.38 332.42 219.21 332.02
  Q 219.02 331.57 218.54 331.66
  Q 217.97 331.76 217.57 331.34
  Q 216.77 330.49 215.75 329.99
  Q 210.91 327.60 206.44 324.92
  A 1.75 1.66 -27.3 0 0 205.58 324.67
  Q 204.73 324.64 203.87 324.59
  Q 203.26 324.56 203.85 324.38
  Q 204.01 324.34 204.07 324.20
  Q 204.21 323.84 203.90 323.60
  Q 200.38 320.92 196.36 319.61
  Q 195.88 319.46 195.53 319.09
  Q 194.50 317.98 193.12 317.56
  A 0.46 0.46 0.0 0 0 192.53 318.07
  Q 192.73 319.34 193.86 319.01
  Q 194.25 318.90 194.58 319.15
  Q 195.31 319.70 194.40 319.63
  Q 193.51 319.55 192.69 319.78
  Q 191.85 320.01 192.27 319.25
  Q 192.83 318.24 192.23 317.29
  A 0.88 0.87 73.6 0 0 191.49 316.88
  L 190.45 316.88
  Q 190.03 316.88 190.12 316.47
  Q 190.24 315.93 190.01 315.43
  Q 189.82 315.00 189.35 314.76
  Q 186.98 313.53 184.66 312.25
  C 183.39 311.55 182.13 311.57 181.34 310.19
  Q 181.08 309.73 180.62 309.46
  Q 178.29 308.08 175.95 306.68
  C 174.89 306.05 174.44 304.90 173.21 304.63
  Q 170.39 304.03 167.62 302.56
  A 0.93 0.92 4.4 0 1 167.18 302.05
  Q 167.01 301.54 166.52 301.39
  Q 163.36 300.48 161.33 298.62
  Q 159.35 296.81 157.02 296.27
  Q 155.21 295.84 153.50 294.96
  Q 150.09 293.21 147.48 291.44
  Q 147.11 291.19 146.85 290.83
  Q 146.56 290.45 146.14 290.24
  L 142.02 288.22
  Q 141.60 288.02 141.38 287.60
  Q 140.93 286.70 139.89 286.62
  C 137.86 286.46 135.51 284.82 133.97 283.56
  Q 133.50 283.18 133.39 282.58
  L 132.91 279.96
  Q 132.82 279.44 132.33 279.22
  Q 131.25 278.75 130.09 278.89
  Q 129.62 278.95 129.27 278.62
  Q 128.40 277.78 127.22 277.32
  Q 126.58 277.07 126.61 277.75
  Q 126.62 278.02 126.66 278.28
  Q 126.75 278.84 126.33 278.46
  Q 126.21 278.36 126.05 278.35
  Q 125.66 278.33 125.57 277.95
  L 125.03 275.51
  Q 124.89 274.88 124.24 274.88
  L 117.63 274.88
  A 0.59 0.58 -88.2 0 1 117.05 274.25
  L 117.29 271.04
  Q 117.38 269.88 116.22 269.92
  Q 113.51 270.01 110.84 269.05
  Q 110.60 268.97 110.46 268.75
  Q 110.33 268.54 110.11 268.42
  A 0.58 0.57 39.5 0 0 109.51 268.47
  Q 109.08 268.79 109.16 269.14
  Q 109.27 269.68 108.73 269.58
  Q 108.58 269.56 108.46 269.48
  Q 108.23 269.34 108.37 269.12
  Q 108.69 268.64 108.35 268.24
  Q 108.12 267.95 107.81 268.17
  Q 107.77 268.20 107.77 268.26
  Q 107.76 268.97 107.51 268.30
  Q 107.07 267.12 106.60 267.72"
/>
<path stroke="#913e4d" vector-effect="non-scaling-stroke" d="
  M 191.51 250.67
  Q 185.58 258.08 177.71 262.74
  Q 175.37 264.12 174.52 265.05
  C 172.21 267.58 171.69 272.77 170.94 276.08
  A 2.14 2.14 0.0 0 1 168.89 277.75
  C 165.18 277.81 165.82 272.74 165.99 270.31
  C 166.20 267.16 164.11 265.60 161.35 265.07
  Q 153.44 263.54 146.51 258.93
  Q 143.59 256.99 139.70 254.72
  Q 128.49 248.18 124.71 235.24"
/>
<path stroke="#913750" vector-effect="non-scaling-stroke" d="
  M 231.1750 272.0379
  A 4.06 3.37 71.4 0 0 233.0740 267.1151
  A 4.06 3.37 71.4 0 0 228.5850 264.3421
  A 4.06 3.37 71.4 0 0 226.6860 269.2649
  A 4.06 3.37 71.4 0 0 231.1750 272.0379"
/>
<path stroke="#896058" vector-effect="non-scaling-stroke" d="
  M 241.43 215.97
  Q 236.13 217.40 231.31 220.42
  Q 230.89 220.69 230.67 221.14
  Q 226.00 230.65 230.22 239.51
  Q 236.01 251.68 250.48 251.36"
/>
<path stroke="#8c6d5f" vector-effect="non-scaling-stroke" d="
  M 250.48 251.36
  C 260.47 250.61 268.60 243.20 269.71 233.19
  Q 270.98 221.81 261.78 214.13
  A 1.82 1.81 67.3 0 0 260.77 213.71
  Q 250.92 212.94 241.43 215.97"
/>
<path stroke="#f1ac81" vector-effect="non-scaling-stroke" d="
  M 250.48 251.36
  L 249.09 251.07
  Q 248.66 250.98 249.05 250.77
  L 251.00 249.73
  A 1.26 1.26 0.0 0 0 251.47 247.94
  Q 250.69 246.70 249.59 245.56
  Q 248.61 244.54 247.08 243.93
  Q 245.21 243.18 243.28 242.54
  Q 242.80 242.37 242.51 241.96
  L 239.37 237.49"
/>
<path stroke="#8c6d5f" vector-effect="non-scaling-stroke" d="
  M 239.37 237.49
  Q 248.25 246.56 257.61 238.68"
/>
<path stroke="#fadcc4" vector-effect="non-scaling-stroke" d="
  M 257.61 238.68
  Q 261.53 241.74 263.43 238.22
  Q 265.44 234.49 260.84 233.33"
/>
<path stroke="#8c6d5f" vector-effect="non-scaling-stroke" d="
  M 260.84 233.33
  Q 260.57 216.12 244.46 219.63
  Q 243.92 219.75 243.99 220.22"
/>
<path stroke="#fadcc4" vector-effect="non-scaling-stroke" d="
  M 243.99 220.22
  L 242.99 220.13"
/>
<path stroke="#f1ac81" vector-effect="non-scaling-stroke" d="
  M 242.99 220.13
  Q 243.43 219.57 243.47 219.23
  Q 243.51 218.86 243.15 218.77
  Q 242.80 218.69 242.62 218.34
  Q 242.59 218.26 242.64 218.20
  Q 243.15 217.68 242.44 217.85
  Q 242.28 217.89 242.12 217.89
  Q 241.72 217.90 241.49 217.57
  Q 240.92 216.74 241.43 215.97"
/>
<path stroke="#f7cfbd" vector-effect="non-scaling-stroke" d="
  M 242.99 220.13
  Q 237.62 219.88 234.62 222.95
  Q 232.20 225.44 233.01 228.72
  Q 233.94 232.50 238.43 233.27"
/>
<path stroke="#896058" vector-effect="non-scaling-stroke" d="
  M 238.43 233.27
  Q 237.59 234.06 238.23 234.99
  Q 239.17 236.34 239.37 237.49"
/>
<path stroke="#92909b" vector-effect="non-scaling-stroke" d="
  M 260.84 233.33
  Q 257.48 233.12 256.76 236.25
  Q 256.61 236.88 257.61 238.68"
/>
<path stroke="#92909b" vector-effect="non-scaling-stroke" d="
  M 238.43 233.27
  Q 245.06 232.28 247.46 227.75
  Q 249.44 224.03 246.15 221.64
  Q 245.10 220.88 243.99 220.22"
/>
<path stroke="#92909b" vector-effect="non-scaling-stroke" d="
  M 242.55 252.06
  C 230.35 248.16 224.31 236.22 227.56 223.85
  Q 227.77 223.06 227.13 223.57
  Q 220.01 229.20 215.48 238.01
  Q 215.20 238.55 215.80 238.59
  Q 221.28 239.00 224.96 244.17
  Q 226.97 247.00 229.05 250.03
  C 232.42 254.91 238.38 255.48 243.89 254.40
  C 248.93 253.42 253.46 253.96 256.85 258.14
  Q 257.26 258.65 257.90 258.50
  C 273.05 254.96 284.89 245.96 286.27 229.66
  C 286.35 228.74 286.08 227.86 285.52 227.14
  Q 277.86 217.12 265.44 214.56
  Q 264.83 214.43 265.25 214.89
  Q 274.53 225.14 270.22 238.20
  C 266.54 249.35 253.63 255.59 242.55 252.06"
/>
<path stroke="#896058" vector-effect="non-scaling-stroke" d="
  M 255.17 258.76
  C 252.90 256.34 249.68 255.22 246.42 255.85
  C 238.93 257.32 231.65 257.35 226.98 250.15
  C 224.60 246.48 220.51 239.55 215.20 240.55
  A 0.93 0.92 -15.5 0 0 214.50 241.77
  C 217.29 249.41 222.42 254.41 229.40 258.11
  Q 236.45 261.85 239.96 270.25
  C 241.04 272.84 243.74 272.35 244.58 270.05
  C 246.73 264.19 249.66 262.33 255.02 259.63
  Q 255.68 259.30 255.17 258.76"
/>
<path stroke="#896058" vector-effect="non-scaling-stroke" d="
  M 152.01 248.32
  C 168.77 258.08 188.54 242.52 182.38 223.96"
/>
<path stroke="#8c6d5f" vector-effect="non-scaling-stroke" d="
  M 182.38 223.96
  Q 181.49 220.98 180.22 220.26
  Q 166.82 212.71 151.08 213.73
  A 1.52 1.49 -66.8 0 0 150.18 214.10
  Q 139.52 223.34 142.85 236.32
  Q 144.77 243.82 152.01 248.32"
/>
<path stroke="#f1ac81" vector-effect="non-scaling-stroke" d="
  M 182.38 223.96
  Q 182.04 224.19 182.11 224.72
  Q 182.12 224.88 181.97 224.88
  Q 181.84 224.89 181.72 224.94
  A 0.24 0.23 -18.5 0 1 181.41 224.79
  Q 180.43 221.62 177.19 222.34
  Q 176.65 222.46 176.62 223.00
  Q 176.59 223.47 176.01 223.33
  Q 175.17 223.14 175.53 223.92
  L 176.28 225.55
  A 1.41 1.31 -61.2 0 1 176.38 225.95
  Q 176.58 229.23 175.89 232.33
  Q 175.78 232.82 175.28 232.84
  Q 174.79 232.85 174.60 232.49"
/>
<path stroke="#8c6d5f" vector-effect="non-scaling-stroke" d="
  M 174.60 232.49
  Q 175.35 226.12 171.13 222.12
  Q 165.11 216.42 157.15 220.25"
/>
<path stroke="#fadcc4" vector-effect="non-scaling-stroke" d="
  M 157.15 220.25
  Q 153.42 219.77 150.23 221.26
  C 146.08 223.19 144.41 227.74 147.60 231.43
  Q 149.24 233.31 152.10 233.14"
/>
<path stroke="#8c6d5f" vector-effect="non-scaling-stroke" d="
  M 152.10 233.14
  Q 151.45 238.39 159.16 241.84"
/>
<path stroke="#f1ac81" vector-effect="non-scaling-stroke" d="
  M 159.16 241.84
  Q 159.74 242.52 158.13 242.80
  Q 157.66 242.88 157.24 242.66
  L 154.99 241.48
  Q 154.50 241.22 154.10 241.60
  Q 153.52 242.17 152.72 242.09
  Q 152.15 242.04 152.07 242.60
  Q 151.95 243.44 151.15 243.54
  A 1.29 1.28 -14.1 0 0 150.10 245.29
  Q 150.31 245.83 150.83 246.00
  Q 151.19 246.12 151.48 246.35
  L 153.13 247.69
  Q 153.61 248.09 153.03 248.32
  Q 152.66 248.47 152.01 248.32"
/>
<path stroke="#f7cfbd" vector-effect="non-scaling-stroke" d="
  M 170.99 239.11
  C 176.05 242.00 179.44 235.71 174.35 233.21"
/>
<path stroke="#896058" vector-effect="non-scaling-stroke" d="
  M 174.60 232.49
  L 174.35 233.21"
/>
<path stroke="#92909b" vector-effect="non-scaling-stroke" d="
  M 174.35 233.21
  Q 167.73 233.80 170.99 239.11"
/>
<path stroke="#896058" vector-effect="non-scaling-stroke" d="
  M 170.99 239.11
  Q 165.81 243.67 159.16 241.84"
/>
<path stroke="#92909b" vector-effect="non-scaling-stroke" d="
  M 152.10 233.14
  Q 158.66 231.77 160.79 227.28
  Q 162.91 222.79 157.15 220.25"
/>
<path stroke="#92909b" vector-effect="non-scaling-stroke" d="
  M 159.51 254.70
  C 162.39 256.23 165.45 257.96 168.60 258.38
  C 171.65 258.79 174.86 257.38 176.69 254.76
  C 181.01 248.54 188.22 239.83 196.33 239.46
  Q 197.05 239.43 196.74 238.77
  Q 192.63 229.87 184.62 223.48
  Q 184.14 223.10 184.31 223.69
  Q 187.07 233.05 182.38 241.57
  C 176.98 251.37 164.44 255.91 154.03 251.20
  C 140.97 245.30 136.30 230.03 144.23 217.86
  C 144.87 216.87 145.78 216.07 146.51 215.16
  Q 147.19 214.32 146.14 214.58
  Q 132.67 217.89 125.85 228.00
  Q 125.52 228.50 125.56 229.10
  Q 126.89 246.65 143.16 254.66
  A 1.51 1.47 -43.9 0 0 144.46 254.67
  C 149.23 252.45 154.84 252.23 159.51 254.70"
/>
<path stroke="#896058" vector-effect="non-scaling-stroke" d="
  M 169.50 275.31
  C 170.90 269.06 171.14 264.05 177.61 260.90
  Q 180.14 259.67 182.19 257.86
  Q 189.90 251.04 196.74 241.75
  A 0.32 0.32 0.0 0 0 196.48 241.24
  C 189.32 241.28 182.08 250.07 178.37 255.42
  C 173.49 262.44 166.45 260.76 160.02 256.91
  C 155.66 254.30 150.88 254.11 146.05 255.93
  A 0.45 0.44 -37.8 0 0 145.95 256.71
  Q 153.57 262.05 162.41 263.76
  C 165.71 264.40 167.81 267.20 167.59 270.55
  Q 167.43 273.02 167.66 275.39
  Q 167.74 276.25 168.58 276.14
  A 1.08 1.07 -86.9 0 0 169.50 275.31"
/>
<path stroke="#913e4d" vector-effect="non-scaling-stroke" d="
  M 163.19 273.54
  A 3.13 3.13 0.0 0 0 160.06 270.41
  A 3.13 3.13 0.0 0 0 156.93 273.54
  A 3.13 3.13 0.0 0 0 160.06 276.67
  A 3.13 3.13 0.0 0 0 163.19 273.54"
/>
<path stroke="#913e4d" vector-effect="non-scaling-stroke" d="
  M 174.04 287.00
  C 175.39 283.14 169.56 276.99 166.07 280.88
  C 163.18 284.11 163.40 291.71 169.84 290.45
  Q 173.05 289.82 174.04 287.00"
/>
<path stroke="#f7cfbd" vector-effect="non-scaling-stroke" d="
  M 250.2034 259.1628
  A 2.63 1.42 10.8 0 0 247.8861 257.2752
  A 2.63 1.42 10.8 0 0 245.0366 258.1772
  A 2.63 1.42 10.8 0 0 247.3539 260.0648
  A 2.63 1.42 10.8 0 0 250.2034 259.1628"
/>
<path stroke="#f7cfbd" vector-effect="non-scaling-stroke" d="
  M 156.8129 259.8203
  A 2.43 1.32 29.6 0 0 155.3520 257.4723
  A 2.43 1.32 29.6 0 0 152.5871 257.4197
  A 2.43 1.32 29.6 0 0 154.0480 259.7677
  A 2.43 1.32 29.6 0 0 156.8129 259.8203"
/>
<path stroke="#896058" vector-effect="non-scaling-stroke" d="
  M 230.7927 270.5214
  A 2.50 1.89 67.6 0 0 231.5874 267.4898
  A 2.50 1.89 67.6 0 0 228.8873 265.8986
  A 2.50 1.89 67.6 0 0 228.0926 268.9302
  A 2.50 1.89 67.6 0 0 230.7927 270.5214"
/>
<path stroke="#896058" vector-effect="non-scaling-stroke" d="
  M 161.2284 274.7258
  A 1.70 1.47 44.7 0 0 161.0540 272.4851
  A 1.70 1.47 44.7 0 0 158.8116 272.3342
  A 1.70 1.47 44.7 0 0 158.9860 274.5749
  A 1.70 1.47 44.7 0 0 161.2284 274.7258"
/>
<path stroke="#896058" vector-effect="non-scaling-stroke" d="
  M 243.27 286.76
  C 247.07 284.54 244.26 279.67 242.16 277.47
  Q 241.55 276.82 240.86 277.40
  Q 236.87 280.73 238.45 285.12
  Q 239.77 288.79 243.27 286.76"
/>
<path stroke="#896058" vector-effect="non-scaling-stroke" d="
  M 166.10 287.38
  A 1.91 1.90 88.7 0 0 167.86 289.07
  C 175.76 289.58 172.48 280.09 167.82 281.46
  A 1.62 1.59 4.5 0 0 166.81 282.31
  Q 165.77 284.48 166.10 287.38"
/>
</g>
<path fill="#ffffff" d="
  M 170.44 185.02
  C 207.36 183.03 206.74 112.92 205.65 87.26
  Q 205.62 86.51 206.23 86.95
  Q 216.12 93.97 226.54 99.62
  C 233.35 103.32 239.96 106.87 245.98 111.71
  Q 250.64 115.44 255.41 119.21
  Q 261.08 123.70 267.60 130.85
  Q 313.39 181.18 311.94 251.47
  C 311.20 287.34 296.83 316.84 265.65 334.64
  C 244.52 346.71 217.63 352.08 193.12 350.88
  C 155.62 349.06 123.41 329.00 106.77 294.89
  Q 99.25 279.48 96.32 263.50
  C 87.00 212.72 122.02 170.36 163.39 146.31
  A 0.42 0.42 0.0 0 1 164.02 146.67
  Q 163.93 162.15 167.02 176.98
  Q 167.74 180.44 169.64 184.53
  Q 169.88 185.05 170.44 185.02
  Z
  M 213.93 137.28
  Q 213.38 139.69 213.44 142.29
  C 213.50 144.82 212.61 146.58 212.51 148.95
  C 212.45 150.42 211.57 151.32 211.62 152.73
  Q 211.66 154.18 211.15 155.60
  C 209.47 160.32 207.88 165.41 205.84 169.53
  Q 196.16 189.15 176.21 198.97
  Q 175.71 199.22 175.11 199.31
  Q 174.56 199.40 174.25 199.89
  Q 173.96 200.34 173.45 200.54
  L 167.79 202.77
  Q 167.50 202.89 167.23 202.73
  Q 167.02 202.61 166.79 202.58
  Q 166.34 202.54 166.15 202.95
  Q 165.85 203.58 165.16 203.72
  Q 164.67 203.82 164.32 203.45
  Q 161.64 200.57 159.25 195.41
  Q 156.42 189.31 155.44 184.64
  Q 155.06 182.81 154.77 181.88
  C 154.26 180.25 153.56 178.46 153.64 176.74
  Q 153.70 175.49 153.26 174.36
  C 152.33 171.98 152.69 169.16 152.72 166.67
  A 1.60 1.60 0.0 0 0 150.59 165.14
  Q 147.26 166.31 144.93 168.34
  Q 143.80 169.32 142.63 170.21
  Q 138.39 173.41 134.39 176.64
  Q 134.16 176.83 134.12 177.11
  Q 134.09 177.30 133.95 177.45
  Q 131.99 179.47 129.96 181.45
  Q 128.15 183.22 126.46 185.75
  Q 124.97 187.97 123.25 189.85
  Q 121.53 191.74 120.42 193.81
  Q 118.70 196.98 116.76 199.85
  Q 114.82 202.73 113.44 205.77
  Q 110.57 212.12 108.73 217.26
  Q 103.48 231.95 103.64 248.20
  Q 103.66 248.85 103.86 249.31
  Q 104.14 258.09 105.78 266.76
  Q 111.04 294.68 130.18 315.75
  C 131.14 316.81 132.41 317.32 133.21 318.42
  C 134.61 320.34 136.85 322.10 138.68 323.56
  Q 147.27 330.38 158.60 335.97
  Q 159.26 336.30 159.98 336.48
  Q 160.78 336.69 161.54 337.05
  Q 169.38 340.71 179.44 342.78
  Q 184.47 343.81 190.01 344.76
  C 192.15 345.12 194.24 344.78 196.32 345.09
  Q 203.37 346.14 209.90 345.55
  Q 213.73 345.20 217.85 344.90
  Q 219.22 344.80 220.61 344.44
  Q 221.97 344.09 223.40 343.97
  Q 225.35 343.81 227.53 343.28
  Q 234.30 341.64 239.92 339.94
  Q 243.58 338.84 246.80 337.31
  Q 250.04 335.76 253.36 334.39
  Q 254.66 333.85 255.67 333.04
  C 257.43 331.62 259.68 330.83 261.62 329.51
  C 265.27 327.03 269.20 324.62 272.33 321.54
  Q 274.54 319.38 276.90 317.62
  C 279.49 315.70 280.87 313.15 283.16 310.93
  Q 285.75 308.41 287.56 305.74
  C 290.02 302.11 292.82 298.72 294.80 294.76
  Q 296.19 292.01 297.65 289.19
  C 301.03 282.69 303.98 274.61 305.42 266.92
  Q 306.07 263.50 306.89 259.88
  Q 307.38 257.73 307.36 254.13
  C 307.35 250.07 308.86 246.61 308.06 242.47
  Q 307.32 238.70 307.40 234.95
  Q 307.47 231.56 306.87 228.08
  Q 306.17 223.94 305.46 219.58
  Q 304.75 215.18 303.79 211.41
  Q 294.12 173.39 266.21 145.14
  L 258.69 137.93
  Q 241.78 121.61 220.95 110.87
  L 213.14 106.46
  A 0.36 0.35 13.4 0 0 212.61 106.78
  C 212.68 108.76 212.58 110.69 213.01 112.64
  C 213.65 115.49 213.46 118.43 213.85 121.41
  Q 214.87 129.28 213.93 137.28
  Z"
/>
<path fill="#fe3c72" d="
  M 220.95 110.87
  Q 240.95 122.75 258.69 137.93
  L 266.21 145.14
  Q 268.86 149.26 272.18 152.92
  Q 273.24 154.09 276.46 157.91
  Q 279.00 160.93 282.72 166.59
  Q 283.30 167.47 284.09 168.90
  C 285.18 170.87 286.89 173.01 287.77 174.52
  Q 294.86 186.63 299.18 199.92
  C 300.03 202.55 301.64 206.73 302.47 210.27
  Q 304.68 219.66 305.74 228.46
  C 305.88 229.56 306.62 230.52 306.61 231.51
  Q 306.53 236.07 306.75 240.35
  Q 307.04 246.07 306.81 249.30
  Q 305.38 269.41 297.47 287.07
  Q 297.43 287.16 297.33 287.16
  Q 297.19 287.16 297.08 287.09
  Q 296.78 286.91 296.99 286.62
  Q 297.81 285.50 297.22 284.38
  Q 296.99 283.93 297.10 283.43
  L 297.46 281.88
  Q 297.58 281.40 297.12 281.21
  L 292.07 279.16
  A 1.19 1.15 -4.6 0 1 291.52 278.71
  Q 290.48 277.20 288.84 276.51
  Q 288.38 276.31 288.02 275.96
  L 286.76 274.73
  A 0.53 0.53 0.0 0 0 286.20 274.61
  Q 285.82 274.74 285.77 274.39
  Q 285.71 273.97 285.37 273.73
  Q 282.38 271.55 278.59 270.76
  Q 277.71 270.58 277.04 270.14
  Q 276.02 269.46 274.65 269.15
  A 0.11 0.11 0.0 0 1 274.59 268.98
  Q 274.69 268.83 274.61 268.66
  Q 274.41 268.28 274.22 268.67
  Q 274.14 268.84 273.98 268.94
  Q 273.75 269.09 273.49 268.99
  Q 272.01 268.44 271.10 267.30
  Q 270.83 266.95 270.40 267.03
  Q 269.89 267.11 269.85 266.61
  Q 269.79 265.89 269.12 265.65
  Q 267.96 265.24 267.09 264.27
  Q 266.56 263.67 265.78 263.86
  Q 264.32 264.22 263.22 263.32
  Q 262.96 263.11 262.92 263.43
  Q 262.89 263.61 262.69 263.64
  Q 262.23 263.71 262.37 263.26
  Q 262.53 262.71 261.81 262.31
  A 1.06 0.94 -21.9 0 0 261.53 262.21
  Q 260.66 262.04 260.32 261.35
  Q 260.10 260.89 259.61 261.00
  Q 257.29 261.51 255.89 260.89
  Q 262.38 259.15 266.73 257.46
  C 278.52 252.87 287.26 242.43 287.82 229.52
  Q 287.91 227.35 286.49 225.56
  Q 278.20 215.11 265.01 212.59
  Q 258.70 211.38 254.35 211.80
  C 239.20 213.26 226.27 218.89 217.37 231.50
  Q 217.44 231.08 217.07 230.85
  Q 216.85 230.72 217.09 230.65
  Q 217.24 230.60 217.27 230.38
  Q 217.29 230.17 217.15 230.01
  Q 215.23 227.76 212.16 228.29
  Q 211.73 228.37 211.83 227.95
  Q 212.06 227.02 211.38 226.33
  Q 210.22 225.14 208.77 224.66
  Q 208.54 224.58 208.42 224.37
  Q 207.03 221.95 204.36 221.77
  Q 203.26 221.69 203.36 220.63
  Q 203.40 220.16 203.08 219.82
  Q 199.72 216.24 195.80 214.40
  Q 194.30 213.70 193.10 212.60
  Q 192.73 212.25 192.23 212.10
  Q 190.23 211.48 188.55 210.97
  C 187.51 210.66 186.62 209.76 185.80 209.02
  Q 185.44 208.69 184.98 208.53
  L 181.64 207.39
  Q 181.15 207.22 180.64 207.20
  Q 178.88 207.11 177.77 205.31
  Q 177.08 204.21 175.98 203.40
  Q 175.47 203.03 175.03 203.47
  Q 174.71 203.78 174.30 203.55
  Q 173.83 203.30 173.33 203.46
  Q 172.03 203.88 170.60 203.43
  Q 169.86 203.20 170.56 202.88
  Q 173.87 201.36 177.34 199.87
  Q 180.50 198.51 183.72 196.25
  Q 188.44 192.93 192.22 189.54
  C 194.62 187.38 196.69 185.18 198.59 182.76
  Q 199.85 181.17 201.10 179.62
  Q 203.53 176.61 205.93 172.14
  Q 207.95 168.38 209.41 164.00
  Q 212.93 153.51 214.21 144.51
  Q 214.66 141.29 213.93 137.28
  Q 214.87 129.28 213.85 121.41
  C 213.46 118.43 213.65 115.49 213.01 112.64
  C 212.58 110.69 212.68 108.76 212.61 106.78
  A 0.36 0.35 13.4 0 1 213.14 106.46
  L 220.95 110.87
  Z"
/>
<path fill="#fe4d6a" d="
  M 220.95 110.87
  Q 241.78 121.61 258.69 137.93
  Q 240.95 122.75 220.95 110.87
  Z"
/>
<path fill="#fe4d6a" d="
  M 213.93 137.28
  Q 214.66 141.29 214.21 144.51
  Q 212.93 153.51 209.41 164.00
  Q 207.95 168.38 205.93 172.14
  Q 203.53 176.61 201.10 179.62
  Q 199.85 181.17 198.59 182.76
  C 196.69 185.18 194.62 187.38 192.22 189.54
  Q 188.44 192.93 183.72 196.25
  Q 180.50 198.51 177.34 199.87
  Q 173.87 201.36 170.56 202.88
  Q 169.86 203.20 170.60 203.43
  Q 172.03 203.88 173.33 203.46
  Q 173.83 203.30 174.30 203.55
  Q 174.71 203.78 175.03 203.47
  Q 175.47 203.03 175.98 203.40
  Q 177.08 204.21 177.77 205.31
  Q 178.88 207.11 180.64 207.20
  Q 181.15 207.22 181.64 207.39
  L 184.98 208.53
  Q 185.44 208.69 185.80 209.02
  C 186.62 209.76 187.51 210.66 188.55 210.97
  Q 190.23 211.48 192.23 212.10
  Q 192.73 212.25 193.10 212.60
  Q 194.30 213.70 195.80 214.40
  Q 199.72 216.24 203.08 219.82
  Q 203.40 220.16 203.36 220.63
  Q 203.26 221.69 204.36 221.77
  Q 207.03 221.95 208.42 224.37
  Q 208.54 224.58 208.77 224.66
  Q 210.22 225.14 211.38 226.33
  Q 212.06 227.02 211.83 227.95
  Q 211.73 228.37 212.16 228.29
  Q 215.23 227.76 217.15 230.01
  Q 217.29 230.17 217.27 230.38
  Q 217.24 230.60 217.09 230.65
  Q 216.85 230.72 217.07 230.85
  Q 217.44 231.08 217.37 231.50
  L 212.95 240.14
  A 1.90 1.87 -40.6 0 0 212.83 241.56
  Q 215.61 250.61 223.99 256.57
  C 227.25 258.89 230.82 260.40 233.71 263.30
  Q 236.68 266.27 238.45 270.64
  C 239.72 273.81 243.15 274.93 245.30 271.86
  Q 246.24 270.50 246.79 268.88
  Q 247.93 265.48 251.43 263.41
  Q 253.75 262.03 255.89 260.89
  Q 257.29 261.51 259.61 261.00
  Q 260.10 260.89 260.32 261.35
  Q 260.66 262.04 261.53 262.21
  A 1.06 0.94 -21.9 0 1 261.81 262.31
  Q 262.53 262.71 262.37 263.26
  Q 262.23 263.71 262.69 263.64
  Q 262.89 263.61 262.92 263.43
  Q 262.96 263.11 263.22 263.32
  Q 264.32 264.22 265.78 263.86
  Q 266.56 263.67 267.09 264.27
  Q 267.96 265.24 269.12 265.65
  Q 269.79 265.89 269.85 266.61
  Q 269.89 267.11 270.40 267.03
  Q 270.83 266.95 271.10 267.30
  Q 272.01 268.44 273.49 268.99
  Q 273.75 269.09 273.98 268.94
  Q 274.14 268.84 274.22 268.67
  Q 274.41 268.28 274.61 268.66
  Q 274.69 268.83 274.59 268.98
  A 0.11 0.11 0.0 0 0 274.65 269.15
  Q 276.02 269.46 277.04 270.14
  Q 277.71 270.58 278.59 270.76
  Q 282.38 271.55 285.37 273.73
  Q 285.71 273.97 285.77 274.39
  Q 285.82 274.74 286.20 274.61
  A 0.53 0.53 0.0 0 1 286.76 274.73
  L 288.02 275.96
  Q 288.38 276.31 288.84 276.51
  Q 290.48 277.20 291.52 278.71
  A 1.19 1.15 -4.6 0 0 292.07 279.16
  L 297.12 281.21
  Q 297.58 281.40 297.46 281.88
  L 297.10 283.43
  Q 296.99 283.93 297.22 284.38
  Q 297.81 285.50 296.99 286.62
  Q 296.78 286.91 297.08 287.09
  Q 297.19 287.16 297.33 287.16
  Q 297.43 287.16 297.47 287.07
  Q 305.38 269.41 306.81 249.30
  Q 307.04 246.07 306.75 240.35
  Q 306.53 236.07 306.61 231.51
  C 306.62 230.52 305.88 229.56 305.74 228.46
  Q 304.68 219.66 302.47 210.27
  C 301.64 206.73 300.03 202.55 299.18 199.92
  Q 294.86 186.63 287.77 174.52
  C 286.89 173.01 285.18 170.87 284.09 168.90
  Q 283.30 167.47 282.72 166.59
  Q 279.00 160.93 276.46 157.91
  Q 273.24 154.09 272.18 152.92
  Q 268.86 149.26 266.21 145.14
  Q 294.12 173.39 303.79 211.41
  Q 304.75 215.18 305.46 219.58
  Q 306.17 223.94 306.87 228.08
  Q 307.47 231.56 307.40 234.95
  Q 307.32 238.70 308.06 242.47
  C 308.86 246.61 307.35 250.07 307.36 254.13
  Q 307.38 257.73 306.89 259.88
  Q 306.07 263.50 305.42 266.92
  C 303.98 274.61 301.03 282.69 297.65 289.19
  Q 296.19 292.01 294.80 294.76
  C 292.82 298.72 290.02 302.11 287.56 305.74
  Q 285.75 308.41 283.16 310.93
  C 280.87 313.15 279.49 315.70 276.90 317.62
  Q 274.54 319.38 272.33 321.54
  C 269.20 324.62 265.27 327.03 261.62 329.51
  C 259.68 330.83 257.43 331.62 255.67 333.04
  Q 254.66 333.85 253.36 334.39
  Q 250.04 335.76 246.80 337.31
  Q 243.58 338.84 239.92 339.94
  Q 234.30 341.64 227.53 343.28
  Q 225.35 343.81 223.40 343.97
  Q 221.97 344.09 220.61 344.44
  Q 219.22 344.80 217.85 344.90
  Q 213.73 345.20 209.90 345.55
  Q 203.37 346.14 196.32 345.09
  C 194.24 344.78 192.15 345.12 190.01 344.76
  Q 184.47 343.81 179.44 342.78
  Q 169.38 340.71 161.54 337.05
  Q 160.78 336.69 159.98 336.48
  Q 159.26 336.30 158.60 335.97
  Q 147.27 330.38 138.68 323.56
  C 136.85 322.10 134.61 320.34 133.21 318.42
  C 132.41 317.32 131.14 316.81 130.18 315.75
  Q 111.04 294.68 105.78 266.76
  Q 104.14 258.09 103.86 249.31
  Q 103.98 249.71 104.35 250.15
  Q 104.66 250.52 104.64 251.01
  Q 104.42 255.90 104.86 257.50
  Q 106.26 262.62 106.60 267.72
  Q 107.93 272.43 109.04 276.99
  Q 110.12 281.42 115.46 292.81
  Q 116.23 294.45 117.13 295.77
  Q 118.09 297.16 118.73 298.51
  Q 119.33 299.75 120.08 300.92
  L 123.53 306.29
  Q 123.84 306.77 124.32 307.10
  Q 125.83 308.12 125.64 309.83
  Q 125.59 310.34 126.10 310.38
  Q 127.06 310.44 127.40 311.33
  Q 128.13 313.22 129.95 314.24
  A 1.32 1.30 -88.0 0 1 130.51 314.85
  Q 130.81 315.49 131.39 315.84
  Q 132.99 316.81 134.16 318.12
  Q 135.37 319.48 136.57 320.65
  Q 138.10 322.13 139.69 323.60
  A 1.94 1.91 74.6 0 0 140.45 324.04
  Q 141.36 324.32 142.02 324.95
  Q 143.08 325.96 144.27 326.66
  Q 148.49 329.15 152.65 331.75
  Q 155.68 333.65 158.78 334.96
  Q 162.33 336.47 165.59 337.87
  Q 167.45 338.67 169.43 339.20
  Q 171.46 339.74 173.27 340.82
  Q 173.73 341.09 174.23 340.90
  Q 174.47 340.80 174.75 340.86
  Q 177.52 341.43 180.13 341.90
  Q 182.08 342.24 183.88 342.88
  Q 185.74 343.54 187.56 343.37
  Q 187.91 343.33 188.19 343.54
  Q 188.37 343.68 188.48 343.88
  Q 188.72 344.32 189.22 344.33
  Q 192.74 344.40 196.31 344.36
  C 197.59 344.34 198.64 344.99 199.99 344.97
  Q 204.34 344.90 208.93 344.89
  C 211.78 344.89 214.37 344.11 217.17 344.16
  C 219.09 344.19 220.47 343.25 222.32 343.23
  Q 224.27 343.21 226.15 342.71
  Q 228.49 342.09 230.74 341.34
  Q 232.87 340.64 235.27 340.42
  Q 240.63 338.76 245.91 336.64
  Q 246.57 336.38 247.15 336.01
  Q 247.69 335.67 248.27 335.43
  Q 252.55 333.67 257.89 330.49
  Q 265.00 326.25 270.11 321.96
  Q 274.15 318.56 278.41 314.68
  Q 279.55 313.65 280.43 312.28
  Q 281.39 310.78 282.88 309.60
  Q 283.57 309.05 282.70 308.92
  Q 282.20 308.85 281.76 309.01
  Q 281.21 309.20 280.76 308.84
  Q 279.80 308.07 278.58 307.73
  C 276.04 307.01 273.65 305.58 271.21 304.50
  Q 269.33 303.67 267.81 302.45
  C 265.93 300.93 264.07 298.91 261.74 298.11
  Q 260.35 297.63 258.96 297.00
  Q 258.79 296.93 258.70 296.78
  Q 258.66 296.73 258.71 296.68
  Q 259.10 296.32 258.56 296.32
  Q 255.77 296.29 253.78 294.69
  Q 253.38 294.37 252.87 294.29
  L 251.25 294.06
  A 0.16 0.16 0.0 0 0 251.07 294.26
  Q 251.14 294.49 251.06 294.71
  Q 250.86 295.23 250.55 294.76
  Q 250.22 294.26 250.18 293.68
  Q 250.13 293.08 249.54 293.06
  C 248.94 293.04 248.32 292.64 248.01 292.14
  Q 247.01 290.52 244.99 289.99
  Q 244.22 289.78 244.76 289.29
  Q 244.94 289.12 244.68 288.94
  Q 244.37 288.72 244.01 288.81
  Q 243.49 288.92 243.18 288.56
  C 249.18 285.35 246.32 279.14 242.61 275.77
  A 1.47 1.46 -42.1 0 0 240.75 275.68
  Q 235.32 279.68 236.79 285.20
  Q 233.86 286.03 233.40 284.14
  Q 233.23 283.44 232.64 283.60
  Q 232.50 283.64 232.37 283.58
  Q 232.21 283.52 232.23 283.35
  Q 232.24 283.20 232.39 283.23
  A 0.05 0.04 -12.2 0 0 232.44 283.16
  Q 230.06 280.05 226.45 278.97
  A 1.52 1.47 79.1 0 1 225.68 278.43
  Q 223.90 276.10 222.20 273.78
  Q 221.71 273.12 220.95 272.96
  Q 220.44 272.85 220.09 272.46
  Q 218.60 270.86 216.34 269.89
  Q 215.97 269.73 215.72 269.43
  Q 215.60 269.28 215.62 269.08
  Q 215.66 268.55 215.16 268.74
  Q 214.19 269.10 213.70 268.16
  Q 213.54 267.86 213.22 267.91
  Q 212.96 267.95 212.75 267.83
  Q 212.32 267.59 212.14 267.12
  Q 211.65 265.79 210.32 265.84
  Q 209.78 265.85 210.09 265.41
  Q 210.22 265.23 210.03 265.11
  Q 208.57 264.22 207.96 262.70
  Q 207.75 262.17 207.22 261.96
  L 200.70 259.39
  Q 200.29 259.23 200.15 258.80
  Q 200.06 258.53 199.85 258.31
  Q 199.42 257.86 198.84 257.68
  Q 196.24 256.90 193.75 256.03
  Q 192.94 255.75 192.28 255.32
  Q 191.73 254.97 191.37 254.46
  Q 191.03 253.97 190.60 253.57
  Q 190.25 253.26 190.58 252.93
  Q 191.56 251.95 191.51 250.67
  L 198.82 241.37
  A 1.32 1.31 53.0 0 0 199.00 240.06
  Q 190.78 219.96 169.42 213.98
  Q 162.55 212.05 155.62 211.74
  Q 152.62 211.60 149.40 212.19
  C 139.53 213.97 130.68 217.70 124.85 226.50
  C 123.23 228.95 124.40 232.45 124.71 235.24
  Q 124.25 233.63 123.98 231.97
  Q 123.76 230.68 123.28 230.18
  Q 122.48 229.33 121.16 229.58
  Q 120.92 229.63 120.87 229.40
  Q 120.83 229.26 120.86 229.11
  Q 121.00 228.53 120.44 228.30
  Q 117.74 227.20 116.50 224.54
  Q 116.29 224.09 115.84 224.30
  Q 114.44 224.99 112.98 225.19
  Q 112.51 225.26 112.55 224.78
  L 112.85 221.31
  Q 112.90 220.82 112.67 220.38
  L 112.37 219.80
  A 0.71 0.70 -32.5 0 1 112.57 218.92
  Q 113.17 218.47 112.63 217.95
  Q 112.35 217.67 112.51 217.31
  Q 113.17 215.76 112.75 213.94
  A 0.06 0.06 0.0 0 0 112.64 213.92
  Q 112.52 214.12 112.37 214.06
  Q 111.90 213.84 111.85 214.36
  Q 111.82 214.70 111.86 215.00
  A 0.05 0.00 75.1 0 0 111.88 215.06
  L 111.87 214.74
  Q 111.87 214.39 111.54 214.51
  C 110.93 214.72 110.44 214.99 110.20 215.62
  Q 107.64 222.40 106.52 227.38
  Q 105.93 230.01 105.33 232.40
  Q 104.63 235.22 104.63 237.26
  Q 104.63 239.74 104.40 242.40
  Q 104.37 242.79 104.06 243.05
  Q 103.88 243.21 103.79 243.43
  Q 103.64 243.77 103.65 244.17
  Q 103.69 246.19 103.64 248.20
  Q 103.48 231.95 108.73 217.26
  Q 110.57 212.12 113.44 205.77
  Q 114.82 202.73 116.76 199.85
  Q 118.70 196.98 120.42 193.81
  Q 121.53 191.74 123.25 189.85
  Q 124.97 187.97 126.46 185.75
  Q 128.15 183.22 129.96 181.45
  Q 131.99 179.47 133.95 177.45
  Q 134.09 177.30 134.12 177.11
  Q 134.16 176.83 134.39 176.64
  Q 138.39 173.41 142.63 170.21
  Q 143.80 169.32 144.93 168.34
  Q 147.26 166.31 150.59 165.14
  A 1.60 1.60 0.0 0 1 152.72 166.67
  C 152.69 169.16 152.33 171.98 153.26 174.36
  Q 153.70 175.49 153.64 176.74
  C 153.56 178.46 154.26 180.25 154.77 181.88
  Q 155.06 182.81 155.44 184.64
  Q 156.42 189.31 159.25 195.41
  Q 161.64 200.57 164.32 203.45
  Q 164.67 203.82 165.16 203.72
  Q 165.85 203.58 166.15 202.95
  Q 166.34 202.54 166.79 202.58
  Q 167.02 202.61 167.23 202.73
  Q 167.50 202.89 167.79 202.77
  L 173.45 200.54
  Q 173.96 200.34 174.25 199.89
  Q 174.56 199.40 175.11 199.31
  Q 175.71 199.22 176.21 198.97
  Q 196.16 189.15 205.84 169.53
  C 207.88 165.41 209.47 160.32 211.15 155.60
  Q 211.66 154.18 211.62 152.73
  C 211.57 151.32 212.45 150.42 212.51 148.95
  C 212.61 146.58 213.50 144.82 213.44 142.29
  Q 213.38 139.69 213.93 137.28
  Z
  M 231.1750 272.0379
  A 4.06 3.37 71.4 0 0 233.0740 267.1151
  A 4.06 3.37 71.4 0 0 228.5850 264.3421
  A 4.06 3.37 71.4 0 0 226.6860 269.2649
  A 4.06 3.37 71.4 0 0 231.1750 272.0379
  Z"
/>
<path fill="#242136" d="
  M 255.89 260.89
  Q 253.75 262.03 251.43 263.41
  Q 247.93 265.48 246.79 268.88
  Q 246.24 270.50 245.30 271.86
  C 243.15 274.93 239.72 273.81 238.45 270.64
  Q 236.68 266.27 233.71 263.30
  C 230.82 260.40 227.25 258.89 223.99 256.57
  Q 215.61 250.61 212.83 241.56
  A 1.90 1.87 -40.6 0 1 212.95 240.14
  L 217.37 231.50
  C 226.27 218.89 239.20 213.26 254.35 211.80
  Q 258.70 211.38 265.01 212.59
  Q 278.20 215.11 286.49 225.56
  Q 287.91 227.35 287.82 229.52
  C 287.26 242.43 278.52 252.87 266.73 257.46
  Q 262.38 259.15 255.89 260.89
  Z
  M 241.43 215.97
  Q 236.13 217.40 231.31 220.42
  Q 230.89 220.69 230.67 221.14
  Q 226.00 230.65 230.22 239.51
  Q 236.01 251.68 250.48 251.36
  C 260.47 250.61 268.60 243.20 269.71 233.19
  Q 270.98 221.81 261.78 214.13
  A 1.82 1.81 67.3 0 0 260.77 213.71
  Q 250.92 212.94 241.43 215.97
  Z
  M 242.55 252.06
  C 230.35 248.16 224.31 236.22 227.56 223.85
  Q 227.77 223.06 227.13 223.57
  Q 220.01 229.20 215.48 238.01
  Q 215.20 238.55 215.80 238.59
  Q 221.28 239.00 224.96 244.17
  Q 226.97 247.00 229.05 250.03
  C 232.42 254.91 238.38 255.48 243.89 254.40
  C 248.93 253.42 253.46 253.96 256.85 258.14
  Q 257.26 258.65 257.90 258.50
  C 273.05 254.96 284.89 245.96 286.27 229.66
  C 286.35 228.74 286.08 227.86 285.52 227.14
  Q 277.86 217.12 265.44 214.56
  Q 264.83 214.43 265.25 214.89
  Q 274.53 225.14 270.22 238.20
  C 266.54 249.35 253.63 255.59 242.55 252.06
  Z
  M 255.17 258.76
  C 252.90 256.34 249.68 255.22 246.42 255.85
  C 238.93 257.32 231.65 257.35 226.98 250.15
  C 224.60 246.48 220.51 239.55 215.20 240.55
  A 0.93 0.92 -15.5 0 0 214.50 241.77
  C 217.29 249.41 222.42 254.41 229.40 258.11
  Q 236.45 261.85 239.96 270.25
  C 241.04 272.84 243.74 272.35 244.58 270.05
  C 246.73 264.19 249.66 262.33 255.02 259.63
  Q 255.68 259.30 255.17 258.76
  Z"
/>
<path fill="#242136" d="
  M 191.51 250.67
  Q 185.58 258.08 177.71 262.74
  Q 175.37 264.12 174.52 265.05
  C 172.21 267.58 171.69 272.77 170.94 276.08
  A 2.14 2.14 0.0 0 1 168.89 277.75
  C 165.18 277.81 165.82 272.74 165.99 270.31
  C 166.20 267.16 164.11 265.60 161.35 265.07
  Q 153.44 263.54 146.51 258.93
  Q 143.59 256.99 139.70 254.72
  Q 128.49 248.18 124.71 235.24
  C 124.40 232.45 123.23 228.95 124.85 226.50
  C 130.68 217.70 139.53 213.97 149.40 212.19
  Q 152.62 211.60 155.62 211.74
  Q 162.55 212.05 169.42 213.98
  Q 190.78 219.96 199.00 240.06
  A 1.32 1.31 53.0 0 1 198.82 241.37
  L 191.51 250.67
  Z
  M 152.01 248.32
  C 168.77 258.08 188.54 242.52 182.38 223.96
  Q 181.49 220.98 180.22 220.26
  Q 166.82 212.71 151.08 213.73
  A 1.52 1.49 -66.8 0 0 150.18 214.10
  Q 139.52 223.34 142.85 236.32
  Q 144.77 243.82 152.01 248.32
  Z
  M 159.51 254.70
  C 162.39 256.23 165.45 257.96 168.60 258.38
  C 171.65 258.79 174.86 257.38 176.69 254.76
  C 181.01 248.54 188.22 239.83 196.33 239.46
  Q 197.05 239.43 196.74 238.77
  Q 192.63 229.87 184.62 223.48
  Q 184.14 223.10 184.31 223.69
  Q 187.07 233.05 182.38 241.57
  C 176.98 251.37 164.44 255.91 154.03 251.20
  C 140.97 245.30 136.30 230.03 144.23 217.86
  C 144.87 216.87 145.78 216.07 146.51 215.16
  Q 147.19 214.32 146.14 214.58
  Q 132.67 217.89 125.85 228.00
  Q 125.52 228.50 125.56 229.10
  Q 126.89 246.65 143.16 254.66
  A 1.51 1.47 -43.9 0 0 144.46 254.67
  C 149.23 252.45 154.84 252.23 159.51 254.70
  Z
  M 169.50 275.31
  C 170.90 269.06 171.14 264.05 177.61 260.90
  Q 180.14 259.67 182.19 257.86
  Q 189.90 251.04 196.74 241.75
  A 0.32 0.32 0.0 0 0 196.48 241.24
  C 189.32 241.28 182.08 250.07 178.37 255.42
  C 173.49 262.44 166.45 260.76 160.02 256.91
  C 155.66 254.30 150.88 254.11 146.05 255.93
  A 0.45 0.44 -37.8 0 0 145.95 256.71
  Q 153.57 262.05 162.41 263.76
  C 165.71 264.40 167.81 267.20 167.59 270.55
  Q 167.43 273.02 167.66 275.39
  Q 167.74 276.25 168.58 276.14
  A 1.08 1.07 -86.9 0 0 169.50 275.31
  Z"
/>
<path fill="#f4b988" d="
  M 182.38 223.96
  Q 182.04 224.19 182.11 224.72
  Q 182.12 224.88 181.97 224.88
  Q 181.84 224.89 181.72 224.94
  A 0.24 0.23 -18.5 0 1 181.41 224.79
  Q 180.43 221.62 177.19 222.34
  Q 176.65 222.46 176.62 223.00
  Q 176.59 223.47 176.01 223.33
  Q 175.17 223.14 175.53 223.92
  L 176.28 225.55
  A 1.41 1.31 -61.2 0 1 176.38 225.95
  Q 176.58 229.23 175.89 232.33
  Q 175.78 232.82 175.28 232.84
  Q 174.79 232.85 174.60 232.49
  Q 175.35 226.12 171.13 222.12
  Q 165.11 216.42 157.15 220.25
  Q 153.42 219.77 150.23 221.26
  C 146.08 223.19 144.41 227.74 147.60 231.43
  Q 149.24 233.31 152.10 233.14
  Q 151.45 238.39 159.16 241.84
  Q 159.74 242.52 158.13 242.80
  Q 157.66 242.88 157.24 242.66
  L 154.99 241.48
  Q 154.50 241.22 154.10 241.60
  Q 153.52 242.17 152.72 242.09
  Q 152.15 242.04 152.07 242.60
  Q 151.95 243.44 151.15 243.54
  A 1.29 1.28 -14.1 0 0 150.10 245.29
  Q 150.31 245.83 150.83 246.00
  Q 151.19 246.12 151.48 246.35
  L 153.13 247.69
  Q 153.61 248.09 153.03 248.32
  Q 152.66 248.47 152.01 248.32
  Q 144.77 243.82 142.85 236.32
  Q 139.52 223.34 150.18 214.10
  A 1.52 1.49 -66.8 0 1 151.08 213.73
  Q 166.82 212.71 180.22 220.26
  Q 181.49 220.98 182.38 223.96
  Z"
/>
<path fill="#f4b988" d="
  M 250.48 251.36
  L 249.09 251.07
  Q 248.66 250.98 249.05 250.77
  L 251.00 249.73
  A 1.26 1.26 0.0 0 0 251.47 247.94
  Q 250.69 246.70 249.59 245.56
  Q 248.61 244.54 247.08 243.93
  Q 245.21 243.18 243.28 242.54
  Q 242.80 242.37 242.51 241.96
  L 239.37 237.49
  Q 248.25 246.56 257.61 238.68
  Q 261.53 241.74 263.43 238.22
  Q 265.44 234.49 260.84 233.33
  Q 260.57 216.12 244.46 219.63
  Q 243.92 219.75 243.99 220.22
  L 242.99 220.13
  Q 243.43 219.57 243.47 219.23
  Q 243.51 218.86 243.15 218.77
  Q 242.80 218.69 242.62 218.34
  Q 242.59 218.26 242.64 218.20
  Q 243.15 217.68 242.44 217.85
  Q 242.28 217.89 242.12 217.89
  Q 241.72 217.90 241.49 217.57
  Q 240.92 216.74 241.43 215.97
  Q 250.92 212.94 260.77 213.71
  A 1.82 1.81 67.3 0 1 261.78 214.13
  Q 270.98 221.81 269.71 233.19
  C 268.60 243.20 260.47 250.61 250.48 251.36
  Z"
/>
<path fill="#fe5a63" d="
  M 124.71 235.24
  Q 128.49 248.18 139.70 254.72
  Q 143.59 256.99 146.51 258.93
  Q 153.44 263.54 161.35 265.07
  C 164.11 265.60 166.20 267.16 165.99 270.31
  C 165.82 272.74 165.18 277.81 168.89 277.75
  A 2.14 2.14 0.0 0 0 170.94 276.08
  C 171.69 272.77 172.21 267.58 174.52 265.05
  Q 175.37 264.12 177.71 262.74
  Q 185.58 258.08 191.51 250.67
  Q 191.56 251.95 190.58 252.93
  Q 190.25 253.26 190.60 253.57
  Q 191.03 253.97 191.37 254.46
  Q 191.73 254.97 192.28 255.32
  Q 192.94 255.75 193.75 256.03
  Q 196.24 256.90 198.84 257.68
  Q 199.42 257.86 199.85 258.31
  Q 200.06 258.53 200.15 258.80
  Q 200.29 259.23 200.70 259.39
  L 207.22 261.96
  Q 207.75 262.17 207.96 262.70
  Q 208.57 264.22 210.03 265.11
  Q 210.22 265.23 210.09 265.41
  Q 209.78 265.85 210.32 265.84
  Q 211.65 265.79 212.14 267.12
  Q 212.32 267.59 212.75 267.83
  Q 212.96 267.95 213.22 267.91
  Q 213.54 267.86 213.70 268.16
  Q 214.19 269.10 215.16 268.74
  Q 215.66 268.55 215.62 269.08
  Q 215.60 269.28 215.72 269.43
  Q 215.97 269.73 216.34 269.89
  Q 218.60 270.86 220.09 272.46
  Q 220.44 272.85 220.95 272.96
  Q 221.71 273.12 222.20 273.78
  Q 223.90 276.10 225.68 278.43
  A 1.52 1.47 79.1 0 0 226.45 278.97
  Q 230.06 280.05 232.44 283.16
  A 0.05 0.04 -12.2 0 1 232.39 283.23
  Q 232.24 283.20 232.23 283.35
  Q 232.21 283.52 232.37 283.58
  Q 232.50 283.64 232.64 283.60
  Q 233.23 283.44 233.40 284.14
  Q 233.86 286.03 236.79 285.20
  Q 238.69 290.49 243.18 288.56
  Q 243.49 288.92 244.01 288.81
  Q 244.37 288.72 244.68 288.94
  Q 244.94 289.12 244.76 289.29
  Q 244.22 289.78 244.99 289.99
  Q 247.01 290.52 248.01 292.14
  C 248.32 292.64 248.94 293.04 249.54 293.06
  Q 250.13 293.08 250.18 293.68
  Q 250.22 294.26 250.55 294.76
  Q 250.86 295.23 251.06 294.71
  Q 251.14 294.49 251.07 294.26
  A 0.16 0.16 0.0 0 1 251.25 294.06
  L 252.87 294.29
  Q 253.38 294.37 253.78 294.69
  Q 255.77 296.29 258.56 296.32
  Q 259.10 296.32 258.71 296.68
  Q 258.66 296.73 258.70 296.78
  Q 258.79 296.93 258.96 297.00
  Q 260.35 297.63 261.74 298.11
  C 264.07 298.91 265.93 300.93 267.81 302.45
  Q 269.33 303.67 271.21 304.50
  C 273.65 305.58 276.04 307.01 278.58 307.73
  Q 279.80 308.07 280.76 308.84
  Q 281.21 309.20 281.76 309.01
  Q 282.20 308.85 282.70 308.92
  Q 283.57 309.05 282.88 309.60
  Q 281.39 310.78 280.43 312.28
  Q 279.55 313.65 278.41 314.68
  Q 274.15 318.56 270.11 321.96
  Q 265.00 326.25 257.89 330.49
  Q 252.55 333.67 248.27 335.43
  Q 247.69 335.67 247.15 336.01
  Q 246.57 336.38 245.91 336.64
  Q 240.63 338.76 235.27 340.42
  Q 234.16 340.09 232.97 340.37
  Q 232.68 340.43 232.54 340.17
  Q 232.46 340.02 232.31 339.96
  Q 231.48 339.63 232.29 339.24
  Q 232.51 339.14 232.68 338.97
  Q 233.08 338.56 232.67 338.17
  Q 231.11 336.72 228.97 337.11
  Q 228.47 337.20 228.10 336.85
  Q 227.69 336.47 227.11 336.66
  Q 226.72 336.79 226.61 336.39
  Q 226.38 335.51 225.35 335.50
  A 0.87 0.77 55.0 0 1 224.98 335.41
  L 219.76 332.63
  Q 219.38 332.42 219.21 332.02
  Q 219.02 331.57 218.54 331.66
  Q 217.97 331.76 217.57 331.34
  Q 216.77 330.49 215.75 329.99
  Q 210.91 327.60 206.44 324.92
  A 1.75 1.66 -27.3 0 0 205.58 324.67
  Q 204.73 324.64 203.87 324.59
  Q 203.26 324.56 203.85 324.38
  Q 204.01 324.34 204.07 324.20
  Q 204.21 323.84 203.90 323.60
  Q 200.38 320.92 196.36 319.61
  Q 195.88 319.46 195.53 319.09
  Q 194.50 317.98 193.12 317.56
  A 0.46 0.46 0.0 0 0 192.53 318.07
  Q 192.73 319.34 193.86 319.01
  Q 194.25 318.90 194.58 319.15
  Q 195.31 319.70 194.40 319.63
  Q 193.51 319.55 192.69 319.78
  Q 191.85 320.01 192.27 319.25
  Q 192.83 318.24 192.23 317.29
  A 0.88 0.87 73.6 0 0 191.49 316.88
  L 190.45 316.88
  Q 190.03 316.88 190.12 316.47
  Q 190.24 315.93 190.01 315.43
  Q 189.82 315.00 189.35 314.76
  Q 186.98 313.53 184.66 312.25
  C 183.39 311.55 182.13 311.57 181.34 310.19
  Q 181.08 309.73 180.62 309.46
  Q 178.29 308.08 175.95 306.68
  C 174.89 306.05 174.44 304.90 173.21 304.63
  Q 170.39 304.03 167.62 302.56
  A 0.93 0.92 4.4 0 1 167.18 302.05
  Q 167.01 301.54 166.52 301.39
  Q 163.36 300.48 161.33 298.62
  Q 159.35 296.81 157.02 296.27
  Q 155.21 295.84 153.50 294.96
  Q 150.09 293.21 147.48 291.44
  Q 147.11 291.19 146.85 290.83
  Q 146.56 290.45 146.14 290.24
  L 142.02 288.22
  Q 141.60 288.02 141.38 287.60
  Q 140.93 286.70 139.89 286.62
  C 137.86 286.46 135.51 284.82 133.97 283.56
  Q 133.50 283.18 133.39 282.58
  L 132.91 279.96
  Q 132.82 279.44 132.33 279.22
  Q 131.25 278.75 130.09 278.89
  Q 129.62 278.95 129.27 278.62
  Q 128.40 277.78 127.22 277.32
  Q 126.58 277.07 126.61 277.75
  Q 126.62 278.02 126.66 278.28
  Q 126.75 278.84 126.33 278.46
  Q 126.21 278.36 126.05 278.35
  Q 125.66 278.33 125.57 277.95
  L 125.03 275.51
  Q 124.89 274.88 124.24 274.88
  L 117.63 274.88
  A 0.59 0.58 -88.2 0 1 117.05 274.25
  L 117.29 271.04
  Q 117.38 269.88 116.22 269.92
  Q 113.51 270.01 110.84 269.05
  Q 110.60 268.97 110.46 268.75
  Q 110.33 268.54 110.11 268.42
  A 0.58 0.57 39.5 0 0 109.51 268.47
  Q 109.08 268.79 109.16 269.14
  Q 109.27 269.68 108.73 269.58
  Q 108.58 269.56 108.46 269.48
  Q 108.23 269.34 108.37 269.12
  Q 108.69 268.64 108.35 268.24
  Q 108.12 267.95 107.81 268.17
  Q 107.77 268.20 107.77 268.26
  Q 107.76 268.97 107.51 268.30
  Q 107.07 267.12 106.60 267.72
  Q 106.26 262.62 104.86 257.50
  Q 104.42 255.90 104.64 251.01
  Q 104.66 250.52 104.35 250.15
  Q 103.98 249.71 103.86 249.31
  Q 103.66 248.85 103.64 248.20
  Q 103.69 246.19 103.65 244.17
  Q 103.64 243.77 103.79 243.43
  Q 103.88 243.21 104.06 243.05
  Q 104.37 242.79 104.40 242.40
  Q 104.63 239.74 104.63 237.26
  Q 104.63 235.22 105.33 232.40
  Q 105.93 230.01 106.52 227.38
  Q 107.64 222.40 110.20 215.62
  C 110.44 214.99 110.93 214.72 111.54 214.51
  Q 111.87 214.39 111.87 214.74
  L 111.88 215.06
  A 0.05 0.00 75.1 0 1 111.86 215.00
  Q 111.82 214.70 111.85 214.36
  Q 111.90 213.84 112.37 214.06
  Q 112.52 214.12 112.64 213.92
  A 0.06 0.06 0.0 0 1 112.75 213.94
  Q 113.17 215.76 112.51 217.31
  Q 112.35 217.67 112.63 217.95
  Q 113.17 218.47 112.57 218.92
  A 0.71 0.70 -32.5 0 0 112.37 219.80
  L 112.67 220.38
  Q 112.90 220.82 112.85 221.31
  L 112.55 224.78
  Q 112.51 225.26 112.98 225.19
  Q 114.44 224.99 115.84 224.30
  Q 116.29 224.09 116.50 224.54
  Q 117.74 227.20 120.44 228.30
  Q 121.00 228.53 120.86 229.11
  Q 120.83 229.26 120.87 229.40
  Q 120.92 229.63 121.16 229.58
  Q 122.48 229.33 123.28 230.18
  Q 123.76 230.68 123.98 231.97
  Q 124.25 233.63 124.71 235.24
  Z
  M 163.19 273.54
  A 3.13 3.13 0.0 0 0 160.06 270.41
  A 3.13 3.13 0.0 0 0 156.93 273.54
  A 3.13 3.13 0.0 0 0 160.06 276.67
  A 3.13 3.13 0.0 0 0 163.19 273.54
  Z
  M 174.04 287.00
  C 175.39 283.14 169.56 276.99 166.07 280.88
  C 163.18 284.11 163.40 291.71 169.84 290.45
  Q 173.05 289.82 174.04 287.00
  Z"
/>
<path fill="#ffffff" d="
  M 168.60 258.38
  C 165.45 257.96 162.39 256.23 159.51 254.70
  C 154.84 252.23 149.23 252.45 144.46 254.67
  A 1.51 1.47 -43.9 0 1 143.16 254.66
  Q 126.89 246.65 125.56 229.10
  Q 125.52 228.50 125.85 228.00
  Q 132.67 217.89 146.14 214.58
  Q 147.19 214.32 146.51 215.16
  C 145.78 216.07 144.87 216.87 144.23 217.86
  C 136.30 230.03 140.97 245.30 154.03 251.20
  C 164.44 255.91 176.98 251.37 182.38 241.57
  Q 187.07 233.05 184.31 223.69
  Q 184.14 223.10 184.62 223.48
  Q 192.63 229.87 196.74 238.77
  Q 197.05 239.43 196.33 239.46
  C 188.22 239.83 181.01 248.54 176.69 254.76
  C 174.86 257.38 171.65 258.79 168.60 258.38
  Z"
/>
<path fill="#ffffff" d="
  M 242.55 252.06
  C 253.63 255.59 266.54 249.35 270.22 238.20
  Q 274.53 225.14 265.25 214.89
  Q 264.83 214.43 265.44 214.56
  Q 277.86 217.12 285.52 227.14
  C 286.08 227.86 286.35 228.74 286.27 229.66
  C 284.89 245.96 273.05 254.96 257.90 258.50
  Q 257.26 258.65 256.85 258.14
  C 253.46 253.96 248.93 253.42 243.89 254.40
  C 238.38 255.48 232.42 254.91 229.05 250.03
  Q 226.97 247.00 224.96 244.17
  Q 221.28 239.00 215.80 238.59
  Q 215.20 238.55 215.48 238.01
  Q 220.01 229.20 227.13 223.57
  Q 227.77 223.06 227.56 223.85
  C 224.31 236.22 230.35 248.16 242.55 252.06
  Z"
/>
<path fill="#ee9e7a" d="
  M 241.43 215.97
  Q 240.92 216.74 241.49 217.57
  Q 241.72 217.90 242.12 217.89
  Q 242.28 217.89 242.44 217.85
  Q 243.15 217.68 242.64 218.20
  Q 242.59 218.26 242.62 218.34
  Q 242.80 218.69 243.15 218.77
  Q 243.51 218.86 243.47 219.23
  Q 243.43 219.57 242.99 220.13
  Q 237.62 219.88 234.62 222.95
  Q 232.20 225.44 233.01 228.72
  Q 233.94 232.50 238.43 233.27
  Q 237.59 234.06 238.23 234.99
  Q 239.17 236.34 239.37 237.49
  L 242.51 241.96
  Q 242.80 242.37 243.28 242.54
  Q 245.21 243.18 247.08 243.93
  Q 248.61 244.54 249.59 245.56
  Q 250.69 246.70 251.47 247.94
  A 1.26 1.26 0.0 0 1 251.00 249.73
  L 249.05 250.77
  Q 248.66 250.98 249.09 251.07
  L 250.48 251.36
  Q 236.01 251.68 230.22 239.51
  Q 226.00 230.65 230.67 221.14
  Q 230.89 220.69 231.31 220.42
  Q 236.13 217.40 241.43 215.97
  Z"
/>
<path fill="#242136" d="
  M 174.60 232.49
  L 174.35 233.21
  Q 167.73 233.80 170.99 239.11
  Q 165.81 243.67 159.16 241.84
  Q 151.45 238.39 152.10 233.14
  Q 158.66 231.77 160.79 227.28
  Q 162.91 222.79 157.15 220.25
  Q 165.11 216.42 171.13 222.12
  Q 175.35 226.12 174.60 232.49
  Z"
/>
<path fill="#242136" d="
  M 260.84 233.33
  Q 257.48 233.12 256.76 236.25
  Q 256.61 236.88 257.61 238.68
  Q 248.25 246.56 239.37 237.49
  Q 239.17 236.34 238.23 234.99
  Q 237.59 234.06 238.43 233.27
  Q 245.06 232.28 247.46 227.75
  Q 249.44 224.03 246.15 221.64
  Q 245.10 220.88 243.99 220.22
  Q 243.92 219.75 244.46 219.63
  Q 260.57 216.12 260.84 233.33
  Z"
/>
<path fill="#ffffff" d="
  M 242.99 220.13
  L 243.99 220.22
  Q 245.10 220.88 246.15 221.64
  Q 249.44 224.03 247.46 227.75
  Q 245.06 232.28 238.43 233.27
  Q 233.94 232.50 233.01 228.72
  Q 232.20 225.44 234.62 222.95
  Q 237.62 219.88 242.99 220.13
  Z"
/>
<path fill="#ffffff" d="
  M 157.15 220.25
  Q 162.91 222.79 160.79 227.28
  Q 158.66 231.77 152.10 233.14
  Q 149.24 233.31 147.60 231.43
  C 144.41 227.74 146.08 223.19 150.23 221.26
  Q 153.42 219.77 157.15 220.25
  Z"
/>
<path fill="#ee9e7a" d="
  M 182.38 223.96
  C 188.54 242.52 168.77 258.08 152.01 248.32
  Q 152.66 248.47 153.03 248.32
  Q 153.61 248.09 153.13 247.69
  L 151.48 246.35
  Q 151.19 246.12 150.83 246.00
  Q 150.31 245.83 150.10 245.29
  A 1.29 1.28 -14.1 0 1 151.15 243.54
  Q 151.95 243.44 152.07 242.60
  Q 152.15 242.04 152.72 242.09
  Q 153.52 242.17 154.10 241.60
  Q 154.50 241.22 154.99 241.48
  L 157.24 242.66
  Q 157.66 242.88 158.13 242.80
  Q 159.74 242.52 159.16 241.84
  Q 165.81 243.67 170.99 239.11
  C 176.05 242.00 179.44 235.71 174.35 233.21
  L 174.60 232.49
  Q 174.79 232.85 175.28 232.84
  Q 175.78 232.82 175.89 232.33
  Q 176.58 229.23 176.38 225.95
  A 1.41 1.31 -61.2 0 0 176.28 225.55
  L 175.53 223.92
  Q 175.17 223.14 176.01 223.33
  Q 176.59 223.47 176.62 223.00
  Q 176.65 222.46 177.19 222.34
  Q 180.43 221.62 181.41 224.79
  A 0.24 0.23 -18.5 0 0 181.72 224.94
  Q 181.84 224.89 181.97 224.88
  Q 182.12 224.88 182.11 224.72
  Q 182.04 224.19 182.38 223.96
  Z"
/>
<path fill="#ffffff" d="
  M 174.35 233.21
  C 179.44 235.71 176.05 242.00 170.99 239.11
  Q 167.73 233.80 174.35 233.21
  Z"
/>
<path fill="#ffffff" d="
  M 260.84 233.33
  Q 265.44 234.49 263.43 238.22
  Q 261.53 241.74 257.61 238.68
  Q 256.61 236.88 256.76 236.25
  Q 257.48 233.12 260.84 233.33
  Z"
/>
<path fill="#ee9e7a" d="
  M 246.42 255.85
  C 249.68 255.22 252.90 256.34 255.17 258.76
  Q 255.68 259.30 255.02 259.63
  C 249.66 262.33 246.73 264.19 244.58 270.05
  C 243.74 272.35 241.04 272.84 239.96 270.25
  Q 236.45 261.85 229.40 258.11
  C 222.42 254.41 217.29 249.41 214.50 241.77
  A 0.93 0.92 -15.5 0 1 215.20 240.55
  C 220.51 239.55 224.60 246.48 226.98 250.15
  C 231.65 257.35 238.93 257.32 246.42 255.85
  Z
  M 250.2034 259.1628
  A 2.63 1.42 10.8 0 0 247.8861 257.2752
  A 2.63 1.42 10.8 0 0 245.0366 258.1772
  A 2.63 1.42 10.8 0 0 247.3539 260.0648
  A 2.63 1.42 10.8 0 0 250.2034 259.1628
  Z"
/>
<path fill="#ee9e7a" d="
  M 177.61 260.90
  C 171.14 264.05 170.90 269.06 169.50 275.31
  A 1.08 1.07 -86.9 0 1 168.58 276.14
  Q 167.74 276.25 167.66 275.39
  Q 167.43 273.02 167.59 270.55
  C 167.81 267.20 165.71 264.40 162.41 263.76
  Q 153.57 262.05 145.95 256.71
  A 0.45 0.44 -37.8 0 1 146.05 255.93
  C 150.88 254.11 155.66 254.30 160.02 256.91
  C 166.45 260.76 173.49 262.44 178.37 255.42
  C 182.08 250.07 189.32 241.28 196.48 241.24
  A 0.32 0.32 0.0 0 1 196.74 241.75
  Q 189.90 251.04 182.19 257.86
  Q 180.14 259.67 177.61 260.90
  Z
  M 156.8129 259.8203
  A 2.43 1.32 29.6 0 0 155.3520 257.4723
  A 2.43 1.32 29.6 0 0 152.5871 257.4197
  A 2.43 1.32 29.6 0 0 154.0480 259.7677
  A 2.43 1.32 29.6 0 0 156.8129 259.8203
  Z"
/>
<ellipse fill="#ffffff" cx="0.00" cy="0.00" transform="translate(154.70,258.62) rotate(29.6)" rx="2.43" ry="1.32"/>
<ellipse fill="#ffffff" cx="0.00" cy="0.00" transform="translate(247.62,258.67) rotate(10.8)" rx="2.63" ry="1.42"/>
<path fill="#242136" d="
  M 231.1750 272.0379
  A 4.06 3.37 71.4 0 1 226.6860 269.2649
  A 4.06 3.37 71.4 0 1 228.5850 264.3421
  A 4.06 3.37 71.4 0 1 233.0740 267.1151
  A 4.06 3.37 71.4 0 1 231.1750 272.0379
  Z
  M 230.7927 270.5214
  A 2.50 1.89 67.6 0 0 231.5874 267.4898
  A 2.50 1.89 67.6 0 0 228.8873 265.8986
  A 2.50 1.89 67.6 0 0 228.0926 268.9302
  A 2.50 1.89 67.6 0 0 230.7927 270.5214
  Z"
/>
<ellipse fill="#ee9e7a" cx="0.00" cy="0.00" transform="translate(229.84,268.21) rotate(67.6)" rx="2.50" ry="1.89"/>
<path fill="#ff655e" d="
  M 235.27 340.42
  Q 232.87 340.64 230.74 341.34
  Q 228.49 342.09 226.15 342.71
  Q 224.27 343.21 222.32 343.23
  C 220.47 343.25 219.09 344.19 217.17 344.16
  C 214.37 344.11 211.78 344.89 208.93 344.89
  Q 204.34 344.90 199.99 344.97
  C 198.64 344.99 197.59 344.34 196.31 344.36
  Q 192.74 344.40 189.22 344.33
  Q 188.72 344.32 188.48 343.88
  Q 188.37 343.68 188.19 343.54
  Q 187.91 343.33 187.56 343.37
  Q 185.74 343.54 183.88 342.88
  Q 182.08 342.24 180.13 341.90
  Q 177.52 341.43 174.75 340.86
  Q 174.47 340.80 174.23 340.90
  Q 173.73 341.09 173.27 340.82
  Q 171.46 339.74 169.43 339.20
  Q 167.45 338.67 165.59 337.87
  Q 162.33 336.47 158.78 334.96
  Q 155.68 333.65 152.65 331.75
  Q 148.49 329.15 144.27 326.66
  Q 143.08 325.96 142.02 324.95
  Q 141.36 324.32 140.45 324.04
  A 1.94 1.91 74.6 0 1 139.69 323.60
  Q 138.10 322.13 136.57 320.65
  Q 135.37 319.48 134.16 318.12
  Q 132.99 316.81 131.39 315.84
  Q 130.81 315.49 130.51 314.85
  A 1.32 1.30 -88.0 0 0 129.95 314.24
  Q 128.13 313.22 127.40 311.33
  Q 127.06 310.44 126.10 310.38
  Q 125.59 310.34 125.64 309.83
  Q 125.83 308.12 124.32 307.10
  Q 123.84 306.77 123.53 306.29
  L 120.08 300.92
  Q 119.33 299.75 118.73 298.51
  Q 118.09 297.16 117.13 295.77
  Q 116.23 294.45 115.46 292.81
  Q 110.12 281.42 109.04 276.99
  Q 107.93 272.43 106.60 267.72
  Q 107.07 267.12 107.51 268.30
  Q 107.76 268.97 107.77 268.26
  Q 107.77 268.20 107.81 268.17
  Q 108.12 267.95 108.35 268.24
  Q 108.69 268.64 108.37 269.12
  Q 108.23 269.34 108.46 269.48
  Q 108.58 269.56 108.73 269.58
  Q 109.27 269.68 109.16 269.14
  Q 109.08 268.79 109.51 268.47
  A 0.58 0.57 39.5 0 1 110.11 268.42
  Q 110.33 268.54 110.46 268.75
  Q 110.60 268.97 110.84 269.05
  Q 113.51 270.01 116.22 269.92
  Q 117.38 269.88 117.29 271.04
  L 117.05 274.25
  A 0.59 0.58 -88.2 0 0 117.63 274.88
  L 124.24 274.88
  Q 124.89 274.88 125.03 275.51
  L 125.57 277.95
  Q 125.66 278.33 126.05 278.35
  Q 126.21 278.36 126.33 278.46
  Q 126.75 278.84 126.66 278.28
  Q 126.62 278.02 126.61 277.75
  Q 126.58 277.07 127.22 277.32
  Q 128.40 277.78 129.27 278.62
  Q 129.62 278.95 130.09 278.89
  Q 131.25 278.75 132.33 279.22
  Q 132.82 279.44 132.91 279.96
  L 133.39 282.58
  Q 133.50 283.18 133.97 283.56
  C 135.51 284.82 137.86 286.46 139.89 286.62
  Q 140.93 286.70 141.38 287.60
  Q 141.60 288.02 142.02 288.22
  L 146.14 290.24
  Q 146.56 290.45 146.85 290.83
  Q 147.11 291.19 147.48 291.44
  Q 150.09 293.21 153.50 294.96
  Q 155.21 295.84 157.02 296.27
  Q 159.35 296.81 161.33 298.62
  Q 163.36 300.48 166.52 301.39
  Q 167.01 301.54 167.18 302.05
  A 0.93 0.92 4.4 0 0 167.62 302.56
  Q 170.39 304.03 173.21 304.63
  C 174.44 304.90 174.89 306.05 175.95 306.68
  Q 178.29 308.08 180.62 309.46
  Q 181.08 309.73 181.34 310.19
  C 182.13 311.57 183.39 311.55 184.66 312.25
  Q 186.98 313.53 189.35 314.76
  Q 189.82 315.00 190.01 315.43
  Q 190.24 315.93 190.12 316.47
  Q 190.03 316.88 190.45 316.88
  L 191.49 316.88
  A 0.88 0.87 73.6 0 1 192.23 317.29
  Q 192.83 318.24 192.27 319.25
  Q 191.85 320.01 192.69 319.78
  Q 193.51 319.55 194.40 319.63
  Q 195.31 319.70 194.58 319.15
  Q 194.25 318.90 193.86 319.01
  Q 192.73 319.34 192.53 318.07
  A 0.46 0.46 0.0 0 1 193.12 317.56
  Q 194.50 317.98 195.53 319.09
  Q 195.88 319.46 196.36 319.61
  Q 200.38 320.92 203.90 323.60
  Q 204.21 323.84 204.07 324.20
  Q 204.01 324.34 203.85 324.38
  Q 203.26 324.56 203.87 324.59
  Q 204.73 324.64 205.58 324.67
  A 1.75 1.66 -27.3 0 1 206.44 324.92
  Q 210.91 327.60 215.75 329.99
  Q 216.77 330.49 217.57 331.34
  Q 217.97 331.76 218.54 331.66
  Q 219.02 331.57 219.21 332.02
  Q 219.38 332.42 219.76 332.63
  L 224.98 335.41
  A 0.87 0.77 55.0 0 0 225.35 335.50
  Q 226.38 335.51 226.61 336.39
  Q 226.72 336.79 227.11 336.66
  Q 227.69 336.47 228.10 336.85
  Q 228.47 337.20 228.97 337.11
  Q 231.11 336.72 232.67 338.17
  Q 233.08 338.56 232.68 338.97
  Q 232.51 339.14 232.29 339.24
  Q 231.48 339.63 232.31 339.96
  Q 232.46 340.02 232.54 340.17
  Q 232.68 340.43 232.97 340.37
  Q 234.16 340.09 235.27 340.42
  Z"
/>
<path fill="#242136" d="
  M 163.19 273.54
  A 3.13 3.13 0.0 0 1 160.06 276.67
  A 3.13 3.13 0.0 0 1 156.93 273.54
  A 3.13 3.13 0.0 0 1 160.06 270.41
  A 3.13 3.13 0.0 0 1 163.19 273.54
  Z
  M 161.2284 274.7258
  A 1.70 1.47 44.7 0 0 161.0540 272.4851
  A 1.70 1.47 44.7 0 0 158.8116 272.3342
  A 1.70 1.47 44.7 0 0 158.9860 274.5749
  A 1.70 1.47 44.7 0 0 161.2284 274.7258
  Z"
/>
<ellipse fill="#ee9e7a" cx="0.00" cy="0.00" transform="translate(160.02,273.53) rotate(44.7)" rx="1.70" ry="1.47"/>
<path fill="#242136" d="
  M 243.18 288.56
  Q 238.69 290.49 236.79 285.20
  Q 235.32 279.68 240.75 275.68
  A 1.47 1.46 -42.1 0 1 242.61 275.77
  C 246.32 279.14 249.18 285.35 243.18 288.56
  Z
  M 243.27 286.76
  C 247.07 284.54 244.26 279.67 242.16 277.47
  Q 241.55 276.82 240.86 277.40
  Q 236.87 280.73 238.45 285.12
  Q 239.77 288.79 243.27 286.76
  Z"
/>
<path fill="#ee9e7a" d="
  M 242.16 277.47
  C 244.26 279.67 247.07 284.54 243.27 286.76
  Q 239.77 288.79 238.45 285.12
  Q 236.87 280.73 240.86 277.40
  Q 241.55 276.82 242.16 277.47
  Z"
/>
<path fill="#242136" d="
  M 174.04 287.00
  Q 173.05 289.82 169.84 290.45
  C 163.40 291.71 163.18 284.11 166.07 280.88
  C 169.56 276.99 175.39 283.14 174.04 287.00
  Z
  M 166.10 287.38
  A 1.91 1.90 88.7 0 0 167.86 289.07
  C 175.76 289.58 172.48 280.09 167.82 281.46
  A 1.62 1.59 4.5 0 0 166.81 282.31
  Q 165.77 284.48 166.10 287.38
  Z"
/>
<path fill="#ee9e7a" d="
  M 166.10 287.38
  Q 165.77 284.48 166.81 282.31
  A 1.62 1.59 4.5 0 1 167.82 281.46
  C 172.48 280.09 175.76 289.58 167.86 289.07
  A 1.91 1.90 88.7 0 1 166.10 287.38
  Z"
/>
</svg>
