<svg width="364" height="364" viewBox="0 0 364 364" fill="none" xmlns="http://www.w3.org/2000/svg">
<path d="M182 212.333V257.833M182 212.333C145.312 212.333 114.71 186.28 107.684 151.667M182 212.333C218.688 212.333 249.29 186.28 256.317 151.667M182 257.833C196.105 257.833 203.157 257.833 208.944 259.383C224.644 263.591 236.909 275.856 241.117 291.556C242.667 297.342 242.667 304.395 242.667 318.5H121.333C121.333 304.395 121.333 297.342 122.884 291.556C127.091 275.856 139.355 263.591 155.056 259.383C160.843 257.833 167.895 257.833 182 257.833ZM107.684 151.667H106.167H102.375C91.8041 151.667 86.5187 151.667 82.1234 150.792C64.074 147.202 49.9645 133.093 46.3742 115.043C45.5 110.648 45.5 105.363 45.5 94.7917C45.5 91.268 45.5 89.5062 45.7914 88.0411C46.9882 82.0247 51.6913 77.3215 57.7078 76.1247C59.1729 75.8333 60.9347 75.8333 64.4583 75.8333H106.167M107.684 151.667C106.689 146.766 106.167 141.694 106.167 136.5V69.3334C106.167 61.2477 106.167 57.205 107.669 54.0862C109.159 50.9905 111.657 48.4927 114.753 47.002C117.872 45.5 121.914 45.5 130 45.5H234C242.086 45.5 246.128 45.5 249.248 47.002C252.343 48.4927 254.841 50.9905 256.332 54.0862C257.833 57.205 257.833 61.2477 257.833 69.3334V136.5C257.833 141.694 257.312 146.766 256.317 151.667M256.317 151.667H257.833H261.625C272.196 151.667 277.482 151.667 281.877 150.792C299.925 147.202 314.035 133.093 317.626 115.043C318.5 110.648 318.5 105.363 318.5 94.7917C318.5 91.268 318.5 89.5062 318.209 88.0411C317.012 82.0247 312.309 77.3215 306.292 76.1247C304.827 75.8333 303.065 75.8333 299.542 75.8333H257.833" stroke="white" stroke-width="8" stroke-linecap="round" stroke-linejoin="round"/>
</svg>
